<!-- Generated by readme-aura https://github.com/collectioneur/readme-aura -->
<svg width="860" height="320" viewBox="0 0 860 320" xmlns="http://www.w3.org/2000/svg"><clipPath id="satori_cp-id"><path x="0" y="0" width="860" height="320" d="M18,0 h824 a18,18 0 0 1 18,18 v284 a18,18 0 0 1 -18,18 h-824 a18,18 0 0 1 -18,-18 v-284 a18,18 0 0 1 18,-18"/></clipPath><mask id="satori_om-id"><rect x="0" y="0" width="860" height="320" fill="#fff"/></mask><path x="0" y="0" width="860" height="320" fill="#07070d" d="M18,0 h824 a18,18 0 0 1 18,18 v284 a18,18 0 0 1 -18,18 h-824 a18,18 0 0 1 -18,-18 v-284 a18,18 0 0 1 18,-18"/><clipPath id="satori_cp-id-0" clip-path="url(#satori_cp-id)"><rect x="0" y="0" width="860" height="320"/></clipPath><mask id="satori_om-id-0"><rect x="0" y="0" width="860" height="320" fill="#fff" mask="url(#satori_om-id)"/></mask><svg x="0" y="0" width="860" height="320" preserveAspectRatio="none" clip-path="url(#satori_cp-id-0)" mask="url(#satori_om-id-0)"><defs><filter id="om-trail" x="-200%" y="-200%" width="500%" height="500%"><feGaussianBlur in="SourceGraphic" stdDeviation="3"></feGaussianBlur></filter><filter id="om-core" x="-200%" y="-200%" width="500%" height="500%"><feGaussianBlur in="SourceGraphic" stdDeviation="10"><animate attributeName="stdDeviation" values="6;16;6" dur="5s" repeatCount="indefinite"></animate></feGaussianBlur></filter><radialGradient id="om-center-grad" cx="50%" cy="50%" r="50%"><stop offset="0%" stop-color="rgba(200,170,255,0.5)"></stop><stop offset="100%" stop-color="rgba(100,60,200,0)"></stop></radialGradient></defs><ellipse cx="430" cy="160" rx="260" ry="120" fill="none" stroke="rgba(100,80,255,0.04)" stroke-width="0.5"></ellipse><ellipse cx="430" cy="160" rx="190" ry="85" fill="none" stroke="rgba(100,80,255,0.06)" stroke-width="0.5"></ellipse><ellipse cx="430" cy="160" rx="120" ry="50" fill="none" stroke="rgba(100,80,255,0.08)" stroke-width="0.5"></ellipse><circle cx="430" cy="160" r="25" fill="url(#om-center-grad)" filter="url(#om-core)"><animate attributeName="r" values="18;35;18" dur="5s" repeatCount="indefinite"></animate></circle><circle cx="430" cy="160" r="4" fill="rgba(255,255,255,0.9)"><animate attributeName="r" values="3;5;3" dur="2s" repeatCount="indefinite"></animate></circle><circle r="5" fill="rgba(100,200,255,0.95)" filter="url(#om-trail)"><animateMotion dur="5s" repeatCount="indefinite" path="M310,160 C310,108 360,80 430,80 C500,80 550,108 550,160 C550,212 500,240 430,240 C360,240 310,212 310,160 Z"></animateMotion></circle><circle r="3.5" fill="rgba(255,100,200,0.9)" filter="url(#om-trail)"><animateMotion dur="7s" repeatCount="indefinite" begin="1s" path="M240,160 C240,87 320,40 430,40 C540,40 620,87 620,160 C620,233 540,280 430,280 C320,280 240,233 240,160 Z"></animateMotion></circle><circle r="6" fill="rgba(100,255,180,0.9)" filter="url(#om-trail)"><animateMotion dur="3.8s" repeatCount="indefinite" begin="0.5s" path="M310,160 C310,118 365,95 430,95 C495,95 550,118 550,160 C550,202 495,225 430,225 C365,225 310,202 310,160 Z"></animateMotion></circle><circle r="2.5" fill="rgba(255,200,80,0.85)" filter="url(#om-trail)"><animateMotion dur="9s" repeatCount="indefinite" begin="2s" path="M170,160 C170,68 280,5 430,5 C580,5 690,68 690,160 C690,252 580,315 430,315 C280,315 170,252 170,160 Z"></animateMotion></circle><circle r="4" fill="rgba(200,100,255,0.9)" filter="url(#om-trail)"><animateMotion dur="6s" repeatCount="indefinite" begin="3s" path="M280,160 C280,102 345,65 430,65 C515,65 580,102 580,160 C580,218 515,255 430,255 C345,255 280,218 280,160 Z"></animateMotion></circle><circle cx="430" cy="160" r="3" fill="rgba(100,200,255,0.3)"><animate attributeName="r" values="40;55;40" dur="6s" repeatCount="indefinite"></animate><animate attributeName="opacity" values="0.05;0.15;0.05" dur="6s" repeatCount="indefinite"></animate></circle></svg><mask id="satori_om-id-0-0"><rect x="0" y="0" width="0" height="320" fill="#fff" mask="url(#satori_om-id)"/></mask><mask id="satori_om-id-0-0-0"><rect x="0" y="0" width="0" height="320" fill="#fff" mask="url(#satori_om-id)"/></mask><mask id="satori_om-id-0-0-0-0"><rect x="0" y="0" width="0" height="320" fill="#fff" mask="url(#satori_om-id)"/></mask><mask id="satori_om-id-0-0-1"><rect x="0" y="0" width="0" height="320" fill="#fff" mask="url(#satori_om-id)"/></mask><mask id="satori_om-id-0-0-1-0"><rect x="0" y="0" width="0" height="320" fill="#fff" mask="url(#satori_om-id)"/></mask><mask id="satori_om-id-0-0-1-0-0"><rect x="0" y="0" width="0" height="320" fill="#fff" mask="url(#satori_om-id)"/></mask><mask id="satori_om-id-0-0-2"><rect x="0" y="0" width="0" height="320" fill="#fff" mask="url(#satori_om-id)"/></mask><mask id="satori_om-id-0-0-2-0"><rect x="0" y="0" width="0" height="320" fill="#fff" mask="url(#satori_om-id)"/></mask><mask id="satori_om-id-0-0-2-1"><rect x="0" y="0" width="0" height="320" fill="#fff" mask="url(#satori_om-id)"/></mask><mask id="satori_om-id-0-1"><rect x="0" y="0" width="0" height="320" fill="#fff" mask="url(#satori_om-id)"/></mask><mask id="satori_om-id-0-2"><rect x="0" y="0" width="0" height="320" fill="#fff" mask="url(#satori_om-id)"/></mask><mask id="satori_om-id-0-3"><rect x="0" y="0" width="0" height="320" fill="#fff" mask="url(#satori_om-id)"/></mask><mask id="satori_om-id-0-4"><rect x="0" y="0" width="0" height="320" fill="#fff" mask="url(#satori_om-id)"/></mask><mask id="satori_om-id-0-4-0"><rect x="0" y="0" width="0" height="320" fill="#fff" mask="url(#satori_om-id)"/></mask><mask id="satori_om-id-0-5"><rect x="0" y="0" width="0" height="320" fill="#fff" mask="url(#satori_om-id)"/></mask><mask id="satori_om-id-0-5-0"><rect x="0" y="0" width="0" height="320" fill="#fff" mask="url(#satori_om-id)"/></mask><mask id="satori_om-id-0-6"><rect x="0" y="0" width="0" height="320" fill="#fff" mask="url(#satori_om-id)"/></mask><mask id="satori_om-id-0-6-0"><rect x="0" y="0" width="0" height="320" fill="#fff" mask="url(#satori_om-id)"/></mask><mask id="satori_om-id-0-7"><rect x="0" y="0" width="0" height="320" fill="#fff" mask="url(#satori_om-id)"/></mask><mask id="satori_om-id-0-7-0"><rect x="0" y="0" width="0" height="320" fill="#fff" mask="url(#satori_om-id)"/></mask><mask id="satori_om-id-0-8"><rect x="0" y="0" width="0" height="320" fill="#fff" mask="url(#satori_om-id)"/></mask><mask id="satori_om-id-0-8-0"><rect x="0" y="0" width="0" height="320" fill="#fff" mask="url(#satori_om-id)"/></mask><mask id="satori_om-id-0-9"><rect x="0" y="0" width="0" height="320" fill="#fff" mask="url(#satori_om-id)"/></mask><mask id="satori_om-id-0-9-0"><rect x="0" y="0" width="0" height="320" fill="#fff" mask="url(#satori_om-id)"/></mask><mask id="satori_om-id-0-10"><rect x="0" y="0" width="0" height="320" fill="#fff" mask="url(#satori_om-id)"/></mask><mask id="satori_om-id-0-10-0"><rect x="0" y="0" width="0" height="320" fill="#fff" mask="url(#satori_om-id)"/></mask><mask id="satori_om-id-0-11"><rect x="0" y="0" width="0" height="320" fill="#fff" mask="url(#satori_om-id)"/></mask><mask id="satori_om-id-0-11-0"><rect x="0" y="0" width="0" height="320" fill="#fff" mask="url(#satori_om-id)"/></mask><mask id="satori_om-id-0-11-1"><rect x="0" y="0" width="0" height="320" fill="#fff" mask="url(#satori_om-id)"/></mask><mask id="satori_om-id-1"><rect x="298" y="233" width="264" height="50" fill="#fff" mask="url(#satori_om-id)"/></mask><mask id="satori_om-id-1-0"><rect x="344" y="233" width="173" height="31" fill="#fff" mask="url(#satori_om-id)"/></mask><g mask="url(#satori_om-id)" clip-path="url(#satori_cp-id)"><path fill="white" d="M354.0 258.3L354.0 258.3Q351.5 258.3 349.5 257.1Q347.5 256.0 346.4 253.8Q345.2 251.6 345.2 248.6L345.2 248.6Q345.2 245.5 346.4 243.3Q347.5 241.1 349.5 240.0Q351.5 238.8 354.0 238.8L354.0 238.8Q356.5 238.8 358.5 240.0Q360.5 241.1 361.7 243.3Q362.8 245.5 362.8 248.6L362.8 248.6Q362.8 251.6 361.7 253.8Q360.5 256.0 358.5 257.1Q356.5 258.3 354.0 258.3ZM354.0 254.8L354.0 254.8Q355.5 254.8 356.6 254.1Q357.7 253.4 358.3 252.0Q358.9 250.6 358.9 248.6L358.9 248.6Q358.9 246.5 358.3 245.1Q357.7 243.7 356.6 243.0Q355.5 242.3 354.0 242.3L354.0 242.3Q352.6 242.3 351.5 243.0Q350.3 243.7 349.7 245.1Q349.1 246.5 349.1 248.6L349.1 248.6Q349.1 250.6 349.7 252.0Q350.3 253.4 351.5 254.1Q352.6 254.8 354.0 254.8ZM369.5 258L365.7 258L365.7 243.8L369.3 243.8L369.3 246.3L369.5 246.3Q369.9 245.0 370.8 244.3Q371.7 243.6 372.9 243.6L372.9 243.6Q373.2 243.6 373.6 243.6Q373.9 243.7 374.2 243.7L374.2 243.7L374.2 247.1Q373.9 247.1 373.4 247.0Q372.9 247.0 372.5 247.0L372.5 247.0Q371.6 247.0 370.9 247.3Q370.2 247.7 369.9 248.4Q369.5 249.0 369.5 249.9L369.5 249.9L369.5 258ZM384.2 258.2L384.2 258.2Q383.0 258.2 382.2 257.8Q381.4 257.5 380.9 256.9Q380.4 256.3 380.2 255.7L380.2 255.7L380.0 255.7L380.0 258L376.2 258L376.2 239.1L380.1 239.1L380.1 246.2L380.2 246.2Q380.4 245.6 380.9 245.0Q381.4 244.4 382.2 244.0Q383.0 243.6 384.2 243.6L384.2 243.6Q385.8 243.6 387.1 244.4Q388.4 245.3 389.2 246.9Q390.0 248.5 390.0 250.9L390.0 250.9Q390.0 253.3 389.2 254.9Q388.4 256.6 387.1 257.4Q385.8 258.2 384.2 258.2ZM383.0 255.2L383.0 255.2Q384.0 255.2 384.7 254.6Q385.4 254.1 385.7 253.1Q386.1 252.2 386.1 250.9L386.1 250.9Q386.1 249.7 385.7 248.7Q385.4 247.8 384.7 247.2Q384.0 246.7 383.0 246.7L383.0 246.7Q382.0 246.7 381.4 247.2Q380.7 247.7 380.3 248.7Q380.0 249.6 380.0 250.9L380.0 250.9Q380.0 252.2 380.3 253.2Q380.7 254.1 381.4 254.6Q382.1 255.2 383.0 255.2ZM396.4 258L392.6 258L392.6 243.8L396.4 243.8L396.4 258ZM394.5 242.0L394.5 242.0Q393.7 242.0 393.1 241.4Q392.5 240.8 392.5 240.0L392.5 240.0Q392.5 239.2 393.1 238.6Q393.7 238.0 394.5 238.0L394.5 238.0Q395.4 238.0 396.0 238.6Q396.6 239.2 396.6 240.0L396.6 240.0Q396.6 240.8 396.0 241.4Q395.4 242.0 394.5 242.0ZM404.1 243.8L406.7 243.8L406.7 246.7L404.1 246.7L404.1 253.8Q404.1 254.5 404.4 254.8Q404.7 255.2 405.4 255.2L405.4 255.2Q405.6 255.2 406.0 255.1Q406.4 255.1 406.6 255.0L406.6 255.0L407.1 257.9Q406.5 258.1 405.9 258.1Q405.2 258.2 404.7 258.2L404.7 258.2Q402.5 258.2 401.4 257.2Q400.3 256.1 400.3 254.2L400.3 254.2L400.3 246.7L398.3 246.7L398.3 243.8L400.3 243.8L400.3 240.4L404.1 240.4L404.1 243.8ZM413.2 258.3L413.2 258.3Q411.8 258.3 410.7 257.8Q409.7 257.3 409.1 256.4Q408.4 255.4 408.4 254.0L408.4 254.0Q408.4 252.8 408.9 252.0Q409.3 251.2 410.1 250.8Q410.8 250.3 411.8 250.0Q412.7 249.8 413.8 249.7L413.8 249.7Q415.0 249.5 415.8 249.4Q416.5 249.3 416.9 249.1Q417.2 248.9 417.2 248.4L417.2 248.4L417.2 248.3Q417.2 247.7 417.0 247.3Q416.7 246.9 416.2 246.7Q415.7 246.4 415.0 246.4L415.0 246.4Q414.3 246.4 413.7 246.7Q413.2 246.9 412.8 247.3Q412.5 247.6 412.3 248.1L412.3 248.1L408.8 247.5Q409.2 246.3 410.1 245.4Q410.9 244.5 412.2 244.1Q413.4 243.6 415.0 243.6L415.0 243.6Q416.2 243.6 417.3 243.9Q418.3 244.2 419.2 244.7Q420.0 245.3 420.5 246.2Q421.0 247.2 421.0 248.4L421.0 248.4L421.0 258L417.4 258L417.4 256.0L417.3 256.0Q417.0 256.7 416.4 257.2Q415.8 257.7 415.0 258.0Q414.2 258.3 413.2 258.3ZM414.2 255.6L414.2 255.6Q415.1 255.6 415.8 255.2Q416.5 254.9 416.9 254.3Q417.3 253.7 417.3 252.9L417.3 252.9L417.3 251.4Q417.1 251.5 416.8 251.6Q416.4 251.7 416.0 251.8Q415.6 251.9 415.2 251.9Q414.8 252.0 414.4 252.0L414.4 252.0Q413.7 252.1 413.2 252.4Q412.7 252.6 412.4 253.0Q412.1 253.3 412.1 253.9L412.1 253.9Q412.1 254.5 412.4 254.8Q412.7 255.2 413.1 255.4Q413.6 255.6 414.2 255.6ZM424.3 239.1L428.1 239.1L428.1 258L424.3 258L424.3 239.1Z M444.2 258L444.2 258L437.6 258L437.6 239.1L444.3 239.1Q447.1 239.1 449.2 240.2Q451.3 241.4 452.4 243.5Q453.5 245.6 453.5 248.5L453.5 248.5Q453.5 251.5 452.4 253.6Q451.3 255.7 449.2 256.9Q447.1 258 444.2 258ZM441.5 242.4L441.5 254.7L444.1 254.7Q445.9 254.7 447.1 254.0Q448.4 253.4 449.0 252.0Q449.6 250.6 449.6 248.5L449.6 248.5Q449.6 246.4 449.0 245.1Q448.3 243.7 447.1 243.1Q445.9 242.4 444.1 242.4L444.1 242.4L441.5 242.4ZM460.2 258.3L460.2 258.3Q458.9 258.3 457.8 257.8Q456.7 257.3 456.1 256.4Q455.5 255.4 455.5 254.0L455.5 254.0Q455.5 252.8 456.0 252.0Q456.4 251.2 457.1 250.8Q457.9 250.3 458.9 250.0Q459.8 249.8 460.9 249.7L460.9 249.7Q462.1 249.5 462.9 249.4Q463.6 249.3 464.0 249.1Q464.3 248.9 464.3 248.4L464.3 248.4L464.3 248.3Q464.3 247.7 464.1 247.3Q463.8 246.9 463.3 246.7Q462.8 246.4 462.1 246.4L462.1 246.4Q461.4 246.4 460.8 246.7Q460.3 246.9 459.9 247.3Q459.6 247.6 459.4 248.1L459.4 248.1L455.9 247.5Q456.3 246.3 457.1 245.4Q458.0 244.5 459.3 244.1Q460.5 243.6 462.1 243.6L462.1 243.6Q463.2 243.6 464.3 243.9Q465.4 244.2 466.3 244.7Q467.1 245.3 467.6 246.2Q468.1 247.2 468.1 248.4L468.1 248.4L468.1 258L464.5 258L464.5 256.0L464.4 256.0Q464.0 256.7 463.5 257.2Q462.9 257.7 462.1 258.0Q461.3 258.3 460.2 258.3ZM461.3 255.6L461.3 255.6Q462.2 255.6 462.9 255.2Q463.6 254.9 464.0 254.3Q464.3 253.7 464.3 252.9L464.3 252.9L464.3 251.4Q464.2 251.5 463.8 251.6Q463.5 251.7 463.1 251.8Q462.7 251.9 462.2 251.9Q461.8 252.0 461.5 252.0L461.5 252.0Q460.8 252.1 460.3 252.4Q459.8 252.6 459.5 253.0Q459.2 253.3 459.2 253.9L459.2 253.9Q459.2 254.5 459.5 254.8Q459.7 255.2 460.2 255.4Q460.7 255.6 461.3 255.6ZM475.2 249.8L475.2 249.8L475.2 258L471.4 258L471.4 243.8L475.0 243.8L475.0 246.7Q475.6 245.4 476.5 244.6L476.5 244.6Q477.6 243.6 479.4 243.6L479.4 243.6Q480.9 243.6 482.0 244.3Q483.1 244.9 483.7 246.1Q484.3 247.3 484.3 249.0L484.3 249.0L484.3 258L480.5 258L480.5 249.6Q480.5 248.3 479.8 247.6Q479.1 246.8 477.9 246.8L477.9 246.8Q477.1 246.8 476.5 247.2Q475.9 247.5 475.5 248.2Q475.2 248.8 475.2 249.8ZM493.9 258.3L493.9 258.3Q491.8 258.3 490.2 257.4Q488.7 256.4 487.8 254.8Q487.0 253.2 487.0 251.0L487.0 251.0Q487.0 248.8 487.8 247.1Q488.7 245.5 490.2 244.5Q491.8 243.6 493.9 243.6L493.9 243.6Q495.2 243.6 496.2 244.0Q497.3 244.3 498.1 244.9Q498.9 245.5 499.5 246.4Q500.0 247.3 500.2 248.4L500.2 248.4L496.7 249.0Q496.6 248.5 496.3 248.0Q496.1 247.6 495.7 247.3Q495.4 247.0 494.9 246.8Q494.5 246.6 493.9 246.6L493.9 246.6Q492.9 246.6 492.2 247.2Q491.5 247.7 491.2 248.7Q490.8 249.7 490.8 251.0L490.8 251.0Q490.8 252.2 491.2 253.2Q491.5 254.2 492.2 254.7Q492.9 255.3 493.9 255.3L493.9 255.3Q494.5 255.3 494.9 255.1Q495.4 254.9 495.8 254.6Q496.1 254.3 496.4 253.8Q496.6 253.4 496.7 252.8L496.7 252.8L500.2 253.5Q500.0 254.6 499.5 255.5Q499.0 256.3 498.1 257.0Q497.3 257.6 496.2 257.9Q495.2 258.3 493.9 258.3ZM509.3 258.3L509.3 258.3Q507.1 258.3 505.5 257.4Q503.9 256.5 503.1 254.9Q502.3 253.2 502.3 251.0L502.3 251.0Q502.3 248.8 503.1 247.1Q503.9 245.5 505.5 244.6Q507.0 243.6 509.1 243.6L509.1 243.6Q510.5 243.6 511.7 244.1Q512.9 244.5 513.8 245.4Q514.7 246.3 515.2 247.7Q515.7 249.0 515.7 250.8L515.7 250.8L515.7 251.9L506.0 251.9Q506.1 253.0 506.4 253.7L506.4 253.7Q506.9 254.6 507.6 255.0Q508.3 255.4 509.3 255.4L509.3 255.4Q510.0 255.4 510.5 255.2Q511.1 255.0 511.5 254.7Q511.9 254.3 512.1 253.7L512.1 253.7L515.5 254.4Q515.2 255.5 514.3 256.4Q513.5 257.3 512.2 257.8Q510.9 258.3 509.3 258.3ZM506.1 249.5L506.1 249.5L512.1 249.5Q512.0 248.8 511.8 248.2L511.8 248.2Q511.4 247.4 510.8 246.9Q510.1 246.5 509.1 246.5L509.1 246.5Q508.1 246.5 507.4 247.0Q506.7 247.4 506.4 248.2L506.4 248.2Q506.1 248.8 506.1 249.5Z "/></g><mask id="satori_om-id-1-1"><rect x="298" y="268" width="264" height="15" fill="#fff" mask="url(#satori_om-id)"/></mask><g mask="url(#satori_om-id)" clip-path="url(#satori_cp-id)"><path fill="rgba(200,200,255,0.45)" d="M301.8 280.2L301.8 280.2Q300.9 280.2 300.2 279.8Q299.5 279.5 299.1 279.0Q298.7 278.4 298.7 277.7L298.7 277.7L299.8 277.7Q299.9 278.2 300.2 278.5Q300.4 278.8 300.9 279.0Q301.3 279.2 301.8 279.2L301.8 279.2Q302.4 279.2 302.9 279.0Q303.4 278.8 303.7 278.4Q303.9 278.1 303.9 277.6L303.9 277.6Q303.9 277.2 303.7 276.9Q303.5 276.7 303.1 276.5Q302.7 276.3 302.2 276.2L302.2 276.2L301.2 275.9Q300.1 275.6 299.5 275.0Q298.9 274.5 298.9 273.6L298.9 273.6Q298.9 272.9 299.3 272.3Q299.7 271.8 300.4 271.5Q301.1 271.2 301.9 271.2L301.9 271.2Q302.8 271.2 303.4 271.5Q304.1 271.8 304.5 272.3Q304.9 272.8 304.9 273.5L304.9 273.5L303.8 273.5Q303.7 272.8 303.2 272.5Q302.7 272.1 301.9 272.1L301.9 272.1Q301.3 272.1 300.9 272.3Q300.5 272.5 300.2 272.8Q300.0 273.1 300.0 273.6L300.0 273.6Q300.0 274.0 300.3 274.3Q300.6 274.6 301.0 274.7Q301.4 274.9 301.7 275.0L301.7 275.0L302.5 275.2Q302.9 275.3 303.3 275.5Q303.7 275.6 304.1 275.9Q304.5 276.2 304.8 276.6Q305.0 277.0 305.0 277.6L305.0 277.6Q305.0 278.3 304.6 278.9Q304.3 279.5 303.6 279.8Q302.9 280.2 301.8 280.2ZM307.8 280L306.8 280L306.8 271.3L308.3 271.3L310.5 276.8Q310.6 277.0 310.7 277.3Q310.8 277.6 310.9 277.9Q311.0 278.2 311.1 278.6L311.1 278.6Q311.1 278.7 311.1 278.8L311.1 278.8Q311.2 278.7 311.2 278.6L311.2 278.6Q311.3 278.3 311.4 277.9Q311.5 277.6 311.6 277.3Q311.7 277.0 311.8 276.8L311.8 276.8L313.9 271.3L315.5 271.3L315.5 280L314.4 280L314.4 275.0Q314.4 274.7 314.4 274.4Q314.4 274.1 314.4 273.7Q314.4 273.3 314.4 272.9L314.4 272.9Q314.4 272.7 314.4 272.5L314.4 272.5Q314.4 272.7 314.3 273.0L314.3 273.0Q314.1 273.4 314.0 273.8Q313.9 274.2 313.8 274.5Q313.6 274.8 313.6 275.0L313.6 275.0L311.6 280L310.6 280L308.7 275.0Q308.6 274.8 308.5 274.5Q308.3 274.2 308.2 273.8Q308.1 273.4 307.9 273.0L307.9 273.0Q307.9 272.7 307.8 272.5L307.8 272.5Q307.8 272.7 307.8 272.8L307.8 272.8Q307.8 273.2 307.8 273.6Q307.8 274.0 307.8 274.4Q307.8 274.7 307.8 275.0L307.8 275.0L307.8 280ZM317.6 271.3L318.7 271.3L318.7 280L317.6 280L317.6 271.3ZM326.0 280L320.8 280L320.8 271.3L321.9 271.3L321.9 279.0L326.0 279.0L326.0 280Z M332.7 280.2L332.7 280.2Q332.1 280.2 331.6 279.9Q331.0 279.7 330.7 279.2Q330.4 278.8 330.4 278.1L330.4 278.1Q330.4 277.6 330.7 277.2Q330.9 276.9 331.3 276.7Q331.6 276.5 332.1 276.4Q332.5 276.3 333.0 276.2L333.0 276.2Q333.6 276.1 334.0 276.1Q334.3 276.1 334.5 276.0Q334.7 275.9 334.7 275.6L334.7 275.6L334.7 275.6Q334.7 275.2 334.5 274.9Q334.4 274.6 334.1 274.4Q333.8 274.3 333.3 274.3L333.3 274.3Q332.8 274.3 332.5 274.4Q332.2 274.6 332.0 274.8Q331.8 275.0 331.7 275.3L331.7 275.3L330.6 274.9Q330.9 274.3 331.3 274.0Q331.7 273.6 332.3 273.5Q332.8 273.4 333.3 273.4L333.3 273.4Q333.6 273.4 334.0 273.4Q334.4 273.5 334.8 273.8Q335.2 274.0 335.5 274.5Q335.7 274.9 335.7 275.7L335.7 275.7L335.7 280L334.7 280L334.7 279.1L334.6 279.1Q334.5 279.3 334.3 279.6Q334.0 279.8 333.6 280.0Q333.2 280.2 332.7 280.2ZM332.9 279.2L332.9 279.2Q333.4 279.2 333.9 279.0Q334.3 278.8 334.5 278.4Q334.7 278.0 334.7 277.6L334.7 277.6L334.7 276.7Q334.6 276.8 334.4 276.9Q334.2 276.9 333.9 277.0Q333.6 277.0 333.4 277.0Q333.1 277.1 333.0 277.1L333.0 277.1Q332.6 277.1 332.2 277.3Q331.9 277.4 331.7 277.6Q331.5 277.8 331.5 278.2L331.5 278.2Q331.5 278.5 331.7 278.8Q331.9 279.0 332.2 279.1Q332.5 279.2 332.9 279.2ZM338.6 276.1L338.6 276.1L338.6 280L337.6 280L337.6 273.4L338.6 273.4L338.6 274.7Q338.9 274.0 339.3 273.7L339.3 273.7Q339.9 273.4 340.6 273.4L340.6 273.4Q341.3 273.4 341.8 273.6Q342.3 273.9 342.5 274.5Q342.8 275.0 342.8 275.8L342.8 275.8L342.8 280L341.8 280L341.8 275.9Q341.8 275.2 341.4 274.7Q341.0 274.3 340.3 274.3L340.3 274.3Q339.8 274.3 339.4 274.5Q339.1 274.7 338.9 275.1Q338.6 275.5 338.6 276.1ZM345.7 280L344.7 280L344.7 273.4L345.7 273.4L345.7 280ZM345.2 272.4L345.2 272.4Q344.9 272.4 344.7 272.2Q344.5 272.0 344.5 271.7L344.5 271.7Q344.5 271.4 344.7 271.2Q344.9 271.0 345.2 271.0L345.2 271.0Q345.5 271.0 345.7 271.2Q345.9 271.4 345.9 271.7L345.9 271.7Q345.9 272.0 345.7 272.2Q345.5 272.4 345.2 272.4ZM348.6 280L347.6 280L347.6 273.4L348.6 273.4L348.6 274.7Q348.7 274.3 349.0 274.0L349.0 274.0Q349.2 273.7 349.6 273.5Q350.0 273.3 350.4 273.3L350.4 273.3Q351.2 273.3 351.6 273.8L351.6 273.8Q352.0 274.1 352.1 274.7L352.1 274.7Q352.2 274.3 352.5 274.1L352.5 274.1Q352.8 273.7 353.2 273.5Q353.7 273.3 354.2 273.3L354.2 273.3Q354.7 273.3 355.2 273.6Q355.7 273.8 356.0 274.3Q356.2 274.8 356.2 275.6L356.2 275.6L356.2 280L355.2 280L355.2 275.6Q355.2 274.9 354.8 274.6Q354.4 274.3 353.9 274.3L353.9 274.3Q353.4 274.3 353.1 274.5Q352.8 274.7 352.6 275.0Q352.4 275.3 352.4 275.7L352.4 275.7L352.4 280L351.4 280L351.4 275.5Q351.4 275.0 351.0 274.6Q350.7 274.3 350.1 274.3L350.1 274.3Q349.7 274.3 349.4 274.5Q349.0 274.7 348.8 275.0Q348.6 275.4 348.6 275.9L348.6 275.9L348.6 280ZM359.9 280.2L359.9 280.2Q359.3 280.2 358.8 279.9Q358.3 279.7 358.0 279.2Q357.7 278.8 357.7 278.1L357.7 278.1Q357.7 277.6 357.9 277.2Q358.1 276.9 358.5 276.7Q358.9 276.5 359.3 276.4Q359.8 276.3 360.2 276.2L360.2 276.2Q360.8 276.1 361.2 276.1Q361.6 276.1 361.7 276.0Q361.9 275.9 361.9 275.6L361.9 275.6L361.9 275.6Q361.9 275.2 361.8 274.9Q361.6 274.6 361.3 274.4Q361.0 274.3 360.6 274.3L360.6 274.3Q360.1 274.3 359.8 274.4Q359.4 274.6 359.2 274.8Q359.0 275.0 358.9 275.3L358.9 275.3L357.9 274.9Q358.1 274.3 358.6 274.0Q359.0 273.6 359.5 273.5Q360.0 273.4 360.5 273.4L360.5 273.4Q360.9 273.4 361.3 273.4Q361.7 273.5 362.1 273.8Q362.5 274.0 362.7 274.5Q363.0 274.9 363.0 275.7L363.0 275.7L363.0 280L361.9 280L361.9 279.1L361.9 279.1Q361.8 279.3 361.5 279.6Q361.3 279.8 360.9 280.0Q360.5 280.2 359.9 280.2ZM360.1 279.2L360.1 279.2Q360.7 279.2 361.1 279.0Q361.5 278.8 361.7 278.4Q361.9 278.0 361.9 277.6L361.9 277.6L361.9 276.7Q361.9 276.8 361.6 276.9Q361.4 276.9 361.1 277.0Q360.9 277.0 360.6 277.0Q360.3 277.1 360.2 277.1L360.2 277.1Q359.8 277.1 359.5 277.3Q359.2 277.4 359.0 277.6Q358.8 277.8 358.8 278.2L358.8 278.2Q358.8 278.5 358.9 278.8Q359.1 279.0 359.4 279.1Q359.7 279.2 360.1 279.2ZM366.1 273.4L367.4 273.4L367.4 274.4L366.1 274.4L366.1 278.3Q366.1 278.7 366.2 278.9Q366.4 279.1 366.8 279.1L366.8 279.1Q366.9 279.1 367.1 279.1Q367.2 279.1 367.4 279.1L367.4 279.1L367.6 280.0Q367.4 280.0 367.2 280.1Q367.0 280.1 366.8 280.1L366.8 280.1Q366.0 280.1 365.5 279.6Q365.0 279.2 365.0 278.4L365.0 278.4L365.0 274.4L364.0 274.4L364.0 273.4L365.0 273.4L365.0 271.9L366.1 271.9L366.1 273.4ZM371.5 280.1L371.5 280.1Q370.6 280.1 369.9 279.7Q369.2 279.3 368.8 278.5Q368.4 277.8 368.4 276.8Q368.4 275.8 368.8 275.0Q369.2 274.2 369.8 273.8Q370.5 273.4 371.4 273.4L371.4 273.4Q371.9 273.4 372.4 273.5Q372.9 273.7 373.3 274.1Q373.8 274.5 374.0 275.1Q374.2 275.7 374.2 276.6L374.2 276.6L374.2 277.1L369.5 277.1Q369.5 277.7 369.8 278.2L369.8 278.2Q370.0 278.7 370.5 278.9Q370.9 279.2 371.5 279.2L371.5 279.2Q371.9 279.2 372.2 279.1Q372.5 279.0 372.8 278.8Q373.0 278.5 373.1 278.2L373.1 278.2L374.1 278.5Q374.0 279.0 373.6 279.3Q373.3 279.7 372.7 279.9Q372.2 280.1 371.5 280.1ZM369.5 276.2L369.5 276.2L373.2 276.2Q373.1 275.7 373.0 275.4L373.0 275.4Q372.8 274.9 372.4 274.6Q372.0 274.3 371.4 274.3Q370.8 274.3 370.4 274.6Q370.0 274.9 369.7 275.3L369.7 275.3Q369.5 275.7 369.5 276.2ZM376.9 280L375.9 280L375.9 271.3L377.5 271.3L379.6 276.8Q379.7 277.0 379.8 277.3Q379.9 277.6 380.0 277.9Q380.1 278.2 380.2 278.6L380.2 278.6Q380.2 278.7 380.3 278.8L380.3 278.8Q380.3 278.7 380.3 278.6L380.3 278.6Q380.4 278.3 380.5 277.9Q380.6 277.6 380.7 277.3Q380.8 277.0 380.9 276.8L380.9 276.8L383.0 271.3L384.6 271.3L384.6 280L383.5 280L383.5 275.0Q383.5 274.7 383.5 274.4Q383.5 274.1 383.5 273.7Q383.5 273.3 383.6 272.9L383.6 272.9Q383.6 272.7 383.6 272.5L383.6 272.5Q383.5 272.7 383.4 273.0L383.4 273.0Q383.3 273.4 383.1 273.8Q383.0 274.2 382.9 274.5Q382.8 274.8 382.7 275.0L382.7 275.0L380.7 280L379.8 280L377.8 275.0Q377.7 274.8 377.6 274.5Q377.5 274.2 377.3 273.8Q377.2 273.4 377.1 273.0L377.1 273.0Q377.0 272.7 376.9 272.5L376.9 272.5Q376.9 272.7 376.9 272.8L376.9 272.8Q376.9 273.2 376.9 273.6Q376.9 274.0 376.9 274.4Q376.9 274.7 376.9 275.0L376.9 275.0L376.9 280ZM389.3 280.1L389.3 280.1Q388.4 280.1 387.7 279.7Q387.0 279.3 386.7 278.5Q386.3 277.8 386.3 276.8L386.3 276.8Q386.3 275.7 386.7 275.0Q387.0 274.2 387.7 273.8Q388.4 273.4 389.3 273.4L389.3 273.4Q390.2 273.4 390.8 273.8Q391.5 274.2 391.9 275.0Q392.3 275.7 392.3 276.8L392.3 276.8Q392.3 277.8 391.9 278.5Q391.5 279.3 390.8 279.7Q390.2 280.1 389.3 280.1ZM389.3 279.2L389.3 279.2Q389.9 279.2 390.3 278.9Q390.8 278.5 391.0 278.0Q391.2 277.4 391.2 276.8L391.2 276.8Q391.2 276.1 391.0 275.6Q390.8 275.0 390.3 274.7Q389.9 274.3 389.3 274.3L389.3 274.3Q388.6 274.3 388.2 274.7Q387.8 275.0 387.6 275.6Q387.3 276.1 387.3 276.8L387.3 276.8Q387.3 277.4 387.6 278.0Q387.8 278.5 388.2 278.9Q388.6 279.2 389.3 279.2ZM395.0 273.4L396.4 273.4L396.4 274.4L395.0 274.4L395.0 278.3Q395.0 278.7 395.2 278.9Q395.4 279.1 395.8 279.1L395.8 279.1Q395.9 279.1 396.0 279.1Q396.2 279.1 396.3 279.1L396.3 279.1L396.5 280.0Q396.4 280.0 396.2 280.1Q396.0 280.1 395.8 280.1L395.8 280.1Q394.9 280.1 394.4 279.6Q394.0 279.2 394.0 278.4L394.0 278.4L394.0 274.4L393.0 274.4L393.0 273.4L394.0 273.4L394.0 271.9L395.0 271.9L395.0 273.4ZM398.8 280L397.7 280L397.7 273.4L398.8 273.4L398.8 280ZM398.2 272.4L398.2 272.4Q397.9 272.4 397.7 272.2Q397.5 272.0 397.5 271.7L397.5 271.7Q397.5 271.4 397.7 271.2Q397.9 271.0 398.2 271.0L398.2 271.0Q398.6 271.0 398.8 271.2Q399.0 271.4 399.0 271.7L399.0 271.7Q399.0 272.0 398.8 272.2Q398.6 272.4 398.2 272.4ZM403.3 280.1L403.3 280.1Q402.4 280.1 401.7 279.7Q401.1 279.3 400.7 278.5Q400.3 277.8 400.3 276.8L400.3 276.8Q400.3 275.7 400.7 275.0Q401.1 274.2 401.7 273.8Q402.4 273.4 403.3 273.4L403.3 273.4Q404.2 273.4 404.9 273.8Q405.5 274.2 405.9 275.0Q406.3 275.7 406.3 276.8L406.3 276.8Q406.3 277.8 405.9 278.5Q405.5 279.3 404.9 279.7Q404.2 280.1 403.3 280.1ZM403.3 279.2L403.3 279.2Q403.9 279.2 404.4 278.9Q404.8 278.5 405.0 278.0Q405.2 277.4 405.2 276.8L405.2 276.8Q405.2 276.1 405.0 275.6Q404.8 275.0 404.4 274.7Q403.9 274.3 403.3 274.3L403.3 274.3Q402.6 274.3 402.2 274.7Q401.8 275.0 401.6 275.6Q401.4 276.1 401.4 276.8L401.4 276.8Q401.4 277.4 401.6 278.0Q401.8 278.5 402.2 278.9Q402.6 279.2 403.3 279.2ZM408.9 276.1L408.9 276.1L408.9 280L407.8 280L407.8 273.4L408.8 273.4L408.8 274.7Q409.1 274.0 409.5 273.7L409.5 273.7Q410.1 273.4 410.8 273.4L410.8 273.4Q411.5 273.4 412 273.6Q412.5 273.9 412.8 274.5Q413.1 275.0 413.1 275.8L413.1 275.8L413.1 280L412 280L412 275.9Q412 275.2 411.6 274.7Q411.2 274.3 410.5 274.3L410.5 274.3Q410.1 274.3 409.7 274.5Q409.3 274.7 409.1 275.1Q408.9 275.5 408.9 276.1Z M420.1 280.2L420.1 280.2Q419.5 280.2 419.0 279.9Q418.5 279.7 418.2 279.2Q417.9 278.8 417.9 278.1L417.9 278.1Q417.9 277.6 418.1 277.2Q418.3 276.9 418.7 276.7Q419.1 276.5 419.5 276.4Q420.0 276.3 420.4 276.2L420.4 276.2Q421.0 276.1 421.4 276.1Q421.8 276.1 421.9 276.0Q422.1 275.9 422.1 275.6L422.1 275.6L422.1 275.6Q422.1 275.2 422.0 274.9Q421.8 274.6 421.5 274.4Q421.2 274.3 420.7 274.3L420.7 274.3Q420.3 274.3 419.9 274.4Q419.6 274.6 419.4 274.8Q419.2 275.0 419.1 275.3L419.1 275.3L418.1 274.9Q418.3 274.3 418.8 274.0Q419.2 273.6 419.7 273.5Q420.2 273.4 420.7 273.4L420.7 273.4Q421.0 273.4 421.5 273.4Q421.9 273.5 422.3 273.8Q422.7 274.0 422.9 274.5Q423.2 274.9 423.2 275.7L423.2 275.7L423.2 280L422.1 280L422.1 279.1L422.1 279.1Q421.9 279.3 421.7 279.6Q421.5 279.8 421.1 280.0Q420.7 280.2 420.1 280.2ZM420.3 279.2L420.3 279.2Q420.9 279.2 421.3 279.0Q421.7 278.8 421.9 278.4Q422.1 278.0 422.1 277.6L422.1 277.6L422.1 276.7Q422.0 276.8 421.8 276.9Q421.6 276.9 421.3 277.0Q421.1 277.0 420.8 277.0Q420.5 277.1 420.4 277.1L420.4 277.1Q420.0 277.1 419.7 277.3Q419.3 277.4 419.1 277.6Q418.9 277.8 418.9 278.2L418.9 278.2Q418.9 278.5 419.1 278.8Q419.3 279.0 419.6 279.1Q419.9 279.2 420.3 279.2ZM425.0 271.3L426.1 271.3L426.1 280L425.0 280L425.0 271.3ZM430.6 280.1L430.6 280.1Q429.7 280.1 429.0 279.7Q428.4 279.3 428.0 278.5Q427.6 277.8 427.6 276.8L427.6 276.8Q427.6 275.7 428.0 275.0Q428.4 274.2 429.0 273.8Q429.7 273.4 430.6 273.4L430.6 273.4Q431.5 273.4 432.2 273.8Q432.8 274.2 433.2 275.0Q433.6 275.7 433.6 276.8L433.6 276.8Q433.6 277.8 433.2 278.5Q432.8 279.3 432.2 279.7Q431.5 280.1 430.6 280.1ZM430.6 279.2L430.6 279.2Q431.3 279.2 431.7 278.9Q432.1 278.5 432.3 278.0Q432.5 277.4 432.5 276.8L432.5 276.8Q432.5 276.1 432.3 275.6Q432.1 275.0 431.7 274.7Q431.3 274.3 430.6 274.3L430.6 274.3Q429.9 274.3 429.5 274.7Q429.1 275.0 428.9 275.6Q428.7 276.1 428.7 276.8L428.7 276.8Q428.7 277.4 428.9 278.0Q429.1 278.5 429.5 278.9Q429.9 279.2 430.6 279.2ZM436.2 276.1L436.2 276.1L436.2 280L435.1 280L435.1 273.4L436.1 273.4L436.1 274.7Q436.4 274.0 436.8 273.7L436.8 273.7Q437.4 273.4 438.1 273.4L438.1 273.4Q438.8 273.4 439.3 273.6Q439.8 273.9 440.1 274.5Q440.4 275.0 440.4 275.8L440.4 275.8L440.4 280L439.3 280L439.3 275.9Q439.3 275.2 438.9 274.7Q438.5 274.3 437.8 274.3L437.8 274.3Q437.4 274.3 437.0 274.5Q436.6 274.7 436.4 275.1Q436.2 275.5 436.2 276.1ZM444.9 282.6L444.9 282.6Q444.1 282.6 443.6 282.4Q443.1 282.2 442.7 281.9Q442.4 281.6 442.2 281.3L442.2 281.3L443.0 280.7Q443.2 280.9 443.4 281.1Q443.6 281.3 443.9 281.5Q444.3 281.7 444.9 281.7L444.9 281.7Q445.7 281.7 446.2 281.3Q446.7 280.9 446.7 280.1L446.7 280.1L446.7 278.8L446.6 278.8Q446.5 279.0 446.3 279.2Q446.0 279.5 445.7 279.7Q445.3 279.9 444.7 279.9L444.7 279.9Q443.9 279.9 443.2 279.5Q442.6 279.2 442.3 278.4Q441.9 277.7 441.9 276.7L441.9 276.7Q441.9 275.7 442.3 274.9Q442.6 274.2 443.2 273.8Q443.9 273.4 444.7 273.4L444.7 273.4Q445.3 273.4 445.7 273.6Q446.1 273.8 446.3 274.1Q446.5 274.3 446.6 274.5L446.6 274.5L446.7 274.5L446.7 273.4L447.7 273.4L447.7 280.2Q447.7 281.0 447.3 281.5Q447.0 282.1 446.3 282.3Q445.7 282.6 444.9 282.6ZM444.8 279.0L444.8 279.0Q445.4 279.0 445.8 278.7Q446.3 278.4 446.5 277.9Q446.7 277.4 446.7 276.7L446.7 276.7Q446.7 276.0 446.5 275.4Q446.3 274.9 445.8 274.6Q445.4 274.3 444.8 274.3L444.8 274.3Q444.2 274.3 443.8 274.6Q443.4 274.9 443.2 275.5Q443.0 276.0 443.0 276.7L443.0 276.7Q443.0 277.3 443.2 277.9Q443.4 278.4 443.8 278.7Q444.2 279.0 444.8 279.0Z M456.0 280.1L456.0 280.1Q455.4 280.1 455.0 279.9Q454.6 279.7 454.4 279.4Q454.2 279.2 454.1 279.0L454.1 279.0L454.0 279.0L454.0 280L452.9 280L452.9 271.3L454 271.3L454 274.5L454.1 274.5Q454.2 274.3 454.4 274.1Q454.6 273.8 455.0 273.6Q455.3 273.4 456.0 273.4L456.0 273.4Q456.8 273.4 457.4 273.8Q458.0 274.2 458.4 274.9Q458.8 275.7 458.8 276.7L458.8 276.7Q458.8 277.8 458.4 278.5Q458.1 279.3 457.4 279.7Q456.8 280.1 456.0 280.1ZM455.8 279.2L455.8 279.2Q456.4 279.2 456.9 278.9Q457.3 278.5 457.5 278.0Q457.7 277.4 457.7 276.7L457.7 276.7Q457.7 276.1 457.5 275.5Q457.3 275.0 456.9 274.6Q456.4 274.3 455.8 274.3L455.8 274.3Q455.2 274.3 454.8 274.6Q454.4 274.9 454.2 275.5Q454.0 276.0 454.0 276.7L454.0 276.7Q454.0 277.5 454.2 278.0Q454.4 278.6 454.8 278.9Q455.2 279.2 455.8 279.2ZM463.0 280.1L463.0 280.1Q462.1 280.1 461.4 279.7Q460.7 279.3 460.3 278.5Q460.0 277.8 460.0 276.8Q460.0 275.8 460.3 275.0Q460.7 274.2 461.4 273.8Q462.0 273.4 462.9 273.4L462.9 273.4Q463.4 273.4 464.0 273.5Q464.5 273.7 464.9 274.1Q465.3 274.5 465.5 275.1Q465.8 275.7 465.8 276.6L465.8 276.6L465.8 277.1L461.0 277.1Q461.1 277.7 461.3 278.2L461.3 278.2Q461.5 278.7 462.0 278.9Q462.5 279.2 463.1 279.2L463.1 279.2Q463.4 279.2 463.8 279.1Q464.1 279.0 464.3 278.8Q464.5 278.5 464.7 278.2L464.7 278.2L465.7 278.5Q465.5 279.0 465.2 279.3Q464.8 279.7 464.3 279.9Q463.7 280.1 463.0 280.1ZM461.0 276.2L461.0 276.2L464.7 276.2Q464.7 275.7 464.5 275.4L464.5 275.4Q464.3 274.9 463.9 274.6Q463.5 274.3 462.9 274.3Q462.3 274.3 461.9 274.6Q461.5 274.9 461.3 275.3L461.3 275.3Q461.1 275.7 461.0 276.2ZM472.3 280L467.1 280L467.1 279.2L470.8 274.5L470.8 274.4L467.2 274.4L467.2 273.4L472.1 273.4L472.1 274.3L468.6 279.0L468.6 279.0L472.3 279.0L472.3 280ZM475.0 280L473.9 280L473.9 273.4L475.0 273.4L475.0 280ZM474.4 272.4L474.4 272.4Q474.2 272.4 473.9 272.2Q473.7 272.0 473.7 271.7L473.7 271.7Q473.7 271.4 473.9 271.2Q474.2 271.0 474.4 271.0L474.4 271.0Q474.8 271.0 475.0 271.2Q475.2 271.4 475.2 271.7L475.2 271.7Q475.2 272.0 475.0 272.2Q474.8 272.4 474.4 272.4ZM479.6 280.1L479.6 280.1Q478.6 280.1 477.9 279.7Q477.3 279.3 476.9 278.5Q476.5 277.8 476.5 276.8Q476.5 275.8 476.9 275.0Q477.2 274.2 477.9 273.8Q478.6 273.4 479.5 273.4L479.5 273.4Q480.0 273.4 480.5 273.5Q481.0 273.7 481.4 274.1Q481.8 274.5 482.1 275.1Q482.3 275.7 482.3 276.6L482.3 276.6L482.3 277.1L477.6 277.1Q477.6 277.7 477.8 278.2L477.8 278.2Q478.1 278.7 478.5 278.9Q479.0 279.2 479.6 279.2L479.6 279.2Q480.0 279.2 480.3 279.1Q480.6 279.0 480.8 278.8Q481.1 278.5 481.2 278.2L481.2 278.2L482.2 278.5Q482.0 279.0 481.7 279.3Q481.3 279.7 480.8 279.9Q480.3 280.1 479.6 280.1ZM477.6 276.2L477.6 276.2L481.2 276.2Q481.2 275.7 481.0 275.4L481.0 275.4Q480.8 274.9 480.4 274.6Q480.0 274.3 479.5 274.3Q478.9 274.3 478.4 274.6Q478.0 274.9 477.8 275.3L477.8 275.3Q477.6 275.7 477.6 276.2ZM484.9 280L483.8 280L483.8 273.4L484.8 273.4L484.8 274.5L484.9 274.5Q485.1 274.0 485.6 273.7Q486.0 273.4 486.6 273.4L486.6 273.4Q486.7 273.4 486.9 273.4Q487.0 273.4 487.1 273.4L487.1 273.4L487.1 274.4Q487.1 274.4 486.9 274.4Q486.7 274.4 486.5 274.4L486.5 274.4Q486.0 274.4 485.7 274.6Q485.3 274.8 485.1 275.1Q484.9 275.5 484.9 275.9L484.9 275.9L484.9 280Z M494.4 280.1L494.4 280.1Q493.5 280.1 492.8 279.7Q492.1 279.3 491.8 278.5Q491.4 277.8 491.4 276.8L491.4 276.8Q491.4 275.7 491.8 275.0Q492.1 274.2 492.8 273.8Q493.5 273.4 494.4 273.4L494.4 273.4Q495.3 273.4 495.9 273.8Q496.6 274.2 497.0 275.0Q497.4 275.7 497.4 276.8L497.4 276.8Q497.4 277.8 497.0 278.5Q496.6 279.3 495.9 279.7Q495.3 280.1 494.4 280.1ZM494.4 279.2L494.4 279.2Q495.0 279.2 495.5 278.9Q495.9 278.5 496.1 278.0Q496.3 277.4 496.3 276.8L496.3 276.8Q496.3 276.1 496.1 275.6Q495.9 275.0 495.5 274.7Q495.0 274.3 494.4 274.3L494.4 274.3Q493.7 274.3 493.3 274.7Q492.9 275.0 492.7 275.6Q492.5 276.1 492.5 276.8L492.5 276.8Q492.5 277.4 492.7 278.0Q492.9 278.5 493.3 278.9Q493.7 279.2 494.4 279.2ZM500.0 280L498.9 280L498.9 273.4L499.9 273.4L499.9 274.5L500.0 274.5Q500.2 274.0 500.6 273.7Q501.1 273.4 501.7 273.4L501.7 273.4Q501.8 273.4 502.0 273.4Q502.1 273.4 502.2 273.4L502.2 273.4L502.2 274.4Q502.2 274.4 502.0 274.4Q501.8 274.4 501.6 274.4L501.6 274.4Q501.1 274.4 500.8 274.6Q500.4 274.8 500.2 275.1Q500.0 275.5 500.0 275.9L500.0 275.9L500.0 280ZM506.5 280.1L506.5 280.1Q505.8 280.1 505.5 279.9Q505.1 279.7 504.9 279.4Q504.7 279.2 504.6 279.0L504.6 279.0L504.4 279.0L504.4 280L503.4 280L503.4 271.3L504.5 271.3L504.5 274.5L504.6 274.5Q504.7 274.3 504.9 274.1Q505.1 273.8 505.4 273.6Q505.8 273.4 506.5 273.4L506.5 273.4Q507.3 273.4 507.9 273.8Q508.5 274.2 508.9 274.9Q509.2 275.7 509.2 276.7L509.2 276.7Q509.2 277.8 508.9 278.5Q508.5 279.3 507.9 279.7Q507.3 280.1 506.5 280.1ZM506.3 279.2L506.3 279.2Q506.9 279.2 507.3 278.9Q507.7 278.5 508.0 278.0Q508.2 277.4 508.2 276.7L508.2 276.7Q508.2 276.1 508.0 275.5Q507.8 275.0 507.3 274.6Q506.9 274.3 506.3 274.3L506.3 274.3Q505.7 274.3 505.3 274.6Q504.9 274.9 504.7 275.5Q504.5 276.0 504.5 276.7L504.5 276.7Q504.5 277.5 504.7 278.0Q504.9 278.6 505.3 278.9Q505.7 279.2 506.3 279.2ZM511.8 280L510.8 280L510.8 273.4L511.8 273.4L511.8 280ZM511.3 272.4L511.3 272.4Q511.0 272.4 510.8 272.2Q510.6 272.0 510.6 271.7L510.6 271.7Q510.6 271.4 510.8 271.2Q511.0 271.0 511.3 271.0L511.3 271.0Q511.6 271.0 511.8 271.2Q512.0 271.4 512.0 271.7L512.0 271.7Q512.0 272.0 511.8 272.2Q511.6 272.4 511.3 272.4ZM514.9 273.4L516.3 273.4L516.3 274.4L514.9 274.4L514.9 278.3Q514.9 278.7 515.1 278.9Q515.3 279.1 515.7 279.1L515.7 279.1Q515.8 279.1 515.9 279.1Q516.1 279.1 516.2 279.1L516.2 279.1L516.4 280.0Q516.3 280.0 516.1 280.1Q515.9 280.1 515.7 280.1L515.7 280.1Q514.8 280.1 514.3 279.6Q513.9 279.2 513.9 278.4L513.9 278.4L513.9 274.4L512.9 274.4L512.9 273.4L513.9 273.4L513.9 271.9L514.9 271.9L514.9 273.4ZM519.4 280.2L519.4 280.2Q518.8 280.2 518.3 279.9Q517.8 279.7 517.5 279.2Q517.2 278.8 517.2 278.1L517.2 278.1Q517.2 277.6 517.4 277.2Q517.7 276.9 518.0 276.7Q518.4 276.5 518.8 276.4Q519.3 276.3 519.8 276.2L519.8 276.2Q520.3 276.1 520.7 276.1Q521.1 276.1 521.3 276.0Q521.4 275.9 521.4 275.6L521.4 275.6L521.4 275.6Q521.4 275.2 521.3 274.9Q521.1 274.6 520.8 274.4Q520.5 274.3 520.1 274.3L520.1 274.3Q519.6 274.3 519.3 274.4Q518.9 274.6 518.7 274.8Q518.5 275.0 518.4 275.3L518.4 275.3L517.4 274.9Q517.6 274.3 518.1 274.0Q518.5 273.6 519.0 273.5Q519.5 273.4 520.0 273.4L520.0 273.4Q520.4 273.4 520.8 273.4Q521.2 273.5 521.6 273.8Q522.0 274.0 522.2 274.5Q522.5 274.9 522.5 275.7L522.5 275.7L522.5 280L521.5 280L521.5 279.1L521.4 279.1Q521.3 279.3 521.0 279.6Q520.8 279.8 520.4 280.0Q520.0 280.2 519.4 280.2ZM519.6 279.2L519.6 279.2Q520.2 279.2 520.6 279.0Q521.0 278.8 521.2 278.4Q521.4 278.0 521.4 277.6L521.4 277.6L521.4 276.7Q521.4 276.8 521.2 276.9Q520.9 276.9 520.7 277.0Q520.4 277.0 520.1 277.0Q519.9 277.1 519.7 277.1L519.7 277.1Q519.3 277.1 519.0 277.3Q518.7 277.4 518.5 277.6Q518.3 277.8 518.3 278.2L518.3 278.2Q518.3 278.5 518.4 278.8Q518.6 279.0 518.9 279.1Q519.2 279.2 519.6 279.2ZM524.3 271.3L525.4 271.3L525.4 280L524.3 280L524.3 271.3Z M531.7 282.4L530.6 282.4L530.6 273.4L531.6 273.4L531.6 274.5L531.8 274.5Q531.9 274.3 532.1 274.1Q532.3 273.8 532.6 273.6Q533.0 273.4 533.7 273.4L533.7 273.4Q534.5 273.4 535.1 273.8Q535.7 274.2 536.1 274.9Q536.4 275.7 536.4 276.7L536.4 276.7Q536.4 277.8 536.1 278.5Q535.7 279.3 535.1 279.7Q534.5 280.1 533.7 280.1L533.7 280.1Q533.0 280.1 532.7 279.9Q532.3 279.7 532.1 279.4Q531.9 279.2 531.8 279.0L531.8 279.0L531.7 279.0L531.7 282.4ZM533.5 279.2L533.5 279.2Q534.1 279.2 534.5 278.9Q534.9 278.5 535.2 278.0Q535.4 277.4 535.4 276.7L535.4 276.7Q535.4 276.1 535.2 275.5Q535.0 275.0 534.5 274.6Q534.1 274.3 533.5 274.3L533.5 274.3Q532.9 274.3 532.5 274.6Q532.1 274.9 531.9 275.5Q531.7 276.0 531.7 276.7L531.7 276.7Q531.7 277.5 531.9 278.0Q532.1 278.6 532.5 278.9Q532.9 279.2 533.5 279.2ZM539.8 280.2L539.8 280.2Q539.2 280.2 538.7 279.9Q538.2 279.7 537.9 279.2Q537.6 278.8 537.6 278.1L537.6 278.1Q537.6 277.6 537.8 277.2Q538.0 276.9 538.4 276.7Q538.8 276.5 539.2 276.4Q539.7 276.3 540.1 276.2L540.1 276.2Q540.7 276.1 541.1 276.1Q541.4 276.1 541.6 276.0Q541.8 275.9 541.8 275.6L541.8 275.6L541.8 275.6Q541.8 275.2 541.7 274.9Q541.5 274.6 541.2 274.4Q540.9 274.3 540.4 274.3L540.4 274.3Q540.0 274.3 539.6 274.4Q539.3 274.6 539.1 274.8Q538.9 275.0 538.8 275.3L538.8 275.3L537.8 274.9Q538.0 274.3 538.4 274.0Q538.9 273.6 539.4 273.5Q539.9 273.4 540.4 273.4L540.4 273.4Q540.7 273.4 541.1 273.4Q541.6 273.5 542.0 273.8Q542.3 274.0 542.6 274.5Q542.9 274.9 542.9 275.7L542.9 275.7L542.9 280L541.8 280L541.8 279.1L541.8 279.1Q541.6 279.3 541.4 279.6Q541.1 279.8 540.8 280.0Q540.4 280.2 539.8 280.2ZM540.0 279.2L540.0 279.2Q540.6 279.2 541.0 279.0Q541.4 278.8 541.6 278.4Q541.8 278.0 541.8 277.6L541.8 277.6L541.8 276.7Q541.7 276.8 541.5 276.9Q541.3 276.9 541.0 277.0Q540.7 277.0 540.5 277.0Q540.2 277.1 540.1 277.1L540.1 277.1Q539.7 277.1 539.4 277.3Q539.0 277.4 538.8 277.6Q538.6 277.8 538.6 278.2L538.6 278.2Q538.6 278.5 538.8 278.8Q539.0 279.0 539.3 279.1Q539.6 279.2 540.0 279.2ZM545.9 273.4L547.3 273.4L547.3 274.4L545.9 274.4L545.9 278.3Q545.9 278.7 546.1 278.9Q546.3 279.1 546.7 279.1L546.7 279.1Q546.8 279.1 547.0 279.1Q547.1 279.1 547.3 279.1L547.3 279.1L547.5 280.0Q547.3 280.0 547.1 280.1Q546.9 280.1 546.7 280.1L546.7 280.1Q545.8 280.1 545.4 279.6Q544.9 279.2 544.9 278.4L544.9 278.4L544.9 274.4L543.9 274.4L543.9 273.4L544.9 273.4L544.9 271.9L545.9 271.9L545.9 273.4ZM549.7 276.1L549.7 276.1L549.7 280L548.6 280L548.6 271.3L549.7 271.3L549.7 274.6Q550.0 274.0 550.4 273.7L550.4 273.7Q550.9 273.4 551.7 273.4L551.7 273.4Q552.3 273.4 552.8 273.6Q553.3 273.9 553.6 274.5Q553.9 275.0 553.9 275.8L553.9 275.8L553.9 280L552.8 280L552.8 275.9Q552.8 275.2 552.4 274.7Q552.0 274.3 551.3 274.3L551.3 274.3Q550.9 274.3 550.5 274.5Q550.1 274.7 549.9 275.1Q549.7 275.5 549.7 276.1ZM558.0 280.1L558.0 280.1Q557.3 280.1 556.8 279.9Q556.2 279.7 555.9 279.4Q555.6 279.0 555.4 278.4L555.4 278.4L556.4 278.2Q556.6 278.7 557.0 279.0Q557.4 279.2 557.9 279.2L557.9 279.2Q558.6 279.2 559.0 278.9Q559.4 278.6 559.4 278.2L559.4 278.2Q559.4 277.9 559.2 277.7Q559.0 277.4 558.5 277.3L558.5 277.3L557.4 277.1Q556.5 276.9 556.1 276.4Q555.6 276.0 555.6 275.3L555.6 275.3Q555.6 274.7 556.0 274.3Q556.3 273.9 556.8 273.6Q557.4 273.4 558.1 273.4L558.1 273.4Q558.7 273.4 559.2 273.6Q559.7 273.8 560.0 274.1Q560.3 274.5 560.4 274.9L560.4 274.9L559.5 275.2Q559.3 274.8 559.0 274.6Q558.7 274.3 558.1 274.3L558.1 274.3Q557.5 274.3 557.1 274.5Q556.7 274.8 556.7 275.2L556.7 275.2Q556.7 275.6 557.0 275.8Q557.2 276.0 557.8 276.2L557.8 276.2L558.8 276.4Q559.7 276.6 560.1 277.0Q560.5 277.5 560.5 278.2L560.5 278.2Q560.5 278.7 560.2 279.2Q559.9 279.6 559.3 279.9Q558.7 280.1 558.0 280.1Z "/></g></svg>