<!-- Generated by readme-aura https://github.com/collectioneur/readme-aura -->
<svg width="860" height="180" viewBox="0 0 860 180" xmlns="http://www.w3.org/2000/svg"><defs><pattern id="satori_pattern_id_0" x="0" y="0" width="1" height="1" patternUnits="objectBoundingBox"><linearGradient id="satori_biid_0" x1="-0.04362130921187537" y1="0.44694295310242577" x2="1.0436213092118753" y2="0.5530570468975742" spreadMethod="pad"><stop offset="0%" stop-color="#060b1a"/><stop offset="40%" stop-color="#071329"/><stop offset="100%" stop-color="#0b1e35"/></linearGradient><rect x="0" y="0" width="860" height="180" fill="url(#satori_biid_0)"/></pattern></defs><clipPath id="satori_cp-id"><path x="0" y="0" width="860" height="180" d="M18,0 h824 a18,18 0 0 1 18,18 v144 a18,18 0 0 1 -18,18 h-824 a18,18 0 0 1 -18,-18 v-144 a18,18 0 0 1 18,-18"/></clipPath><mask id="satori_om-id"><rect x="0" y="0" width="860" height="180" fill="#fff"/></mask><path x="0" y="0" width="860" height="180" fill="url(#satori_pattern_id_0)" d="M18,0 h824 a18,18 0 0 1 18,18 v144 a18,18 0 0 1 -18,18 h-824 a18,18 0 0 1 -18,-18 v-144 a18,18 0 0 1 18,-18"/><clipPath id="satori_cp-id-0" clip-path="url(#satori_cp-id)"><rect x="0" y="0" width="860" height="180"/></clipPath><mask id="satori_om-id-0"><rect x="0" y="0" width="860" height="180" fill="#fff" mask="url(#satori_om-id)"/></mask><svg x="0" y="0" width="860" height="180" preserveAspectRatio="none" clip-path="url(#satori_cp-id-0)" mask="url(#satori_om-id-0)"><defs><linearGradient id="pv-line" x1="0%" y1="0%" x2="100%" y2="0%"><stop offset="0%" stop-color="rgba(80,180,255,0)"></stop><stop offset="50%" stop-color="rgba(80,180,255,0.55)"></stop><stop offset="100%" stop-color="rgba(80,180,255,0)"></stop></linearGradient><filter id="pv-glow" x="-100%" y="-100%" width="300%" height="300%"><feGaussianBlur in="SourceGraphic" stdDeviation="6"><animate attributeName="stdDeviation" values="4;10;4" dur="3.8s" repeatCount="indefinite"></animate></feGaussianBlur></filter></defs><rect x="30" y="46" width="800" height="1" fill="url(#pv-line)"><animate attributeName="opacity" values="0.35;0.85;0.35" dur="4s" repeatCount="indefinite"></animate></rect><rect x="30" y="134" width="800" height="1" fill="url(#pv-line)"><animate attributeName="opacity" values="0.25;0.7;0.25" dur="5s" repeatCount="indefinite" begin="0.8s"></animate></rect><circle cx="430" cy="90" r="42" fill="rgba(70,130,255,0.16)" filter="url(#pv-glow)"><animate attributeName="r" values="36;52;36" dur="4.2s" repeatCount="indefinite"></animate></circle></svg><mask id="satori_om-id-0-0"><rect x="0" y="0" width="0" height="180" fill="#fff" mask="url(#satori_om-id)"/></mask><mask id="satori_om-id-0-0-0"><rect x="0" y="0" width="0" height="180" fill="#fff" mask="url(#satori_om-id)"/></mask><mask id="satori_om-id-0-0-0-0"><rect x="0" y="0" width="0" height="180" fill="#fff" mask="url(#satori_om-id)"/></mask><mask id="satori_om-id-0-0-0-1"><rect x="0" y="0" width="0" height="180" fill="#fff" mask="url(#satori_om-id)"/></mask><mask id="satori_om-id-0-0-0-2"><rect x="0" y="0" width="0" height="180" fill="#fff" mask="url(#satori_om-id)"/></mask><mask id="satori_om-id-0-0-1"><rect x="0" y="0" width="0" height="180" fill="#fff" mask="url(#satori_om-id)"/></mask><mask id="satori_om-id-0-0-1-0"><rect x="0" y="0" width="0" height="180" fill="#fff" mask="url(#satori_om-id)"/></mask><mask id="satori_om-id-0-0-1-0-0"><rect x="0" y="0" width="0" height="180" fill="#fff" mask="url(#satori_om-id)"/></mask><mask id="satori_om-id-0-1"><rect x="0" y="0" width="0" height="180" fill="#fff" mask="url(#satori_om-id)"/></mask><mask id="satori_om-id-0-1-0"><rect x="0" y="0" width="0" height="180" fill="#fff" mask="url(#satori_om-id)"/></mask><mask id="satori_om-id-0-2"><rect x="0" y="0" width="0" height="180" fill="#fff" mask="url(#satori_om-id)"/></mask><mask id="satori_om-id-0-2-0"><rect x="0" y="0" width="0" height="180" fill="#fff" mask="url(#satori_om-id)"/></mask><mask id="satori_om-id-0-3"><rect x="0" y="0" width="0" height="180" fill="#fff" mask="url(#satori_om-id)"/></mask><mask id="satori_om-id-0-3-0"><rect x="0" y="0" width="0" height="180" fill="#fff" mask="url(#satori_om-id)"/></mask><mask id="satori_om-id-1"><rect x="323" y="52" width="214" height="76" fill="#fff" mask="url(#satori_om-id)"/></mask><mask id="satori_om-id-1-0"><rect x="323" y="52" width="214" height="16" fill="#fff" mask="url(#satori_om-id)"/></mask><g mask="url(#satori_om-id)" clip-path="url(#satori_cp-id)"><path fill="rgba(180,215,255,0.72)" d="M325.3 65L324.1 65L324.1 55.5L327.4 55.5Q328.5 55.5 329.2 55.9Q329.9 56.3 330.3 57.0Q330.6 57.7 330.6 58.6Q330.6 59.4 330.3 60.1Q329.9 60.8 329.2 61.2Q328.5 61.6 327.4 61.6L327.4 61.6L325.3 61.6L325.3 65ZM325.3 56.6L325.3 60.5L327.3 60.5Q328.1 60.5 328.5 60.3Q329.0 60.0 329.2 59.6Q329.4 59.1 329.4 58.6Q329.4 58.0 329.2 57.6Q329.0 57.1 328.5 56.9Q328.1 56.6 327.3 56.6L327.3 56.6L325.3 56.6ZM335.5 65L334.2 65L334.2 55.5L337.5 55.5Q338.6 55.5 339.3 55.9Q340.0 56.3 340.4 57.0Q340.7 57.6 340.7 58.5Q340.7 59.3 340.4 60.0Q340.0 60.6 339.3 61.0L339.3 61.0Q339.1 61.1 339.0 61.1L339.0 61.1L341.1 65L339.7 65L337.7 61.3Q337.6 61.3 337.5 61.3L337.5 61.3L335.5 61.3L335.5 65ZM335.5 56.6L335.5 60.3L337.4 60.3Q338.2 60.3 338.6 60.0Q339.1 59.8 339.3 59.4Q339.5 59.0 339.5 58.5L339.5 58.5Q339.5 57.9 339.3 57.5Q339.1 57.1 338.6 56.8Q338.2 56.6 337.4 56.6L337.4 56.6L335.5 56.6ZM348.2 65.1L348.2 65.1Q347.0 65.1 346.1 64.5Q345.1 64.0 344.6 62.9Q344.0 61.8 344.0 60.3L344.0 60.3Q344.0 58.8 344.6 57.7Q345.1 56.6 346.1 56.0Q347.0 55.4 348.2 55.4L348.2 55.4Q349.5 55.4 350.4 56.0Q351.3 56.6 351.9 57.7Q352.4 58.8 352.4 60.3L352.4 60.3Q352.4 61.8 351.9 62.9Q351.3 64.0 350.4 64.5Q349.5 65.1 348.2 65.1ZM348.2 64.0L348.2 64.0Q349.1 64.0 349.8 63.6Q350.5 63.2 350.9 62.3Q351.3 61.5 351.3 60.3L351.3 60.3Q351.3 59.1 350.9 58.2Q350.5 57.4 349.8 57.0Q349.1 56.5 348.2 56.5L348.2 56.5Q347.4 56.5 346.7 57.0Q346.0 57.4 345.6 58.2Q345.2 59.1 345.2 60.3L345.2 60.3Q345.2 61.5 345.6 62.3Q346.0 63.1 346.7 63.6Q347.4 64.0 348.2 64.0ZM357.4 65L356.2 65L356.2 55.5L361.9 55.5L361.9 56.6L357.4 56.6L357.4 59.8L361.4 59.8L361.4 60.9L357.4 60.9L357.4 65ZM365.6 55.5L366.8 55.5L366.8 65L365.6 65L365.6 55.5ZM376.5 65L370.9 65L370.9 55.5L372.1 55.5L372.1 63.9L376.5 63.9L376.5 65ZM385.9 65L380.1 65L380.1 55.5L385.8 55.5L385.8 56.6L381.3 56.6L381.3 59.7L385.5 59.7L385.5 60.8L381.3 60.8L381.3 63.9L385.9 63.9L385.9 65Z M399.2 65L397.8 65L394.3 55.5L395.6 55.5L397.6 61.2Q397.8 61.6 398.0 62.4L398.0 62.4Q398.2 63.1 398.5 64.0L398.5 64.0Q398.8 63.1 399.0 62.4L399.0 62.4Q399.2 61.6 399.4 61.2L399.4 61.2L401.4 55.5L402.6 55.5L399.2 65ZM405.9 55.5L407.1 55.5L407.1 65L405.9 65L405.9 55.5ZM417.0 65L411.2 65L411.2 55.5L417.0 55.5L417.0 56.6L412.4 56.6L412.4 59.7L416.7 59.7L416.7 60.8L412.4 60.8L412.4 63.9L417.0 63.9L417.0 65ZM424.0 65L422.6 65L420.0 55.5L421.2 55.5L422.7 61.3Q422.9 61.8 423.0 62.3Q423.1 62.8 423.2 63.3L423.2 63.3Q423.2 63.6 423.3 63.9L423.3 63.9Q423.3 63.6 423.4 63.3L423.4 63.3Q423.5 62.8 423.6 62.3Q423.7 61.8 423.9 61.3L423.9 61.3L425.4 55.5L426.8 55.5L428.3 61.3Q428.4 61.8 428.5 62.3Q428.6 62.8 428.7 63.3L428.7 63.3Q428.8 63.5 428.9 63.8L428.9 63.8Q428.9 63.5 429.0 63.3L429.0 63.3Q429.1 62.8 429.2 62.3Q429.3 61.8 429.4 61.3L429.4 61.3L430.9 55.5L432.1 55.5L429.6 65L428.2 65L426.5 59.0Q426.4 58.4 426.2 57.7L426.2 57.7Q426.1 57.4 426.1 56.9L426.1 56.9Q426.0 57.3 425.9 57.7L425.9 57.7Q425.8 58.3 425.6 59.0L425.6 59.0L424.0 65ZM438.5 65.2L438.5 65.2Q437.4 65.2 436.7 64.8Q435.9 64.5 435.5 63.9Q435.1 63.3 435.0 62.5L435.0 62.5L436.3 62.5Q436.3 63.1 436.6 63.4Q436.9 63.7 437.4 63.9Q437.9 64.1 438.5 64.1L438.5 64.1Q439.1 64.1 439.6 63.9Q440.1 63.7 440.4 63.3Q440.7 62.9 440.7 62.4L440.7 62.4Q440.7 61.9 440.5 61.7Q440.2 61.4 439.8 61.2Q439.3 61.0 438.8 60.9L438.8 60.9L437.7 60.5Q436.6 60.2 435.9 59.6Q435.3 59.0 435.3 58.1L435.3 58.1Q435.3 57.3 435.7 56.7Q436.1 56.1 436.9 55.7Q437.6 55.4 438.5 55.4L438.5 55.4Q439.5 55.4 440.2 55.7Q440.9 56.1 441.3 56.6Q441.7 57.2 441.8 57.9L441.8 57.9L440.6 57.9Q440.5 57.2 439.9 56.9Q439.3 56.5 438.5 56.5L438.5 56.5Q437.9 56.5 437.4 56.7Q437.0 56.9 436.7 57.2Q436.5 57.6 436.5 58.0L436.5 58.0Q436.5 58.5 436.8 58.8Q437.1 59.1 437.5 59.3Q437.9 59.5 438.3 59.5L438.3 59.5L439.2 59.8Q439.6 59.9 440.0 60.1Q440.5 60.3 440.9 60.6Q441.3 60.9 441.6 61.3Q441.9 61.8 441.9 62.4L441.9 62.4Q441.9 63.2 441.5 63.8Q441.1 64.4 440.3 64.8Q439.5 65.2 438.5 65.2Z M454.0 65.2L454.0 65.2Q453.0 65.2 452.3 64.8Q451.5 64.5 451.1 63.9Q450.7 63.3 450.6 62.5L450.6 62.5L451.9 62.5Q451.9 63.1 452.2 63.4Q452.5 63.7 453.0 63.9Q453.5 64.1 454.0 64.1L454.0 64.1Q454.7 64.1 455.2 63.9Q455.7 63.7 456.0 63.3Q456.3 62.9 456.3 62.4L456.3 62.4Q456.3 61.9 456.0 61.7Q455.8 61.4 455.4 61.2Q454.9 61.0 454.4 60.9L454.4 60.9L453.3 60.5Q452.1 60.2 451.5 59.6Q450.9 59.0 450.9 58.1L450.9 58.1Q450.9 57.3 451.3 56.7Q451.7 56.1 452.5 55.7Q453.2 55.4 454.1 55.4L454.1 55.4Q455.1 55.4 455.8 55.7Q456.5 56.1 456.9 56.6Q457.3 57.2 457.4 57.9L457.4 57.9L456.2 57.9Q456.1 57.2 455.5 56.9Q454.9 56.5 454.1 56.5L454.1 56.5Q453.5 56.5 453.0 56.7Q452.6 56.9 452.3 57.2Q452.1 57.6 452.1 58.0L452.1 58.0Q452.1 58.5 452.4 58.8Q452.7 59.1 453.1 59.3Q453.5 59.5 453.9 59.5L453.9 59.5L454.8 59.8Q455.2 59.9 455.6 60.1Q456.1 60.3 456.5 60.6Q456.9 60.9 457.2 61.3Q457.5 61.8 457.5 62.4L457.5 62.4Q457.5 63.2 457.1 63.8Q456.7 64.4 455.9 64.8Q455.1 65.2 454.0 65.2ZM462.4 65L461.2 65L461.2 55.5L462.6 55.5L466.4 61.6Q466.6 61.8 466.8 62.2Q467.0 62.6 467.3 63.0L467.3 63.0Q467.4 63.3 467.5 63.6L467.5 63.6Q467.5 63.3 467.5 63.0L467.5 63.0Q467.5 62.5 467.5 62.1Q467.5 61.6 467.5 61.3L467.5 61.3L467.5 55.5L468.7 55.5L468.7 65L467.2 65L463.8 59.6Q463.6 59.2 463.3 58.8Q463.1 58.4 462.8 57.9L462.8 57.9Q462.6 57.5 462.3 57.0L462.3 57.0Q462.3 57.5 462.3 57.9L462.3 57.9Q462.3 58.5 462.4 58.9Q462.4 59.4 462.4 59.6L462.4 59.6L462.4 65ZM473.2 65L471.9 65L475.4 55.5L476.8 55.5L480.3 65L479.0 65L478.0 62.4L474.1 62.4L473.2 65ZM474.5 61.3L477.7 61.3L477.0 59.4Q476.8 58.9 476.6 58.1L476.6 58.1Q476.3 57.4 476.1 56.5L476.1 56.5Q475.8 57.5 475.6 58.1L475.6 58.1Q475.3 58.9 475.2 59.4L475.2 59.4L474.5 61.3ZM484.7 65L483.5 65L483.5 55.5L486.8 55.5Q487.9 55.5 488.6 55.9Q489.3 56.3 489.6 57.0Q490.0 57.7 490.0 58.6Q490.0 59.4 489.6 60.1Q489.3 60.8 488.6 61.2Q487.9 61.6 486.8 61.6L486.8 61.6L484.7 61.6L484.7 65ZM484.7 56.6L484.7 60.5L486.7 60.5Q487.5 60.5 487.9 60.3Q488.4 60.0 488.6 59.6Q488.8 59.1 488.8 58.6Q488.8 58.0 488.6 57.6Q488.4 57.1 487.9 56.9Q487.5 56.6 486.7 56.6L486.7 56.6L484.7 56.6ZM496.7 65.2L496.7 65.2Q495.6 65.2 494.9 64.8Q494.1 64.5 493.7 63.9Q493.3 63.3 493.2 62.5L493.2 62.5L494.5 62.5Q494.5 63.1 494.8 63.4Q495.1 63.7 495.6 63.9Q496.1 64.1 496.7 64.1L496.7 64.1Q497.3 64.1 497.8 63.9Q498.3 63.7 498.6 63.3Q498.9 62.9 498.9 62.4L498.9 62.4Q498.9 61.9 498.7 61.7Q498.4 61.4 498.0 61.2Q497.5 61.0 497.0 60.9L497.0 60.9L495.9 60.5Q494.8 60.2 494.1 59.6Q493.5 59.0 493.5 58.1L493.5 58.1Q493.5 57.3 493.9 56.7Q494.4 56.1 495.1 55.7Q495.8 55.4 496.7 55.4L496.7 55.4Q497.7 55.4 498.4 55.7Q499.1 56.1 499.5 56.6Q499.9 57.2 500.0 57.9L500.0 57.9L498.8 57.9Q498.7 57.2 498.1 56.9Q497.5 56.5 496.7 56.5L496.7 56.5Q496.1 56.5 495.6 56.7Q495.2 56.9 494.9 57.2Q494.7 57.6 494.7 58.0L494.7 58.0Q494.7 58.5 495.0 58.8Q495.3 59.1 495.7 59.3Q496.1 59.5 496.5 59.5L496.5 59.5L497.4 59.8Q497.8 59.9 498.3 60.1Q498.7 60.3 499.1 60.6Q499.5 60.9 499.8 61.3Q500.1 61.8 500.1 62.4L500.1 62.4Q500.1 63.2 499.7 63.8Q499.3 64.4 498.5 64.8Q497.7 65.2 496.7 65.2ZM505.0 65L503.8 65L503.8 55.5L505.0 55.5L505.0 59.6L509.9 59.6L509.9 55.5L511.1 55.5L511.1 65L509.9 65L509.9 60.7L505.0 60.7L505.0 65ZM519.1 65.1L519.1 65.1Q517.9 65.1 516.9 64.5Q516.0 64.0 515.4 62.9Q514.9 61.8 514.9 60.3L514.9 60.3Q514.9 58.8 515.4 57.7Q516.0 56.6 516.9 56.0Q517.9 55.4 519.1 55.4L519.1 55.4Q520.3 55.4 521.2 56.0Q522.2 56.6 522.7 57.7Q523.3 58.8 523.3 60.3L523.3 60.3Q523.3 61.8 522.7 62.9Q522.2 64.0 521.2 64.5Q520.3 65.1 519.1 65.1ZM519.1 64.0L519.1 64.0Q519.9 64.0 520.6 63.6Q521.3 63.2 521.7 62.3Q522.1 61.5 522.1 60.3L522.1 60.3Q522.1 59.1 521.7 58.2Q521.3 57.4 520.6 57.0Q519.9 56.5 519.1 56.5L519.1 56.5Q518.2 56.5 517.5 57.0Q516.8 57.4 516.4 58.2Q516.0 59.1 516.0 60.3L516.0 60.3Q516.0 61.5 516.4 62.3Q516.8 63.1 517.5 63.6Q518.2 64.0 519.1 64.0ZM529.4 56.6L526.4 56.6L526.4 55.5L533.6 55.5L533.6 56.6L530.6 56.6L530.6 65L529.4 65L529.4 56.6Z "/></g><mask id="satori_om-id-1-1"><rect x="414" y="70" width="32" height="58" fill="#fff" mask="url(#satori_om-id)"/></mask><defs><filter id="satori_s-id-1-1-0" x="-580.94%" y="-320.52%" width="1271.88%" height="751.03%"><feDropShadow dx="0" dy="0" stdDeviation="13" flood-color="rgba(120,180,255,0.35)" flood-opacity="1"/></filter></defs><g filter="url(#satori_s-id-1-1-0)"><g mask="url(#satori_om-id)" clip-path="url(#satori_cp-id)"><path fill="#e7f1ff" d="M430.2 117.5L430.2 117.5Q425.8 117.5 422.6 115.3Q419.5 113.2 417.9 109.2Q416.2 105.2 416.2 99.6L416.2 99.6Q416.2 93.9 417.9 89.9Q419.5 85.9 422.6 83.7Q425.8 81.6 430.2 81.6L430.2 81.6Q434.6 81.6 437.7 83.8Q440.8 85.9 442.5 89.9Q444.2 93.9 444.2 99.6L444.2 99.6Q444.2 105.2 442.5 109.2Q440.9 113.2 437.7 115.3Q434.6 117.5 430.2 117.5ZM430.2 111.5L430.2 111.5Q432.3 111.5 433.8 110.1Q435.3 108.7 436.1 106.1Q436.9 103.4 436.9 99.6L436.9 99.6Q436.9 95.7 436.1 93.0Q435.3 90.3 433.8 88.9Q432.3 87.5 430.2 87.5L430.2 87.5Q428.0 87.5 426.5 88.9Q425.0 90.4 424.3 93.0Q423.5 95.7 423.5 99.6L423.5 99.6Q423.5 103.4 424.3 106.1Q425.0 108.7 426.5 110.1Q428.0 111.5 430.2 111.5Z "/></g></g></svg>