<!-- Generated by readme-aura https://github.com/collectioneur/readme-aura -->
<svg width="800" height="200" viewBox="0 0 800 200" xmlns="http://www.w3.org/2000/svg"><defs><pattern id="satori_pattern_id_0" x="0" y="0" width="1" height="1" patternUnits="objectBoundingBox"><linearGradient id="satori_biid_0" x1="0" y1="0" x2="1" y2="0" spreadMethod="pad"><stop offset="0%" stop-color="#ef939344"/><stop offset="25%" stop-color="#e17dc244"/><stop offset="50%" stop-color="#998ee044"/><stop offset="75%" stop-color="#43add044"/><stop offset="100%" stop-color="#8bdeda44"/></linearGradient><rect x="0" y="0" width="800" height="200" fill="url(#satori_biid_0)"/></pattern></defs><clipPath id="satori_cp-id"><path x="0" y="0" width="800" height="200" d="M20,0 h760 a20,20 0 0 1 20,20 v160 a20,20 0 0 1 -20,20 h-760 a20,20 0 0 1 -20,-20 v-160 a20,20 0 0 1 20,-20"/></clipPath><mask id="satori_om-id"><rect x="0" y="0" width="800" height="200" fill="#fff"/></mask><path x="0" y="0" width="800" height="200" fill="url(#satori_pattern_id_0)" d="M20,0 h760 a20,20 0 0 1 20,20 v160 a20,20 0 0 1 -20,20 h-760 a20,20 0 0 1 -20,-20 v-160 a20,20 0 0 1 20,-20"/><mask id="satori_ms-id-3" maskUnits="userSpaceOnUse"><rect x="0" y="0" width="800" height="200" fill="#000"/><path x="0" y="0" width="800" height="200" fill="#fff"  stroke-width="0" d="M20,0 h760 a20,20 0 0 1 20,20 v160 a20,20 0 0 1 -20,20 h-760 a20,20 0 0 1 -20,-20 v-160 a20,20 0 0 1 20,-20"/></mask><defs><filter id="satori_s-id-3" x="-6.406249999999999%" y="-28.125%" width="114.0625%" height="156.25%"><feGaussianBlur stdDeviation="7.5" result="b"/><feFlood flood-color="rgba(255,255,255,0.1)" in="SourceGraphic" result="f"/><feComposite in="f" in2="b" operator="out"/></filter></defs><g mask="url(#satori_ms-id-3)" filter="url(#satori_s-id-3)" opacity="1"><path x="-5" y="0" width="800" height="200" fill="#fff" stroke="#fff" stroke-width="0" d="M15,0 h760 a20,20 0 0 1 20,20 v160 a20,20 0 0 1 -20,20 h-760 a20,20 0 0 1 -20,-20 v-160 a20,20 0 0 1 20,-20"/></g><mask id="satori_ms-id-2" maskUnits="userSpaceOnUse"><rect x="0" y="0" width="800" height="200" fill="#000"/><path x="0" y="0" width="800" height="200" fill="#fff"  stroke-width="0" d="M20,0 h760 a20,20 0 0 1 20,20 v160 a20,20 0 0 1 -20,20 h-760 a20,20 0 0 1 -20,-20 v-160 a20,20 0 0 1 20,-20"/></mask><defs><filter id="satori_s-id-2" x="-7.656250000000001%" y="-28.125%" width="114.0625%" height="156.25%"><feGaussianBlur stdDeviation="7.5" result="b"/><feFlood flood-color="rgba(255,255,255,0.1)" in="SourceGraphic" result="f"/><feComposite in="f" in2="b" operator="out"/></filter></defs><g mask="url(#satori_ms-id-2)" filter="url(#satori_s-id-2)" opacity="1"><path x="5" y="0" width="800" height="200" fill="#fff" stroke="#fff" stroke-width="0" d="M25,0 h760 a20,20 0 0 1 20,20 v160 a20,20 0 0 1 -20,20 h-760 a20,20 0 0 1 -20,-20 v-160 a20,20 0 0 1 20,-20"/></g><mask id="satori_ms-id-1" maskUnits="userSpaceOnUse"><rect x="0" y="0" width="800" height="200" fill="#000"/><path x="0" y="0" width="800" height="200" fill="#fff"  stroke-width="0" d="M20,0 h760 a20,20 0 0 1 20,20 v160 a20,20 0 0 1 -20,20 h-760 a20,20 0 0 1 -20,-20 v-160 a20,20 0 0 1 20,-20"/></mask><defs><filter id="satori_s-id-1" x="-7.03125%" y="-25.624999999999996%" width="114.0625%" height="156.25%"><feGaussianBlur stdDeviation="7.5" result="b"/><feFlood flood-color="rgba(255,255,255,0.1)" in="SourceGraphic" result="f"/><feComposite in="f" in2="b" operator="out"/></filter></defs><g mask="url(#satori_ms-id-1)" filter="url(#satori_s-id-1)" opacity="1"><path x="0" y="-5" width="800" height="200" fill="#fff" stroke="#fff" stroke-width="0" d="M20,-5 h760 a20,20 0 0 1 20,20 v160 a20,20 0 0 1 -20,20 h-760 a20,20 0 0 1 -20,-20 v-160 a20,20 0 0 1 20,-20"/></g><mask id="satori_ms-id-0" maskUnits="userSpaceOnUse"><rect x="0" y="0" width="800" height="200" fill="#000"/><path x="0" y="0" width="800" height="200" fill="#fff"  stroke-width="0" d="M20,0 h760 a20,20 0 0 1 20,20 v160 a20,20 0 0 1 -20,20 h-760 a20,20 0 0 1 -20,-20 v-160 a20,20 0 0 1 20,-20"/></mask><defs><filter id="satori_s-id-0" x="-7.03125%" y="-30.625000000000004%" width="114.0625%" height="156.25%"><feGaussianBlur stdDeviation="7.5" result="b"/><feFlood flood-color="rgba(255,255,255,0.2)" in="SourceGraphic" result="f"/><feComposite in="f" in2="b" operator="out"/></filter></defs><g mask="url(#satori_ms-id-0)" filter="url(#satori_s-id-0)" opacity="1"><path x="0" y="5" width="800" height="200" fill="#fff" stroke="#fff" stroke-width="0" d="M20,5 h760 a20,20 0 0 1 20,20 v160 a20,20 0 0 1 -20,20 h-760 a20,20 0 0 1 -20,-20 v-160 a20,20 0 0 1 20,-20"/></g><clipPath id="satori_cp-id-0" clip-path="url(#satori_cp-id)"><rect x="0" y="0" width="800" height="200"/></clipPath><mask id="satori_om-id-0"><rect x="0" y="0" width="800" height="200" fill="#fff" mask="url(#satori_om-id)"/></mask><svg x="0" y="0" width="800" height="200" preserveAspectRatio="none" clip-path="url(#satori_cp-id-0)" mask="url(#satori_om-id-0)"><defs><linearGradient id="tw-holo-li" gradientUnits="objectBoundingBox" x1="0" y1="0" x2="1" y2="1"><stop offset="0%" stop-color="#a1f4ff02"></stop><stop offset="10%" stop-color="#ffffff"></stop><stop offset="30%" stop-color="#a1f4ff02"></stop><stop offset="60%" stop-color="#ffffff"></stop><stop offset="80%" stop-color="#a1f4ff02"></stop><stop offset="100%" stop-color="#a1f4ff02"></stop><animateTransform attributeName="gradientTransform" type="rotate" from="0 0.5 0.5" to="360 0.5 0.5" dur="8s" repeatCount="indefinite"></animateTransform></linearGradient><filter id="stroke-blur" x="-10%" y="-10%" width="120%" height="120%"><feGaussianBlur stdDeviation="1"></feGaussianBlur></filter></defs><rect x="2.5" y="2.5" width="795" height="195" rx="18.75" ry="18.75" fill="none" stroke="url(#tw-holo-li)" stroke-width="4" stroke-linecap="round" stroke-linejoin="round" filter="url(#stroke-blur)"></rect><rect x="0.25" y="0.25" width="799.5" height="199.5" rx="19.75" ry="19.75" fill="none" stroke="#ffffff" stroke-width="0.5" stroke-linecap="round" stroke-linejoin="round"></rect></svg><mask id="satori_om-id-0-0"><rect x="0" y="0" width="0" height="200" fill="#fff" mask="url(#satori_om-id)"/></mask><mask id="satori_om-id-0-0-0"><rect x="0" y="0" width="0" height="200" fill="#fff" mask="url(#satori_om-id)"/></mask><mask id="satori_om-id-0-0-0-0"><rect x="0" y="0" width="0" height="200" fill="#fff" mask="url(#satori_om-id)"/></mask><mask id="satori_om-id-0-0-0-1"><rect x="0" y="0" width="0" height="200" fill="#fff" mask="url(#satori_om-id)"/></mask><mask id="satori_om-id-0-0-0-2"><rect x="0" y="0" width="0" height="200" fill="#fff" mask="url(#satori_om-id)"/></mask><mask id="satori_om-id-0-0-0-3"><rect x="0" y="0" width="0" height="200" fill="#fff" mask="url(#satori_om-id)"/></mask><mask id="satori_om-id-0-0-0-4"><rect x="0" y="0" width="0" height="200" fill="#fff" mask="url(#satori_om-id)"/></mask><mask id="satori_om-id-0-0-0-5"><rect x="0" y="0" width="0" height="200" fill="#fff" mask="url(#satori_om-id)"/></mask><mask id="satori_om-id-0-0-0-6"><rect x="0" y="0" width="0" height="200" fill="#fff" mask="url(#satori_om-id)"/></mask><mask id="satori_om-id-0-0-1"><rect x="0" y="0" width="0" height="200" fill="#fff" mask="url(#satori_om-id)"/></mask><mask id="satori_om-id-0-0-1-0"><rect x="0" y="0" width="0" height="200" fill="#fff" mask="url(#satori_om-id)"/></mask><mask id="satori_om-id-0-1"><rect x="0" y="0" width="0" height="200" fill="#fff" mask="url(#satori_om-id)"/></mask><mask id="satori_om-id-0-2"><rect x="0" y="0" width="0" height="200" fill="#fff" mask="url(#satori_om-id)"/></mask><mask id="satori_om-id-1"><rect x="0" y="0" width="800" height="200" fill="#fff" mask="url(#satori_om-id)"/></mask><mask id="satori_om-id-1-0"><rect x="351" y="82" width="98" height="36" fill="#fff" mask="url(#satori_om-id)"/></mask><g mask="url(#satori_om-id)" clip-path="url(#satori_cp-id)"><path fill="#ffffff" d="M356.4 111L353.6 111L353.6 89.2L356.4 89.2L356.4 98.6L367.9 98.6L367.9 89.2L370.7 89.2L370.7 111L367.9 111L367.9 101.1L356.4 101.1L356.4 111ZM389.4 111L375.9 111L375.9 89.2L389.2 89.2L389.2 91.6L378.7 91.6L378.7 98.8L388.5 98.8L388.5 101.2L378.7 101.2L378.7 108.5L389.4 108.5L389.4 111ZM406.9 111L394.0 111L394.0 89.2L396.7 89.2L396.7 108.5L406.9 108.5L406.9 111ZM423.8 111L410.9 111L410.9 89.2L413.7 89.2L413.7 108.5L423.8 108.5L423.8 111ZM436.7 111.3L436.7 111.3Q433.9 111.3 431.7 109.9Q429.6 108.6 428.3 106.1Q427.0 103.6 427.0 100.1L427.0 100.1Q427.0 96.6 428.3 94.1Q429.6 91.6 431.7 90.2Q433.9 88.9 436.7 88.9L436.7 88.9Q439.5 88.9 441.7 90.2Q443.9 91.6 445.2 94.1Q446.4 96.6 446.4 100.1L446.4 100.1Q446.4 103.6 445.2 106.1Q443.9 108.6 441.7 109.9Q439.5 111.3 436.7 111.3ZM436.7 108.7L436.7 108.7Q438.7 108.7 440.3 107.7Q441.8 106.7 442.8 104.8Q443.7 102.9 443.7 100.1L443.7 100.1Q443.7 97.3 442.8 95.4Q441.8 93.4 440.3 92.4Q438.7 91.5 436.7 91.5L436.7 91.5Q434.8 91.5 433.2 92.5Q431.6 93.5 430.7 95.4Q429.8 97.3 429.8 100.1L429.8 100.1Q429.8 102.9 430.7 104.8Q431.6 106.7 433.2 107.7Q434.8 108.7 436.7 108.7Z "/></g></svg>