<!-- Generated by readme-aura https://github.com/collectioneur/readme-aura -->
<svg width="800" height="200" viewBox="0 0 800 200" xmlns="http://www.w3.org/2000/svg"><clipPath id="satori_cp-id"><path x="0" y="0" width="800" height="200" d="M20,0 h760 a20,20 0 0 1 20,20 v160 a20,20 0 0 1 -20,20 h-760 a20,20 0 0 1 -20,-20 v-160 a20,20 0 0 1 20,-20"/></clipPath><mask id="satori_om-id"><rect x="0" y="0" width="800" height="200" fill="#fff"/></mask><path x="0" y="0" width="800" height="200" fill="#08080d" d="M20,0 h760 a20,20 0 0 1 20,20 v160 a20,20 0 0 1 -20,20 h-760 a20,20 0 0 1 -20,-20 v-160 a20,20 0 0 1 20,-20"/><clipPath id="satori_cp-id-0" clip-path="url(#satori_cp-id)"><rect x="0" y="0" width="800" height="200"/></clipPath><mask id="satori_om-id-0"><rect x="0" y="0" width="800" height="200" fill="#fff" mask="url(#satori_om-id)"/></mask><svg x="0" y="0" width="800" height="200" preserveAspectRatio="none" clip-path="url(#satori_cp-id-0)" mask="url(#satori_om-id-0)"><defs><radialGradient id="sg1" cx="50%" cy="50%" r="50%"><stop offset="0%" stop-color="rgba(108,195,130,0.4)"></stop><stop offset="100%" stop-color="rgba(108,195,130,0)"></stop></radialGradient><radialGradient id="sg2" cx="50%" cy="50%" r="50%"><stop offset="0%" stop-color="rgba(230,100,115,0.35)"></stop><stop offset="100%" stop-color="rgba(230,100,115,0)"></stop></radialGradient><radialGradient id="sg3" cx="50%" cy="50%" r="50%"><stop offset="0%" stop-color="rgba(80,160,220,0.3)"></stop><stop offset="100%" stop-color="rgba(80,160,220,0)"></stop></radialGradient><radialGradient id="sg4" cx="50%" cy="50%" r="50%"><stop offset="0%" stop-color="rgba(195,155,255,0.3)"></stop><stop offset="100%" stop-color="rgba(195,155,255,0)"></stop></radialGradient></defs><ellipse id="st-o1" cx="80" cy="160" rx="160" ry="120" fill="url(#sg1)"></ellipse><ellipse id="st-o2" cx="730" cy="50" rx="150" ry="120" fill="url(#sg2)"></ellipse><ellipse id="st-o3" cx="640" cy="170" rx="140" ry="110" fill="url(#sg3)"></ellipse><ellipse id="st-o4" cx="180" cy="40" rx="130" ry="100" fill="url(#sg4)"></ellipse><style>

    @keyframes stack-orb { 0%, 100% { transform: translate(0,0); opacity: 0.45; } 50% { transform: translate(18px,-14px); opacity: 0.7; } }
    @keyframes stack-orb-b { 0%, 100% { transform: translate(0,0); opacity: 0.4; } 50% { transform: translate(-14px,10px); opacity: 0.65; } }
    @keyframes chip-appear { 0% { opacity: 0; transform: translateY(8px); } 100% { opacity: 1; transform: translateY(0); } }
    #st-o1 { animation: stack-orb 10s ease-in-out infinite; }
    #st-o2 { animation: stack-orb-b 12s ease-in-out infinite 1s; }
    #st-o3 { animation: stack-orb 9s ease-in-out infinite 2.5s; }
    #st-o4 { animation: stack-orb-b 11s ease-in-out infinite 0.5s; }
  
</style>
</svg><mask id="satori_om-id-0-0"><rect x="0" y="0" width="0" height="200" fill="#fff" mask="url(#satori_om-id)"/></mask><mask id="satori_om-id-0-0-0"><rect x="0" y="0" width="0" height="200" fill="#fff" mask="url(#satori_om-id)"/></mask><mask id="satori_om-id-0-0-0-0"><rect x="0" y="0" width="0" height="200" fill="#fff" mask="url(#satori_om-id)"/></mask><mask id="satori_om-id-0-0-0-1"><rect x="0" y="0" width="0" height="200" fill="#fff" mask="url(#satori_om-id)"/></mask><mask id="satori_om-id-0-0-1"><rect x="0" y="0" width="0" height="200" fill="#fff" mask="url(#satori_om-id)"/></mask><mask id="satori_om-id-0-0-1-0"><rect x="0" y="0" width="0" height="200" fill="#fff" mask="url(#satori_om-id)"/></mask><mask id="satori_om-id-0-0-1-1"><rect x="0" y="0" width="0" height="200" fill="#fff" mask="url(#satori_om-id)"/></mask><mask id="satori_om-id-0-0-2"><rect x="0" y="0" width="0" height="200" fill="#fff" mask="url(#satori_om-id)"/></mask><mask id="satori_om-id-0-0-2-0"><rect x="0" y="0" width="0" height="200" fill="#fff" mask="url(#satori_om-id)"/></mask><mask id="satori_om-id-0-0-2-1"><rect x="0" y="0" width="0" height="200" fill="#fff" mask="url(#satori_om-id)"/></mask><mask id="satori_om-id-0-0-3"><rect x="0" y="0" width="0" height="200" fill="#fff" mask="url(#satori_om-id)"/></mask><mask id="satori_om-id-0-0-3-0"><rect x="0" y="0" width="0" height="200" fill="#fff" mask="url(#satori_om-id)"/></mask><mask id="satori_om-id-0-0-3-1"><rect x="0" y="0" width="0" height="200" fill="#fff" mask="url(#satori_om-id)"/></mask><mask id="satori_om-id-0-1"><rect x="0" y="0" width="0" height="200" fill="#fff" mask="url(#satori_om-id)"/></mask><mask id="satori_om-id-0-2"><rect x="0" y="0" width="0" height="200" fill="#fff" mask="url(#satori_om-id)"/></mask><mask id="satori_om-id-0-3"><rect x="0" y="0" width="0" height="200" fill="#fff" mask="url(#satori_om-id)"/></mask><mask id="satori_om-id-0-4"><rect x="0" y="0" width="0" height="200" fill="#fff" mask="url(#satori_om-id)"/></mask><mask id="satori_om-id-1"><rect x="371" y="48" width="58" height="13" fill="#fff" mask="url(#satori_om-id)"/></mask><g mask="url(#satori_om-id)" clip-path="url(#satori_cp-id)"><path fill="rgba(255,255,255,0.3)" d="M374.5 59.1L374.5 59.1Q373.7 59.1 373.0 58.9Q372.4 58.6 372.0 58.1Q371.7 57.6 371.6 56.9L371.6 56.9L372.7 56.9Q372.7 57.4 373.0 57.6Q373.2 57.9 373.7 58.1Q374.1 58.2 374.5 58.2L374.5 58.2Q375.1 58.2 375.5 58.0Q375.9 57.9 376.2 57.5Q376.4 57.2 376.4 56.8L376.4 56.8Q376.4 56.4 376.2 56.2Q376.0 55.9 375.6 55.8Q375.3 55.6 374.9 55.5L374.9 55.5L373.9 55.2Q372.9 55.0 372.4 54.4Q371.8 53.9 371.8 53.1L371.8 53.1Q371.8 52.5 372.2 52.0Q372.6 51.4 373.2 51.2Q373.8 50.9 374.6 50.9L374.6 50.9Q375.4 50.9 376.0 51.2Q376.6 51.4 377.0 51.9Q377.3 52.4 377.3 53.0L377.3 53.0L376.3 53.0Q376.3 52.4 375.8 52.1Q375.3 51.8 374.6 51.8L374.6 51.8Q374.1 51.8 373.7 52.0Q373.3 52.1 373.1 52.4Q372.8 52.7 372.8 53.1L372.8 53.1Q372.8 53.5 373.1 53.8Q373.4 54.0 373.7 54.2Q374.1 54.3 374.4 54.4L374.4 54.4L375.2 54.6Q375.5 54.7 375.9 54.8Q376.3 55.0 376.6 55.2Q377.0 55.5 377.2 55.9Q377.4 56.3 377.4 56.8L377.4 56.8Q377.4 57.5 377.1 58.0Q376.8 58.5 376.1 58.8Q375.5 59.1 374.5 59.1ZM385.1 51.9L382.6 51.9L382.6 51.0L388.6 51.0L388.6 51.9L386.1 51.9L386.1 59L385.1 59L385.1 51.9ZM394.5 59L393.4 59L396.3 51.0L397.5 51.0L400.5 59L399.4 59L398.6 56.8L395.3 56.8L394.5 59ZM395.6 55.9L398.3 55.9L397.7 54.3Q397.5 53.8 397.3 53.2L397.3 53.2Q397.2 52.6 396.9 51.8L396.9 51.8Q396.7 52.6 396.5 53.2L396.5 53.2Q396.3 53.8 396.2 54.3L396.2 54.3L395.6 55.9ZM409.0 59.1L409.0 59.1Q407.9 59.1 407.1 58.6Q406.3 58.1 405.9 57.2Q405.4 56.3 405.4 55.0L405.4 55.0Q405.4 53.7 405.9 52.8Q406.3 51.9 407.1 51.4Q407.9 50.9 409.0 50.9L409.0 50.9Q409.6 50.9 410.1 51.1Q410.6 51.2 411.1 51.6Q411.5 51.9 411.8 52.4Q412.1 52.9 412.2 53.5L412.2 53.5L411.2 53.5Q411.1 53.1 410.9 52.8Q410.7 52.5 410.4 52.3Q410.1 52.0 409.7 51.9Q409.3 51.8 409.0 51.8L409.0 51.8Q408.2 51.8 407.7 52.2Q407.1 52.6 406.7 53.3Q406.4 54.0 406.4 55.0L406.4 55.0Q406.4 56.0 406.7 56.7Q407.1 57.4 407.7 57.8Q408.2 58.2 409.0 58.2L409.0 58.2Q409.3 58.2 409.7 58.1Q410.1 57.9 410.4 57.7Q410.7 57.5 410.9 57.2Q411.1 56.9 411.2 56.5L411.2 56.5L412.2 56.5Q412.1 57.1 411.8 57.6Q411.5 58.1 411.1 58.4Q410.6 58.7 410.1 58.9Q409.6 59.1 409.0 59.1ZM418.8 59L417.7 59L417.7 51.0L418.8 51.0L418.8 53.7L418.8 55.2Q418.9 55.1 419.0 54.9L419.0 54.9Q419.3 54.6 419.5 54.2Q419.8 53.9 420.1 53.6L420.1 53.6L422.5 51.0L423.9 51.0L420.6 54.5L423.9 59L422.7 59L419.9 55.2L418.8 56.4L418.8 59Z "/></g><mask id="satori_om-id-2"><rect x="60" y="81" width="680" height="72" fill="#fff" mask="url(#satori_om-id)"/></mask><defs><clipPath id="satori_bc-id-2-0" clip-path="url(#satori_cp-id)"><path x="81" y="81" width="106" height="31" d="M96.5,81 h75 a15.5,15.5 0 0 1 15.5,15.5 v0 a15.5,15.5 0 0 1 -15.5,15.5 h-75 a15.5,15.5 0 0 1 -15.5,-15.5 v0 a15.5,15.5 0 0 1 15.5,-15.5"/></clipPath></defs><mask id="satori_om-id-2-0"><rect x="82" y="82" width="104" height="29" fill="#fff" mask="url(#satori_om-id)"/><path width="106" height="31" fill="none" stroke="#000" stroke-width="2" d="M85.53999999999999,85.53999999999999 A15.5,15.5 0 0 1 96.5,81 h75 a15.5,15.5 0 0 1 15.5,15.5 v0 a15.5,15.5 0 0 1 -15.5,15.5 h-75 a15.5,15.5 0 0 1 -15.5,-15.5 v0 A15.5,15.5 0 0 1 85.53999999999999,85.53999999999999"/></mask><path x="81" y="81" width="106" height="31" fill="rgba(255,255,255,0.04)" d="M96.5,81 h75 a15.5,15.5 0 0 1 15.5,15.5 v0 a15.5,15.5 0 0 1 -15.5,15.5 h-75 a15.5,15.5 0 0 1 -15.5,-15.5 v0 a15.5,15.5 0 0 1 15.5,-15.5" clip-path="url(#satori_cp-id)" mask="url(#satori_om-id)"/><path width="106" height="31" clip-path="url(#satori_bc-id-2-0)" fill="none" stroke="rgba(255,255,255,0.08)" stroke-width="2" d="M85.53999999999999,85.53999999999999 A15.5,15.5 0 0 1 96.5,81 h75 a15.5,15.5 0 0 1 15.5,15.5 v0 a15.5,15.5 0 0 1 -15.5,15.5 h-75 a15.5,15.5 0 0 1 -15.5,-15.5 v0 A15.5,15.5 0 0 1 85.53999999999999,85.53999999999999"/><g mask="url(#satori_om-id)" clip-path="url(#satori_cp-id)"><path fill="rgba(255,255,255,0.65)" d="M103.3 93.3L100.6 93.3L100.6 92.3L107.2 92.3L107.2 93.3L104.4 93.3L104.4 101L103.3 101L103.3 93.3ZM109.1 103.4L109.1 103.4L109.3 102.5L109.4 102.5Q109.8 102.6 110.0 102.5Q110.3 102.5 110.5 102.3Q110.7 102.0 110.9 101.6L110.9 101.6L111.1 101.0L108.6 94.4L109.7 94.4L111.1 98.3Q111.3 98.9 111.5 99.5L111.5 99.5Q111.6 99.8 111.6 100.0L111.6 100.0Q111.7 99.8 111.8 99.5L111.8 99.5Q111.9 98.9 112.1 98.3L112.1 98.3L113.5 94.4L114.7 94.4L111.8 102.0Q111.6 102.5 111.3 102.8Q111.0 103.2 110.7 103.3Q110.3 103.5 109.8 103.5L109.8 103.5Q109.6 103.5 109.4 103.5Q109.1 103.4 109.1 103.4ZM117.5 103.4L116.4 103.4L116.4 94.4L117.4 94.4L117.4 95.5L117.6 95.5Q117.7 95.3 117.9 95.1Q118.1 94.8 118.4 94.6Q118.8 94.4 119.5 94.4L119.5 94.4Q120.3 94.4 120.9 94.8Q121.5 95.2 121.9 95.9Q122.2 96.7 122.2 97.7L122.2 97.7Q122.2 98.8 121.9 99.5Q121.5 100.3 120.9 100.7Q120.3 101.1 119.5 101.1L119.5 101.1Q118.8 101.1 118.5 100.9Q118.1 100.7 117.9 100.4Q117.7 100.2 117.6 100.0L117.6 100.0L117.5 100.0L117.5 103.4ZM119.3 100.2L119.3 100.2Q119.9 100.2 120.3 99.9Q120.7 99.5 120.9 99.0Q121.2 98.4 121.2 97.7L121.2 97.7Q121.2 97.1 121.0 96.5Q120.7 96.0 120.3 95.6Q119.9 95.3 119.3 95.3L119.3 95.3Q118.7 95.3 118.3 95.6Q117.9 95.9 117.7 96.5Q117.5 97.0 117.5 97.7L117.5 97.7Q117.5 98.5 117.7 99.0Q117.9 99.6 118.3 99.9Q118.7 100.2 119.3 100.2ZM127.0 101.1L127.0 101.1Q126.1 101.1 125.4 100.7Q124.7 100.3 124.3 99.5Q123.9 98.8 123.9 97.8Q123.9 96.8 124.3 96.0Q124.7 95.2 125.3 94.8Q126.0 94.4 126.9 94.4L126.9 94.4Q127.4 94.4 127.9 94.5Q128.4 94.7 128.8 95.1Q129.3 95.5 129.5 96.1Q129.7 96.7 129.7 97.6L129.7 97.6L129.7 98.1L125.0 98.1Q125.0 98.7 125.3 99.2L125.3 99.2Q125.5 99.7 126.0 99.9Q126.4 100.2 127.0 100.2L127.0 100.2Q127.4 100.2 127.7 100.1Q128.0 100.0 128.3 99.8Q128.5 99.5 128.6 99.2L128.6 99.2L129.6 99.5Q129.5 100.0 129.1 100.3Q128.8 100.7 128.2 100.9Q127.7 101.1 127.0 101.1ZM125.0 97.2L125.0 97.2L128.7 97.2Q128.6 96.7 128.5 96.4L128.5 96.4Q128.3 95.9 127.9 95.6Q127.5 95.3 126.9 95.3Q126.3 95.3 125.9 95.6Q125.5 95.9 125.2 96.3L125.2 96.3Q125.0 96.7 125.0 97.2ZM134.7 101.2L134.7 101.2Q133.7 101.2 133.0 100.8Q132.4 100.5 132.0 100.0Q131.6 99.4 131.5 98.7L131.5 98.7L132.7 98.7Q132.7 99.2 133.0 99.5Q133.3 99.8 133.7 100.0Q134.2 100.2 134.7 100.2L134.7 100.2Q135.3 100.2 135.7 100.0Q136.2 99.8 136.5 99.4Q136.8 99.1 136.8 98.6L136.8 98.6Q136.8 98.2 136.5 97.9Q136.3 97.7 135.9 97.5Q135.5 97.3 135.0 97.2L135.0 97.2L134.0 96.9Q132.9 96.6 132.3 96.0Q131.8 95.5 131.8 94.6L131.8 94.6Q131.8 93.9 132.2 93.3Q132.6 92.8 133.2 92.5Q133.9 92.2 134.8 92.2L134.8 92.2Q135.6 92.2 136.3 92.5Q136.9 92.8 137.3 93.3Q137.7 93.8 137.7 94.5L137.7 94.5L136.6 94.5Q136.6 93.8 136.0 93.5Q135.5 93.1 134.7 93.1L134.7 93.1Q134.2 93.1 133.7 93.3Q133.3 93.5 133.1 93.8Q132.8 94.1 132.8 94.6L132.8 94.6Q132.8 95.0 133.1 95.3Q133.4 95.6 133.8 95.7Q134.2 95.9 134.5 96.0L134.5 96.0L135.4 96.2Q135.7 96.3 136.2 96.5Q136.6 96.6 137.0 96.9Q137.4 97.2 137.6 97.6Q137.9 98.0 137.9 98.6L137.9 98.6Q137.9 99.3 137.5 99.9Q137.1 100.5 136.4 100.8Q135.7 101.2 134.7 101.2ZM142.6 101.1L142.6 101.1Q141.7 101.1 141.1 100.7Q140.4 100.3 140.0 99.5Q139.6 98.8 139.6 97.8L139.6 97.8Q139.6 96.7 140.0 96.0Q140.4 95.2 141.1 94.8Q141.7 94.4 142.6 94.4L142.6 94.4Q143.1 94.4 143.5 94.5Q143.9 94.6 144.3 94.8Q144.6 95.1 144.9 95.4Q145.1 95.8 145.3 96.2L145.3 96.2L144.3 96.5Q144.2 96.2 144.0 96.0Q143.9 95.8 143.7 95.6Q143.5 95.5 143.2 95.4Q142.9 95.3 142.6 95.3L142.6 95.3Q142.0 95.3 141.5 95.7Q141.1 96.0 140.9 96.6Q140.7 97.1 140.7 97.8L140.7 97.8Q140.7 98.4 140.9 99.0Q141.1 99.5 141.5 99.9Q142.0 100.2 142.6 100.2L142.6 100.2Q143.0 100.2 143.2 100.1Q143.5 100.0 143.7 99.9Q143.9 99.7 144.1 99.5Q144.2 99.3 144.3 99.0L144.3 99.0L145.3 99.3Q145.2 99.7 144.9 100.1Q144.7 100.4 144.3 100.6Q144.0 100.9 143.5 101.0Q143.1 101.1 142.6 101.1ZM148.4 101L147.3 101L147.3 94.4L148.3 94.4L148.3 95.5L148.4 95.5Q148.6 95.0 149.1 94.7Q149.5 94.4 150.1 94.4L150.1 94.4Q150.2 94.4 150.4 94.4Q150.5 94.4 150.6 94.4L150.6 94.4L150.6 95.4Q150.6 95.4 150.4 95.4Q150.2 95.4 150.0 95.4L150.0 95.4Q149.5 95.4 149.2 95.6Q148.8 95.8 148.6 96.1Q148.4 96.5 148.4 96.9L148.4 96.9L148.4 101ZM153.4 101L152.3 101L152.3 94.4L153.4 94.4L153.4 101ZM152.9 93.4L152.9 93.4Q152.6 93.4 152.3 93.2Q152.1 93.0 152.1 92.7L152.1 92.7Q152.1 92.4 152.3 92.2Q152.6 92.0 152.9 92.0L152.9 92.0Q153.2 92.0 153.4 92.2Q153.6 92.4 153.6 92.7L153.6 92.7Q153.6 93.0 153.4 93.2Q153.2 93.4 152.9 93.4ZM156.8 103.4L155.7 103.4L155.7 94.4L156.8 94.4L156.8 95.5L156.9 95.5Q157.0 95.3 157.2 95.1Q157.4 94.8 157.8 94.6Q158.1 94.4 158.8 94.4L158.8 94.4Q159.6 94.4 160.2 94.8Q160.8 95.2 161.2 95.9Q161.6 96.7 161.6 97.7L161.6 97.7Q161.6 98.8 161.2 99.5Q160.8 100.3 160.2 100.7Q159.6 101.1 158.8 101.1L158.8 101.1Q158.2 101.1 157.8 100.9Q157.4 100.7 157.2 100.4Q157.0 100.2 156.9 100.0L156.9 100.0L156.8 100.0L156.8 103.4ZM158.6 100.2L158.6 100.2Q159.2 100.2 159.6 99.9Q160.1 99.5 160.3 99.0Q160.5 98.4 160.5 97.7L160.5 97.7Q160.5 97.1 160.3 96.5Q160.1 96.0 159.7 95.6Q159.2 95.3 158.6 95.3L158.6 95.3Q158.0 95.3 157.6 95.6Q157.2 95.9 157.0 96.5Q156.8 97.0 156.8 97.7L156.8 97.7Q156.8 98.5 157.0 99.0Q157.2 99.6 157.6 99.9Q158.0 100.2 158.6 100.2ZM164.8 94.4L166.2 94.4L166.2 95.4L164.8 95.4L164.8 99.3Q164.8 99.7 165.0 99.9Q165.2 100.1 165.6 100.1L165.6 100.1Q165.7 100.1 165.8 100.1Q166 100.1 166.1 100.1L166.1 100.1L166.3 101.0Q166.2 101.0 166.0 101.1Q165.8 101.1 165.6 101.1L165.6 101.1Q164.7 101.1 164.2 100.6Q163.8 100.2 163.8 99.4L163.8 99.4L163.8 95.4L162.8 95.4L162.8 94.4L163.8 94.4L163.8 92.9L164.8 92.9L164.8 94.4Z "/></g><defs><clipPath id="satori_bc-id-2-1" clip-path="url(#satori_cp-id)"><path x="197" y="81" width="73" height="31" d="M212.5,81 h42 a15.5,15.5 0 0 1 15.5,15.5 v0 a15.5,15.5 0 0 1 -15.5,15.5 h-42 a15.5,15.5 0 0 1 -15.5,-15.5 v0 a15.5,15.5 0 0 1 15.5,-15.5"/></clipPath></defs><mask id="satori_om-id-2-1"><rect x="198" y="82" width="71" height="29" fill="#fff" mask="url(#satori_om-id)"/><path width="73" height="31" fill="none" stroke="#000" stroke-width="2" d="M201.54,85.53999999999999 A15.5,15.5 0 0 1 212.5,81 h42 a15.5,15.5 0 0 1 15.5,15.5 v0 a15.5,15.5 0 0 1 -15.5,15.5 h-42 a15.5,15.5 0 0 1 -15.5,-15.5 v0 A15.5,15.5 0 0 1 201.54,85.53999999999999"/></mask><path x="197" y="81" width="73" height="31" fill="rgba(255,255,255,0.04)" d="M212.5,81 h42 a15.5,15.5 0 0 1 15.5,15.5 v0 a15.5,15.5 0 0 1 -15.5,15.5 h-42 a15.5,15.5 0 0 1 -15.5,-15.5 v0 a15.5,15.5 0 0 1 15.5,-15.5" clip-path="url(#satori_cp-id)" mask="url(#satori_om-id)"/><path width="73" height="31" clip-path="url(#satori_bc-id-2-1)" fill="none" stroke="rgba(255,255,255,0.08)" stroke-width="2" d="M201.54,85.53999999999999 A15.5,15.5 0 0 1 212.5,81 h42 a15.5,15.5 0 0 1 15.5,15.5 v0 a15.5,15.5 0 0 1 -15.5,15.5 h-42 a15.5,15.5 0 0 1 -15.5,-15.5 v0 A15.5,15.5 0 0 1 201.54,85.53999999999999"/><g mask="url(#satori_om-id)" clip-path="url(#satori_cp-id)"><path fill="rgba(255,255,255,0.65)" d="M218.2 101L217.1 101L217.1 92.3L220.0 92.3Q221.1 92.3 221.7 92.6Q222.4 93.0 222.7 93.6Q223.0 94.2 223.0 95.0Q223.0 95.7 222.7 96.3Q222.4 96.9 221.7 97.3L221.7 97.3Q221.6 97.4 221.4 97.4L221.4 97.4L223.4 101L222.1 101L220.3 97.6Q220.2 97.6 220.0 97.6L220.0 97.6L218.2 97.6L218.2 101ZM218.2 93.2L218.2 96.6L220.0 96.6Q220.7 96.6 221.1 96.4Q221.5 96.2 221.7 95.8Q221.9 95.5 221.9 95.0L221.9 95.0Q221.9 94.4 221.7 94.1Q221.5 93.7 221.1 93.5Q220.7 93.2 220.0 93.2L220.0 93.2L218.2 93.2ZM227.9 101.1L227.9 101.1Q227.0 101.1 226.3 100.7Q225.6 100.3 225.2 99.5Q224.8 98.8 224.8 97.8Q224.8 96.8 225.2 96.0Q225.6 95.2 226.2 94.8Q226.9 94.4 227.8 94.4L227.8 94.4Q228.3 94.4 228.8 94.5Q229.3 94.7 229.7 95.1Q230.1 95.5 230.4 96.1Q230.6 96.7 230.6 97.6L230.6 97.6L230.6 98.1L225.9 98.1Q225.9 98.7 226.2 99.2L226.2 99.2Q226.4 99.7 226.9 99.9Q227.3 100.2 227.9 100.2L227.9 100.2Q228.3 100.2 228.6 100.1Q228.9 100.0 229.2 99.8Q229.4 99.5 229.5 99.2L229.5 99.2L230.5 99.5Q230.4 100.0 230.0 100.3Q229.6 100.7 229.1 100.9Q228.6 101.1 227.9 101.1ZM225.9 97.2L225.9 97.2L229.6 97.2Q229.5 96.7 229.4 96.4L229.4 96.4Q229.2 95.9 228.8 95.6Q228.4 95.3 227.8 95.3Q227.2 95.3 226.8 95.6Q226.3 95.9 226.1 96.3L226.1 96.3Q225.9 96.7 225.9 97.2ZM234.5 101.2L234.5 101.2Q233.9 101.2 233.4 100.9Q232.8 100.7 232.5 100.2Q232.2 99.8 232.2 99.1L232.2 99.1Q232.2 98.6 232.5 98.2Q232.7 97.9 233.1 97.7Q233.4 97.5 233.9 97.4Q234.3 97.3 234.8 97.2L234.8 97.2Q235.4 97.1 235.8 97.1Q236.1 97.1 236.3 97.0Q236.5 96.9 236.5 96.6L236.5 96.6L236.5 96.6Q236.5 96.2 236.3 95.9Q236.2 95.6 235.9 95.4Q235.6 95.3 235.1 95.3L235.1 95.3Q234.6 95.3 234.3 95.4Q234.0 95.6 233.8 95.8Q233.6 96.0 233.4 96.3L233.4 96.3L232.4 95.9Q232.7 95.3 233.1 95.0Q233.5 94.6 234.1 94.5Q234.6 94.4 235.1 94.4L235.1 94.4Q235.4 94.4 235.8 94.4Q236.2 94.5 236.6 94.8Q237.0 95.0 237.3 95.5Q237.5 95.9 237.5 96.7L237.5 96.7L237.5 101L236.5 101L236.5 100.1L236.4 100.1Q236.3 100.3 236.1 100.6Q235.8 100.8 235.4 101.0Q235.0 101.2 234.5 101.2ZM234.7 100.2L234.7 100.2Q235.2 100.2 235.7 100.0Q236.1 99.8 236.3 99.4Q236.5 99.0 236.5 98.6L236.5 98.6L236.5 97.7Q236.4 97.8 236.2 97.9Q236.0 97.9 235.7 98.0Q235.4 98.0 235.2 98.0Q234.9 98.1 234.7 98.1L234.7 98.1Q234.4 98.1 234.0 98.3Q233.7 98.4 233.5 98.6Q233.3 98.8 233.3 99.2L233.3 99.2Q233.3 99.5 233.5 99.8Q233.7 100.0 234.0 100.1Q234.3 100.2 234.7 100.2ZM242.5 101.1L242.5 101.1Q241.7 101.1 241.0 100.7Q240.3 100.3 239.9 99.5Q239.6 98.8 239.6 97.8L239.6 97.8Q239.6 96.7 239.9 96.0Q240.3 95.2 241.0 94.8Q241.7 94.4 242.5 94.4L242.5 94.4Q243.0 94.4 243.4 94.5Q243.9 94.6 244.2 94.8Q244.6 95.1 244.8 95.4Q245.1 95.8 245.2 96.2L245.2 96.2L244.2 96.5Q244.1 96.2 244.0 96.0Q243.8 95.8 243.6 95.6Q243.4 95.5 243.1 95.4Q242.9 95.3 242.5 95.3L242.5 95.3Q241.9 95.3 241.5 95.7Q241.0 96.0 240.8 96.6Q240.6 97.1 240.6 97.8L240.6 97.8Q240.6 98.4 240.8 99.0Q241.0 99.5 241.5 99.9Q241.9 100.2 242.5 100.2L242.5 100.2Q242.9 100.2 243.2 100.1Q243.4 100.0 243.6 99.9Q243.9 99.7 244.0 99.5Q244.1 99.3 244.2 99.0L244.2 99.0L245.2 99.3Q245.1 99.7 244.8 100.1Q244.6 100.4 244.2 100.6Q243.9 100.9 243.5 101.0Q243.0 101.1 242.5 101.1ZM248.5 94.4L249.8 94.4L249.8 95.4L248.5 95.4L248.5 99.3Q248.5 99.7 248.6 99.9Q248.8 100.1 249.2 100.1L249.2 100.1Q249.3 100.1 249.5 100.1Q249.7 100.1 249.8 100.1L249.8 100.1L250.0 101.0Q249.8 101.0 249.6 101.1Q249.4 101.1 249.2 101.1L249.2 101.1Q248.4 101.1 247.9 100.6Q247.4 100.2 247.4 99.4L247.4 99.4L247.4 95.4L246.4 95.4L246.4 94.4L247.4 94.4L247.4 92.9L248.5 92.9L248.5 94.4Z "/></g><defs><clipPath id="satori_bc-id-2-2" clip-path="url(#satori_cp-id)"><path x="280" y="81" width="85" height="31" d="M295.5,81 h54 a15.5,15.5 0 0 1 15.5,15.5 v0 a15.5,15.5 0 0 1 -15.5,15.5 h-54 a15.5,15.5 0 0 1 -15.5,-15.5 v0 a15.5,15.5 0 0 1 15.5,-15.5"/></clipPath></defs><mask id="satori_om-id-2-2"><rect x="281" y="82" width="83" height="29" fill="#fff" mask="url(#satori_om-id)"/><path width="85" height="31" fill="none" stroke="#000" stroke-width="2" d="M284.54,85.53999999999999 A15.5,15.5 0 0 1 295.5,81 h54 a15.5,15.5 0 0 1 15.5,15.5 v0 a15.5,15.5 0 0 1 -15.5,15.5 h-54 a15.5,15.5 0 0 1 -15.5,-15.5 v0 A15.5,15.5 0 0 1 284.54,85.53999999999999"/></mask><path x="280" y="81" width="85" height="31" fill="rgba(255,255,255,0.04)" d="M295.5,81 h54 a15.5,15.5 0 0 1 15.5,15.5 v0 a15.5,15.5 0 0 1 -15.5,15.5 h-54 a15.5,15.5 0 0 1 -15.5,-15.5 v0 a15.5,15.5 0 0 1 15.5,-15.5" clip-path="url(#satori_cp-id)" mask="url(#satori_om-id)"/><path width="85" height="31" clip-path="url(#satori_bc-id-2-2)" fill="none" stroke="rgba(255,255,255,0.08)" stroke-width="2" d="M284.54,85.53999999999999 A15.5,15.5 0 0 1 295.5,81 h54 a15.5,15.5 0 0 1 15.5,15.5 v0 a15.5,15.5 0 0 1 -15.5,15.5 h-54 a15.5,15.5 0 0 1 -15.5,-15.5 v0 A15.5,15.5 0 0 1 284.54,85.53999999999999"/><g mask="url(#satori_om-id)" clip-path="url(#satori_cp-id)"><path fill="rgba(255,255,255,0.65)" d="M301.2 101L300.1 101L300.1 92.3L301.4 92.3L304.9 97.9Q305.1 98.1 305.3 98.4Q305.5 98.8 305.7 99.2L305.7 99.2Q305.8 99.4 305.9 99.7L305.9 99.7Q305.9 99.4 305.9 99.1L305.9 99.1Q305.9 98.7 305.9 98.3Q305.9 97.9 305.9 97.6L305.9 97.6L305.9 92.3L307.0 92.3L307.0 101L305.7 101L302.5 96.0Q302.3 95.7 302.1 95.3Q301.8 95.0 301.6 94.4L301.6 94.4Q301.4 94.1 301.1 93.6L301.1 93.6Q301.1 94.0 301.1 94.4L301.1 94.4Q301.1 95.0 301.2 95.4Q301.2 95.8 301.2 96.0L301.2 96.0L301.2 101ZM312.1 101.1L312.1 101.1Q311.2 101.1 310.6 100.7Q309.9 100.3 309.5 99.5Q309.2 98.8 309.2 97.8L309.2 97.8Q309.2 96.7 309.5 96.0Q309.9 95.2 310.6 94.8Q311.2 94.4 312.1 94.4L312.1 94.4Q313.0 94.4 313.7 94.8Q314.4 95.2 314.8 96.0Q315.1 96.7 315.1 97.8L315.1 97.8Q315.1 98.8 314.8 99.5Q314.4 100.3 313.7 100.7Q313.0 101.1 312.1 101.1ZM312.1 100.2L312.1 100.2Q312.8 100.2 313.2 99.9Q313.7 99.5 313.9 99.0Q314.1 98.4 314.1 97.8L314.1 97.8Q314.1 97.1 313.9 96.6Q313.7 96.0 313.2 95.7Q312.8 95.3 312.1 95.3L312.1 95.3Q311.5 95.3 311.1 95.7Q310.6 96.0 310.4 96.6Q310.2 97.1 310.2 97.8L310.2 97.8Q310.2 98.4 310.4 99.0Q310.6 99.5 311.1 99.9Q311.5 100.2 312.1 100.2ZM319.6 101.1L319.6 101.1Q318.8 101.1 318.2 100.7Q317.5 100.3 317.2 99.5Q316.8 98.8 316.8 97.7L316.8 97.7Q316.8 96.7 317.2 95.9Q317.6 95.2 318.2 94.8Q318.8 94.4 319.6 94.4L319.6 94.4Q320.3 94.4 320.6 94.6Q321.0 94.8 321.2 95.1Q321.4 95.3 321.5 95.5L321.5 95.5L321.6 95.5L321.6 92.3L322.7 92.3L322.7 101L321.6 101L321.6 100.0L321.5 100.0Q321.4 100.2 321.2 100.4Q321 100.7 320.6 100.9Q320.2 101.1 319.6 101.1ZM319.8 100.2L319.8 100.2Q320.4 100.2 320.8 99.9Q321.2 99.6 321.4 99.0Q321.6 98.5 321.6 97.7L321.6 97.7Q321.6 97.0 321.4 96.5Q321.2 95.9 320.8 95.6Q320.4 95.3 319.8 95.3L319.8 95.3Q319.2 95.3 318.7 95.6Q318.3 96.0 318.1 96.5Q317.9 97.1 317.9 97.7L317.9 97.7Q317.9 98.4 318.1 99.0Q318.3 99.5 318.8 99.9Q319.2 100.2 319.8 100.2ZM327.8 101.1L327.8 101.1Q326.8 101.1 326.1 100.7Q325.4 100.3 325.1 99.5Q324.7 98.8 324.7 97.8Q324.7 96.8 325.1 96.0Q325.4 95.2 326.1 94.8Q326.8 94.4 327.6 94.4L327.6 94.4Q328.2 94.4 328.7 94.5Q329.2 94.7 329.6 95.1Q330.0 95.5 330.2 96.1Q330.5 96.7 330.5 97.6L330.5 97.6L330.5 98.1L325.8 98.1Q325.8 98.7 326.0 99.2L326.0 99.2Q326.3 99.7 326.7 99.9Q327.2 100.2 327.8 100.2L327.8 100.2Q328.2 100.2 328.5 100.1Q328.8 100.0 329.0 99.8Q329.2 99.5 329.4 99.2L329.4 99.2L330.4 99.5Q330.2 100.0 329.9 100.3Q329.5 100.7 329.0 100.9Q328.4 101.1 327.8 101.1ZM325.8 97.2L325.8 97.2L329.4 97.2Q329.4 96.7 329.2 96.4L329.2 96.4Q329.0 95.9 328.6 95.6Q328.2 95.3 327.6 95.3Q327.0 95.3 326.6 95.6Q326.2 95.9 326.0 96.3L326.0 96.3Q325.8 96.7 325.8 97.2ZM333.3 101.1L333.3 101.1Q333.0 101.1 332.7 100.8Q332.5 100.6 332.5 100.3L332.5 100.3Q332.5 100.0 332.7 99.7Q333.0 99.5 333.3 99.5L333.3 99.5Q333.6 99.5 333.9 99.7Q334.1 100.0 334.1 100.3L334.1 100.3Q334.1 100.6 333.9 100.8Q333.6 101.1 333.3 101.1ZM336.5 101.5L336.5 94.4L337.5 94.4L337.5 101.5Q337.5 102.1 337.3 102.5Q337.1 103.0 336.7 103.2Q336.2 103.4 335.6 103.4L335.6 103.4L335.4 103.4L335.4 102.5L335.6 102.5Q336.0 102.5 336.2 102.2Q336.5 102.0 336.5 101.5L336.5 101.5ZM337.0 93.4L337.0 93.4Q336.7 93.4 336.5 93.2Q336.3 93.0 336.3 92.7L336.3 92.7Q336.3 92.4 336.5 92.2Q336.7 92.0 337.0 92.0L337.0 92.0Q337.3 92.0 337.5 92.2Q337.7 92.4 337.7 92.7L337.7 92.7Q337.7 93.0 337.5 93.2Q337.3 93.4 337.0 93.4ZM342.1 101.1L342.1 101.1Q341.4 101.1 340.9 100.9Q340.4 100.7 340.0 100.4Q339.7 100.0 339.6 99.4L339.6 99.4L340.6 99.2Q340.7 99.7 341.1 100.0Q341.5 100.2 342.1 100.2L342.1 100.2Q342.8 100.2 343.2 99.9Q343.6 99.6 343.6 99.2L343.6 99.2Q343.6 98.9 343.3 98.7Q343.1 98.4 342.6 98.3L342.6 98.3L341.5 98.1Q340.6 97.9 340.2 97.4Q339.8 97.0 339.8 96.3L339.8 96.3Q339.8 95.7 340.1 95.3Q340.4 94.9 341.0 94.6Q341.5 94.4 342.2 94.4L342.2 94.4Q342.9 94.4 343.3 94.6Q343.8 94.8 344.1 95.1Q344.4 95.5 344.6 95.9L344.6 95.9L343.6 96.2Q343.5 95.8 343.2 95.6Q342.8 95.3 342.2 95.3L342.2 95.3Q341.6 95.3 341.2 95.5Q340.8 95.8 340.8 96.2L340.8 96.2Q340.8 96.6 341.1 96.8Q341.4 97.0 341.9 97.2L341.9 97.2L342.9 97.4Q343.8 97.6 344.3 98.0Q344.7 98.5 344.7 99.2L344.7 99.2Q344.7 99.7 344.4 100.2Q344.0 100.6 343.4 100.9Q342.9 101.1 342.1 101.1Z "/></g><defs><clipPath id="satori_bc-id-2-3" clip-path="url(#satori_cp-id)"><path x="375" y="81" width="66" height="31" d="M390.5,81 h35 a15.5,15.5 0 0 1 15.5,15.5 v0 a15.5,15.5 0 0 1 -15.5,15.5 h-35 a15.5,15.5 0 0 1 -15.5,-15.5 v0 a15.5,15.5 0 0 1 15.5,-15.5"/></clipPath></defs><mask id="satori_om-id-2-3"><rect x="376" y="82" width="64" height="29" fill="#fff" mask="url(#satori_om-id)"/><path width="66" height="31" fill="none" stroke="#000" stroke-width="2" d="M379.54,85.53999999999999 A15.5,15.5 0 0 1 390.5,81 h35 a15.5,15.5 0 0 1 15.5,15.5 v0 a15.5,15.5 0 0 1 -15.5,15.5 h-35 a15.5,15.5 0 0 1 -15.5,-15.5 v0 A15.5,15.5 0 0 1 379.54,85.53999999999999"/></mask><path x="375" y="81" width="66" height="31" fill="rgba(255,255,255,0.04)" d="M390.5,81 h35 a15.5,15.5 0 0 1 15.5,15.5 v0 a15.5,15.5 0 0 1 -15.5,15.5 h-35 a15.5,15.5 0 0 1 -15.5,-15.5 v0 a15.5,15.5 0 0 1 15.5,-15.5" clip-path="url(#satori_cp-id)" mask="url(#satori_om-id)"/><path width="66" height="31" clip-path="url(#satori_bc-id-2-3)" fill="none" stroke="rgba(255,255,255,0.08)" stroke-width="2" d="M379.54,85.53999999999999 A15.5,15.5 0 0 1 390.5,81 h35 a15.5,15.5 0 0 1 15.5,15.5 v0 a15.5,15.5 0 0 1 -15.5,15.5 h-35 a15.5,15.5 0 0 1 -15.5,-15.5 v0 A15.5,15.5 0 0 1 379.54,85.53999999999999"/><g mask="url(#satori_om-id)" clip-path="url(#satori_cp-id)"><path fill="rgba(255,255,255,0.65)" d="M396.2 101L395.1 101L395.1 92.3L398.0 92.3Q399.1 92.3 399.7 92.6Q400.4 93.0 400.7 93.6Q401.0 94.2 401.0 95.0Q401.0 95.7 400.7 96.3Q400.4 96.9 399.7 97.3L399.7 97.3Q399.6 97.4 399.4 97.4L399.4 97.4L401.4 101L400.1 101L398.3 97.6Q398.2 97.6 398.0 97.6L398.0 97.6L396.2 97.6L396.2 101ZM396.2 93.2L396.2 96.6L398.0 96.6Q398.7 96.6 399.1 96.4Q399.5 96.2 399.7 95.8Q399.9 95.5 399.9 95.0L399.9 95.0Q399.9 94.4 399.7 94.1Q399.5 93.7 399.1 93.5Q398.7 93.2 398.0 93.2L398.0 93.2L396.2 93.2ZM405.4 101.1L405.4 101.1Q404.7 101.1 404.2 100.8Q403.7 100.5 403.4 100.0Q403.1 99.4 403.1 98.6L403.1 98.6L403.1 94.4L404.2 94.4L404.2 98.5Q404.2 99.3 404.6 99.7Q405 100.1 405.7 100.1L405.7 100.1Q406.2 100.1 406.5 99.9Q406.9 99.7 407.1 99.3Q407.3 98.9 407.3 98.4L407.3 98.4L407.3 94.4L408.4 94.4L408.4 101L407.4 101L407.4 99.8Q407.1 100.4 406.7 100.7L406.7 100.7Q406.1 101.1 405.4 101.1ZM413.0 101.1L413.0 101.1Q412.3 101.1 411.8 100.9Q411.2 100.7 410.9 100.4Q410.6 100.0 410.5 99.4L410.5 99.4L411.5 99.2Q411.6 99.7 412.0 100.0Q412.4 100.2 413.0 100.2L413.0 100.2Q413.6 100.2 414.1 99.9Q414.5 99.6 414.5 99.2L414.5 99.2Q414.5 98.9 414.2 98.7Q414.0 98.4 413.5 98.3L413.5 98.3L412.4 98.1Q411.5 97.9 411.1 97.4Q410.7 97.0 410.7 96.3L410.7 96.3Q410.7 95.7 411.0 95.3Q411.3 94.9 411.8 94.6Q412.4 94.4 413.1 94.4L413.1 94.4Q413.8 94.4 414.2 94.6Q414.7 94.8 415.0 95.1Q415.3 95.5 415.4 95.9L415.4 95.9L414.5 96.2Q414.3 95.8 414.0 95.6Q413.7 95.3 413.1 95.3L413.1 95.3Q412.5 95.3 412.1 95.5Q411.7 95.8 411.7 96.2L411.7 96.2Q411.7 96.6 412.0 96.8Q412.2 97.0 412.8 97.2L412.8 97.2L413.8 97.4Q414.7 97.6 415.1 98.0Q415.6 98.5 415.6 99.2L415.6 99.2Q415.6 99.7 415.2 100.2Q414.9 100.6 414.3 100.9Q413.7 101.1 413.0 101.1ZM418.8 94.4L420.2 94.4L420.2 95.4L418.8 95.4L418.8 99.3Q418.8 99.7 419.0 99.9Q419.2 100.1 419.6 100.1L419.6 100.1Q419.7 100.1 419.8 100.1Q420.0 100.1 420.1 100.1L420.1 100.1L420.3 101.0Q420.2 101.0 420.0 101.1Q419.8 101.1 419.6 101.1L419.6 101.1Q418.7 101.1 418.2 100.6Q417.8 100.2 417.8 99.4L417.8 99.4L417.8 95.4L416.8 95.4L416.8 94.4L417.8 94.4L417.8 92.9L418.8 92.9L418.8 94.4Z "/></g><defs><clipPath id="satori_bc-id-2-4" clip-path="url(#satori_cp-id)"><path x="451" y="81" width="56" height="31" d="M466.5,81 h25 a15.5,15.5 0 0 1 15.5,15.5 v0 a15.5,15.5 0 0 1 -15.5,15.5 h-25 a15.5,15.5 0 0 1 -15.5,-15.5 v0 a15.5,15.5 0 0 1 15.5,-15.5"/></clipPath></defs><mask id="satori_om-id-2-4"><rect x="452" y="82" width="54" height="29" fill="#fff" mask="url(#satori_om-id)"/><path width="56" height="31" fill="none" stroke="#000" stroke-width="2" d="M455.54,85.53999999999999 A15.5,15.5 0 0 1 466.5,81 h25 a15.5,15.5 0 0 1 15.5,15.5 v0 a15.5,15.5 0 0 1 -15.5,15.5 h-25 a15.5,15.5 0 0 1 -15.5,-15.5 v0 A15.5,15.5 0 0 1 455.54,85.53999999999999"/></mask><path x="451" y="81" width="56" height="31" fill="rgba(255,255,255,0.04)" d="M466.5,81 h25 a15.5,15.5 0 0 1 15.5,15.5 v0 a15.5,15.5 0 0 1 -15.5,15.5 h-25 a15.5,15.5 0 0 1 -15.5,-15.5 v0 a15.5,15.5 0 0 1 15.5,-15.5" clip-path="url(#satori_cp-id)" mask="url(#satori_om-id)"/><path width="56" height="31" clip-path="url(#satori_bc-id-2-4)" fill="none" stroke="rgba(255,255,255,0.08)" stroke-width="2" d="M455.54,85.53999999999999 A15.5,15.5 0 0 1 466.5,81 h25 a15.5,15.5 0 0 1 15.5,15.5 v0 a15.5,15.5 0 0 1 -15.5,15.5 h-25 a15.5,15.5 0 0 1 -15.5,-15.5 v0 A15.5,15.5 0 0 1 455.54,85.53999999999999"/><g mask="url(#satori_om-id)" clip-path="url(#satori_cp-id)"><path fill="rgba(255,255,255,0.65)" d="M474.6 101.1L474.6 101.1Q473.5 101.1 472.6 100.6Q471.7 100.0 471.2 99.0Q470.7 98.0 470.7 96.6L470.7 96.6Q470.7 95.3 471.2 94.2Q471.7 93.2 472.6 92.7Q473.4 92.2 474.6 92.2L474.6 92.2Q475.2 92.2 475.8 92.4Q476.4 92.6 476.9 92.9Q477.4 93.3 477.7 93.8Q478.0 94.4 478.1 95.0L478.1 95.0L477.0 95.0Q476.9 94.6 476.6 94.3Q476.4 93.9 476.1 93.7Q475.8 93.4 475.4 93.3Q475.0 93.2 474.6 93.2L474.6 93.2Q473.8 93.2 473.2 93.6Q472.5 94.0 472.2 94.7Q471.8 95.5 471.8 96.6L471.8 96.6Q471.8 97.8 472.2 98.5Q472.5 99.3 473.2 99.7Q473.8 100.1 474.6 100.1L474.6 100.1Q475.4 100.1 475.9 99.8Q476.5 99.5 476.8 98.9L476.8 98.9Q477.1 98.3 477.1 97.6L477.1 97.6L474.9 97.6L474.9 96.6L478.2 96.6L478.2 97.6Q478.2 98.7 477.7 99.4Q477.3 100.2 476.5 100.7Q475.7 101.1 474.6 101.1ZM483.0 101.1L483.0 101.1Q482.2 101.1 481.5 100.7Q480.8 100.3 480.4 99.5Q480.1 98.8 480.1 97.8L480.1 97.8Q480.1 96.7 480.4 96.0Q480.8 95.2 481.5 94.8Q482.2 94.4 483.0 94.4L483.0 94.4Q483.9 94.4 484.6 94.8Q485.3 95.2 485.7 96.0Q486.0 96.7 486.0 97.8L486.0 97.8Q486.0 98.8 485.7 99.5Q485.3 100.3 484.6 100.7Q483.9 101.1 483.0 101.1ZM483.0 100.2L483.0 100.2Q483.7 100.2 484.1 99.9Q484.6 99.5 484.8 99.0Q485.0 98.4 485.0 97.8L485.0 97.8Q485.0 97.1 484.8 96.6Q484.6 96.0 484.1 95.7Q483.7 95.3 483.0 95.3L483.0 95.3Q482.4 95.3 482.0 95.7Q481.5 96.0 481.3 96.6Q481.1 97.1 481.1 97.8L481.1 97.8Q481.1 98.4 481.3 99.0Q481.5 99.5 482.0 99.9Q482.4 100.2 483.0 100.2Z "/></g><defs><clipPath id="satori_bc-id-2-5" clip-path="url(#satori_cp-id)"><path x="517" y="81" width="111" height="31" d="M532.5,81 h80 a15.5,15.5 0 0 1 15.5,15.5 v0 a15.5,15.5 0 0 1 -15.5,15.5 h-80 a15.5,15.5 0 0 1 -15.5,-15.5 v0 a15.5,15.5 0 0 1 15.5,-15.5"/></clipPath></defs><mask id="satori_om-id-2-5"><rect x="518" y="82" width="109" height="29" fill="#fff" mask="url(#satori_om-id)"/><path width="111" height="31" fill="none" stroke="#000" stroke-width="2" d="M521.54,85.53999999999999 A15.5,15.5 0 0 1 532.5,81 h80 a15.5,15.5 0 0 1 15.5,15.5 v0 a15.5,15.5 0 0 1 -15.5,15.5 h-80 a15.5,15.5 0 0 1 -15.5,-15.5 v0 A15.5,15.5 0 0 1 521.54,85.53999999999999"/></mask><path x="517" y="81" width="111" height="31" fill="rgba(255,255,255,0.04)" d="M532.5,81 h80 a15.5,15.5 0 0 1 15.5,15.5 v0 a15.5,15.5 0 0 1 -15.5,15.5 h-80 a15.5,15.5 0 0 1 -15.5,-15.5 v0 a15.5,15.5 0 0 1 15.5,-15.5" clip-path="url(#satori_cp-id)" mask="url(#satori_om-id)"/><path width="111" height="31" clip-path="url(#satori_bc-id-2-5)" fill="none" stroke="rgba(255,255,255,0.08)" stroke-width="2" d="M521.54,85.53999999999999 A15.5,15.5 0 0 1 532.5,81 h80 a15.5,15.5 0 0 1 15.5,15.5 v0 a15.5,15.5 0 0 1 -15.5,15.5 h-80 a15.5,15.5 0 0 1 -15.5,-15.5 v0 A15.5,15.5 0 0 1 521.54,85.53999999999999"/><g mask="url(#satori_om-id)" clip-path="url(#satori_cp-id)"><path fill="rgba(255,255,255,0.65)" d="M538.2 101L537.1 101L537.1 92.3L540.0 92.3Q541.1 92.3 541.7 92.6Q542.4 93.0 542.7 93.6Q543.0 94.3 543.0 95.0Q543.0 95.8 542.7 96.5Q542.4 97.1 541.7 97.5Q541.1 97.8 540.0 97.8L540.0 97.8L538.2 97.8L538.2 101ZM538.2 93.2L538.2 96.9L540.0 96.9Q540.7 96.9 541.1 96.6Q541.5 96.4 541.7 96.0Q541.9 95.6 541.9 95.0Q541.9 94.5 541.7 94.1Q541.5 93.7 541.1 93.5Q540.7 93.2 540.0 93.2L540.0 93.2L538.2 93.2ZM547.8 101.1L547.8 101.1Q546.9 101.1 546.2 100.7Q545.5 100.3 545.1 99.5Q544.8 98.8 544.8 97.8L544.8 97.8Q544.8 96.7 545.1 96.0Q545.5 95.2 546.2 94.8Q546.9 94.4 547.8 94.4L547.8 94.4Q548.7 94.4 549.3 94.8Q550 95.2 550.4 96.0Q550.8 96.7 550.8 97.8L550.8 97.8Q550.8 98.8 550.4 99.5Q550 100.3 549.3 100.7Q548.7 101.1 547.8 101.1ZM547.8 100.2L547.8 100.2Q548.4 100.2 548.8 99.9Q549.3 99.5 549.5 99.0Q549.7 98.4 549.7 97.8L549.7 97.8Q549.7 97.1 549.5 96.6Q549.3 96.0 548.8 95.7Q548.4 95.3 547.8 95.3L547.8 95.3Q547.1 95.3 546.7 95.7Q546.3 96.0 546.1 96.6Q545.8 97.1 545.8 97.8L545.8 97.8Q545.8 98.4 546.1 99.0Q546.3 99.5 546.7 99.9Q547.1 100.2 547.8 100.2ZM555.0 101.1L555.0 101.1Q554.3 101.1 553.8 100.9Q553.3 100.7 552.9 100.4Q552.6 100.0 552.5 99.4L552.5 99.4L553.5 99.2Q553.6 99.7 554.0 100.0Q554.4 100.2 555 100.2L555 100.2Q555.7 100.2 556.1 99.9Q556.5 99.6 556.5 99.2L556.5 99.2Q556.5 98.9 556.3 98.7Q556.0 98.4 555.5 98.3L555.5 98.3L554.4 98.1Q553.6 97.9 553.1 97.4Q552.7 97.0 552.7 96.3L552.7 96.3Q552.7 95.7 553.0 95.3Q553.3 94.9 553.9 94.6Q554.4 94.4 555.1 94.4L555.1 94.4Q555.8 94.4 556.3 94.6Q556.7 94.8 557.0 95.1Q557.3 95.5 557.5 95.9L557.5 95.9L556.5 96.2Q556.4 95.8 556.1 95.6Q555.8 95.3 555.1 95.3L555.1 95.3Q554.5 95.3 554.1 95.5Q553.8 95.8 553.8 96.2L553.8 96.2Q553.8 96.6 554.0 96.8Q554.3 97.0 554.9 97.2L554.9 97.2L555.8 97.4Q556.7 97.6 557.2 98.0Q557.6 98.5 557.6 99.2L557.6 99.2Q557.6 99.7 557.3 100.2Q556.9 100.6 556.4 100.9Q555.8 101.1 555.0 101.1ZM560.8 94.4L562.2 94.4L562.2 95.4L560.8 95.4L560.8 99.3Q560.8 99.7 561.0 99.9Q561.2 100.1 561.6 100.1L561.6 100.1Q561.7 100.1 561.9 100.1Q562.0 100.1 562.2 100.1L562.2 100.1L562.4 101.0Q562.2 101.0 562.0 101.1Q561.8 101.1 561.6 101.1L561.6 101.1Q560.7 101.1 560.3 100.6Q559.8 100.2 559.8 99.4L559.8 99.4L559.8 95.4L558.8 95.4L558.8 94.4L559.8 94.4L559.8 92.9L560.8 92.9L560.8 94.4ZM566.7 103.6L566.7 103.6Q566.0 103.6 565.4 103.4Q564.9 103.2 564.6 102.9Q564.2 102.6 564.0 102.3L564.0 102.3L564.9 101.7Q565 101.9 565.2 102.1Q565.4 102.3 565.8 102.5Q566.1 102.7 566.7 102.7L566.7 102.7Q567.5 102.7 568.0 102.3Q568.5 101.9 568.5 101.1L568.5 101.1L568.5 99.8L568.4 99.8Q568.3 100.0 568.1 100.2Q567.9 100.5 567.5 100.7Q567.1 100.9 566.5 100.9L566.5 100.9Q565.7 100.9 565.1 100.5Q564.5 100.2 564.1 99.4Q563.7 98.7 563.7 97.7L563.7 97.7Q563.7 96.7 564.1 95.9Q564.4 95.2 565.1 94.8Q565.7 94.4 566.5 94.4L566.5 94.4Q567.2 94.4 567.5 94.6Q567.9 94.8 568.1 95.1Q568.3 95.3 568.4 95.5L568.4 95.5L568.5 95.5L568.5 94.4L569.6 94.4L569.6 101.2Q569.6 102.0 569.2 102.5Q568.8 103.1 568.1 103.3Q567.5 103.6 566.7 103.6ZM566.7 100.0L566.7 100.0Q567.3 100.0 567.7 99.7Q568.1 99.4 568.3 98.9Q568.5 98.4 568.5 97.7L568.5 97.7Q568.5 97.0 568.3 96.4Q568.1 95.9 567.7 95.6Q567.3 95.3 566.7 95.3L566.7 95.3Q566.0 95.3 565.6 95.6Q565.2 95.9 565.0 96.5Q564.8 97.0 564.8 97.7L564.8 97.7Q564.8 98.3 565.0 98.9Q565.2 99.4 565.6 99.7Q566.1 100.0 566.7 100.0ZM573.0 101L571.9 101L571.9 94.4L572.9 94.4L572.9 95.5L573.0 95.5Q573.2 95.0 573.6 94.7Q574.1 94.4 574.7 94.4L574.7 94.4Q574.8 94.4 575.0 94.4Q575.1 94.4 575.2 94.4L575.2 94.4L575.2 95.4Q575.2 95.4 575.0 95.4Q574.8 95.4 574.6 95.4L574.6 95.4Q574.1 95.4 573.8 95.6Q573.4 95.8 573.2 96.1Q573.0 96.5 573.0 96.9L573.0 96.9L573.0 101ZM579.7 101.1L579.7 101.1Q578.7 101.1 578.0 100.7Q577.3 100.3 577.0 99.5Q576.6 98.8 576.6 97.8Q576.6 96.8 577.0 96.0Q577.3 95.2 578.0 94.8Q578.7 94.4 579.6 94.4L579.6 94.4Q580.1 94.4 580.6 94.5Q581.1 94.7 581.5 95.1Q581.9 95.5 582.2 96.1Q582.4 96.7 582.4 97.6L582.4 97.6L582.4 98.1L577.7 98.1Q577.7 98.7 577.9 99.2L577.9 99.2Q578.2 99.7 578.6 99.9Q579.1 100.2 579.7 100.2L579.7 100.2Q580.1 100.2 580.4 100.1Q580.7 100.0 580.9 99.8Q581.2 99.5 581.3 99.2L581.3 99.2L582.3 99.5Q582.1 100.0 581.8 100.3Q581.4 100.7 580.9 100.9Q580.3 101.1 579.7 101.1ZM577.7 97.2L577.7 97.2L581.3 97.2Q581.3 96.7 581.1 96.4L581.1 96.4Q580.9 95.9 580.5 95.6Q580.1 95.3 579.6 95.3Q579.0 95.3 578.5 95.6Q578.1 95.9 577.9 96.3L577.9 96.3Q577.7 96.7 577.7 97.2ZM587.3 101.2L587.3 101.2Q586.4 101.2 585.7 100.8Q585.0 100.5 584.6 100.0Q584.2 99.4 584.2 98.7L584.2 98.7L585.3 98.7Q585.4 99.2 585.6 99.5Q585.9 99.8 586.4 100.0Q586.8 100.2 587.3 100.2L587.3 100.2Q587.9 100.2 588.4 100.0Q588.9 99.8 589.2 99.4Q589.4 99.1 589.4 98.6L589.4 98.6Q589.4 98.2 589.2 97.9Q589.0 97.7 588.6 97.5Q588.2 97.3 587.7 97.2L587.7 97.2L586.6 96.9Q585.6 96.6 585.0 96.0Q584.4 95.5 584.4 94.6L584.4 94.6Q584.4 93.9 584.8 93.3Q585.2 92.8 585.9 92.5Q586.6 92.2 587.4 92.2L587.4 92.2Q588.3 92.2 588.9 92.5Q589.6 92.8 590.0 93.3Q590.4 93.8 590.4 94.5L590.4 94.5L589.3 94.5Q589.2 93.8 588.7 93.5Q588.2 93.1 587.4 93.1L587.4 93.1Q586.8 93.1 586.4 93.3Q586.0 93.5 585.7 93.8Q585.5 94.1 585.5 94.6L585.5 94.6Q585.5 95.0 585.8 95.3Q586.1 95.6 586.5 95.7Q586.8 95.9 587.2 96.0L587.2 96.0L588.0 96.2Q588.4 96.3 588.8 96.5Q589.2 96.6 589.6 96.9Q590.0 97.2 590.3 97.6Q590.5 98.0 590.5 98.6L590.5 98.6Q590.5 99.3 590.1 99.9Q589.8 100.5 589.1 100.8Q588.3 101.2 587.3 101.2ZM596.3 101.1L596.3 101.1Q595.2 101.1 594.3 100.6Q593.4 100.0 592.9 99.0Q592.4 98.0 592.4 96.6L592.4 96.6Q592.4 95.3 592.9 94.2Q593.4 93.2 594.3 92.7Q595.2 92.2 596.3 92.2Q597.4 92.2 598.3 92.7Q599.2 93.2 599.7 94.2Q600.2 95.3 600.2 96.6L600.2 96.6Q600.2 98.0 599.7 99.0L599.7 99.0Q599.3 99.8 598.6 100.3L598.6 100.3L599.8 101.8L598.6 101.8L597.8 100.8Q597.1 101.1 596.3 101.1ZM597.2 99.9L595.9 98.3L597.1 98.3L598.0 99.5Q598.4 99.1 598.7 98.5L598.7 98.5Q599.1 97.8 599.1 96.6L599.1 96.6Q599.1 95.5 598.7 94.7Q598.3 94.0 597.7 93.6Q597.1 93.2 596.3 93.2L596.3 93.2Q595.5 93.2 594.9 93.6Q594.2 94.0 593.9 94.8Q593.5 95.5 593.5 96.6L593.5 96.6Q593.5 97.8 593.9 98.5Q594.2 99.3 594.9 99.7Q595.5 100.1 596.3 100.1L596.3 100.1Q596.8 100.1 597.2 99.9L597.2 99.9ZM607.6 101L602.4 101L602.4 92.3L603.5 92.3L603.5 100.0L607.6 100.0L607.6 101Z "/></g><defs><clipPath id="satori_bc-id-2-6" clip-path="url(#satori_cp-id)"><path x="638" y="81" width="82" height="31" d="M653.5,81 h51 a15.5,15.5 0 0 1 15.5,15.5 v0 a15.5,15.5 0 0 1 -15.5,15.5 h-51 a15.5,15.5 0 0 1 -15.5,-15.5 v0 a15.5,15.5 0 0 1 15.5,-15.5"/></clipPath></defs><mask id="satori_om-id-2-6"><rect x="639" y="82" width="80" height="29" fill="#fff" mask="url(#satori_om-id)"/><path width="82" height="31" fill="none" stroke="#000" stroke-width="2" d="M642.54,85.53999999999999 A15.5,15.5 0 0 1 653.5,81 h51 a15.5,15.5 0 0 1 15.5,15.5 v0 a15.5,15.5 0 0 1 -15.5,15.5 h-51 a15.5,15.5 0 0 1 -15.5,-15.5 v0 A15.5,15.5 0 0 1 642.54,85.53999999999999"/></mask><path x="638" y="81" width="82" height="31" fill="rgba(255,255,255,0.04)" d="M653.5,81 h51 a15.5,15.5 0 0 1 15.5,15.5 v0 a15.5,15.5 0 0 1 -15.5,15.5 h-51 a15.5,15.5 0 0 1 -15.5,-15.5 v0 a15.5,15.5 0 0 1 15.5,-15.5" clip-path="url(#satori_cp-id)" mask="url(#satori_om-id)"/><path width="82" height="31" clip-path="url(#satori_bc-id-2-6)" fill="none" stroke="rgba(255,255,255,0.08)" stroke-width="2" d="M642.54,85.53999999999999 A15.5,15.5 0 0 1 653.5,81 h51 a15.5,15.5 0 0 1 15.5,15.5 v0 a15.5,15.5 0 0 1 -15.5,15.5 h-51 a15.5,15.5 0 0 1 -15.5,-15.5 v0 A15.5,15.5 0 0 1 642.54,85.53999999999999"/><g mask="url(#satori_om-id)" clip-path="url(#satori_cp-id)"><path fill="rgba(255,255,255,0.65)" d="M660.8 101L660.8 101L658.1 101L658.1 92.3L660.9 92.3Q662.2 92.3 663.1 92.8Q664.0 93.3 664.5 94.3Q664.9 95.3 664.9 96.6L664.9 96.6Q664.9 98.0 664.5 99.0Q664.0 99.9 663.0 100.5Q662.1 101 660.8 101ZM659.2 93.3L659.2 100.0L660.7 100.0Q661.8 100.0 662.5 99.6Q663.2 99.2 663.5 98.4Q663.9 97.7 663.9 96.6L663.9 96.6Q663.9 95.6 663.5 94.8Q663.2 94.1 662.5 93.7Q661.8 93.3 660.8 93.3L660.8 93.3L659.2 93.3ZM669.8 101.1L669.8 101.1Q668.9 101.1 668.2 100.7Q667.5 100.3 667.1 99.5Q666.8 98.8 666.8 97.8L666.8 97.8Q666.8 96.7 667.1 96.0Q667.5 95.2 668.2 94.8Q668.9 94.4 669.8 94.4L669.8 94.4Q670.6 94.4 671.3 94.8Q672.0 95.2 672.4 96.0Q672.7 96.7 672.7 97.8L672.7 97.8Q672.7 98.8 672.4 99.5Q672.0 100.3 671.3 100.7Q670.6 101.1 669.8 101.1ZM669.8 100.2L669.8 100.2Q670.4 100.2 670.8 99.9Q671.3 99.5 671.5 99.0Q671.7 98.4 671.7 97.8L671.7 97.8Q671.7 97.1 671.5 96.6Q671.3 96.0 670.8 95.7Q670.4 95.3 669.8 95.3L669.8 95.3Q669.1 95.3 668.7 95.7Q668.3 96.0 668.0 96.6Q667.8 97.1 667.8 97.8L667.8 97.8Q667.8 98.4 668.0 99.0Q668.3 99.5 668.7 99.9Q669.1 100.2 669.8 100.2ZM677.4 101.1L677.4 101.1Q676.6 101.1 675.9 100.7Q675.2 100.3 674.8 99.5Q674.5 98.8 674.5 97.8L674.5 97.8Q674.5 96.7 674.8 96.0Q675.2 95.2 675.9 94.8Q676.6 94.4 677.4 94.4L677.4 94.4Q677.9 94.4 678.3 94.5Q678.8 94.6 679.1 94.8Q679.5 95.1 679.7 95.4Q680.0 95.8 680.1 96.2L680.1 96.2L679.1 96.5Q679.0 96.2 678.9 96.0Q678.7 95.8 678.5 95.6Q678.3 95.5 678.0 95.4Q677.8 95.3 677.4 95.3L677.4 95.3Q676.8 95.3 676.4 95.7Q675.9 96.0 675.7 96.6Q675.5 97.1 675.5 97.8L675.5 97.8Q675.5 98.4 675.7 99.0Q675.9 99.5 676.4 99.9Q676.8 100.2 677.4 100.2L677.4 100.2Q677.8 100.2 678.1 100.1Q678.3 100.0 678.5 99.9Q678.8 99.7 678.9 99.5Q679.0 99.3 679.1 99.0L679.1 99.0L680.1 99.3Q680.0 99.7 679.7 100.1Q679.5 100.4 679.1 100.6Q678.8 100.9 678.4 101.0Q677.9 101.1 677.4 101.1ZM683.2 101L682.1 101L682.1 92.3L683.2 92.3L683.2 97.3L683.3 97.3L686.1 94.4L687.4 94.4L684.7 97.3L687.6 101L686.3 101L683.9 97.9L683.2 98.6L683.2 101ZM692.0 101.1L692.0 101.1Q691.0 101.1 690.3 100.7Q689.7 100.3 689.3 99.5Q688.9 98.8 688.9 97.8Q688.9 96.8 689.3 96.0Q689.6 95.2 690.3 94.8Q691.0 94.4 691.9 94.4L691.9 94.4Q692.4 94.4 692.9 94.5Q693.4 94.7 693.8 95.1Q694.2 95.5 694.5 96.1Q694.7 96.7 694.7 97.6L694.7 97.6L694.7 98.1L690.0 98.1Q690.0 98.7 690.2 99.2L690.2 99.2Q690.5 99.7 690.9 99.9Q691.4 100.2 692.0 100.2L692.0 100.2Q692.4 100.2 692.7 100.1Q693.0 100.0 693.2 99.8Q693.5 99.5 693.6 99.2L693.6 99.2L694.6 99.5Q694.4 100.0 694.1 100.3Q693.7 100.7 693.2 100.9Q692.7 101.1 692.0 101.1ZM690.0 97.2L690.0 97.2L693.6 97.2Q693.6 96.7 693.4 96.4L693.4 96.4Q693.2 95.9 692.8 95.6Q692.4 95.3 691.9 95.3Q691.3 95.3 690.8 95.6Q690.4 95.9 690.2 96.3L690.2 96.3Q690.0 96.7 690.0 97.2ZM697.8 101L696.7 101L696.7 94.4L697.7 94.4L697.7 95.5L697.8 95.5Q698.0 95.0 698.5 94.7Q698.9 94.4 699.5 94.4L699.5 94.4Q699.6 94.4 699.8 94.4Q699.9 94.4 700.0 94.4L700.0 94.4L700.0 95.4Q700.0 95.4 699.8 95.4Q699.6 95.4 699.4 95.4L699.4 95.4Q698.9 95.4 698.6 95.6Q698.2 95.8 698.0 96.1Q697.8 96.5 697.8 96.9L697.8 96.9L697.8 101Z "/></g><defs><clipPath id="satori_bc-id-2-7" clip-path="url(#satori_cp-id)"><path x="288" y="122" width="76" height="31" d="M303.5,122 h45 a15.5,15.5 0 0 1 15.5,15.5 v0 a15.5,15.5 0 0 1 -15.5,15.5 h-45 a15.5,15.5 0 0 1 -15.5,-15.5 v0 a15.5,15.5 0 0 1 15.5,-15.5"/></clipPath></defs><mask id="satori_om-id-2-7"><rect x="289" y="123" width="74" height="29" fill="#fff" mask="url(#satori_om-id)"/><path width="76" height="31" fill="none" stroke="#000" stroke-width="2" d="M292.54,126.53999999999999 A15.5,15.5 0 0 1 303.5,122 h45 a15.5,15.5 0 0 1 15.5,15.5 v0 a15.5,15.5 0 0 1 -15.5,15.5 h-45 a15.5,15.5 0 0 1 -15.5,-15.5 v0 A15.5,15.5 0 0 1 292.54,126.53999999999999"/></mask><path x="288" y="122" width="76" height="31" fill="rgba(255,255,255,0.04)" d="M303.5,122 h45 a15.5,15.5 0 0 1 15.5,15.5 v0 a15.5,15.5 0 0 1 -15.5,15.5 h-45 a15.5,15.5 0 0 1 -15.5,-15.5 v0 a15.5,15.5 0 0 1 15.5,-15.5" clip-path="url(#satori_cp-id)" mask="url(#satori_om-id)"/><path width="76" height="31" clip-path="url(#satori_bc-id-2-7)" fill="none" stroke="rgba(255,255,255,0.08)" stroke-width="2" d="M292.54,126.53999999999999 A15.5,15.5 0 0 1 303.5,122 h45 a15.5,15.5 0 0 1 15.5,15.5 v0 a15.5,15.5 0 0 1 -15.5,15.5 h-45 a15.5,15.5 0 0 1 -15.5,-15.5 v0 A15.5,15.5 0 0 1 292.54,126.53999999999999"/><g mask="url(#satori_om-id)" clip-path="url(#satori_cp-id)"><path fill="rgba(255,255,255,0.65)" d="M309.2 142L308.1 142L308.1 133.3L313.3 133.3L313.3 134.3L309.2 134.3L309.2 137.2L312.9 137.2L312.9 138.2L309.2 138.2L309.2 142ZM316.6 142L315.5 142L315.5 135.4L316.6 135.4L316.6 142ZM316.0 134.4L316.0 134.4Q315.7 134.4 315.5 134.2Q315.3 134.0 315.3 133.7L315.3 133.7Q315.3 133.4 315.5 133.2Q315.7 133.0 316.0 133.0L316.0 133.0Q316.3 133.0 316.6 133.2Q316.8 133.4 316.8 133.7L316.8 133.7Q316.8 134.0 316.6 134.2Q316.3 134.4 316.0 134.4ZM321.6 144.6L321.6 144.6Q320.8 144.6 320.3 144.4Q319.8 144.2 319.4 143.9Q319.1 143.6 318.9 143.3L318.9 143.3L319.7 142.7Q319.9 142.9 320.1 143.1Q320.3 143.3 320.6 143.5Q321.0 143.7 321.6 143.7L321.6 143.7Q322.4 143.7 322.9 143.3Q323.4 142.9 323.4 142.1L323.4 142.1L323.4 140.8L323.3 140.8Q323.2 141.0 323.0 141.2Q322.8 141.5 322.4 141.7Q322.0 141.9 321.4 141.9L321.4 141.9Q320.6 141.9 320.0 141.5Q319.3 141.2 319.0 140.4Q318.6 139.7 318.6 138.7L318.6 138.7Q318.6 137.7 319.0 136.9Q319.3 136.2 319.9 135.8Q320.6 135.4 321.4 135.4L321.4 135.4Q322.0 135.4 322.4 135.6Q322.8 135.8 323.0 136.1Q323.2 136.3 323.3 136.5L323.3 136.5L323.4 136.5L323.4 135.4L324.4 135.4L324.4 142.2Q324.4 143.0 324.0 143.5Q323.7 144.1 323.0 144.3Q322.4 144.6 321.6 144.6ZM321.5 141.0L321.5 141.0Q322.1 141.0 322.5 140.7Q323.0 140.4 323.2 139.9Q323.4 139.4 323.4 138.7L323.4 138.7Q323.4 138.0 323.2 137.4Q323.0 136.9 322.6 136.6Q322.1 136.3 321.5 136.3L321.5 136.3Q320.9 136.3 320.5 136.6Q320.1 136.9 319.9 137.5Q319.7 138.0 319.7 138.7L319.7 138.7Q319.7 139.3 319.9 139.9Q320.1 140.4 320.5 140.7Q320.9 141.0 321.5 141.0ZM327.8 142L326.8 142L326.8 135.4L327.8 135.4L327.8 136.7Q327.9 136.3 328.2 136.0L328.2 136.0Q328.4 135.7 328.8 135.5Q329.2 135.3 329.6 135.3L329.6 135.3Q330.4 135.3 330.8 135.8L330.8 135.8Q331.2 136.1 331.3 136.7L331.3 136.7Q331.4 136.3 331.7 136.1L331.7 136.1Q332.0 135.7 332.4 135.5Q332.9 135.3 333.4 135.3L333.4 135.3Q333.9 135.3 334.4 135.6Q334.9 135.8 335.2 136.3Q335.4 136.8 335.4 137.6L335.4 137.6L335.4 142L334.4 142L334.4 137.6Q334.4 136.9 334.0 136.6Q333.6 136.3 333.1 136.3L333.1 136.3Q332.6 136.3 332.3 136.5Q332.0 136.7 331.8 137.0Q331.6 137.3 331.6 137.7L331.6 137.7L331.6 142L330.6 142L330.6 137.5Q330.6 137.0 330.2 136.6Q329.9 136.3 329.3 136.3L329.3 136.3Q328.9 136.3 328.6 136.5Q328.2 136.7 328.0 137.0Q327.8 137.4 327.8 137.9L327.8 137.9L327.8 142ZM339.6 142.2L339.6 142.2Q339 142.2 338.5 141.9Q338.0 141.7 337.7 141.2Q337.4 140.8 337.4 140.1L337.4 140.1Q337.4 139.6 337.6 139.2Q337.8 138.9 338.2 138.7Q338.6 138.5 339.0 138.4Q339.5 138.3 339.9 138.2L339.9 138.2Q340.5 138.1 340.9 138.1Q341.3 138.1 341.4 138.0Q341.6 137.9 341.6 137.6L341.6 137.6L341.6 137.6Q341.6 137.2 341.5 136.9Q341.3 136.6 341.0 136.4Q340.7 136.3 340.2 136.3L340.2 136.3Q339.8 136.3 339.4 136.4Q339.1 136.6 338.9 136.8Q338.7 137.0 338.6 137.3L338.6 137.3L337.6 136.9Q337.8 136.3 338.3 136.0Q338.7 135.6 339.2 135.5Q339.7 135.4 340.2 135.4L340.2 135.4Q340.5 135.4 341.0 135.4Q341.4 135.5 341.8 135.8Q342.2 136.0 342.4 136.5Q342.7 136.9 342.7 137.7L342.7 137.7L342.7 142L341.6 142L341.6 141.1L341.6 141.1Q341.5 141.3 341.2 141.6Q341.0 141.8 340.6 142.0Q340.2 142.2 339.6 142.2ZM339.8 141.2L339.8 141.2Q340.4 141.2 340.8 141.0Q341.2 140.8 341.4 140.4Q341.6 140.0 341.6 139.6L341.6 139.6L341.6 138.7Q341.6 138.8 341.3 138.9Q341.1 138.9 340.8 139.0Q340.6 139.0 340.3 139.0Q340.0 139.1 339.9 139.1L339.9 139.1Q339.5 139.1 339.2 139.3Q338.8 139.4 338.6 139.6Q338.4 139.8 338.4 140.2L338.4 140.2Q338.4 140.5 338.6 140.8Q338.8 141.0 339.1 141.1Q339.4 141.2 339.8 141.2Z "/></g><defs><clipPath id="satori_bc-id-2-8" clip-path="url(#satori_cp-id)"><path x="374" y="122" width="65" height="31" d="M389.5,122 h34 a15.5,15.5 0 0 1 15.5,15.5 v0 a15.5,15.5 0 0 1 -15.5,15.5 h-34 a15.5,15.5 0 0 1 -15.5,-15.5 v0 a15.5,15.5 0 0 1 15.5,-15.5"/></clipPath></defs><mask id="satori_om-id-2-8"><rect x="375" y="123" width="63" height="29" fill="#fff" mask="url(#satori_om-id)"/><path width="65" height="31" fill="none" stroke="#000" stroke-width="2" d="M378.54,126.53999999999999 A15.5,15.5 0 0 1 389.5,122 h34 a15.5,15.5 0 0 1 15.5,15.5 v0 a15.5,15.5 0 0 1 -15.5,15.5 h-34 a15.5,15.5 0 0 1 -15.5,-15.5 v0 A15.5,15.5 0 0 1 378.54,126.53999999999999"/></mask><path x="374" y="122" width="65" height="31" fill="rgba(255,255,255,0.04)" d="M389.5,122 h34 a15.5,15.5 0 0 1 15.5,15.5 v0 a15.5,15.5 0 0 1 -15.5,15.5 h-34 a15.5,15.5 0 0 1 -15.5,-15.5 v0 a15.5,15.5 0 0 1 15.5,-15.5" clip-path="url(#satori_cp-id)" mask="url(#satori_om-id)"/><path width="65" height="31" clip-path="url(#satori_bc-id-2-8)" fill="none" stroke="rgba(255,255,255,0.08)" stroke-width="2" d="M378.54,126.53999999999999 A15.5,15.5 0 0 1 389.5,122 h34 a15.5,15.5 0 0 1 15.5,15.5 v0 a15.5,15.5 0 0 1 -15.5,15.5 h-34 a15.5,15.5 0 0 1 -15.5,-15.5 v0 A15.5,15.5 0 0 1 378.54,126.53999999999999"/><g mask="url(#satori_om-id)" clip-path="url(#satori_cp-id)"><path fill="rgba(255,255,255,0.65)" d="M396.8 142.2L396.8 142.2Q395.9 142.2 395.2 141.8Q394.5 141.5 394.1 141.0Q393.7 140.4 393.7 139.7L393.7 139.7L394.8 139.7Q394.9 140.2 395.2 140.5Q395.4 140.8 395.9 141.0Q396.3 141.2 396.8 141.2L396.8 141.2Q397.4 141.2 397.9 141.0Q398.4 140.8 398.7 140.4Q398.9 140.1 398.9 139.6L398.9 139.6Q398.9 139.2 398.7 138.9Q398.5 138.7 398.1 138.5Q397.7 138.3 397.2 138.2L397.2 138.2L396.2 137.9Q395.1 137.6 394.5 137.0Q393.9 136.5 393.9 135.6L393.9 135.6Q393.9 134.9 394.3 134.3Q394.7 133.8 395.4 133.5Q396.1 133.2 396.9 133.2L396.9 133.2Q397.8 133.2 398.4 133.5Q399.1 133.8 399.5 134.3Q399.9 134.8 399.9 135.5L399.9 135.5L398.8 135.5Q398.7 134.8 398.2 134.5Q397.7 134.1 396.9 134.1L396.9 134.1Q396.3 134.1 395.9 134.3Q395.5 134.5 395.2 134.8Q395.0 135.1 395.0 135.6L395.0 135.6Q395.0 136.0 395.3 136.3Q395.6 136.6 396.0 136.7Q396.4 136.9 396.7 137.0L396.7 137.0L397.5 137.2Q397.9 137.3 398.3 137.5Q398.7 137.6 399.1 137.9Q399.5 138.2 399.8 138.6Q400.0 139.0 400.0 139.6L400.0 139.6Q400.0 140.3 399.6 140.9Q399.3 141.5 398.6 141.8Q397.9 142.2 396.8 142.2ZM406.0 142L404.7 142L401.5 133.3L402.7 133.3L404.5 138.4Q404.7 138.9 404.9 139.6L404.9 139.6Q405.1 140.2 405.4 141.1L405.4 141.1Q405.6 140.2 405.8 139.6L405.8 139.6Q406.0 138.9 406.2 138.4L406.2 138.4L408.0 133.3L409.2 133.3L406.0 142ZM414.6 142.1L414.6 142.1Q413.4 142.1 412.6 141.6Q411.7 141.0 411.2 140.0Q410.7 139.0 410.7 137.6L410.7 137.6Q410.7 136.3 411.2 135.2Q411.7 134.2 412.5 133.7Q413.4 133.2 414.5 133.2L414.5 133.2Q415.2 133.2 415.8 133.4Q416.4 133.6 416.9 133.9Q417.4 134.3 417.7 134.8Q418 135.4 418.1 136.0L418.1 136.0L417.0 136.0Q416.8 135.6 416.6 135.3Q416.4 134.9 416.1 134.7Q415.8 134.4 415.4 134.3Q415 134.2 414.5 134.2L414.5 134.2Q413.8 134.2 413.1 134.6Q412.5 135.0 412.1 135.7Q411.8 136.5 411.8 137.6L411.8 137.6Q411.8 138.8 412.1 139.5Q412.5 140.3 413.2 140.7Q413.8 141.1 414.6 141.1L414.6 141.1Q415.3 141.1 415.9 140.8Q416.5 140.5 416.8 139.9L416.8 139.9Q417.1 139.3 417.1 138.6L417.1 138.6L414.8 138.6L414.8 137.6L418.2 137.6L418.2 138.6Q418.2 139.7 417.7 140.4Q417.3 141.2 416.5 141.7Q415.6 142.1 414.6 142.1Z "/></g><defs><clipPath id="satori_bc-id-2-9" clip-path="url(#satori_cp-id)"><path x="449" y="122" width="64" height="31" d="M464.5,122 h33 a15.5,15.5 0 0 1 15.5,15.5 v0 a15.5,15.5 0 0 1 -15.5,15.5 h-33 a15.5,15.5 0 0 1 -15.5,-15.5 v0 a15.5,15.5 0 0 1 15.5,-15.5"/></clipPath></defs><mask id="satori_om-id-2-9"><rect x="450" y="123" width="62" height="29" fill="#fff" mask="url(#satori_om-id)"/><path width="64" height="31" fill="none" stroke="#000" stroke-width="2" d="M453.54,126.53999999999999 A15.5,15.5 0 0 1 464.5,122 h33 a15.5,15.5 0 0 1 15.5,15.5 v0 a15.5,15.5 0 0 1 -15.5,15.5 h-33 a15.5,15.5 0 0 1 -15.5,-15.5 v0 A15.5,15.5 0 0 1 453.54,126.53999999999999"/></mask><path x="449" y="122" width="64" height="31" fill="rgba(255,255,255,0.04)" d="M464.5,122 h33 a15.5,15.5 0 0 1 15.5,15.5 v0 a15.5,15.5 0 0 1 -15.5,15.5 h-33 a15.5,15.5 0 0 1 -15.5,-15.5 v0 a15.5,15.5 0 0 1 15.5,-15.5" clip-path="url(#satori_cp-id)" mask="url(#satori_om-id)"/><path width="64" height="31" clip-path="url(#satori_bc-id-2-9)" fill="none" stroke="rgba(255,255,255,0.08)" stroke-width="2" d="M453.54,126.53999999999999 A15.5,15.5 0 0 1 464.5,122 h33 a15.5,15.5 0 0 1 15.5,15.5 v0 a15.5,15.5 0 0 1 -15.5,15.5 h-33 a15.5,15.5 0 0 1 -15.5,-15.5 v0 A15.5,15.5 0 0 1 453.54,126.53999999999999"/><g mask="url(#satori_om-id)" clip-path="url(#satori_cp-id)"><path fill="rgba(255,255,255,0.65)" d="M472.6 142.1L472.6 142.1Q471.5 142.1 470.6 141.6Q469.7 141.0 469.2 140.0Q468.7 139.0 468.7 137.6L468.7 137.6Q468.7 136.3 469.2 135.2Q469.7 134.2 470.6 133.7Q471.5 133.2 472.6 133.2L472.6 133.2Q473.3 133.2 473.8 133.3Q474.4 133.5 474.9 133.9Q475.4 134.3 475.7 134.8Q476.0 135.3 476.1 136.0L476.1 136.0L475.0 136.0Q474.9 135.6 474.7 135.2Q474.5 134.9 474.1 134.7Q473.8 134.4 473.4 134.3Q473.0 134.2 472.6 134.2L472.6 134.2Q471.8 134.2 471.2 134.6Q470.5 135.0 470.2 135.8Q469.8 136.5 469.8 137.6L469.8 137.6Q469.8 138.8 470.2 139.5Q470.5 140.3 471.2 140.7Q471.8 141.1 472.6 141.1L472.6 141.1Q473.0 141.1 473.4 141.0Q473.8 140.8 474.1 140.6Q474.5 140.4 474.7 140.0Q474.9 139.7 475.0 139.3L475.0 139.3L476.1 139.3Q476.0 139.9 475.7 140.4Q475.4 141.0 474.9 141.3Q474.4 141.7 473.8 141.9Q473.3 142.1 472.6 142.1ZM481.1 142.2L481.1 142.2Q480.2 142.2 479.5 141.8Q478.8 141.5 478.4 141.0Q478.0 140.4 477.9 139.7L477.9 139.7L479.1 139.7Q479.1 140.2 479.4 140.5Q479.7 140.8 480.2 141.0Q480.6 141.2 481.1 141.2L481.1 141.2Q481.7 141.2 482.2 141.0Q482.7 140.8 482.9 140.4Q483.2 140.1 483.2 139.6L483.2 139.6Q483.2 139.2 483.0 138.9Q482.7 138.7 482.3 138.5Q481.9 138.3 481.5 138.2L481.5 138.2L480.4 137.9Q479.4 137.6 478.8 137.0Q478.2 136.5 478.2 135.6L478.2 135.6Q478.2 134.9 478.6 134.3Q479.0 133.8 479.7 133.5Q480.3 133.2 481.2 133.2L481.2 133.2Q482.1 133.2 482.7 133.5Q483.4 133.8 483.8 134.3Q484.1 134.8 484.2 135.5L484.2 135.5L483.1 135.5Q483.0 134.8 482.5 134.5Q481.9 134.1 481.2 134.1L481.2 134.1Q480.6 134.1 480.2 134.3Q479.7 134.5 479.5 134.8Q479.3 135.1 479.3 135.6L479.3 135.6Q479.3 136.0 479.6 136.3Q479.8 136.6 480.2 136.7Q480.6 136.9 480.9 137.0L480.9 137.0L481.8 137.2Q482.2 137.3 482.6 137.5Q483.0 137.6 483.4 137.9Q483.8 138.2 484.0 138.6Q484.3 139.0 484.3 139.6L484.3 139.6Q484.3 140.3 483.9 140.9Q483.5 141.5 482.8 141.8Q482.1 142.2 481.1 142.2ZM489.3 142.2L489.3 142.2Q488.4 142.2 487.7 141.8Q487.0 141.5 486.6 141.0Q486.2 140.4 486.1 139.7L486.1 139.7L487.3 139.7Q487.3 140.2 487.6 140.5Q487.9 140.8 488.4 141.0Q488.8 141.2 489.3 141.2L489.3 141.2Q489.9 141.2 490.4 141.0Q490.8 140.8 491.1 140.4Q491.4 140.1 491.4 139.6L491.4 139.6Q491.4 139.2 491.2 138.9Q490.9 138.7 490.5 138.5Q490.1 138.3 489.7 138.2L489.7 138.2L488.6 137.9Q487.6 137.6 487.0 137.0Q486.4 136.5 486.4 135.6L486.4 135.6Q486.4 134.9 486.8 134.3Q487.2 133.8 487.9 133.5Q488.5 133.2 489.4 133.2L489.4 133.2Q490.3 133.2 490.9 133.5Q491.6 133.8 492.0 134.3Q492.3 134.8 492.4 135.5L492.4 135.5L491.3 135.5Q491.2 134.8 490.7 134.5Q490.1 134.1 489.4 134.1L489.4 134.1Q488.8 134.1 488.4 134.3Q487.9 134.5 487.7 134.8Q487.5 135.1 487.5 135.6L487.5 135.6Q487.5 136.0 487.8 136.3Q488.0 136.6 488.4 136.7Q488.8 136.9 489.1 137.0L489.1 137.0L490.0 137.2Q490.4 137.3 490.8 137.5Q491.2 137.6 491.6 137.9Q492.0 138.2 492.2 138.6Q492.5 139.0 492.5 139.6L492.5 139.6Q492.5 140.3 492.1 140.9Q491.7 141.5 491.0 141.8Q490.3 142.2 489.3 142.2Z "/></g></svg>