<!-- Generated by readme-aura https://github.com/collectioneur/readme-aura -->
<svg width="360" height="360" viewBox="0 0 360 360" xmlns="http://www.w3.org/2000/svg"><defs><pattern id="satori_pattern_id_0" x="0" y="0" width="1" height="1" patternUnits="objectBoundingBox"><linearGradient id="satori_biid_0" x1="0" y1="0" x2="1" y2="0" spreadMethod="pad"><stop offset="0%" stop-color="#928dab66"/><stop offset="100%" stop-color="#1f1c2c66"/></linearGradient><rect x="0" y="0" width="360" height="360" fill="url(#satori_biid_0)"/></pattern></defs><clipPath id="satori_cp-id"><path x="0" y="0" width="360" height="360" d="M20,0 h320 a20,20 0 0 1 20,20 v320 a20,20 0 0 1 -20,20 h-320 a20,20 0 0 1 -20,-20 v-320 a20,20 0 0 1 20,-20"/></clipPath><mask id="satori_om-id"><rect x="0" y="0" width="360" height="360" fill="#fff"/></mask><path x="0" y="0" width="360" height="360" fill="url(#satori_pattern_id_0)" d="M20,0 h320 a20,20 0 0 1 20,20 v320 a20,20 0 0 1 -20,20 h-320 a20,20 0 0 1 -20,-20 v-320 a20,20 0 0 1 20,-20"/><mask id="satori_ms-id-3" maskUnits="userSpaceOnUse"><rect x="0" y="0" width="360" height="360" fill="#000"/><path x="0" y="0" width="360" height="360" fill="#fff"  stroke-width="0" d="M20,0 h320 a20,20 0 0 1 20,20 v320 a20,20 0 0 1 -20,20 h-320 a20,20 0 0 1 -20,-20 v-320 a20,20 0 0 1 20,-20"/></mask><defs><filter id="satori_s-id-3" x="-14.23611111111111%" y="-15.625%" width="131.25%" height="131.25%"><feGaussianBlur stdDeviation="7.5" result="b"/><feFlood flood-color="rgba(255,255,255,0.1)" in="SourceGraphic" result="f"/><feComposite in="f" in2="b" operator="out"/></filter></defs><g mask="url(#satori_ms-id-3)" filter="url(#satori_s-id-3)" opacity="1"><path x="-5" y="0" width="360" height="360" fill="#fff" stroke="#fff" stroke-width="0" d="M15,0 h320 a20,20 0 0 1 20,20 v320 a20,20 0 0 1 -20,20 h-320 a20,20 0 0 1 -20,-20 v-320 a20,20 0 0 1 20,-20"/></g><mask id="satori_ms-id-2" maskUnits="userSpaceOnUse"><rect x="0" y="0" width="360" height="360" fill="#000"/><path x="0" y="0" width="360" height="360" fill="#fff"  stroke-width="0" d="M20,0 h320 a20,20 0 0 1 20,20 v320 a20,20 0 0 1 -20,20 h-320 a20,20 0 0 1 -20,-20 v-320 a20,20 0 0 1 20,-20"/></mask><defs><filter id="satori_s-id-2" x="-17.01388888888889%" y="-15.625%" width="131.25%" height="131.25%"><feGaussianBlur stdDeviation="7.5" result="b"/><feFlood flood-color="rgba(255,255,255,0.1)" in="SourceGraphic" result="f"/><feComposite in="f" in2="b" operator="out"/></filter></defs><g mask="url(#satori_ms-id-2)" filter="url(#satori_s-id-2)" opacity="1"><path x="5" y="0" width="360" height="360" fill="#fff" stroke="#fff" stroke-width="0" d="M25,0 h320 a20,20 0 0 1 20,20 v320 a20,20 0 0 1 -20,20 h-320 a20,20 0 0 1 -20,-20 v-320 a20,20 0 0 1 20,-20"/></g><mask id="satori_ms-id-1" maskUnits="userSpaceOnUse"><rect x="0" y="0" width="360" height="360" fill="#000"/><path x="0" y="0" width="360" height="360" fill="#fff"  stroke-width="0" d="M20,0 h320 a20,20 0 0 1 20,20 v320 a20,20 0 0 1 -20,20 h-320 a20,20 0 0 1 -20,-20 v-320 a20,20 0 0 1 20,-20"/></mask><defs><filter id="satori_s-id-1" x="-15.625%" y="-14.23611111111111%" width="131.25%" height="131.25%"><feGaussianBlur stdDeviation="7.5" result="b"/><feFlood flood-color="rgba(255,255,255,0.1)" in="SourceGraphic" result="f"/><feComposite in="f" in2="b" operator="out"/></filter></defs><g mask="url(#satori_ms-id-1)" filter="url(#satori_s-id-1)" opacity="1"><path x="0" y="-5" width="360" height="360" fill="#fff" stroke="#fff" stroke-width="0" d="M20,-5 h320 a20,20 0 0 1 20,20 v320 a20,20 0 0 1 -20,20 h-320 a20,20 0 0 1 -20,-20 v-320 a20,20 0 0 1 20,-20"/></g><mask id="satori_ms-id-0" maskUnits="userSpaceOnUse"><rect x="0" y="0" width="360" height="360" fill="#000"/><path x="0" y="0" width="360" height="360" fill="#fff"  stroke-width="0" d="M20,0 h320 a20,20 0 0 1 20,20 v320 a20,20 0 0 1 -20,20 h-320 a20,20 0 0 1 -20,-20 v-320 a20,20 0 0 1 20,-20"/></mask><defs><filter id="satori_s-id-0" x="-15.625%" y="-17.01388888888889%" width="131.25%" height="131.25%"><feGaussianBlur stdDeviation="7.5" result="b"/><feFlood flood-color="rgba(255,255,255,0.2)" in="SourceGraphic" result="f"/><feComposite in="f" in2="b" operator="out"/></filter></defs><g mask="url(#satori_ms-id-0)" filter="url(#satori_s-id-0)" opacity="1"><path x="0" y="5" width="360" height="360" fill="#fff" stroke="#fff" stroke-width="0" d="M20,5 h320 a20,20 0 0 1 20,20 v320 a20,20 0 0 1 -20,20 h-320 a20,20 0 0 1 -20,-20 v-320 a20,20 0 0 1 20,-20"/></g><clipPath id="satori_cp-id-0" clip-path="url(#satori_cp-id)"><rect x="0" y="0" width="360" height="360"/></clipPath><mask id="satori_om-id-0"><rect x="0" y="0" width="360" height="360" fill="#fff" mask="url(#satori_om-id)"/></mask><svg x="0" y="0" width="360" height="360" preserveAspectRatio="none" clip-path="url(#satori_cp-id-0)" mask="url(#satori_om-id-0)"><defs><linearGradient id="tw-holo-li" gradientUnits="objectBoundingBox" x1="0" y1="0" x2="1" y2="1"><stop offset="0%" stop-color="#a1f4ff02"></stop><stop offset="10%" stop-color="#ffffff"></stop><stop offset="30%" stop-color="#a1f4ff02"></stop><stop offset="60%" stop-color="#ffffff"></stop><stop offset="80%" stop-color="#a1f4ff02"></stop><stop offset="100%" stop-color="#a1f4ff02"></stop><animateTransform attributeName="gradientTransform" type="rotate" from="0 0.5 0.5" to="360 0.5 0.5" dur="8s" repeatCount="indefinite"></animateTransform></linearGradient><filter id="stroke-blur" x="-10%" y="-10%" width="120%" height="120%"><feGaussianBlur stdDeviation="1"></feGaussianBlur></filter></defs><rect x="2.5" y="2.5" width="355" height="355" rx="18.75" ry="18.75" fill="none" stroke="url(#tw-holo-li)" stroke-width="4" stroke-linecap="round" stroke-linejoin="round" filter="url(#stroke-blur)"></rect><rect x="0.25" y="0.25" width="359.5" height="359.5" rx="19.75" ry="19.75" fill="none" stroke="#ffffff" stroke-width="0.5" stroke-linecap="round" stroke-linejoin="round"></rect></svg><mask id="satori_om-id-0-0"><rect x="0" y="0" width="0" height="360" fill="#fff" mask="url(#satori_om-id)"/></mask><mask id="satori_om-id-0-0-0"><rect x="0" y="0" width="0" height="360" fill="#fff" mask="url(#satori_om-id)"/></mask><mask id="satori_om-id-0-0-0-0"><rect x="0" y="0" width="0" height="360" fill="#fff" mask="url(#satori_om-id)"/></mask><mask id="satori_om-id-0-0-0-1"><rect x="0" y="0" width="0" height="360" fill="#fff" mask="url(#satori_om-id)"/></mask><mask id="satori_om-id-0-0-0-2"><rect x="0" y="0" width="0" height="360" fill="#fff" mask="url(#satori_om-id)"/></mask><mask id="satori_om-id-0-0-0-3"><rect x="0" y="0" width="0" height="360" fill="#fff" mask="url(#satori_om-id)"/></mask><mask id="satori_om-id-0-0-0-4"><rect x="0" y="0" width="0" height="360" fill="#fff" mask="url(#satori_om-id)"/></mask><mask id="satori_om-id-0-0-0-5"><rect x="0" y="0" width="0" height="360" fill="#fff" mask="url(#satori_om-id)"/></mask><mask id="satori_om-id-0-0-0-6"><rect x="0" y="0" width="0" height="360" fill="#fff" mask="url(#satori_om-id)"/></mask><mask id="satori_om-id-0-0-1"><rect x="0" y="0" width="0" height="360" fill="#fff" mask="url(#satori_om-id)"/></mask><mask id="satori_om-id-0-0-1-0"><rect x="0" y="0" width="0" height="360" fill="#fff" mask="url(#satori_om-id)"/></mask><mask id="satori_om-id-0-1"><rect x="0" y="0" width="0" height="360" fill="#fff" mask="url(#satori_om-id)"/></mask><mask id="satori_om-id-0-2"><rect x="0" y="0" width="0" height="360" fill="#fff" mask="url(#satori_om-id)"/></mask><mask id="satori_om-id-1"><rect x="0" y="0" width="360" height="360" fill="#fff" mask="url(#satori_om-id)"/></mask><mask id="satori_om-id-1-0"><rect x="180" y="180" width="0" height="0" fill="#fff" mask="url(#satori_om-id)"/></mask></svg>