<!-- Generated by readme-aura https://github.com/collectioneur/readme-aura -->
<svg width="200" height="200" viewBox="0 0 200 200" xmlns="http://www.w3.org/2000/svg"><defs><pattern id="satori_pattern_id_0" x="0" y="0" width="1" height="1" patternUnits="objectBoundingBox"><linearGradient id="satori_biid_0" x1="0" y1="0" x2="1" y2="0" spreadMethod="pad"><stop offset="0%" stop-color="#292e4966"/><stop offset="50%" stop-color="#53697666"/><stop offset="100%" stop-color="#bbd2c566"/></linearGradient><rect x="0" y="0" width="200" height="200" fill="url(#satori_biid_0)"/></pattern></defs><clipPath id="satori_cp-id"><path x="0" y="0" width="200" height="200" d="M20,0 h160 a20,20 0 0 1 20,20 v160 a20,20 0 0 1 -20,20 h-160 a20,20 0 0 1 -20,-20 v-160 a20,20 0 0 1 20,-20"/></clipPath><mask id="satori_om-id"><rect x="0" y="0" width="200" height="200" fill="#fff"/></mask><path x="0" y="0" width="200" height="200" fill="url(#satori_pattern_id_0)" d="M20,0 h160 a20,20 0 0 1 20,20 v160 a20,20 0 0 1 -20,20 h-160 a20,20 0 0 1 -20,-20 v-160 a20,20 0 0 1 20,-20"/><mask id="satori_ms-id-3" maskUnits="userSpaceOnUse"><rect x="0" y="0" width="200" height="200" fill="#000"/><path x="0" y="0" width="200" height="200" fill="#fff"  stroke-width="0" d="M20,0 h160 a20,20 0 0 1 20,20 v160 a20,20 0 0 1 -20,20 h-160 a20,20 0 0 1 -20,-20 v-160 a20,20 0 0 1 20,-20"/></mask><defs><filter id="satori_s-id-3" x="-25.624999999999996%" y="-28.125%" width="156.25%" height="156.25%"><feGaussianBlur stdDeviation="7.5" result="b"/><feFlood flood-color="rgba(255,255,255,0.1)" in="SourceGraphic" result="f"/><feComposite in="f" in2="b" operator="out"/></filter></defs><g mask="url(#satori_ms-id-3)" filter="url(#satori_s-id-3)" opacity="1"><path x="-5" y="0" width="200" height="200" fill="#fff" stroke="#fff" stroke-width="0" d="M15,0 h160 a20,20 0 0 1 20,20 v160 a20,20 0 0 1 -20,20 h-160 a20,20 0 0 1 -20,-20 v-160 a20,20 0 0 1 20,-20"/></g><mask id="satori_ms-id-2" maskUnits="userSpaceOnUse"><rect x="0" y="0" width="200" height="200" fill="#000"/><path x="0" y="0" width="200" height="200" fill="#fff"  stroke-width="0" d="M20,0 h160 a20,20 0 0 1 20,20 v160 a20,20 0 0 1 -20,20 h-160 a20,20 0 0 1 -20,-20 v-160 a20,20 0 0 1 20,-20"/></mask><defs><filter id="satori_s-id-2" x="-30.625000000000004%" y="-28.125%" width="156.25%" height="156.25%"><feGaussianBlur stdDeviation="7.5" result="b"/><feFlood flood-color="rgba(255,255,255,0.1)" in="SourceGraphic" result="f"/><feComposite in="f" in2="b" operator="out"/></filter></defs><g mask="url(#satori_ms-id-2)" filter="url(#satori_s-id-2)" opacity="1"><path x="5" y="0" width="200" height="200" fill="#fff" stroke="#fff" stroke-width="0" d="M25,0 h160 a20,20 0 0 1 20,20 v160 a20,20 0 0 1 -20,20 h-160 a20,20 0 0 1 -20,-20 v-160 a20,20 0 0 1 20,-20"/></g><mask id="satori_ms-id-1" maskUnits="userSpaceOnUse"><rect x="0" y="0" width="200" height="200" fill="#000"/><path x="0" y="0" width="200" height="200" fill="#fff"  stroke-width="0" d="M20,0 h160 a20,20 0 0 1 20,20 v160 a20,20 0 0 1 -20,20 h-160 a20,20 0 0 1 -20,-20 v-160 a20,20 0 0 1 20,-20"/></mask><defs><filter id="satori_s-id-1" x="-28.125%" y="-25.624999999999996%" width="156.25%" height="156.25%"><feGaussianBlur stdDeviation="7.5" result="b"/><feFlood flood-color="rgba(255,255,255,0.1)" in="SourceGraphic" result="f"/><feComposite in="f" in2="b" operator="out"/></filter></defs><g mask="url(#satori_ms-id-1)" filter="url(#satori_s-id-1)" opacity="1"><path x="0" y="-5" width="200" height="200" fill="#fff" stroke="#fff" stroke-width="0" d="M20,-5 h160 a20,20 0 0 1 20,20 v160 a20,20 0 0 1 -20,20 h-160 a20,20 0 0 1 -20,-20 v-160 a20,20 0 0 1 20,-20"/></g><mask id="satori_ms-id-0" maskUnits="userSpaceOnUse"><rect x="0" y="0" width="200" height="200" fill="#000"/><path x="0" y="0" width="200" height="200" fill="#fff"  stroke-width="0" d="M20,0 h160 a20,20 0 0 1 20,20 v160 a20,20 0 0 1 -20,20 h-160 a20,20 0 0 1 -20,-20 v-160 a20,20 0 0 1 20,-20"/></mask><defs><filter id="satori_s-id-0" x="-28.125%" y="-30.625000000000004%" width="156.25%" height="156.25%"><feGaussianBlur stdDeviation="7.5" result="b"/><feFlood flood-color="rgba(255,255,255,0.2)" in="SourceGraphic" result="f"/><feComposite in="f" in2="b" operator="out"/></filter></defs><g mask="url(#satori_ms-id-0)" filter="url(#satori_s-id-0)" opacity="1"><path x="0" y="5" width="200" height="200" fill="#fff" stroke="#fff" stroke-width="0" d="M20,5 h160 a20,20 0 0 1 20,20 v160 a20,20 0 0 1 -20,20 h-160 a20,20 0 0 1 -20,-20 v-160 a20,20 0 0 1 20,-20"/></g><clipPath id="satori_cp-id-0" clip-path="url(#satori_cp-id)"><rect x="0" y="0" width="200" height="200"/></clipPath><mask id="satori_om-id-0"><rect x="0" y="0" width="200" height="200" fill="#fff" mask="url(#satori_om-id)"/></mask><svg x="0" y="0" width="200" height="200" preserveAspectRatio="none" clip-path="url(#satori_cp-id-0)" mask="url(#satori_om-id-0)"><defs><linearGradient id="tw-holo-li" gradientUnits="objectBoundingBox" x1="0" y1="0" x2="1" y2="1"><stop offset="0%" stop-color="#a1f4ff02"></stop><stop offset="10%" stop-color="#ffffff"></stop><stop offset="30%" stop-color="#a1f4ff02"></stop><stop offset="60%" stop-color="#ffffff"></stop><stop offset="80%" stop-color="#a1f4ff02"></stop><stop offset="100%" stop-color="#a1f4ff02"></stop><animateTransform attributeName="gradientTransform" type="rotate" from="0 0.5 0.5" to="360 0.5 0.5" dur="8s" repeatCount="indefinite"></animateTransform></linearGradient><filter id="stroke-blur" x="-10%" y="-10%" width="120%" height="120%"><feGaussianBlur stdDeviation="1"></feGaussianBlur></filter></defs><rect x="2.5" y="2.5" width="195" height="195" rx="18.75" ry="18.75" fill="none" stroke="url(#tw-holo-li)" stroke-width="4" stroke-linecap="round" stroke-linejoin="round" filter="url(#stroke-blur)"></rect><rect x="0.25" y="0.25" width="199.5" height="199.5" rx="19.75" ry="19.75" fill="none" stroke="#ffffff" stroke-width="0.5" stroke-linecap="round" stroke-linejoin="round"></rect></svg><mask id="satori_om-id-0-0"><rect x="0" y="0" width="0" height="200" fill="#fff" mask="url(#satori_om-id)"/></mask><mask id="satori_om-id-0-0-0"><rect x="0" y="0" width="0" height="200" fill="#fff" mask="url(#satori_om-id)"/></mask><mask id="satori_om-id-0-0-0-0"><rect x="0" y="0" width="0" height="200" fill="#fff" mask="url(#satori_om-id)"/></mask><mask id="satori_om-id-0-0-0-1"><rect x="0" y="0" width="0" height="200" fill="#fff" mask="url(#satori_om-id)"/></mask><mask id="satori_om-id-0-0-0-2"><rect x="0" y="0" width="0" height="200" fill="#fff" mask="url(#satori_om-id)"/></mask><mask id="satori_om-id-0-0-0-3"><rect x="0" y="0" width="0" height="200" fill="#fff" mask="url(#satori_om-id)"/></mask><mask id="satori_om-id-0-0-0-4"><rect x="0" y="0" width="0" height="200" fill="#fff" mask="url(#satori_om-id)"/></mask><mask id="satori_om-id-0-0-0-5"><rect x="0" y="0" width="0" height="200" fill="#fff" mask="url(#satori_om-id)"/></mask><mask id="satori_om-id-0-0-0-6"><rect x="0" y="0" width="0" height="200" fill="#fff" mask="url(#satori_om-id)"/></mask><mask id="satori_om-id-0-0-1"><rect x="0" y="0" width="0" height="200" fill="#fff" mask="url(#satori_om-id)"/></mask><mask id="satori_om-id-0-0-1-0"><rect x="0" y="0" width="0" height="200" fill="#fff" mask="url(#satori_om-id)"/></mask><mask id="satori_om-id-0-1"><rect x="0" y="0" width="0" height="200" fill="#fff" mask="url(#satori_om-id)"/></mask><mask id="satori_om-id-0-2"><rect x="0" y="0" width="0" height="200" fill="#fff" mask="url(#satori_om-id)"/></mask><mask id="satori_om-id-1"><rect x="0" y="0" width="200" height="200" fill="#fff" mask="url(#satori_om-id)"/></mask><mask id="satori_om-id-1-0"><rect x="100" y="100" width="0" height="0" fill="#fff" mask="url(#satori_om-id)"/></mask></svg>