<!-- Generated by readme-aura https://github.com/collectioneur/readme-aura -->
<svg width="860" height="240" viewBox="0 0 860 240" xmlns="http://www.w3.org/2000/svg"><clipPath id="satori_cp-id"><path x="0" y="0" width="860" height="240" d="M18,0 h824 a18,18 0 0 1 18,18 v204 a18,18 0 0 1 -18,18 h-824 a18,18 0 0 1 -18,-18 v-204 a18,18 0 0 1 18,-18"/></clipPath><mask id="satori_om-id"><rect x="0" y="0" width="860" height="240" fill="#fff"/></mask><path x="0" y="0" width="860" height="240" fill="#08080e" d="M18,0 h824 a18,18 0 0 1 18,18 v204 a18,18 0 0 1 -18,18 h-824 a18,18 0 0 1 -18,-18 v-204 a18,18 0 0 1 18,-18"/><clipPath id="satori_cp-id-0" clip-path="url(#satori_cp-id)"><rect x="0" y="0" width="860" height="240"/></clipPath><mask id="satori_om-id-0"><rect x="0" y="0" width="860" height="240" fill="#fff" mask="url(#satori_om-id)"/></mask><svg x="0" y="0" width="860" height="240" preserveAspectRatio="none" clip-path="url(#satori_cp-id-0)" mask="url(#satori_om-id-0)"><defs><filter id="np-glow" x="-100%" y="-100%" width="300%" height="300%"><feGaussianBlur in="SourceGraphic" stdDeviation="5"><animate attributeName="stdDeviation" values="3;8;3" dur="3s" repeatCount="indefinite"></animate></feGaussianBlur></filter><filter id="np-glow-lg" x="-100%" y="-100%" width="300%" height="300%"><feGaussianBlur in="SourceGraphic" stdDeviation="12"><animate attributeName="stdDeviation" values="8;18;8" dur="5s" repeatCount="indefinite"></animate></feGaussianBlur></filter></defs><line x1="130" y1="70" x2="300" y2="120" stroke="rgba(100,180,255,0.25)" stroke-width="1"><animate attributeName="opacity" values="0.08;0.5;0.08" dur="3s" repeatCount="indefinite"></animate></line><line x1="300" y1="120" x2="430" y2="55" stroke="rgba(180,100,255,0.25)" stroke-width="1"><animate attributeName="opacity" values="0.08;0.5;0.08" dur="4s" repeatCount="indefinite" begin="0.5s"></animate></line><line x1="430" y1="55" x2="580" y2="140" stroke="rgba(100,255,200,0.25)" stroke-width="1"><animate attributeName="opacity" values="0.08;0.5;0.08" dur="3.5s" repeatCount="indefinite" begin="1s"></animate></line><line x1="580" y1="140" x2="730" y2="75" stroke="rgba(255,150,100,0.25)" stroke-width="1"><animate attributeName="opacity" values="0.08;0.5;0.08" dur="4.5s" repeatCount="indefinite" begin="0.3s"></animate></line><line x1="130" y1="70" x2="430" y2="55" stroke="rgba(200,100,255,0.12)" stroke-width="0.5"><animate attributeName="opacity" values="0.03;0.25;0.03" dur="5s" repeatCount="indefinite" begin="0.7s"></animate></line><line x1="300" y1="120" x2="580" y2="140" stroke="rgba(100,200,255,0.12)" stroke-width="0.5"><animate attributeName="opacity" values="0.03;0.25;0.03" dur="6s" repeatCount="indefinite" begin="1.2s"></animate></line><line x1="430" y1="55" x2="730" y2="75" stroke="rgba(255,200,100,0.12)" stroke-width="0.5"><animate attributeName="opacity" values="0.03;0.25;0.03" dur="5.5s" repeatCount="indefinite" begin="0.9s"></animate></line><line x1="200" y1="180" x2="300" y2="120" stroke="rgba(140,140,255,0.1)" stroke-width="0.5"><animate attributeName="opacity" values="0.02;0.2;0.02" dur="5s" repeatCount="indefinite" begin="1.5s"></animate></line><line x1="500" y1="185" x2="580" y2="140" stroke="rgba(200,140,255,0.1)" stroke-width="0.5"><animate attributeName="opacity" values="0.02;0.2;0.02" dur="4.5s" repeatCount="indefinite" begin="0.8s"></animate></line><line x1="650" y1="175" x2="730" y2="75" stroke="rgba(140,255,200,0.1)" stroke-width="0.5"><animate attributeName="opacity" values="0.02;0.2;0.02" dur="5.5s" repeatCount="indefinite" begin="2s"></animate></line><circle cx="130" cy="70" r="4" fill="rgba(100,180,255,0.9)" filter="url(#np-glow)"><animate attributeName="r" values="3;9;3" dur="2.5s" repeatCount="indefinite"></animate><animate attributeName="opacity" values="0.5;1;0.5" dur="2.5s" repeatCount="indefinite"></animate></circle><circle cx="300" cy="120" r="4" fill="rgba(180,100,255,0.9)" filter="url(#np-glow)"><animate attributeName="r" values="3;10;3" dur="3s" repeatCount="indefinite" begin="0.4s"></animate><animate attributeName="opacity" values="0.5;1;0.5" dur="3s" repeatCount="indefinite" begin="0.4s"></animate></circle><circle cx="430" cy="55" r="4" fill="rgba(100,255,200,0.9)" filter="url(#np-glow)"><animate attributeName="r" values="3;8;3" dur="2.8s" repeatCount="indefinite" begin="0.8s"></animate><animate attributeName="opacity" values="0.5;1;0.5" dur="2.8s" repeatCount="indefinite" begin="0.8s"></animate></circle><circle cx="580" cy="140" r="4" fill="rgba(255,150,100,0.9)" filter="url(#np-glow)"><animate attributeName="r" values="3;9;3" dur="3.3s" repeatCount="indefinite" begin="1.2s"></animate><animate attributeName="opacity" values="0.5;1;0.5" dur="3.3s" repeatCount="indefinite" begin="1.2s"></animate></circle><circle cx="730" cy="75" r="4" fill="rgba(255,200,100,0.9)" filter="url(#np-glow)"><animate attributeName="r" values="3;8;3" dur="2.6s" repeatCount="indefinite" begin="0.6s"></animate><animate attributeName="opacity" values="0.5;1;0.5" dur="2.6s" repeatCount="indefinite" begin="0.6s"></animate></circle><circle cx="200" cy="180" r="2" fill="rgba(100,180,255,0.5)"><animate attributeName="r" values="1.5;5;1.5" dur="4s" repeatCount="indefinite" begin="0.2s"></animate><animate attributeName="opacity" values="0.2;0.7;0.2" dur="4s" repeatCount="indefinite" begin="0.2s"></animate></circle><circle cx="500" cy="185" r="2" fill="rgba(180,100,255,0.5)"><animate attributeName="r" values="1.5;5;1.5" dur="3.7s" repeatCount="indefinite" begin="1s"></animate><animate attributeName="opacity" values="0.2;0.7;0.2" dur="3.7s" repeatCount="indefinite" begin="1s"></animate></circle><circle cx="650" cy="175" r="2" fill="rgba(100,255,200,0.5)"><animate attributeName="r" values="1.5;4;1.5" dur="4.2s" repeatCount="indefinite" begin="0.5s"></animate><animate attributeName="opacity" values="0.2;0.7;0.2" dur="4.2s" repeatCount="indefinite" begin="0.5s"></animate></circle><circle cx="130" cy="70" r="20" fill="rgba(100,180,255,0.15)" filter="url(#np-glow-lg)"><animate attributeName="r" values="15;30;15" dur="4s" repeatCount="indefinite"></animate></circle><circle cx="430" cy="55" r="20" fill="rgba(100,255,200,0.12)" filter="url(#np-glow-lg)"><animate attributeName="r" values="15;28;15" dur="5s" repeatCount="indefinite" begin="1s"></animate></circle><circle cx="730" cy="75" r="20" fill="rgba(255,200,100,0.12)" filter="url(#np-glow-lg)"><animate attributeName="r" values="15;25;15" dur="4.5s" repeatCount="indefinite" begin="0.5s"></animate></circle></svg><mask id="satori_om-id-0-0"><rect x="0" y="0" width="0" height="240" fill="#fff" mask="url(#satori_om-id)"/></mask><mask id="satori_om-id-0-0-0"><rect x="0" y="0" width="0" height="240" fill="#fff" mask="url(#satori_om-id)"/></mask><mask id="satori_om-id-0-0-0-0"><rect x="0" y="0" width="0" height="240" fill="#fff" mask="url(#satori_om-id)"/></mask><mask id="satori_om-id-0-0-0-0-0"><rect x="0" y="0" width="0" height="240" fill="#fff" mask="url(#satori_om-id)"/></mask><mask id="satori_om-id-0-0-1"><rect x="0" y="0" width="0" height="240" fill="#fff" mask="url(#satori_om-id)"/></mask><mask id="satori_om-id-0-0-1-0"><rect x="0" y="0" width="0" height="240" fill="#fff" mask="url(#satori_om-id)"/></mask><mask id="satori_om-id-0-0-1-0-0"><rect x="0" y="0" width="0" height="240" fill="#fff" mask="url(#satori_om-id)"/></mask><mask id="satori_om-id-0-1"><rect x="0" y="0" width="0" height="240" fill="#fff" mask="url(#satori_om-id)"/></mask><mask id="satori_om-id-0-1-0"><rect x="0" y="0" width="0" height="240" fill="#fff" mask="url(#satori_om-id)"/></mask><mask id="satori_om-id-0-2"><rect x="0" y="0" width="0" height="240" fill="#fff" mask="url(#satori_om-id)"/></mask><mask id="satori_om-id-0-2-0"><rect x="0" y="0" width="0" height="240" fill="#fff" mask="url(#satori_om-id)"/></mask><mask id="satori_om-id-0-3"><rect x="0" y="0" width="0" height="240" fill="#fff" mask="url(#satori_om-id)"/></mask><mask id="satori_om-id-0-3-0"><rect x="0" y="0" width="0" height="240" fill="#fff" mask="url(#satori_om-id)"/></mask><mask id="satori_om-id-0-4"><rect x="0" y="0" width="0" height="240" fill="#fff" mask="url(#satori_om-id)"/></mask><mask id="satori_om-id-0-4-0"><rect x="0" y="0" width="0" height="240" fill="#fff" mask="url(#satori_om-id)"/></mask><mask id="satori_om-id-0-5"><rect x="0" y="0" width="0" height="240" fill="#fff" mask="url(#satori_om-id)"/></mask><mask id="satori_om-id-0-5-0"><rect x="0" y="0" width="0" height="240" fill="#fff" mask="url(#satori_om-id)"/></mask><mask id="satori_om-id-0-6"><rect x="0" y="0" width="0" height="240" fill="#fff" mask="url(#satori_om-id)"/></mask><mask id="satori_om-id-0-6-0"><rect x="0" y="0" width="0" height="240" fill="#fff" mask="url(#satori_om-id)"/></mask><mask id="satori_om-id-0-7"><rect x="0" y="0" width="0" height="240" fill="#fff" mask="url(#satori_om-id)"/></mask><mask id="satori_om-id-0-7-0"><rect x="0" y="0" width="0" height="240" fill="#fff" mask="url(#satori_om-id)"/></mask><mask id="satori_om-id-0-8"><rect x="0" y="0" width="0" height="240" fill="#fff" mask="url(#satori_om-id)"/></mask><mask id="satori_om-id-0-8-0"><rect x="0" y="0" width="0" height="240" fill="#fff" mask="url(#satori_om-id)"/></mask><mask id="satori_om-id-0-9"><rect x="0" y="0" width="0" height="240" fill="#fff" mask="url(#satori_om-id)"/></mask><mask id="satori_om-id-0-9-0"><rect x="0" y="0" width="0" height="240" fill="#fff" mask="url(#satori_om-id)"/></mask><mask id="satori_om-id-0-10"><rect x="0" y="0" width="0" height="240" fill="#fff" mask="url(#satori_om-id)"/></mask><mask id="satori_om-id-0-10-0"><rect x="0" y="0" width="0" height="240" fill="#fff" mask="url(#satori_om-id)"/></mask><mask id="satori_om-id-0-11"><rect x="0" y="0" width="0" height="240" fill="#fff" mask="url(#satori_om-id)"/></mask><mask id="satori_om-id-0-11-0"><rect x="0" y="0" width="0" height="240" fill="#fff" mask="url(#satori_om-id)"/></mask><mask id="satori_om-id-0-11-1"><rect x="0" y="0" width="0" height="240" fill="#fff" mask="url(#satori_om-id)"/></mask><mask id="satori_om-id-0-12"><rect x="0" y="0" width="0" height="240" fill="#fff" mask="url(#satori_om-id)"/></mask><mask id="satori_om-id-0-12-0"><rect x="0" y="0" width="0" height="240" fill="#fff" mask="url(#satori_om-id)"/></mask><mask id="satori_om-id-0-12-1"><rect x="0" y="0" width="0" height="240" fill="#fff" mask="url(#satori_om-id)"/></mask><mask id="satori_om-id-0-13"><rect x="0" y="0" width="0" height="240" fill="#fff" mask="url(#satori_om-id)"/></mask><mask id="satori_om-id-0-13-0"><rect x="0" y="0" width="0" height="240" fill="#fff" mask="url(#satori_om-id)"/></mask><mask id="satori_om-id-0-13-1"><rect x="0" y="0" width="0" height="240" fill="#fff" mask="url(#satori_om-id)"/></mask><mask id="satori_om-id-0-14"><rect x="0" y="0" width="0" height="240" fill="#fff" mask="url(#satori_om-id)"/></mask><mask id="satori_om-id-0-14-0"><rect x="0" y="0" width="0" height="240" fill="#fff" mask="url(#satori_om-id)"/></mask><mask id="satori_om-id-0-14-1"><rect x="0" y="0" width="0" height="240" fill="#fff" mask="url(#satori_om-id)"/></mask><mask id="satori_om-id-0-15"><rect x="0" y="0" width="0" height="240" fill="#fff" mask="url(#satori_om-id)"/></mask><mask id="satori_om-id-0-15-0"><rect x="0" y="0" width="0" height="240" fill="#fff" mask="url(#satori_om-id)"/></mask><mask id="satori_om-id-0-15-1"><rect x="0" y="0" width="0" height="240" fill="#fff" mask="url(#satori_om-id)"/></mask><mask id="satori_om-id-0-16"><rect x="0" y="0" width="0" height="240" fill="#fff" mask="url(#satori_om-id)"/></mask><mask id="satori_om-id-0-16-0"><rect x="0" y="0" width="0" height="240" fill="#fff" mask="url(#satori_om-id)"/></mask><mask id="satori_om-id-0-16-1"><rect x="0" y="0" width="0" height="240" fill="#fff" mask="url(#satori_om-id)"/></mask><mask id="satori_om-id-0-17"><rect x="0" y="0" width="0" height="240" fill="#fff" mask="url(#satori_om-id)"/></mask><mask id="satori_om-id-0-17-0"><rect x="0" y="0" width="0" height="240" fill="#fff" mask="url(#satori_om-id)"/></mask><mask id="satori_om-id-0-17-1"><rect x="0" y="0" width="0" height="240" fill="#fff" mask="url(#satori_om-id)"/></mask><mask id="satori_om-id-0-18"><rect x="0" y="0" width="0" height="240" fill="#fff" mask="url(#satori_om-id)"/></mask><mask id="satori_om-id-0-18-0"><rect x="0" y="0" width="0" height="240" fill="#fff" mask="url(#satori_om-id)"/></mask><mask id="satori_om-id-0-18-1"><rect x="0" y="0" width="0" height="240" fill="#fff" mask="url(#satori_om-id)"/></mask><mask id="satori_om-id-0-19"><rect x="0" y="0" width="0" height="240" fill="#fff" mask="url(#satori_om-id)"/></mask><mask id="satori_om-id-0-19-0"><rect x="0" y="0" width="0" height="240" fill="#fff" mask="url(#satori_om-id)"/></mask><mask id="satori_om-id-0-20"><rect x="0" y="0" width="0" height="240" fill="#fff" mask="url(#satori_om-id)"/></mask><mask id="satori_om-id-0-20-0"><rect x="0" y="0" width="0" height="240" fill="#fff" mask="url(#satori_om-id)"/></mask><mask id="satori_om-id-0-21"><rect x="0" y="0" width="0" height="240" fill="#fff" mask="url(#satori_om-id)"/></mask><mask id="satori_om-id-0-21-0"><rect x="0" y="0" width="0" height="240" fill="#fff" mask="url(#satori_om-id)"/></mask><mask id="satori_om-id-1"><rect x="275" y="95" width="311" height="50" fill="#fff" mask="url(#satori_om-id)"/></mask><mask id="satori_om-id-1-0"><rect x="293" y="95" width="276" height="31" fill="#fff" mask="url(#satori_om-id)"/></mask><g mask="url(#satori_om-id)" clip-path="url(#satori_cp-id)"><path fill="white" d="M298.7 120L294.7 120L294.7 101.1L299.0 101.1L305.0 110.7Q305.5 111.4 305.9 112.3Q306.4 113.1 306.9 114.2L306.9 114.2Q307.1 114.7 307.4 115.3L307.4 115.3Q307.3 114.8 307.3 114.3L307.3 114.3Q307.2 113.1 307.2 112.0Q307.1 110.9 307.1 110.2L307.1 110.2L307.1 101.1L311.1 101.1L311.1 120L306.8 120L301.3 111.3Q300.7 110.3 300.2 109.4Q299.7 108.5 299.2 107.4L299.2 107.4Q298.8 106.7 298.4 105.9L298.4 105.9Q298.5 106.6 298.5 107.4L298.5 107.4Q298.6 108.6 298.6 109.6Q298.7 110.7 298.7 111.3L298.7 111.3L298.7 120ZM320.9 120.3L320.9 120.3Q318.7 120.3 317.1 119.4Q315.5 118.5 314.7 116.9Q313.8 115.2 313.8 113.0L313.8 113.0Q313.8 110.8 314.7 109.1Q315.5 107.5 317.1 106.6Q318.6 105.6 320.7 105.6L320.7 105.6Q322.1 105.6 323.3 106.1Q324.5 106.5 325.4 107.4Q326.3 108.3 326.8 109.7Q327.3 111.0 327.3 112.8L327.3 112.8L327.3 113.9L317.6 113.9Q317.7 115.0 318.0 115.7L318.0 115.7Q318.4 116.6 319.2 117.0Q319.9 117.4 320.9 117.4L320.9 117.4Q321.6 117.4 322.1 117.2Q322.7 117.0 323.1 116.7Q323.5 116.3 323.7 115.7L323.7 115.7L327.1 116.4Q326.8 117.5 325.9 118.4Q325.1 119.3 323.8 119.8Q322.5 120.3 320.9 120.3ZM317.6 111.5L317.6 111.5L323.7 111.5Q323.6 110.8 323.4 110.2L323.4 110.2Q323.0 109.4 322.3 108.9Q321.7 108.5 320.7 108.5L320.7 108.5Q319.7 108.5 319.0 109.0Q318.3 109.4 318.0 110.2L318.0 110.2Q317.7 110.8 317.6 111.5ZM334.8 120.2L334.8 120.2Q333.3 120.2 332.2 119.5Q331.1 118.9 330.5 117.7Q329.9 116.5 329.9 114.8L329.9 114.8L329.9 105.8L333.7 105.8L333.7 114.2Q333.7 115.5 334.4 116.2Q335.1 117.0 336.3 117.0L336.3 117.0Q337.1 117.0 337.7 116.6Q338.4 116.3 338.7 115.6Q339.1 115.0 339.1 114.0L339.1 114.0L339.1 105.8L342.9 105.8L342.9 120L339.3 120L339.2 117.0Q338.7 118.4 337.7 119.2L337.7 119.2Q336.6 120.2 334.8 120.2ZM349.9 120L346.1 120L346.1 105.8L349.8 105.8L349.8 108.3L350.0 108.3Q350.3 107.0 351.3 106.3Q352.2 105.6 353.4 105.6L353.4 105.6Q353.7 105.6 354.0 105.6Q354.4 105.7 354.6 105.7L354.6 105.7L354.6 109.1Q354.4 109.1 353.9 109.0Q353.4 109.0 353.0 109.0L353.0 109.0Q352.1 109.0 351.4 109.3Q350.7 109.7 350.3 110.4Q349.9 111.0 349.9 111.9L349.9 111.9L349.9 120ZM360.7 120.3L360.7 120.3Q359.3 120.3 358.2 119.8Q357.2 119.3 356.6 118.4Q355.9 117.4 355.9 116.0L355.9 116.0Q355.9 114.8 356.4 114.0Q356.8 113.2 357.6 112.8Q358.3 112.3 359.3 112.0Q360.2 111.8 361.3 111.7L361.3 111.7Q362.5 111.5 363.3 111.4Q364.0 111.3 364.4 111.1Q364.7 110.9 364.7 110.4L364.7 110.4L364.7 110.3Q364.7 109.7 364.5 109.3Q364.2 108.9 363.7 108.7Q363.2 108.4 362.5 108.4L362.5 108.4Q361.8 108.4 361.2 108.7Q360.7 108.9 360.3 109.3Q360.0 109.6 359.8 110.1L359.8 110.1L356.3 109.5Q356.7 108.3 357.6 107.4Q358.4 106.5 359.7 106.1Q360.9 105.6 362.5 105.6L362.5 105.6Q363.7 105.6 364.8 105.9Q365.8 106.2 366.7 106.7Q367.5 107.3 368.0 108.2Q368.5 109.2 368.5 110.4L368.5 110.4L368.5 120L364.9 120L364.9 118.0L364.8 118.0Q364.5 118.7 363.9 119.2Q363.3 119.7 362.5 120.0Q361.7 120.3 360.7 120.3ZM361.7 117.6L361.7 117.6Q362.6 117.6 363.3 117.2Q364.0 116.9 364.4 116.3Q364.8 115.7 364.8 114.9L364.8 114.9L364.8 113.4Q364.6 113.5 364.3 113.6Q363.9 113.7 363.5 113.8Q363.1 113.9 362.7 113.9Q362.3 114.0 361.9 114.0L361.9 114.0Q361.3 114.1 360.7 114.4Q360.2 114.6 359.9 115.0Q359.6 115.3 359.6 115.9L359.6 115.9Q359.6 116.5 359.9 116.8Q360.2 117.2 360.6 117.4Q361.1 117.6 361.7 117.6ZM371.8 101.1L375.6 101.1L375.6 120L371.8 120L371.8 101.1Z M389.0 120L385.1 120L385.1 101.1L392.5 101.1Q394.6 101.1 396.1 101.9Q397.6 102.7 398.4 104.2Q399.2 105.6 399.2 107.5L399.2 107.5Q399.2 109.3 398.4 110.8Q397.6 112.2 396.1 113.0Q394.6 113.8 392.4 113.8L392.4 113.8L389.0 113.8L389.0 120ZM389.0 104.3L389.0 110.7L391.8 110.7Q393.0 110.7 393.7 110.3Q394.5 109.9 394.9 109.1Q395.2 108.4 395.2 107.5Q395.2 106.5 394.9 105.8Q394.5 105.1 393.7 104.7Q392.9 104.3 391.7 104.3L391.7 104.3L389.0 104.3ZM406.7 120.2L406.7 120.2Q405.3 120.2 404.2 119.5Q403.1 118.9 402.5 117.7Q401.8 116.5 401.8 114.8L401.8 114.8L401.8 105.8L405.7 105.8L405.7 114.2Q405.7 115.5 406.3 116.2Q407.0 117.0 408.2 117.0L408.2 117.0Q409.0 117.0 409.7 116.6Q410.3 116.3 410.6 115.6Q411.0 115.0 411.0 114.0L411.0 114.0L411.0 105.8L414.8 105.8L414.8 120L411.2 120L411.2 117.0Q410.6 118.4 409.7 119.2L409.7 119.2Q408.5 120.2 406.7 120.2ZM418.0 101.1L421.8 101.1L421.8 120L418.0 120L418.0 101.1ZM430.7 120.3L430.7 120.3Q429.0 120.3 427.7 119.8Q426.4 119.3 425.5 118.4Q424.7 117.4 424.4 116.1L424.4 116.1L428.0 115.5Q428.3 116.5 429.0 117.0Q429.7 117.5 430.8 117.5L430.8 117.5Q431.9 117.5 432.6 117.1Q433.2 116.7 433.2 116.0L433.2 116.0Q433.2 115.5 432.7 115.1Q432.3 114.8 431.4 114.6L431.4 114.6L428.9 114.1Q426.8 113.6 425.8 112.6Q424.8 111.6 424.8 110.0L424.8 110.0Q424.8 108.7 425.6 107.7Q426.3 106.7 427.6 106.2Q429.0 105.6 430.8 105.6L430.8 105.6Q432.5 105.6 433.7 106.1Q434.9 106.6 435.7 107.4Q436.4 108.3 436.7 109.4L436.7 109.4L433.3 110.0Q433.1 109.3 432.5 108.8Q431.9 108.4 430.8 108.4L430.8 108.4Q429.9 108.4 429.3 108.8Q428.6 109.1 428.6 109.8L428.6 109.8Q428.6 110.3 429.0 110.7Q429.4 111.1 430.5 111.3L430.5 111.3L433.0 111.8Q435.1 112.2 436.1 113.2Q437.1 114.1 437.1 115.6L437.1 115.6Q437.1 117.0 436.3 118.1Q435.4 119.1 434.0 119.7Q432.6 120.3 430.7 120.3ZM446.1 120.3L446.1 120.3Q443.9 120.3 442.3 119.4Q440.7 118.5 439.9 116.9Q439.0 115.2 439.0 113.0L439.0 113.0Q439.0 110.8 439.9 109.1Q440.7 107.5 442.3 106.6Q443.8 105.6 445.9 105.6L445.9 105.6Q447.3 105.6 448.5 106.1Q449.7 106.5 450.6 107.4Q451.5 108.3 452.0 109.7Q452.5 111.0 452.5 112.8L452.5 112.8L452.5 113.9L442.8 113.9Q442.9 115.0 443.2 115.7L443.2 115.7Q443.6 116.6 444.4 117.0Q445.1 117.4 446.1 117.4L446.1 117.4Q446.8 117.4 447.3 117.2Q447.9 117.0 448.3 116.7Q448.7 116.3 448.9 115.7L448.9 115.7L452.3 116.4Q452.0 117.5 451.1 118.4Q450.3 119.3 449.0 119.8Q447.7 120.3 446.1 120.3ZM442.8 111.5L442.8 111.5L448.9 111.5Q448.8 110.8 448.6 110.2L448.6 110.2Q448.2 109.4 447.5 108.9Q446.9 108.5 445.9 108.5L445.9 108.5Q444.9 108.5 444.2 109.0Q443.5 109.4 443.2 110.2L443.2 110.2Q442.9 110.8 442.8 111.5Z M465.3 120L461.4 120L461.4 101.1L465.7 101.1L471.7 110.7Q472.1 111.4 472.6 112.3Q473.1 113.1 473.6 114.2L473.6 114.2Q473.8 114.7 474.0 115.3L474.0 115.3Q474.0 114.8 474.0 114.3L474.0 114.3Q473.9 113.1 473.9 112.0Q473.8 110.9 473.8 110.2L473.8 110.2L473.8 101.1L477.8 101.1L477.8 120L473.4 120L468.0 111.3Q467.4 110.3 466.9 109.4Q466.4 108.5 465.8 107.4L465.8 107.4Q465.5 106.7 465.1 105.9L465.1 105.9Q465.1 106.6 465.2 107.4L465.2 107.4Q465.3 108.6 465.3 109.6Q465.3 110.7 465.3 111.3L465.3 111.3L465.3 120ZM487.5 120.3L487.5 120.3Q485.3 120.3 483.8 119.4Q482.2 118.5 481.4 116.9Q480.5 115.2 480.5 113.0L480.5 113.0Q480.5 110.8 481.3 109.1Q482.2 107.5 483.7 106.6Q485.3 105.6 487.3 105.6L487.3 105.6Q488.7 105.6 489.9 106.1Q491.1 106.5 492.0 107.4Q493.0 108.3 493.5 109.7Q494.0 111.0 494.0 112.8L494.0 112.8L494.0 113.9L484.3 113.9Q484.3 115.0 484.7 115.7L484.7 115.7Q485.1 116.6 485.8 117.0Q486.6 117.4 487.6 117.4L487.6 117.4Q488.3 117.4 488.8 117.2Q489.3 117.0 489.7 116.7Q490.1 116.3 490.3 115.7L490.3 115.7L493.8 116.4Q493.4 117.5 492.6 118.4Q491.7 119.3 490.5 119.8Q489.2 120.3 487.5 120.3ZM484.3 111.5L484.3 111.5L490.3 111.5Q490.2 110.8 490.0 110.2L490.0 110.2Q489.7 109.4 489.0 108.9Q488.3 108.5 487.4 108.5L487.4 108.5Q486.4 108.5 485.7 109.0Q485.0 109.4 484.6 110.2L484.6 110.2Q484.4 110.8 484.3 111.5ZM501.0 105.8L503.6 105.8L503.6 108.7L501.0 108.7L501.0 115.8Q501.0 116.5 501.3 116.8Q501.6 117.2 502.3 117.2L502.3 117.2Q502.5 117.2 502.9 117.1Q503.3 117.1 503.5 117.0L503.5 117.0L504.0 119.9Q503.4 120.1 502.8 120.1Q502.1 120.2 501.6 120.2L501.6 120.2Q499.4 120.2 498.3 119.2Q497.2 118.1 497.2 116.2L497.2 116.2L497.2 108.7L495.2 108.7L495.2 105.8L497.2 105.8L497.2 102.4L501.0 102.4L501.0 105.8ZM512.9 120L509.1 120L504.9 105.8L508.9 105.8L510.1 111.0Q510.4 112.5 510.8 114.1L510.8 114.1Q511.1 115.2 511.3 116.5L511.3 116.5Q511.5 115.3 511.8 114.1L511.8 114.1Q512.2 112.5 512.5 111.0L512.5 111.0L513.8 105.8L517.3 105.8L518.6 111.0Q518.9 112.5 519.3 114.1L519.3 114.1Q519.5 115.3 519.8 116.5L519.8 116.5Q520.0 115.3 520.2 114.1L520.2 114.1Q520.6 112.5 520.9 111.0L520.9 111.0L522.2 105.8L526.2 105.8L522.0 120L518.1 120L516.5 114.5Q516.3 113.7 516.1 112.7Q515.9 111.7 515.6 110.7L515.6 110.7Q515.6 110.4 515.5 110.2L515.5 110.2Q515.5 110.4 515.4 110.7L515.4 110.7Q515.2 111.7 515.0 112.7Q514.7 113.7 514.5 114.5L514.5 114.5L512.9 120ZM534.6 120.3L534.6 120.3Q532.4 120.3 530.9 119.4Q529.3 118.4 528.5 116.8Q527.6 115.2 527.6 113.0L527.6 113.0Q527.6 110.8 528.5 109.1Q529.3 107.5 530.9 106.5Q532.4 105.6 534.6 105.6L534.6 105.6Q536.7 105.6 538.3 106.5Q539.8 107.5 540.7 109.1Q541.5 110.8 541.5 113.0L541.5 113.0Q541.5 115.2 540.7 116.8Q539.8 118.4 538.3 119.4Q536.7 120.3 534.6 120.3ZM534.6 117.3L534.6 117.3Q535.6 117.3 536.3 116.7Q537.0 116.2 537.3 115.2Q537.6 114.2 537.6 113.0L537.6 113.0Q537.6 111.7 537.3 110.7Q537.0 109.7 536.3 109.2Q535.6 108.6 534.6 108.6L534.6 108.6Q533.6 108.6 532.9 109.2Q532.2 109.7 531.8 110.7Q531.5 111.7 531.5 113.0L531.5 113.0Q531.5 114.2 531.8 115.2Q532.2 116.2 532.9 116.7Q533.6 117.3 534.6 117.3ZM548.0 120L544.2 120L544.2 105.8L547.8 105.8L547.8 108.3L548.0 108.3Q548.4 107.0 549.3 106.3Q550.2 105.6 551.4 105.6L551.4 105.6Q551.7 105.6 552.1 105.6Q552.4 105.7 552.7 105.7L552.7 105.7L552.7 109.1Q552.4 109.1 551.9 109.0Q551.4 109.0 551.0 109.0L551.0 109.0Q550.1 109.0 549.4 109.3Q548.7 109.7 548.4 110.4Q548.0 111.0 548.0 111.9L548.0 111.9L548.0 120ZM558.6 120L554.8 120L554.8 101.1L558.6 101.1L558.6 111.3L558.8 111.3L563.4 105.8L567.8 105.8L562.5 112.0L568.1 120L563.6 120L559.7 114.2L558.6 115.4L558.6 120Z "/></g><mask id="satori_om-id-1-1"><rect x="275" y="130" width="311" height="15" fill="#fff" mask="url(#satori_om-id)"/></mask><g mask="url(#satori_om-id)" clip-path="url(#satori_cp-id)"><path fill="rgba(200,200,255,0.45)" d="M278.8 142.2L278.8 142.2Q277.9 142.2 277.2 141.8Q276.5 141.5 276.1 141.0Q275.7 140.4 275.7 139.7L275.7 139.7L276.8 139.7Q276.9 140.2 277.2 140.5Q277.4 140.8 277.9 141.0Q278.3 141.2 278.8 141.2L278.8 141.2Q279.4 141.2 279.9 141.0Q280.4 140.8 280.7 140.4Q280.9 140.1 280.9 139.6L280.9 139.6Q280.9 139.2 280.7 138.9Q280.5 138.7 280.1 138.5Q279.7 138.3 279.2 138.2L279.2 138.2L278.2 137.9Q277.1 137.6 276.5 137.0Q275.9 136.5 275.9 135.6L275.9 135.6Q275.9 134.9 276.3 134.3Q276.7 133.8 277.4 133.5Q278.1 133.2 278.9 133.2L278.9 133.2Q279.8 133.2 280.4 133.5Q281.1 133.8 281.5 134.3Q281.9 134.8 281.9 135.5L281.9 135.5L280.8 135.5Q280.7 134.8 280.2 134.5Q279.7 134.1 278.9 134.1L278.9 134.1Q278.3 134.1 277.9 134.3Q277.5 134.5 277.2 134.8Q277.0 135.1 277.0 135.6L277.0 135.6Q277.0 136.0 277.3 136.3Q277.6 136.6 278.0 136.7Q278.4 136.9 278.7 137.0L278.7 137.0L279.5 137.2Q279.9 137.3 280.3 137.5Q280.7 137.6 281.1 137.9Q281.5 138.2 281.8 138.6Q282.0 139.0 282.0 139.6L282.0 139.6Q282.0 140.3 281.6 140.9Q281.3 141.5 280.6 141.8Q279.9 142.2 278.8 142.2ZM284.8 142L283.8 142L283.8 133.3L285.3 133.3L287.5 138.8Q287.6 139.0 287.7 139.3Q287.8 139.6 287.9 139.9Q288.0 140.2 288.1 140.6L288.1 140.6Q288.1 140.7 288.1 140.8L288.1 140.8Q288.2 140.7 288.2 140.6L288.2 140.6Q288.3 140.3 288.4 139.9Q288.5 139.6 288.6 139.3Q288.7 139.0 288.8 138.8L288.8 138.8L290.9 133.3L292.5 133.3L292.5 142L291.4 142L291.4 137.0Q291.4 136.7 291.4 136.4Q291.4 136.1 291.4 135.7Q291.4 135.3 291.4 134.9L291.4 134.9Q291.4 134.7 291.4 134.5L291.4 134.5Q291.4 134.7 291.3 135.0L291.3 135.0Q291.1 135.4 291.0 135.8Q290.9 136.2 290.8 136.5Q290.6 136.8 290.6 137.0L290.6 137.0L288.6 142L287.6 142L285.7 137.0Q285.6 136.8 285.5 136.5Q285.3 136.2 285.2 135.8Q285.1 135.4 284.9 135.0L284.9 135.0Q284.9 134.7 284.8 134.5L284.8 134.5Q284.8 134.7 284.8 134.8L284.8 134.8Q284.8 135.2 284.8 135.6Q284.8 136.0 284.8 136.4Q284.8 136.7 284.8 137.0L284.8 137.0L284.8 142ZM294.6 133.3L295.7 133.3L295.7 142L294.6 142L294.6 133.3ZM303.0 142L297.8 142L297.8 133.3L298.9 133.3L298.9 141.0L303.0 141.0L303.0 142Z M309.7 142.2L309.7 142.2Q309.1 142.2 308.6 141.9Q308.0 141.7 307.7 141.2Q307.4 140.8 307.4 140.1L307.4 140.1Q307.4 139.6 307.7 139.2Q307.9 138.9 308.3 138.7Q308.6 138.5 309.1 138.4Q309.5 138.3 310.0 138.2L310.0 138.2Q310.6 138.1 311.0 138.1Q311.3 138.1 311.5 138.0Q311.7 137.9 311.7 137.6L311.7 137.6L311.7 137.6Q311.7 137.2 311.5 136.9Q311.4 136.6 311.1 136.4Q310.8 136.3 310.3 136.3L310.3 136.3Q309.8 136.3 309.5 136.4Q309.2 136.6 309.0 136.8Q308.8 137.0 308.7 137.3L308.7 137.3L307.6 136.9Q307.9 136.3 308.3 136.0Q308.7 135.6 309.3 135.5Q309.8 135.4 310.3 135.4L310.3 135.4Q310.6 135.4 311.0 135.4Q311.4 135.5 311.8 135.8Q312.2 136.0 312.5 136.5Q312.7 136.9 312.7 137.7L312.7 137.7L312.7 142L311.7 142L311.7 141.1L311.6 141.1Q311.5 141.3 311.3 141.6Q311.0 141.8 310.6 142.0Q310.2 142.2 309.7 142.2ZM309.9 141.2L309.9 141.2Q310.4 141.2 310.9 141.0Q311.3 140.8 311.5 140.4Q311.7 140.0 311.7 139.6L311.7 139.6L311.7 138.7Q311.6 138.8 311.4 138.9Q311.2 138.9 310.9 139.0Q310.6 139.0 310.4 139.0Q310.1 139.1 310.0 139.1L310.0 139.1Q309.6 139.1 309.2 139.3Q308.9 139.4 308.7 139.6Q308.5 139.8 308.5 140.2L308.5 140.2Q308.5 140.5 308.7 140.8Q308.9 141.0 309.2 141.1Q309.5 141.2 309.9 141.2ZM315.6 138.1L315.6 138.1L315.6 142L314.6 142L314.6 135.4L315.6 135.4L315.6 136.7Q315.9 136.0 316.3 135.7L316.3 135.7Q316.9 135.4 317.6 135.4L317.6 135.4Q318.3 135.4 318.8 135.6Q319.3 135.9 319.5 136.5Q319.8 137.0 319.8 137.8L319.8 137.8L319.8 142L318.8 142L318.8 137.9Q318.8 137.2 318.4 136.7Q318.0 136.3 317.3 136.3L317.3 136.3Q316.8 136.3 316.4 136.5Q316.1 136.7 315.9 137.1Q315.6 137.5 315.6 138.1ZM322.7 142L321.7 142L321.7 135.4L322.7 135.4L322.7 142ZM322.2 134.4L322.2 134.4Q321.9 134.4 321.7 134.2Q321.5 134.0 321.5 133.7L321.5 133.7Q321.5 133.4 321.7 133.2Q321.9 133.0 322.2 133.0L322.2 133.0Q322.5 133.0 322.7 133.2Q322.9 133.4 322.9 133.7L322.9 133.7Q322.9 134.0 322.7 134.2Q322.5 134.4 322.2 134.4ZM325.6 142L324.6 142L324.6 135.4L325.6 135.4L325.6 136.7Q325.7 136.3 326.0 136.0L326.0 136.0Q326.2 135.7 326.6 135.5Q327.0 135.3 327.4 135.3L327.4 135.3Q328.2 135.3 328.6 135.8L328.6 135.8Q329.0 136.1 329.1 136.7L329.1 136.7Q329.2 136.3 329.5 136.1L329.5 136.1Q329.8 135.7 330.2 135.5Q330.7 135.3 331.2 135.3L331.2 135.3Q331.7 135.3 332.2 135.6Q332.7 135.8 333.0 136.3Q333.2 136.8 333.2 137.6L333.2 137.6L333.2 142L332.2 142L332.2 137.6Q332.2 136.9 331.8 136.6Q331.4 136.3 330.9 136.3L330.9 136.3Q330.4 136.3 330.1 136.5Q329.8 136.7 329.6 137.0Q329.4 137.3 329.4 137.7L329.4 137.7L329.4 142L328.4 142L328.4 137.5Q328.4 137.0 328.0 136.6Q327.7 136.3 327.1 136.3L327.1 136.3Q326.7 136.3 326.4 136.5Q326.0 136.7 325.8 137.0Q325.6 137.4 325.6 137.9L325.6 137.9L325.6 142ZM336.9 142.2L336.9 142.2Q336.3 142.2 335.8 141.9Q335.3 141.7 335.0 141.2Q334.7 140.8 334.7 140.1L334.7 140.1Q334.7 139.6 334.9 139.2Q335.1 138.9 335.5 138.7Q335.9 138.5 336.3 138.4Q336.8 138.3 337.2 138.2L337.2 138.2Q337.8 138.1 338.2 138.1Q338.6 138.1 338.7 138.0Q338.9 137.9 338.9 137.6L338.9 137.6L338.9 137.6Q338.9 137.2 338.8 136.9Q338.6 136.6 338.3 136.4Q338.0 136.3 337.6 136.3L337.6 136.3Q337.1 136.3 336.8 136.4Q336.4 136.6 336.2 136.8Q336.0 137.0 335.9 137.3L335.9 137.3L334.9 136.9Q335.1 136.3 335.6 136.0Q336.0 135.6 336.5 135.5Q337.0 135.4 337.5 135.4L337.5 135.4Q337.9 135.4 338.3 135.4Q338.7 135.5 339.1 135.8Q339.5 136.0 339.7 136.5Q340.0 136.9 340.0 137.7L340.0 137.7L340.0 142L338.9 142L338.9 141.1L338.9 141.1Q338.8 141.3 338.5 141.6Q338.3 141.8 337.9 142.0Q337.5 142.2 336.9 142.2ZM337.1 141.2L337.1 141.2Q337.7 141.2 338.1 141.0Q338.5 140.8 338.7 140.4Q338.9 140.0 338.9 139.6L338.9 139.6L338.9 138.7Q338.9 138.8 338.6 138.9Q338.4 138.9 338.1 139.0Q337.9 139.0 337.6 139.0Q337.3 139.1 337.2 139.1L337.2 139.1Q336.8 139.1 336.5 139.3Q336.2 139.4 336.0 139.6Q335.8 139.8 335.8 140.2L335.8 140.2Q335.8 140.5 335.9 140.8Q336.1 141.0 336.4 141.1Q336.7 141.2 337.1 141.2ZM343.1 135.4L344.4 135.4L344.4 136.4L343.1 136.4L343.1 140.3Q343.1 140.7 343.2 140.9Q343.4 141.1 343.8 141.1L343.8 141.1Q343.9 141.1 344.1 141.1Q344.2 141.1 344.4 141.1L344.4 141.1L344.6 142.0Q344.4 142.0 344.2 142.1Q344.0 142.1 343.8 142.1L343.8 142.1Q343.0 142.1 342.5 141.6Q342.0 141.2 342.0 140.4L342.0 140.4L342.0 136.4L341.0 136.4L341.0 135.4L342.0 135.4L342.0 133.9L343.1 133.9L343.1 135.4ZM348.5 142.1L348.5 142.1Q347.6 142.1 346.9 141.7Q346.2 141.3 345.8 140.5Q345.4 139.8 345.4 138.8Q345.4 137.8 345.8 137.0Q346.2 136.2 346.8 135.8Q347.5 135.4 348.4 135.4L348.4 135.4Q348.9 135.4 349.4 135.5Q349.9 135.7 350.3 136.1Q350.8 136.5 351.0 137.1Q351.2 137.7 351.2 138.6L351.2 138.6L351.2 139.1L346.5 139.1Q346.5 139.7 346.8 140.2L346.8 140.2Q347.0 140.7 347.5 140.9Q347.9 141.2 348.5 141.2L348.5 141.2Q348.9 141.2 349.2 141.1Q349.5 141.0 349.8 140.8Q350.0 140.5 350.1 140.2L350.1 140.2L351.1 140.5Q351.0 141.0 350.6 141.3Q350.3 141.7 349.7 141.9Q349.2 142.1 348.5 142.1ZM346.5 138.2L346.5 138.2L350.2 138.2Q350.1 137.7 350.0 137.4L350.0 137.4Q349.8 136.9 349.4 136.6Q349.0 136.3 348.4 136.3Q347.8 136.3 347.4 136.6Q347.0 136.9 346.7 137.3L346.7 137.3Q346.5 137.7 346.5 138.2ZM355.2 142.1L355.2 142.1Q354.4 142.1 353.8 141.7Q353.1 141.3 352.8 140.5Q352.4 139.8 352.4 138.7L352.4 138.7Q352.4 137.7 352.8 136.9Q353.1 136.2 353.8 135.8Q354.4 135.4 355.2 135.4L355.2 135.4Q355.9 135.4 356.2 135.6Q356.6 135.8 356.8 136.1Q357.0 136.3 357.1 136.5L357.1 136.5L357.2 136.5L357.2 133.3L358.3 133.3L358.3 142L357.2 142L357.2 141.0L357.1 141.0Q357.0 141.2 356.8 141.4Q356.6 141.7 356.2 141.9Q355.8 142.1 355.2 142.1ZM355.4 141.2L355.4 141.2Q356.0 141.2 356.4 140.9Q356.8 140.6 357.0 140.0Q357.2 139.5 357.2 138.7L357.2 138.7Q357.2 138.0 357.0 137.5Q356.8 136.9 356.4 136.6Q356.0 136.3 355.4 136.3L355.4 136.3Q354.7 136.3 354.3 136.6Q353.9 137.0 353.7 137.5Q353.5 138.1 353.5 138.7L353.5 138.7Q353.5 139.4 353.7 140.0Q353.9 140.5 354.3 140.9Q354.8 141.2 355.4 141.2Z M364.5 142L363.5 142L363.5 135.4L364.5 135.4L364.5 136.5L364.6 136.5Q364.7 136.0 365.2 135.7Q365.7 135.4 366.3 135.4L366.3 135.4Q366.4 135.4 366.5 135.4Q366.7 135.4 366.8 135.4L366.8 135.4L366.8 136.4Q366.8 136.4 366.6 136.4Q366.4 136.4 366.2 136.4L366.2 136.4Q365.7 136.4 365.3 136.6Q365.0 136.8 364.7 137.1Q364.5 137.5 364.5 137.9L364.5 137.9L364.5 142ZM369.8 142.2L369.8 142.2Q369.2 142.2 368.7 141.9Q368.2 141.7 367.9 141.2Q367.6 140.8 367.6 140.1L367.6 140.1Q367.6 139.6 367.8 139.2Q368.0 138.9 368.4 138.7Q368.8 138.5 369.2 138.4Q369.7 138.3 370.1 138.2L370.1 138.2Q370.7 138.1 371.1 138.1Q371.5 138.1 371.6 138.0Q371.8 137.9 371.8 137.6L371.8 137.6L371.8 137.6Q371.8 137.2 371.7 136.9Q371.5 136.6 371.2 136.4Q370.9 136.3 370.5 136.3L370.5 136.3Q370.0 136.3 369.7 136.4Q369.3 136.6 369.1 136.8Q368.9 137.0 368.8 137.3L368.8 137.3L367.8 136.9Q368.0 136.3 368.5 136.0Q368.9 135.6 369.4 135.5Q369.9 135.4 370.4 135.4L370.4 135.4Q370.8 135.4 371.2 135.4Q371.6 135.5 372.0 135.8Q372.4 136.0 372.6 136.5Q372.9 136.9 372.9 137.7L372.9 137.7L372.9 142L371.8 142L371.8 141.1L371.8 141.1Q371.7 141.3 371.4 141.6Q371.2 141.8 370.8 142.0Q370.4 142.2 369.8 142.2ZM370.0 141.2L370.0 141.2Q370.6 141.2 371 141.0Q371.4 140.8 371.6 140.4Q371.8 140.0 371.8 139.6L371.8 139.6L371.8 138.7Q371.8 138.8 371.5 138.9Q371.3 138.9 371.0 139.0Q370.8 139.0 370.5 139.0Q370.3 139.1 370.1 139.1L370.1 139.1Q369.7 139.1 369.4 139.3Q369.1 139.4 368.9 139.6Q368.7 139.8 368.7 140.2L368.7 140.2Q368.7 140.5 368.8 140.8Q369.0 141.0 369.3 141.1Q369.6 141.2 370.0 141.2ZM377.2 142.1L377.2 142.1Q376.4 142.1 375.7 141.7Q375.1 141.3 374.8 140.5Q374.4 139.8 374.4 138.7L374.4 138.7Q374.4 137.7 374.8 136.9Q375.1 136.2 375.8 135.8Q376.4 135.4 377.2 135.4L377.2 135.4Q377.8 135.4 378.2 135.6Q378.6 135.8 378.8 136.1Q379.0 136.3 379.1 136.5L379.1 136.5L379.2 136.5L379.2 133.3L380.2 133.3L380.2 142L379.2 142L379.2 141.0L379.1 141.0Q379.0 141.2 378.8 141.4Q378.6 141.7 378.2 141.9Q377.8 142.1 377.2 142.1ZM377.3 141.2L377.3 141.2Q377.9 141.2 378.4 140.9Q378.8 140.6 379.0 140.0Q379.2 139.5 379.2 138.7L379.2 138.7Q379.2 138.0 379.0 137.5Q378.8 136.9 378.4 136.6Q377.9 136.3 377.3 136.3L377.3 136.3Q376.7 136.3 376.3 136.6Q375.9 137.0 375.7 137.5Q375.5 138.1 375.5 138.7L375.5 138.7Q375.5 139.4 375.7 140.0Q375.9 140.5 376.3 140.9Q376.7 141.2 377.3 141.2ZM383.1 142L382.1 142L382.1 135.4L383.1 135.4L383.1 142ZM382.6 134.4L382.6 134.4Q382.3 134.4 382.1 134.2Q381.9 134.0 381.9 133.7L381.9 133.7Q381.9 133.4 382.1 133.2Q382.3 133.0 382.6 133.0L382.6 133.0Q382.9 133.0 383.1 133.2Q383.4 133.4 383.4 133.7L383.4 133.7Q383.4 134.0 383.1 134.2Q382.9 134.4 382.6 134.4ZM387.2 142.1L387.2 142.1Q386.5 142.1 386.0 141.8Q385.5 141.5 385.3 141.0Q385.0 140.4 385.0 139.6L385.0 139.6L385.0 135.4L386.0 135.4L386.0 139.5Q386.0 140.3 386.4 140.7Q386.8 141.1 387.5 141.1L387.5 141.1Q388.0 141.1 388.4 140.9Q388.7 140.7 389.0 140.3Q389.2 139.9 389.2 139.4L389.2 139.4L389.2 135.4L390.2 135.4L390.2 142L389.2 142L389.2 140.8Q388.9 141.4 388.5 141.7L388.5 141.7Q387.9 142.1 387.2 142.1ZM394.3 142.1L394.3 142.1Q393.6 142.1 393.1 141.9Q392.6 141.7 392.2 141.4Q391.9 141.0 391.8 140.4L391.8 140.4L392.8 140.2Q392.9 140.7 393.3 141.0Q393.7 141.2 394.3 141.2L394.3 141.2Q395.0 141.2 395.4 140.9Q395.8 140.6 395.8 140.2L395.8 140.2Q395.8 139.9 395.6 139.7Q395.3 139.4 394.8 139.3L394.8 139.3L393.7 139.1Q392.9 138.9 392.4 138.4Q392.0 138.0 392.0 137.3L392.0 137.3Q392.0 136.7 392.3 136.3Q392.6 135.9 393.2 135.6Q393.7 135.4 394.4 135.4L394.4 135.4Q395.1 135.4 395.6 135.6Q396.0 135.8 396.3 136.1Q396.6 136.5 396.8 136.9L396.8 136.9L395.8 137.2Q395.7 136.8 395.4 136.6Q395.1 136.3 394.4 136.3L394.4 136.3Q393.8 136.3 393.4 136.5Q393.1 136.8 393.1 137.2L393.1 137.2Q393.1 137.6 393.3 137.8Q393.6 138.0 394.2 138.2L394.2 138.2L395.1 138.4Q396.0 138.6 396.5 139.0Q396.9 139.5 396.9 140.2L396.9 140.2Q396.9 140.7 396.6 141.2Q396.2 141.6 395.7 141.9Q395.1 142.1 394.3 142.1ZM399.0 144.1L398.2 144.1L398.8 140.8L400.0 140.8L399.0 144.1Z M407.9 142.1L407.9 142.1Q407.0 142.1 406.4 141.7Q405.7 141.3 405.3 140.5Q404.9 139.8 404.9 138.8L404.9 138.8Q404.9 137.7 405.3 137.0Q405.7 136.2 406.4 135.8Q407.0 135.4 407.9 135.4L407.9 135.4Q408.8 135.4 409.5 135.8Q410.2 136.2 410.5 137.0Q410.9 137.7 410.9 138.8L410.9 138.8Q410.9 139.8 410.5 140.5Q410.2 141.3 409.5 141.7Q408.8 142.1 407.9 142.1ZM407.9 141.2L407.9 141.2Q408.6 141.2 409.0 140.9Q409.4 140.5 409.6 140.0Q409.8 139.4 409.8 138.8L409.8 138.8Q409.8 138.1 409.6 137.6Q409.4 137.0 409.0 136.7Q408.6 136.3 407.9 136.3L407.9 136.3Q407.3 136.3 406.8 136.7Q406.4 137.0 406.2 137.6Q406.0 138.1 406.0 138.8L406.0 138.8Q406.0 139.4 406.2 140.0Q406.4 140.5 406.8 140.9Q407.3 141.2 407.9 141.2ZM413.5 144.4L412.4 144.4L412.4 135.4L413.5 135.4L413.5 136.5L413.6 136.5Q413.7 136.3 413.9 136.1Q414.1 135.8 414.5 135.6Q414.8 135.4 415.5 135.4L415.5 135.4Q416.3 135.4 416.9 135.8Q417.5 136.2 417.9 136.9Q418.3 137.7 418.3 138.7L418.3 138.7Q418.3 139.8 417.9 140.5Q417.6 141.3 416.9 141.7Q416.3 142.1 415.5 142.1L415.5 142.1Q414.9 142.1 414.5 141.9Q414.1 141.7 413.9 141.4Q413.7 141.2 413.6 141.0L413.6 141.0L413.5 141.0L413.5 144.4ZM415.3 141.2L415.3 141.2Q415.9 141.2 416.4 140.9Q416.8 140.5 417.0 140.0Q417.2 139.4 417.2 138.7L417.2 138.7Q417.2 138.1 417.0 137.5Q416.8 137.0 416.4 136.6Q415.9 136.3 415.3 136.3L415.3 136.3Q414.7 136.3 414.3 136.6Q413.9 136.9 413.7 137.5Q413.5 138.0 413.5 138.7L413.5 138.7Q413.5 139.5 413.7 140.0Q413.9 140.6 414.3 140.9Q414.7 141.2 415.3 141.2ZM421.6 142.2L421.6 142.2Q421.0 142.2 420.5 141.9Q420.0 141.7 419.7 141.2Q419.4 140.8 419.4 140.1L419.4 140.1Q419.4 139.6 419.6 139.2Q419.8 138.9 420.2 138.7Q420.6 138.5 421.0 138.4Q421.5 138.3 421.9 138.2L421.9 138.2Q422.5 138.1 422.9 138.1Q423.3 138.1 423.4 138.0Q423.6 137.9 423.6 137.6L423.6 137.6L423.6 137.6Q423.6 137.2 423.5 136.9Q423.3 136.6 423.0 136.4Q422.7 136.3 422.3 136.3L422.3 136.3Q421.8 136.3 421.4 136.4Q421.1 136.6 420.9 136.8Q420.7 137.0 420.6 137.3L420.6 137.3L419.6 136.9Q419.8 136.3 420.3 136.0Q420.7 135.6 421.2 135.5Q421.7 135.4 422.2 135.4L422.2 135.4Q422.6 135.4 423.0 135.4Q423.4 135.5 423.8 135.8Q424.2 136.0 424.4 136.5Q424.7 136.9 424.7 137.7L424.7 137.7L424.7 142L423.6 142L423.6 141.1L423.6 141.1Q423.5 141.3 423.2 141.6Q423.0 141.8 422.6 142.0Q422.2 142.2 421.6 142.2ZM421.8 141.2L421.8 141.2Q422.4 141.2 422.8 141.0Q423.2 140.8 423.4 140.4Q423.6 140.0 423.6 139.6L423.6 139.6L423.6 138.7Q423.6 138.8 423.3 138.9Q423.1 138.9 422.8 139.0Q422.6 139.0 422.3 139.0Q422.0 139.1 421.9 139.1L421.9 139.1Q421.5 139.1 421.2 139.3Q420.9 139.4 420.7 139.6Q420.5 139.8 420.5 140.2L420.5 140.2Q420.5 140.5 420.6 140.8Q420.8 141.0 421.1 141.1Q421.4 141.2 421.8 141.2ZM429.2 142.1L429.2 142.1Q428.3 142.1 427.6 141.7Q427.0 141.3 426.6 140.5Q426.2 139.8 426.2 138.8L426.2 138.8Q426.2 137.7 426.6 137.0Q427.0 136.2 427.6 135.8Q428.3 135.4 429.2 135.4L429.2 135.4Q429.7 135.4 430.1 135.5Q430.5 135.6 430.9 135.8Q431.2 136.1 431.5 136.4Q431.7 136.8 431.8 137.2L431.8 137.2L430.8 137.5Q430.8 137.2 430.6 137.0Q430.5 136.8 430.3 136.6Q430.1 136.5 429.8 136.4Q429.5 136.3 429.2 136.3L429.2 136.3Q428.5 136.3 428.1 136.7Q427.7 137.0 427.5 137.6Q427.3 138.1 427.3 138.8L427.3 138.8Q427.3 139.4 427.5 140.0Q427.7 140.5 428.1 140.9Q428.5 141.2 429.2 141.2L429.2 141.2Q429.5 141.2 429.8 141.1Q430.1 141.0 430.3 140.9Q430.5 140.7 430.6 140.5Q430.8 140.3 430.9 140.0L430.9 140.0L431.9 140.3Q431.7 140.7 431.5 141.1Q431.2 141.4 430.9 141.6Q430.5 141.9 430.1 142.0Q429.7 142.1 429.2 142.1ZM434.4 142L433.4 142L433.4 135.4L434.4 135.4L434.4 142ZM433.9 134.4L433.9 134.4Q433.6 134.4 433.4 134.2Q433.2 134.0 433.2 133.7L433.2 133.7Q433.2 133.4 433.4 133.2Q433.6 133.0 433.9 133.0L433.9 133.0Q434.2 133.0 434.4 133.2Q434.7 133.4 434.7 133.7L434.7 133.7Q434.7 134.0 434.4 134.2Q434.2 134.4 433.9 134.4ZM437.5 135.4L438.9 135.4L438.9 136.4L437.5 136.4L437.5 140.3Q437.5 140.7 437.7 140.9Q437.9 141.1 438.3 141.1L438.3 141.1Q438.4 141.1 438.5 141.1Q438.7 141.1 438.8 141.1L438.8 141.1L439.1 142.0Q438.9 142.0 438.7 142.1Q438.5 142.1 438.3 142.1L438.3 142.1Q437.4 142.1 436.9 141.6Q436.5 141.2 436.5 140.4L436.5 140.4L436.5 136.4L435.5 136.4L435.5 135.4L436.5 135.4L436.5 133.9L437.5 133.9L437.5 135.4ZM440.1 144.4L440.1 144.4L440.4 143.5L440.5 143.5Q440.8 143.6 441.1 143.5Q441.3 143.5 441.6 143.3Q441.8 143.0 441.9 142.6L441.9 142.6L442.1 142.0L439.6 135.4L440.8 135.4L442.2 139.3Q442.4 139.9 442.5 140.5L442.5 140.5Q442.6 140.8 442.7 141.0L442.7 141.0Q442.7 140.8 442.8 140.5L442.8 140.5Q442.9 139.9 443.2 139.3L443.2 139.3L444.6 135.4L445.7 135.4L442.8 143.0Q442.6 143.5 442.4 143.8Q442.1 144.2 441.7 144.3Q441.3 144.5 440.9 144.5L440.9 144.5Q440.6 144.5 440.4 144.5Q440.2 144.4 440.1 144.4ZM447.6 144.1L446.8 144.1L447.3 140.8L448.5 140.8L447.6 144.1Z M455.6 142.2L455.6 142.2Q455.0 142.2 454.5 141.9Q454.0 141.7 453.7 141.2Q453.4 140.8 453.4 140.1L453.4 140.1Q453.4 139.6 453.6 139.2Q453.8 138.9 454.2 138.7Q454.6 138.5 455.0 138.4Q455.5 138.3 455.9 138.2L455.9 138.2Q456.5 138.1 456.9 138.1Q457.3 138.1 457.4 138.0Q457.6 137.9 457.6 137.6L457.6 137.6L457.6 137.6Q457.6 137.2 457.5 136.9Q457.3 136.6 457.0 136.4Q456.7 136.3 456.3 136.3L456.3 136.3Q455.8 136.3 455.5 136.4Q455.1 136.6 454.9 136.8Q454.7 137.0 454.6 137.3L454.6 137.3L453.6 136.9Q453.8 136.3 454.3 136.0Q454.7 135.6 455.2 135.5Q455.7 135.4 456.2 135.4L456.2 135.4Q456.6 135.4 457.0 135.4Q457.4 135.5 457.8 135.8Q458.2 136.0 458.4 136.5Q458.7 136.9 458.7 137.7L458.7 137.7L458.7 142L457.6 142L457.6 141.1L457.6 141.1Q457.5 141.3 457.2 141.6Q457.0 141.8 456.6 142.0Q456.2 142.2 455.6 142.2ZM455.8 141.2L455.8 141.2Q456.4 141.2 456.8 141.0Q457.2 140.8 457.4 140.4Q457.6 140.0 457.6 139.6L457.6 139.6L457.6 138.7Q457.6 138.8 457.3 138.9Q457.1 138.9 456.8 139.0Q456.6 139.0 456.3 139.0Q456.0 139.1 455.9 139.1L455.9 139.1Q455.5 139.1 455.2 139.3Q454.9 139.4 454.7 139.6Q454.5 139.8 454.5 140.2L454.5 140.2Q454.5 140.5 454.6 140.8Q454.8 141.0 455.1 141.1Q455.4 141.2 455.8 141.2ZM461.6 138.1L461.6 138.1L461.6 142L460.5 142L460.5 135.4L461.5 135.4L461.6 136.7Q461.8 136.0 462.3 135.7L462.3 135.7Q462.8 135.4 463.6 135.4L463.6 135.4Q464.2 135.4 464.7 135.6Q465.2 135.9 465.5 136.5Q465.8 137.0 465.8 137.8L465.8 137.8L465.8 142L464.7 142L464.7 137.9Q464.7 137.2 464.3 136.7Q463.9 136.3 463.2 136.3L463.2 136.3Q462.8 136.3 462.4 136.5Q462.0 136.7 461.8 137.1Q461.6 137.5 461.6 138.1ZM470.1 142.1L470.1 142.1Q469.3 142.1 468.6 141.7Q468.0 141.3 467.7 140.5Q467.3 139.8 467.3 138.7L467.3 138.7Q467.3 137.7 467.7 136.9Q468.0 136.2 468.6 135.8Q469.3 135.4 470.1 135.4L470.1 135.4Q470.7 135.4 471.1 135.6Q471.5 135.8 471.7 136.1Q471.9 136.3 472.0 136.5L472.0 136.5L472.1 136.5L472.1 133.3L473.1 133.3L473.1 142L472.1 142L472.1 141.0L472.0 141.0Q471.9 141.2 471.7 141.4Q471.5 141.7 471.1 141.9Q470.7 142.1 470.1 142.1ZM470.2 141.2L470.2 141.2Q470.8 141.2 471.2 140.9Q471.7 140.6 471.9 140.0Q472.1 139.5 472.1 138.7L472.1 138.7Q472.1 138.0 471.9 137.5Q471.7 136.9 471.2 136.6Q470.8 136.3 470.2 136.3L470.2 136.3Q469.6 136.3 469.2 136.6Q468.8 137.0 468.6 137.5Q468.4 138.1 468.4 138.7L468.4 138.7Q468.4 139.4 468.6 140.0Q468.8 140.5 469.2 140.9Q469.6 141.2 470.2 141.2Z M479.4 144.4L478.3 144.4L478.3 135.4L479.4 135.4L479.4 136.5L479.5 136.5Q479.6 136.3 479.8 136.1Q480.0 135.8 480.4 135.6Q480.7 135.4 481.4 135.4L481.4 135.4Q482.2 135.4 482.8 135.8Q483.4 136.2 483.8 136.9Q484.2 137.7 484.2 138.7L484.2 138.7Q484.2 139.8 483.8 140.5Q483.5 141.3 482.8 141.7Q482.2 142.1 481.4 142.1L481.4 142.1Q480.8 142.1 480.4 141.9Q480.0 141.7 479.8 141.4Q479.6 141.2 479.5 141.0L479.5 141.0L479.4 141.0L479.4 144.4ZM481.2 141.2L481.2 141.2Q481.8 141.2 482.3 140.9Q482.7 140.5 482.9 140.0Q483.1 139.4 483.1 138.7L483.1 138.7Q483.1 138.1 482.9 137.5Q482.7 137.0 482.3 136.6Q481.8 136.3 481.2 136.3L481.2 136.3Q480.6 136.3 480.2 136.6Q479.8 136.9 479.6 137.5Q479.4 138.0 479.4 138.7L479.4 138.7Q479.4 139.5 479.6 140.0Q479.8 140.6 480.2 140.9Q480.6 141.2 481.2 141.2ZM487.9 142.1L487.9 142.1Q487.3 142.1 486.7 141.8Q486.2 141.5 486.0 141.0Q485.7 140.4 485.7 139.6L485.7 139.6L485.7 135.4L486.7 135.4L486.7 139.5Q486.7 140.3 487.1 140.7Q487.5 141.1 488.2 141.1L488.2 141.1Q488.7 141.1 489.1 140.9Q489.4 140.7 489.7 140.3Q489.9 139.9 489.9 139.4L489.9 139.4L489.9 135.4L490.9 135.4L490.9 142L489.9 142L489.9 140.8Q489.6 141.4 489.2 141.7L489.2 141.7Q488.6 142.1 487.9 142.1ZM492.8 133.3L493.8 133.3L493.8 142L492.8 142L492.8 133.3ZM497.9 142.1L497.9 142.1Q497.2 142.1 496.7 141.9Q496.2 141.7 495.9 141.4Q495.5 141.0 495.4 140.4L495.4 140.4L496.4 140.2Q496.5 140.7 496.9 141.0Q497.3 141.2 497.9 141.2L497.9 141.2Q498.6 141.2 499.0 140.9Q499.4 140.6 499.4 140.2L499.4 140.2Q499.4 139.9 499.2 139.7Q498.9 139.4 498.4 139.3L498.4 139.3L497.4 139.1Q496.5 138.9 496.0 138.4Q495.6 138.0 495.6 137.3L495.6 137.3Q495.6 136.7 495.9 136.3Q496.2 135.9 496.8 135.6Q497.3 135.4 498.0 135.4L498.0 135.4Q498.7 135.4 499.2 135.6Q499.6 135.8 499.9 136.1Q500.2 136.5 500.4 136.9L500.4 136.9L499.4 137.2Q499.3 136.8 499.0 136.6Q498.7 136.3 498.0 136.3L498.0 136.3Q497.4 136.3 497.1 136.5Q496.7 136.8 496.7 137.2L496.7 137.2Q496.7 137.6 496.9 137.8Q497.2 138.0 497.8 138.2L497.8 138.2L498.8 138.4Q499.6 138.6 500.1 139.0Q500.5 139.5 500.5 140.2L500.5 140.2Q500.5 140.7 500.2 141.2Q499.9 141.6 499.3 141.9Q498.7 142.1 497.9 142.1ZM503.9 142.2L503.9 142.2Q503.2 142.2 502.7 141.9Q502.2 141.7 501.9 141.2Q501.6 140.8 501.6 140.1L501.6 140.1Q501.6 139.6 501.9 139.2Q502.1 138.9 502.4 138.7Q502.8 138.5 503.3 138.4Q503.7 138.3 504.2 138.2L504.2 138.2Q504.8 138.1 505.1 138.1Q505.5 138.1 505.7 138.0Q505.9 137.9 505.9 137.6L505.9 137.6L505.9 137.6Q505.9 137.2 505.7 136.9Q505.6 136.6 505.3 136.4Q504.9 136.3 504.5 136.3L504.5 136.3Q504.0 136.3 503.7 136.4Q503.4 136.6 503.1 136.8Q502.9 137.0 502.8 137.3L502.8 137.3L501.8 136.9Q502.1 136.3 502.5 136.0Q502.9 135.6 503.4 135.5Q504.0 135.4 504.5 135.4L504.5 135.4Q504.8 135.4 505.2 135.4Q505.6 135.5 506.0 135.8Q506.4 136.0 506.7 136.5Q506.9 136.9 506.9 137.7L506.9 137.7L506.9 142L505.9 142L505.9 141.1L505.8 141.1Q505.7 141.3 505.4 141.6Q505.2 141.8 504.8 142.0Q504.4 142.2 503.9 142.2ZM504.0 141.2L504.0 141.2Q504.6 141.2 505.0 141.0Q505.4 140.8 505.6 140.4Q505.9 140.0 505.9 139.6L505.9 139.6L505.9 138.7Q505.8 138.8 505.6 138.9Q505.4 138.9 505.1 139.0Q504.8 139.0 504.5 139.0Q504.3 139.1 504.1 139.1L504.1 139.1Q503.8 139.1 503.4 139.3Q503.1 139.4 502.9 139.6Q502.7 139.8 502.7 140.2L502.7 140.2Q502.7 140.5 502.9 140.8Q503.0 141.0 503.3 141.1Q503.7 141.2 504.0 141.2ZM510.0 135.4L511.3 135.4L511.3 136.4L510.0 136.4L510.0 140.3Q510.0 140.7 510.2 140.9Q510.4 141.1 510.8 141.1L510.8 141.1Q510.9 141.1 511.0 141.1Q511.2 141.1 511.3 141.1L511.3 141.1L511.5 142.0Q511.4 142.0 511.2 142.1Q510.9 142.1 510.7 142.1L510.7 142.1Q509.9 142.1 509.4 141.6Q508.9 141.2 508.9 140.4L508.9 140.4L508.9 136.4L508.0 136.4L508.0 135.4L508.9 135.4L508.9 133.9L510.0 133.9L510.0 135.4ZM513.7 142L512.7 142L512.7 135.4L513.7 135.4L513.7 142ZM513.2 134.4L513.2 134.4Q512.9 134.4 512.7 134.2Q512.5 134.0 512.5 133.7L512.5 133.7Q512.5 133.4 512.7 133.2Q512.9 133.0 513.2 133.0L513.2 133.0Q513.5 133.0 513.7 133.2Q514.0 133.4 514.0 133.7L514.0 133.7Q514.0 134.0 513.7 134.2Q513.5 134.4 513.2 134.4ZM516.7 138.1L516.7 138.1L516.7 142L515.6 142L515.6 135.4L516.6 135.4L516.6 136.7Q516.9 136.0 517.3 135.7L517.3 135.7Q517.9 135.4 518.6 135.4L518.6 135.4Q519.3 135.4 519.8 135.6Q520.3 135.9 520.6 136.5Q520.8 137.0 520.8 137.8L520.8 137.8L520.8 142L519.8 142L519.8 137.9Q519.8 137.2 519.4 136.7Q519.0 136.3 518.3 136.3L518.3 136.3Q517.8 136.3 517.5 136.5Q517.1 136.7 516.9 137.1Q516.7 137.5 516.7 138.1ZM525.3 144.6L525.3 144.6Q524.6 144.6 524.1 144.4Q523.6 144.2 523.2 143.9Q522.9 143.6 522.6 143.3L522.6 143.3L523.5 142.7Q523.6 142.9 523.9 143.1Q524.1 143.3 524.4 143.5Q524.8 143.7 525.3 143.7L525.3 143.7Q526.1 143.7 526.6 143.3Q527.1 142.9 527.1 142.1L527.1 142.1L527.1 140.8L527.0 140.8Q526.9 141.0 526.7 141.2Q526.5 141.5 526.1 141.7Q525.8 141.9 525.1 141.9L525.1 141.9Q524.4 141.9 523.7 141.5Q523.1 141.2 522.7 140.4Q522.4 139.7 522.4 138.7L522.4 138.7Q522.4 137.7 522.7 136.9Q523.1 136.2 523.7 135.8Q524.3 135.4 525.2 135.4L525.2 135.4Q525.8 135.4 526.2 135.6Q526.5 135.8 526.8 136.1Q527.0 136.3 527.1 136.5L527.1 136.5L527.2 136.5L527.2 135.4L528.2 135.4L528.2 142.2Q528.2 143.0 527.8 143.5Q527.4 144.1 526.8 144.3Q526.1 144.6 525.3 144.6ZM525.3 141.0L525.3 141.0Q525.9 141.0 526.3 140.7Q526.7 140.4 526.9 139.9Q527.2 139.4 527.2 138.7L527.2 138.7Q527.2 138.0 526.9 137.4Q526.7 136.9 526.3 136.6Q525.9 136.3 525.3 136.3L525.3 136.3Q524.7 136.3 524.3 136.6Q523.9 136.9 523.7 137.5Q523.4 138.0 523.4 138.7L523.4 138.7Q523.4 139.3 523.7 139.9Q523.9 140.4 524.3 140.7Q524.7 141.0 525.3 141.0Z M536.1 144.6L536.1 144.6Q535.3 144.6 534.8 144.4Q534.3 144.2 533.9 143.9Q533.6 143.6 533.4 143.3L533.4 143.3L534.2 142.7Q534.4 142.9 534.6 143.1Q534.8 143.3 535.1 143.5Q535.5 143.7 536.1 143.7L536.1 143.7Q536.9 143.7 537.4 143.3Q537.9 142.9 537.9 142.1L537.9 142.1L537.9 140.8L537.8 140.8Q537.7 141.0 537.5 141.2Q537.3 141.5 536.9 141.7Q536.5 141.9 535.9 141.9L535.9 141.9Q535.1 141.9 534.5 141.5Q533.8 141.2 533.5 140.4Q533.1 139.7 533.1 138.7L533.1 138.7Q533.1 137.7 533.5 136.9Q533.8 136.2 534.5 135.8Q535.1 135.4 535.9 135.4L535.9 135.4Q536.5 135.4 536.9 135.6Q537.3 135.8 537.5 136.1Q537.7 136.3 537.8 136.5L537.8 136.5L537.9 136.5L537.9 135.4L538.9 135.4L538.9 142.2Q538.9 143.0 538.5 143.5Q538.2 144.1 537.5 144.3Q536.9 144.6 536.1 144.6ZM536.0 141.0L536.0 141.0Q536.6 141.0 537.1 140.7Q537.5 140.4 537.7 139.9Q537.9 139.4 537.9 138.7L537.9 138.7Q537.9 138.0 537.7 137.4Q537.5 136.9 537.1 136.6Q536.7 136.3 536.0 136.3L536.0 136.3Q535.4 136.3 535.0 136.6Q534.6 136.9 534.4 137.5Q534.2 138.0 534.2 138.7L534.2 138.7Q534.2 139.3 534.4 139.9Q534.6 140.4 535.0 140.7Q535.4 141.0 536.0 141.0ZM540.8 133.3L541.8 133.3L541.8 142L540.8 142L540.8 133.3ZM546.4 142.1L546.4 142.1Q545.5 142.1 544.8 141.7Q544.1 141.3 543.7 140.5Q543.4 139.8 543.4 138.8L543.4 138.8Q543.4 137.7 543.7 137.0Q544.1 136.2 544.8 135.8Q545.5 135.4 546.4 135.4L546.4 135.4Q547.3 135.4 547.9 135.8Q548.6 136.2 549.0 137.0Q549.3 137.7 549.3 138.8L549.3 138.8Q549.3 139.8 549.0 140.5Q548.6 141.3 547.9 141.7Q547.3 142.1 546.4 142.1ZM546.4 141.2L546.4 141.2Q547.0 141.2 547.4 140.9Q547.9 140.5 548.1 140.0Q548.3 139.4 548.3 138.8L548.3 138.8Q548.3 138.1 548.1 137.6Q547.9 137.0 547.4 136.7Q547.0 136.3 546.4 136.3L546.4 136.3Q545.7 136.3 545.3 136.7Q544.9 137.0 544.6 137.6Q544.4 138.1 544.4 138.8L544.4 138.8Q544.4 139.4 544.6 140.0Q544.9 140.5 545.3 140.9Q545.7 141.2 546.4 141.2ZM553.4 142L552.4 142L550.4 135.4L551.5 135.4L552.3 138.3Q552.4 138.9 552.6 139.6L552.6 139.6Q552.8 140.2 552.9 140.9L552.9 140.9Q553.0 140.2 553.2 139.7L553.2 139.7Q553.4 138.9 553.5 138.3L553.5 138.3L554.3 135.4L555.4 135.4L556.2 138.3Q556.4 138.9 556.6 139.7L556.6 139.7Q556.7 140.2 556.8 140.9L556.8 140.9Q557.0 140.2 557.1 139.7L557.1 139.7Q557.3 138.9 557.5 138.3L557.5 138.3L558.2 135.4L559.4 135.4L557.4 142L556.3 142L555.5 139.0Q555.4 138.6 555.2 138.1Q555.1 137.6 555.0 137.2L555.0 137.2Q554.9 136.9 554.9 136.6L554.9 136.6Q554.8 136.9 554.8 137.1L554.8 137.1Q554.6 137.6 554.5 138.1Q554.4 138.6 554.3 139.0L554.3 139.0L553.4 142Z M567.1 142.1L567.1 142.1Q566.5 142.1 566.1 141.9Q565.7 141.7 565.5 141.4Q565.3 141.2 565.2 141.0L565.2 141.0L565.1 141.0L565.1 142L564.1 142L564.1 133.3L565.1 133.3L565.1 136.5L565.2 136.5Q565.3 136.3 565.5 136.1Q565.7 135.8 566.1 135.6Q566.5 135.4 567.1 135.4L567.1 135.4Q567.9 135.4 568.6 135.8Q569.2 136.2 569.5 136.9Q569.9 137.7 569.9 138.7L569.9 138.7Q569.9 139.8 569.5 140.5Q569.2 141.3 568.6 141.7Q567.9 142.1 567.1 142.1ZM567.0 141.2L567.0 141.2Q567.6 141.2 568.0 140.9Q568.4 140.5 568.6 140.0Q568.8 139.4 568.8 138.7L568.8 138.7Q568.8 138.1 568.6 137.5Q568.4 137.0 568.0 136.6Q567.6 136.3 567.0 136.3L567.0 136.3Q566.4 136.3 565.9 136.6Q565.5 136.9 565.3 137.5Q565.1 138.0 565.1 138.7L565.1 138.7Q565.1 139.5 565.3 140.0Q565.5 140.6 566.0 140.9Q566.4 141.2 567.0 141.2ZM571.4 133.3L572.5 133.3L572.5 142L571.4 142L571.4 133.3ZM576.6 142.1L576.6 142.1Q575.9 142.1 575.4 141.8Q574.9 141.5 574.6 141.0Q574.3 140.4 574.3 139.6L574.3 139.6L574.3 135.4L575.4 135.4L575.4 139.5Q575.4 140.3 575.8 140.7Q576.2 141.1 576.9 141.1L576.9 141.1Q577.3 141.1 577.7 140.9Q578.1 140.7 578.3 140.3Q578.5 139.9 578.5 139.4L578.5 139.4L578.5 135.4L579.6 135.4L579.6 142L578.6 142L578.6 140.8Q578.3 141.4 577.8 141.7L577.8 141.7Q577.3 142.1 576.6 142.1ZM582.5 142L581.4 142L581.4 135.4L582.4 135.4L582.4 136.5L582.5 136.5Q582.7 136.0 583.2 135.7Q583.6 135.4 584.2 135.4L584.2 135.4Q584.3 135.4 584.5 135.4Q584.7 135.4 584.8 135.4L584.8 135.4L584.8 136.4Q584.7 136.4 584.5 136.4Q584.3 136.4 584.1 136.4L584.1 136.4Q583.6 136.4 583.3 136.6Q582.9 136.8 582.7 137.1Q582.5 137.5 582.5 137.9L582.5 137.9L582.5 142Z "/></g></svg>