<!-- Generated by readme-aura https://github.com/collectioneur/readme-aura -->
<svg width="800" height="200" viewBox="0 0 800 200" xmlns="http://www.w3.org/2000/svg"><mask id="satori_om-id"><rect x="0" y="0" width="800" height="200" fill="#fff"/></mask><clipPath id="satori_cp-id-0"><rect x="0" y="0" width="800" height="200"/></clipPath><mask id="satori_om-id-0"><rect x="0" y="0" width="800" height="200" fill="#fff"/></mask><svg x="0" y="0" width="800" height="200" preserveAspectRatio="none" clip-path="url(#satori_cp-id-0)" mask="url(#satori_om-id-0)"><defs><linearGradient id="holo-1" gradientUnits="objectBoundingBox" x1="0" y1="0" x2="1" y2="1"><stop offset="0%" stop-color="#a1f4ff02"></stop><stop offset="10%" stop-color="#ffffff"></stop><stop offset="30%" stop-color="#a1f4ff02"></stop><stop offset="60%" stop-color="#ffffff"></stop><stop offset="80%" stop-color="#a1f4ff02"></stop><stop offset="100%" stop-color="#a1f4ff02"></stop><animateTransform attributeName="gradientTransform" type="rotate" from="0 0.5 0.5" to="360 0.5 0.5" dur="8s" repeatCount="indefinite"></animateTransform></linearGradient><linearGradient id="holo-2" gradientUnits="objectBoundingBox" x1="0" y1="0" x2="1" y2="1"><stop offset="0%" stop-color="#a1f4ff02"></stop><stop offset="10%" stop-color="#ffffff"></stop><stop offset="30%" stop-color="#a1f4ff02"></stop><stop offset="60%" stop-color="#ffffff"></stop><stop offset="80%" stop-color="#a1f4ff02"></stop><stop offset="100%" stop-color="#a1f4ff02"></stop><animateTransform attributeName="gradientTransform" type="rotate" from="0 0.5 0.5" to="360 0.5 0.5" dur="8s" repeatCount="indefinite"></animateTransform></linearGradient><linearGradient id="holo-3" gradientUnits="objectBoundingBox" x1="0" y1="0" x2="1" y2="1"><stop offset="0%" stop-color="#a1f4ff02"></stop><stop offset="10%" stop-color="#ffffff"></stop><stop offset="30%" stop-color="#a1f4ff02"></stop><stop offset="60%" stop-color="#ffffff"></stop><stop offset="80%" stop-color="#a1f4ff02"></stop><stop offset="100%" stop-color="#a1f4ff02"></stop><animateTransform attributeName="gradientTransform" type="rotate" from="0 0.5 0.5" to="360 0.5 0.5" dur="8s" repeatCount="indefinite"></animateTransform></linearGradient><filter id="c-blur" x="-10%" y="-10%" width="120%" height="120%"><feGaussianBlur stdDeviation="1"></feGaussianBlur></filter></defs><rect x="2.5" y="2.5" width="355" height="195" rx="18.75" ry="18.75" fill="none" stroke="url(#holo-1)" stroke-width="4" filter="url(#c-blur)"></rect><rect x="0.25" y="0.25" width="359.5" height="199.5" rx="19.75" ry="19.75" fill="none" stroke="#ffffff" stroke-width="0.5"></rect><rect x="382.5" y="2.5" width="195" height="195" rx="18.75" ry="18.75" fill="none" stroke="url(#holo-2)" stroke-width="4" filter="url(#c-blur)"></rect><rect x="380.25" y="0.25" width="199.5" height="199.5" rx="19.75" ry="19.75" fill="none" stroke="#ffffff" stroke-width="0.5"></rect><rect x="602.5" y="2.5" width="195" height="195" rx="18.75" ry="18.75" fill="none" stroke="url(#holo-3)" stroke-width="4" filter="url(#c-blur)"></rect><rect x="600.25" y="0.25" width="199.5" height="199.5" rx="19.75" ry="19.75" fill="none" stroke="#ffffff" stroke-width="0.5"></rect></svg><mask id="satori_om-id-0-0"><rect x="0" y="0" width="0" height="200" fill="#fff"/></mask><mask id="satori_om-id-0-0-0"><rect x="0" y="0" width="0" height="200" fill="#fff"/></mask><mask id="satori_om-id-0-0-0-0"><rect x="0" y="0" width="0" height="200" fill="#fff"/></mask><mask id="satori_om-id-0-0-0-1"><rect x="0" y="0" width="0" height="200" fill="#fff"/></mask><mask id="satori_om-id-0-0-0-2"><rect x="0" y="0" width="0" height="200" fill="#fff"/></mask><mask id="satori_om-id-0-0-0-3"><rect x="0" y="0" width="0" height="200" fill="#fff"/></mask><mask id="satori_om-id-0-0-0-4"><rect x="0" y="0" width="0" height="200" fill="#fff"/></mask><mask id="satori_om-id-0-0-0-5"><rect x="0" y="0" width="0" height="200" fill="#fff"/></mask><mask id="satori_om-id-0-0-0-6"><rect x="0" y="0" width="0" height="200" fill="#fff"/></mask><mask id="satori_om-id-0-0-1"><rect x="0" y="0" width="0" height="200" fill="#fff"/></mask><mask id="satori_om-id-0-0-1-0"><rect x="0" y="0" width="0" height="200" fill="#fff"/></mask><mask id="satori_om-id-0-0-1-1"><rect x="0" y="0" width="0" height="200" fill="#fff"/></mask><mask id="satori_om-id-0-0-1-2"><rect x="0" y="0" width="0" height="200" fill="#fff"/></mask><mask id="satori_om-id-0-0-1-3"><rect x="0" y="0" width="0" height="200" fill="#fff"/></mask><mask id="satori_om-id-0-0-1-4"><rect x="0" y="0" width="0" height="200" fill="#fff"/></mask><mask id="satori_om-id-0-0-1-5"><rect x="0" y="0" width="0" height="200" fill="#fff"/></mask><mask id="satori_om-id-0-0-1-6"><rect x="0" y="0" width="0" height="200" fill="#fff"/></mask><mask id="satori_om-id-0-0-2"><rect x="0" y="0" width="0" height="200" fill="#fff"/></mask><mask id="satori_om-id-0-0-2-0"><rect x="0" y="0" width="0" height="200" fill="#fff"/></mask><mask id="satori_om-id-0-0-2-1"><rect x="0" y="0" width="0" height="200" fill="#fff"/></mask><mask id="satori_om-id-0-0-2-2"><rect x="0" y="0" width="0" height="200" fill="#fff"/></mask><mask id="satori_om-id-0-0-2-3"><rect x="0" y="0" width="0" height="200" fill="#fff"/></mask><mask id="satori_om-id-0-0-2-4"><rect x="0" y="0" width="0" height="200" fill="#fff"/></mask><mask id="satori_om-id-0-0-2-5"><rect x="0" y="0" width="0" height="200" fill="#fff"/></mask><mask id="satori_om-id-0-0-2-6"><rect x="0" y="0" width="0" height="200" fill="#fff"/></mask><mask id="satori_om-id-0-0-3"><rect x="0" y="0" width="0" height="200" fill="#fff"/></mask><mask id="satori_om-id-0-0-3-0"><rect x="0" y="0" width="0" height="200" fill="#fff"/></mask><mask id="satori_om-id-0-1"><rect x="0" y="0" width="0" height="200" fill="#fff"/></mask><mask id="satori_om-id-0-2"><rect x="0" y="0" width="0" height="200" fill="#fff"/></mask><mask id="satori_om-id-0-3"><rect x="0" y="0" width="0" height="200" fill="#fff"/></mask><mask id="satori_om-id-0-4"><rect x="0" y="0" width="0" height="200" fill="#fff"/></mask><mask id="satori_om-id-0-5"><rect x="0" y="0" width="0" height="200" fill="#fff"/></mask><mask id="satori_om-id-0-6"><rect x="0" y="0" width="0" height="200" fill="#fff"/></mask><defs><pattern id="satori_pattern_id-1_0" x="0" y="0" width="1" height="1" patternUnits="objectBoundingBox"><linearGradient id="satori_biid-1_0" x1="0" y1="0" x2="1" y2="0" spreadMethod="pad"><stop offset="0%" stop-color="#607d8b66"/><stop offset="100%" stop-color="#000c4066"/></linearGradient><rect x="0" y="0" width="360" height="200" fill="url(#satori_biid-1_0)"/></pattern></defs><clipPath id="satori_cp-id-1"><path x="0" y="0" width="360" height="200" d="M20,0 h320 a20,20 0 0 1 20,20 v160 a20,20 0 0 1 -20,20 h-320 a20,20 0 0 1 -20,-20 v-160 a20,20 0 0 1 20,-20"/></clipPath><mask id="satori_om-id-1"><rect x="0" y="0" width="360" height="200" fill="#fff"/></mask><path x="0" y="0" width="360" height="200" fill="url(#satori_pattern_id-1_0)" d="M20,0 h320 a20,20 0 0 1 20,20 v160 a20,20 0 0 1 -20,20 h-320 a20,20 0 0 1 -20,-20 v-160 a20,20 0 0 1 20,-20"/><mask id="satori_ms-id-1-3" maskUnits="userSpaceOnUse"><rect x="0" y="0" width="800" height="200" fill="#000"/><path x="0" y="0" width="360" height="200" fill="#fff"  stroke-width="0" d="M20,0 h320 a20,20 0 0 1 20,20 v160 a20,20 0 0 1 -20,20 h-320 a20,20 0 0 1 -20,-20 v-160 a20,20 0 0 1 20,-20"/></mask><defs><filter id="satori_s-id-1-3" x="-14.23611111111111%" y="-28.125%" width="131.25%" height="156.25%"><feGaussianBlur stdDeviation="7.5" result="b"/><feFlood flood-color="rgba(255,255,255,0.1)" in="SourceGraphic" result="f"/><feComposite in="f" in2="b" operator="out"/></filter></defs><g mask="url(#satori_ms-id-1-3)" filter="url(#satori_s-id-1-3)" opacity="1"><path x="-5" y="0" width="360" height="200" fill="#fff" stroke="#fff" stroke-width="0" d="M15,0 h320 a20,20 0 0 1 20,20 v160 a20,20 0 0 1 -20,20 h-320 a20,20 0 0 1 -20,-20 v-160 a20,20 0 0 1 20,-20"/></g><mask id="satori_ms-id-1-2" maskUnits="userSpaceOnUse"><rect x="0" y="0" width="800" height="200" fill="#000"/><path x="0" y="0" width="360" height="200" fill="#fff"  stroke-width="0" d="M20,0 h320 a20,20 0 0 1 20,20 v160 a20,20 0 0 1 -20,20 h-320 a20,20 0 0 1 -20,-20 v-160 a20,20 0 0 1 20,-20"/></mask><defs><filter id="satori_s-id-1-2" x="-17.01388888888889%" y="-28.125%" width="131.25%" height="156.25%"><feGaussianBlur stdDeviation="7.5" result="b"/><feFlood flood-color="rgba(255,255,255,0.1)" in="SourceGraphic" result="f"/><feComposite in="f" in2="b" operator="out"/></filter></defs><g mask="url(#satori_ms-id-1-2)" filter="url(#satori_s-id-1-2)" opacity="1"><path x="5" y="0" width="360" height="200" fill="#fff" stroke="#fff" stroke-width="0" d="M25,0 h320 a20,20 0 0 1 20,20 v160 a20,20 0 0 1 -20,20 h-320 a20,20 0 0 1 -20,-20 v-160 a20,20 0 0 1 20,-20"/></g><mask id="satori_ms-id-1-1" maskUnits="userSpaceOnUse"><rect x="0" y="0" width="800" height="200" fill="#000"/><path x="0" y="0" width="360" height="200" fill="#fff"  stroke-width="0" d="M20,0 h320 a20,20 0 0 1 20,20 v160 a20,20 0 0 1 -20,20 h-320 a20,20 0 0 1 -20,-20 v-160 a20,20 0 0 1 20,-20"/></mask><defs><filter id="satori_s-id-1-1" x="-15.625%" y="-25.624999999999996%" width="131.25%" height="156.25%"><feGaussianBlur stdDeviation="7.5" result="b"/><feFlood flood-color="rgba(255,255,255,0.1)" in="SourceGraphic" result="f"/><feComposite in="f" in2="b" operator="out"/></filter></defs><g mask="url(#satori_ms-id-1-1)" filter="url(#satori_s-id-1-1)" opacity="1"><path x="0" y="-5" width="360" height="200" fill="#fff" stroke="#fff" stroke-width="0" d="M20,-5 h320 a20,20 0 0 1 20,20 v160 a20,20 0 0 1 -20,20 h-320 a20,20 0 0 1 -20,-20 v-160 a20,20 0 0 1 20,-20"/></g><mask id="satori_ms-id-1-0" maskUnits="userSpaceOnUse"><rect x="0" y="0" width="800" height="200" fill="#000"/><path x="0" y="0" width="360" height="200" fill="#fff"  stroke-width="0" d="M20,0 h320 a20,20 0 0 1 20,20 v160 a20,20 0 0 1 -20,20 h-320 a20,20 0 0 1 -20,-20 v-160 a20,20 0 0 1 20,-20"/></mask><defs><filter id="satori_s-id-1-0" x="-15.625%" y="-30.625000000000004%" width="131.25%" height="156.25%"><feGaussianBlur stdDeviation="7.5" result="b"/><feFlood flood-color="rgba(255,255,255,0.2)" in="SourceGraphic" result="f"/><feComposite in="f" in2="b" operator="out"/></filter></defs><g mask="url(#satori_ms-id-1-0)" filter="url(#satori_s-id-1-0)" opacity="1"><path x="0" y="5" width="360" height="200" fill="#fff" stroke="#fff" stroke-width="0" d="M20,5 h320 a20,20 0 0 1 20,20 v160 a20,20 0 0 1 -20,20 h-320 a20,20 0 0 1 -20,-20 v-160 a20,20 0 0 1 20,-20"/></g><defs><pattern id="satori_pattern_id-2_0" x="0" y="0" width="1" height="1" patternUnits="objectBoundingBox"><linearGradient id="satori_biid-2_0" x1="1" y1="0" x2="0" y2="0" spreadMethod="pad"><stop offset="0%" stop-color="#f8cdda66"/><stop offset="100%" stop-color="#1d2b6466"/></linearGradient><rect x="0" y="0" width="200" height="200" fill="url(#satori_biid-2_0)"/></pattern></defs><clipPath id="satori_cp-id-2"><path x="380" y="0" width="200" height="200" d="M400,0 h160 a20,20 0 0 1 20,20 v160 a20,20 0 0 1 -20,20 h-160 a20,20 0 0 1 -20,-20 v-160 a20,20 0 0 1 20,-20"/></clipPath><mask id="satori_om-id-2"><rect x="380" y="0" width="200" height="200" fill="#fff"/></mask><path x="380" y="0" width="200" height="200" fill="url(#satori_pattern_id-2_0)" d="M400,0 h160 a20,20 0 0 1 20,20 v160 a20,20 0 0 1 -20,20 h-160 a20,20 0 0 1 -20,-20 v-160 a20,20 0 0 1 20,-20"/><mask id="satori_ms-id-2-3" maskUnits="userSpaceOnUse"><rect x="0" y="0" width="800" height="200" fill="#000"/><path x="380" y="0" width="200" height="200" fill="#fff"  stroke-width="0" d="M400,0 h160 a20,20 0 0 1 20,20 v160 a20,20 0 0 1 -20,20 h-160 a20,20 0 0 1 -20,-20 v-160 a20,20 0 0 1 20,-20"/></mask><defs><filter id="satori_s-id-2-3" x="-25.624999999999996%" y="-28.125%" width="156.25%" height="156.25%"><feGaussianBlur stdDeviation="7.5" result="b"/><feFlood flood-color="rgba(255,255,255,0.1)" in="SourceGraphic" result="f"/><feComposite in="f" in2="b" operator="out"/></filter></defs><g mask="url(#satori_ms-id-2-3)" filter="url(#satori_s-id-2-3)" opacity="1"><path x="375" y="0" width="200" height="200" fill="#fff" stroke="#fff" stroke-width="0" d="M395,0 h160 a20,20 0 0 1 20,20 v160 a20,20 0 0 1 -20,20 h-160 a20,20 0 0 1 -20,-20 v-160 a20,20 0 0 1 20,-20"/></g><mask id="satori_ms-id-2-2" maskUnits="userSpaceOnUse"><rect x="0" y="0" width="800" height="200" fill="#000"/><path x="380" y="0" width="200" height="200" fill="#fff"  stroke-width="0" d="M400,0 h160 a20,20 0 0 1 20,20 v160 a20,20 0 0 1 -20,20 h-160 a20,20 0 0 1 -20,-20 v-160 a20,20 0 0 1 20,-20"/></mask><defs><filter id="satori_s-id-2-2" x="-30.625000000000004%" y="-28.125%" width="156.25%" height="156.25%"><feGaussianBlur stdDeviation="7.5" result="b"/><feFlood flood-color="rgba(255,255,255,0.1)" in="SourceGraphic" result="f"/><feComposite in="f" in2="b" operator="out"/></filter></defs><g mask="url(#satori_ms-id-2-2)" filter="url(#satori_s-id-2-2)" opacity="1"><path x="385" y="0" width="200" height="200" fill="#fff" stroke="#fff" stroke-width="0" d="M405,0 h160 a20,20 0 0 1 20,20 v160 a20,20 0 0 1 -20,20 h-160 a20,20 0 0 1 -20,-20 v-160 a20,20 0 0 1 20,-20"/></g><mask id="satori_ms-id-2-1" maskUnits="userSpaceOnUse"><rect x="0" y="0" width="800" height="200" fill="#000"/><path x="380" y="0" width="200" height="200" fill="#fff"  stroke-width="0" d="M400,0 h160 a20,20 0 0 1 20,20 v160 a20,20 0 0 1 -20,20 h-160 a20,20 0 0 1 -20,-20 v-160 a20,20 0 0 1 20,-20"/></mask><defs><filter id="satori_s-id-2-1" x="-28.125%" y="-25.624999999999996%" width="156.25%" height="156.25%"><feGaussianBlur stdDeviation="7.5" result="b"/><feFlood flood-color="rgba(255,255,255,0.1)" in="SourceGraphic" result="f"/><feComposite in="f" in2="b" operator="out"/></filter></defs><g mask="url(#satori_ms-id-2-1)" filter="url(#satori_s-id-2-1)" opacity="1"><path x="380" y="-5" width="200" height="200" fill="#fff" stroke="#fff" stroke-width="0" d="M400,-5 h160 a20,20 0 0 1 20,20 v160 a20,20 0 0 1 -20,20 h-160 a20,20 0 0 1 -20,-20 v-160 a20,20 0 0 1 20,-20"/></g><mask id="satori_ms-id-2-0" maskUnits="userSpaceOnUse"><rect x="0" y="0" width="800" height="200" fill="#000"/><path x="380" y="0" width="200" height="200" fill="#fff"  stroke-width="0" d="M400,0 h160 a20,20 0 0 1 20,20 v160 a20,20 0 0 1 -20,20 h-160 a20,20 0 0 1 -20,-20 v-160 a20,20 0 0 1 20,-20"/></mask><defs><filter id="satori_s-id-2-0" x="-28.125%" y="-30.625000000000004%" width="156.25%" height="156.25%"><feGaussianBlur stdDeviation="7.5" result="b"/><feFlood flood-color="rgba(255,255,255,0.2)" in="SourceGraphic" result="f"/><feComposite in="f" in2="b" operator="out"/></filter></defs><g mask="url(#satori_ms-id-2-0)" filter="url(#satori_s-id-2-0)" opacity="1"><path x="380" y="5" width="200" height="200" fill="#fff" stroke="#fff" stroke-width="0" d="M400,5 h160 a20,20 0 0 1 20,20 v160 a20,20 0 0 1 -20,20 h-160 a20,20 0 0 1 -20,-20 v-160 a20,20 0 0 1 20,-20"/></g><defs><pattern id="satori_pattern_id-3_0" x="0" y="0" width="1" height="1" patternUnits="objectBoundingBox"><linearGradient id="satori_biid-3_0" x1="0" y1="0" x2="1" y2="0" spreadMethod="pad"><stop offset="0%" stop-color="#292e4966"/><stop offset="50%" stop-color="#53697666"/><stop offset="100%" stop-color="#bbd2c566"/></linearGradient><rect x="0" y="0" width="200" height="200" fill="url(#satori_biid-3_0)"/></pattern></defs><clipPath id="satori_cp-id-3"><path x="600" y="0" width="200" height="200" d="M620,0 h160 a20,20 0 0 1 20,20 v160 a20,20 0 0 1 -20,20 h-160 a20,20 0 0 1 -20,-20 v-160 a20,20 0 0 1 20,-20"/></clipPath><mask id="satori_om-id-3"><rect x="600" y="0" width="200" height="200" fill="#fff"/></mask><path x="600" y="0" width="200" height="200" fill="url(#satori_pattern_id-3_0)" d="M620,0 h160 a20,20 0 0 1 20,20 v160 a20,20 0 0 1 -20,20 h-160 a20,20 0 0 1 -20,-20 v-160 a20,20 0 0 1 20,-20"/><mask id="satori_ms-id-3-3" maskUnits="userSpaceOnUse"><rect x="0" y="0" width="800" height="200" fill="#000"/><path x="600" y="0" width="200" height="200" fill="#fff"  stroke-width="0" d="M620,0 h160 a20,20 0 0 1 20,20 v160 a20,20 0 0 1 -20,20 h-160 a20,20 0 0 1 -20,-20 v-160 a20,20 0 0 1 20,-20"/></mask><defs><filter id="satori_s-id-3-3" x="-25.624999999999996%" y="-28.125%" width="156.25%" height="156.25%"><feGaussianBlur stdDeviation="7.5" result="b"/><feFlood flood-color="rgba(255,255,255,0.1)" in="SourceGraphic" result="f"/><feComposite in="f" in2="b" operator="out"/></filter></defs><g mask="url(#satori_ms-id-3-3)" filter="url(#satori_s-id-3-3)" opacity="1"><path x="595" y="0" width="200" height="200" fill="#fff" stroke="#fff" stroke-width="0" d="M615,0 h160 a20,20 0 0 1 20,20 v160 a20,20 0 0 1 -20,20 h-160 a20,20 0 0 1 -20,-20 v-160 a20,20 0 0 1 20,-20"/></g><mask id="satori_ms-id-3-2" maskUnits="userSpaceOnUse"><rect x="0" y="0" width="800" height="200" fill="#000"/><path x="600" y="0" width="200" height="200" fill="#fff"  stroke-width="0" d="M620,0 h160 a20,20 0 0 1 20,20 v160 a20,20 0 0 1 -20,20 h-160 a20,20 0 0 1 -20,-20 v-160 a20,20 0 0 1 20,-20"/></mask><defs><filter id="satori_s-id-3-2" x="-30.625000000000004%" y="-28.125%" width="156.25%" height="156.25%"><feGaussianBlur stdDeviation="7.5" result="b"/><feFlood flood-color="rgba(255,255,255,0.1)" in="SourceGraphic" result="f"/><feComposite in="f" in2="b" operator="out"/></filter></defs><g mask="url(#satori_ms-id-3-2)" filter="url(#satori_s-id-3-2)" opacity="1"><path x="605" y="0" width="200" height="200" fill="#fff" stroke="#fff" stroke-width="0" d="M625,0 h160 a20,20 0 0 1 20,20 v160 a20,20 0 0 1 -20,20 h-160 a20,20 0 0 1 -20,-20 v-160 a20,20 0 0 1 20,-20"/></g><mask id="satori_ms-id-3-1" maskUnits="userSpaceOnUse"><rect x="0" y="0" width="800" height="200" fill="#000"/><path x="600" y="0" width="200" height="200" fill="#fff"  stroke-width="0" d="M620,0 h160 a20,20 0 0 1 20,20 v160 a20,20 0 0 1 -20,20 h-160 a20,20 0 0 1 -20,-20 v-160 a20,20 0 0 1 20,-20"/></mask><defs><filter id="satori_s-id-3-1" x="-28.125%" y="-25.624999999999996%" width="156.25%" height="156.25%"><feGaussianBlur stdDeviation="7.5" result="b"/><feFlood flood-color="rgba(255,255,255,0.1)" in="SourceGraphic" result="f"/><feComposite in="f" in2="b" operator="out"/></filter></defs><g mask="url(#satori_ms-id-3-1)" filter="url(#satori_s-id-3-1)" opacity="1"><path x="600" y="-5" width="200" height="200" fill="#fff" stroke="#fff" stroke-width="0" d="M620,-5 h160 a20,20 0 0 1 20,20 v160 a20,20 0 0 1 -20,20 h-160 a20,20 0 0 1 -20,-20 v-160 a20,20 0 0 1 20,-20"/></g><mask id="satori_ms-id-3-0" maskUnits="userSpaceOnUse"><rect x="0" y="0" width="800" height="200" fill="#000"/><path x="600" y="0" width="200" height="200" fill="#fff"  stroke-width="0" d="M620,0 h160 a20,20 0 0 1 20,20 v160 a20,20 0 0 1 -20,20 h-160 a20,20 0 0 1 -20,-20 v-160 a20,20 0 0 1 20,-20"/></mask><defs><filter id="satori_s-id-3-0" x="-28.125%" y="-30.625000000000004%" width="156.25%" height="156.25%"><feGaussianBlur stdDeviation="7.5" result="b"/><feFlood flood-color="rgba(255,255,255,0.2)" in="SourceGraphic" result="f"/><feComposite in="f" in2="b" operator="out"/></filter></defs><g mask="url(#satori_ms-id-3-0)" filter="url(#satori_s-id-3-0)" opacity="1"><path x="600" y="5" width="200" height="200" fill="#fff" stroke="#fff" stroke-width="0" d="M620,5 h160 a20,20 0 0 1 20,20 v160 a20,20 0 0 1 -20,20 h-160 a20,20 0 0 1 -20,-20 v-160 a20,20 0 0 1 20,-20"/></g></svg>