<!-- Generated by readme-aura https://github.com/collectioneur/readme-aura -->
<svg width="860" height="300" viewBox="0 0 860 300" xmlns="http://www.w3.org/2000/svg"><clipPath id="satori_cp-id"><path x="0" y="0" width="860" height="300" d="M18,0 h824 a18,18 0 0 1 18,18 v264 a18,18 0 0 1 -18,18 h-824 a18,18 0 0 1 -18,-18 v-264 a18,18 0 0 1 18,-18"/></clipPath><mask id="satori_om-id"><rect x="0" y="0" width="860" height="300" fill="#fff"/></mask><path x="0" y="0" width="860" height="300" fill="#06060c" d="M18,0 h824 a18,18 0 0 1 18,18 v264 a18,18 0 0 1 -18,18 h-824 a18,18 0 0 1 -18,-18 v-264 a18,18 0 0 1 18,-18"/><clipPath id="satori_cp-id-0" clip-path="url(#satori_cp-id)"><rect x="0" y="0" width="860" height="300"/></clipPath><mask id="satori_om-id-0"><rect x="0" y="0" width="860" height="300" fill="#fff" mask="url(#satori_om-id)"/></mask><svg x="0" y="0" width="860" height="300" preserveAspectRatio="none" clip-path="url(#satori_cp-id-0)" mask="url(#satori_om-id-0)"><defs><filter id="rp-soft" x="-50%" y="-50%" width="200%" height="200%"><feGaussianBlur in="SourceGraphic" stdDeviation="1.5"></feGaussianBlur></filter><filter id="rp-bloom" x="-50%" y="-50%" width="200%" height="200%"><feGaussianBlur in="SourceGraphic" stdDeviation="20"><animate attributeName="stdDeviation" values="15;30;15" dur="6s" repeatCount="indefinite"></animate></feGaussianBlur></filter></defs><circle cx="430" cy="130" r="25" fill="rgba(140,100,255,0.15)" filter="url(#rp-bloom)"><animate attributeName="r" values="20;45;20" dur="4s" repeatCount="indefinite"></animate></circle><circle cx="430" cy="130" fill="none" stroke="rgba(100,180,255,0.6)" stroke-width="2.5" r="10" filter="url(#rp-soft)"><animate attributeName="r" from="8" to="180" dur="4s" repeatCount="indefinite"></animate><animate attributeName="opacity" from="0.9" to="0" dur="4s" repeatCount="indefinite"></animate></circle><circle cx="430" cy="130" fill="none" stroke="rgba(140,100,255,0.6)" stroke-width="2.5" r="10" filter="url(#rp-soft)"><animate attributeName="r" from="8" to="180" dur="4s" repeatCount="indefinite" begin="0.7s"></animate><animate attributeName="opacity" from="0.9" to="0" dur="4s" repeatCount="indefinite" begin="0.7s"></animate></circle><circle cx="430" cy="130" fill="none" stroke="rgba(200,80,255,0.6)" stroke-width="2.5" r="10" filter="url(#rp-soft)"><animate attributeName="r" from="8" to="180" dur="4s" repeatCount="indefinite" begin="1.4s"></animate><animate attributeName="opacity" from="0.9" to="0" dur="4s" repeatCount="indefinite" begin="1.4s"></animate></circle><circle cx="430" cy="130" fill="none" stroke="rgba(255,100,180,0.6)" stroke-width="2.5" r="10" filter="url(#rp-soft)"><animate attributeName="r" from="8" to="180" dur="4s" repeatCount="indefinite" begin="2.1s"></animate><animate attributeName="opacity" from="0.9" to="0" dur="4s" repeatCount="indefinite" begin="2.1s"></animate></circle><circle cx="430" cy="130" fill="none" stroke="rgba(255,180,80,0.5)" stroke-width="2" r="10" filter="url(#rp-soft)"><animate attributeName="r" from="8" to="180" dur="4s" repeatCount="indefinite" begin="2.8s"></animate><animate attributeName="opacity" from="0.85" to="0" dur="4s" repeatCount="indefinite" begin="2.8s"></animate></circle><circle cx="430" cy="130" fill="none" stroke="rgba(80,255,200,0.4)" stroke-width="1.5" r="10" filter="url(#rp-soft)"><animate attributeName="r" from="8" to="180" dur="4s" repeatCount="indefinite" begin="3.5s"></animate><animate attributeName="opacity" from="0.8" to="0" dur="4s" repeatCount="indefinite" begin="3.5s"></animate></circle><path fill="none" stroke="rgba(180,140,255,0.25)" stroke-width="1" stroke-dasharray="4 8"><animate attributeName="d" values="M250,130 Q340,60 430,130 Q520,200 610,130;M250,130 Q340,200 430,130 Q520,60 610,130;M250,130 Q340,60 430,130 Q520,200 610,130" dur="6s" repeatCount="indefinite"></animate></path><path fill="none" stroke="rgba(100,200,255,0.2)" stroke-width="0.8" stroke-dasharray="3 6"><animate attributeName="d" values="M300,130 Q365,80 430,130 Q495,180 560,130;M300,130 Q365,180 430,130 Q495,80 560,130;M300,130 Q365,80 430,130 Q495,180 560,130" dur="5s" repeatCount="indefinite" begin="1s"></animate></path><circle cx="430" cy="130" r="4" fill="rgba(255,255,255,0.95)"><animate attributeName="r" values="3;6;3" dur="2s" repeatCount="indefinite"></animate></circle></svg><mask id="satori_om-id-0-0"><rect x="0" y="0" width="0" height="300" fill="#fff" mask="url(#satori_om-id)"/></mask><mask id="satori_om-id-0-0-0"><rect x="0" y="0" width="0" height="300" fill="#fff" mask="url(#satori_om-id)"/></mask><mask id="satori_om-id-0-0-0-0"><rect x="0" y="0" width="0" height="300" fill="#fff" mask="url(#satori_om-id)"/></mask><mask id="satori_om-id-0-0-1"><rect x="0" y="0" width="0" height="300" fill="#fff" mask="url(#satori_om-id)"/></mask><mask id="satori_om-id-0-0-1-0"><rect x="0" y="0" width="0" height="300" fill="#fff" mask="url(#satori_om-id)"/></mask><mask id="satori_om-id-0-0-1-0-0"><rect x="0" y="0" width="0" height="300" fill="#fff" mask="url(#satori_om-id)"/></mask><mask id="satori_om-id-0-1"><rect x="0" y="0" width="0" height="300" fill="#fff" mask="url(#satori_om-id)"/></mask><mask id="satori_om-id-0-1-0"><rect x="0" y="0" width="0" height="300" fill="#fff" mask="url(#satori_om-id)"/></mask><mask id="satori_om-id-0-2"><rect x="0" y="0" width="0" height="300" fill="#fff" mask="url(#satori_om-id)"/></mask><mask id="satori_om-id-0-2-0"><rect x="0" y="0" width="0" height="300" fill="#fff" mask="url(#satori_om-id)"/></mask><mask id="satori_om-id-0-2-1"><rect x="0" y="0" width="0" height="300" fill="#fff" mask="url(#satori_om-id)"/></mask><mask id="satori_om-id-0-3"><rect x="0" y="0" width="0" height="300" fill="#fff" mask="url(#satori_om-id)"/></mask><mask id="satori_om-id-0-3-0"><rect x="0" y="0" width="0" height="300" fill="#fff" mask="url(#satori_om-id)"/></mask><mask id="satori_om-id-0-3-1"><rect x="0" y="0" width="0" height="300" fill="#fff" mask="url(#satori_om-id)"/></mask><mask id="satori_om-id-0-4"><rect x="0" y="0" width="0" height="300" fill="#fff" mask="url(#satori_om-id)"/></mask><mask id="satori_om-id-0-4-0"><rect x="0" y="0" width="0" height="300" fill="#fff" mask="url(#satori_om-id)"/></mask><mask id="satori_om-id-0-4-1"><rect x="0" y="0" width="0" height="300" fill="#fff" mask="url(#satori_om-id)"/></mask><mask id="satori_om-id-0-5"><rect x="0" y="0" width="0" height="300" fill="#fff" mask="url(#satori_om-id)"/></mask><mask id="satori_om-id-0-5-0"><rect x="0" y="0" width="0" height="300" fill="#fff" mask="url(#satori_om-id)"/></mask><mask id="satori_om-id-0-5-1"><rect x="0" y="0" width="0" height="300" fill="#fff" mask="url(#satori_om-id)"/></mask><mask id="satori_om-id-0-6"><rect x="0" y="0" width="0" height="300" fill="#fff" mask="url(#satori_om-id)"/></mask><mask id="satori_om-id-0-6-0"><rect x="0" y="0" width="0" height="300" fill="#fff" mask="url(#satori_om-id)"/></mask><mask id="satori_om-id-0-6-1"><rect x="0" y="0" width="0" height="300" fill="#fff" mask="url(#satori_om-id)"/></mask><mask id="satori_om-id-0-7"><rect x="0" y="0" width="0" height="300" fill="#fff" mask="url(#satori_om-id)"/></mask><mask id="satori_om-id-0-7-0"><rect x="0" y="0" width="0" height="300" fill="#fff" mask="url(#satori_om-id)"/></mask><mask id="satori_om-id-0-7-1"><rect x="0" y="0" width="0" height="300" fill="#fff" mask="url(#satori_om-id)"/></mask><mask id="satori_om-id-0-8"><rect x="0" y="0" width="0" height="300" fill="#fff" mask="url(#satori_om-id)"/></mask><mask id="satori_om-id-0-8-0"><rect x="0" y="0" width="0" height="300" fill="#fff" mask="url(#satori_om-id)"/></mask><mask id="satori_om-id-0-9"><rect x="0" y="0" width="0" height="300" fill="#fff" mask="url(#satori_om-id)"/></mask><mask id="satori_om-id-0-9-0"><rect x="0" y="0" width="0" height="300" fill="#fff" mask="url(#satori_om-id)"/></mask><mask id="satori_om-id-0-10"><rect x="0" y="0" width="0" height="300" fill="#fff" mask="url(#satori_om-id)"/></mask><mask id="satori_om-id-0-10-0"><rect x="0" y="0" width="0" height="300" fill="#fff" mask="url(#satori_om-id)"/></mask><mask id="satori_om-id-1"><rect x="234" y="213" width="393" height="50" fill="#fff" mask="url(#satori_om-id)"/></mask><mask id="satori_om-id-1-0"><rect x="320" y="213" width="222" height="31" fill="#fff" mask="url(#satori_om-id)"/></mask><g mask="url(#satori_om-id)" clip-path="url(#satori_cp-id)"><path fill="white" d="M325.6 238L321.7 238L321.7 219.1L329.1 219.1Q331.2 219.1 332.8 219.8Q334.3 220.6 335.1 222.0Q335.9 223.4 335.9 225.2Q335.9 227.1 335.1 228.5Q334.2 229.8 332.7 230.5L332.7 230.5Q332.6 230.6 332.5 230.6L332.5 230.6L336.5 238L332.2 238L328.6 231.2L325.6 231.2L325.6 238ZM325.6 222.3L325.6 228.1L328.4 228.1Q329.6 228.1 330.3 227.8Q331.1 227.5 331.5 226.8Q331.9 226.2 331.9 225.2L331.9 225.2Q331.9 224.3 331.5 223.6Q331.1 223.0 330.3 222.6Q329.6 222.3 328.4 222.3L328.4 222.3L325.6 222.3ZM342.5 238L338.7 238L338.7 223.8L342.5 223.8L342.5 238ZM340.6 222.0L340.6 222.0Q339.7 222.0 339.1 221.4Q338.5 220.8 338.5 220.0L338.5 220.0Q338.5 219.2 339.1 218.6Q339.7 218.0 340.6 218.0L340.6 218.0Q341.5 218.0 342.1 218.6Q342.7 219.2 342.7 220.0L342.7 220.0Q342.7 220.8 342.1 221.4Q341.5 222.0 340.6 222.0ZM349.6 243.3L345.7 243.3L345.7 223.8L349.5 223.8L349.5 226.2L349.7 226.2Q349.9 225.6 350.4 225.0Q350.9 224.4 351.7 224.0Q352.5 223.6 353.7 223.6L353.7 223.6Q355.3 223.6 356.6 224.4Q357.9 225.3 358.7 226.9Q359.5 228.5 359.5 230.9L359.5 230.9Q359.5 233.3 358.7 234.9Q357.9 236.6 356.6 237.4Q355.3 238.2 353.7 238.2L353.7 238.2Q352.5 238.2 351.7 237.8Q350.9 237.5 350.4 236.9Q349.9 236.3 349.7 235.7L349.7 235.7L349.6 235.7L349.6 243.3ZM352.5 235.2L352.5 235.2Q353.5 235.2 354.2 234.6Q354.9 234.1 355.2 233.1Q355.6 232.2 355.6 230.9L355.6 230.9Q355.6 229.7 355.2 228.7Q354.9 227.8 354.2 227.2Q353.5 226.7 352.5 226.7L352.5 226.7Q351.5 226.7 350.9 227.2Q350.2 227.7 349.8 228.7Q349.5 229.6 349.5 230.9L349.5 230.9Q349.5 232.2 349.8 233.2Q350.2 234.1 350.9 234.6Q351.6 235.2 352.5 235.2ZM365.9 243.3L362.1 243.3L362.1 223.8L365.9 223.8L365.9 226.2L366.1 226.2Q366.3 225.6 366.8 225.0Q367.3 224.4 368.1 224.0Q368.9 223.6 370.1 223.6L370.1 223.6Q371.7 223.6 373.0 224.4Q374.3 225.3 375.1 226.9Q375.9 228.5 375.9 230.9L375.9 230.9Q375.9 233.3 375.1 234.9Q374.3 236.6 373.0 237.4Q371.7 238.2 370.1 238.2L370.1 238.2Q368.9 238.2 368.1 237.8Q367.3 237.5 366.8 236.9Q366.3 236.3 366.1 235.7L366.1 235.7L365.9 235.7L365.9 243.3ZM368.9 235.2L368.9 235.2Q369.9 235.2 370.6 234.6Q371.3 234.1 371.6 233.1Q372.0 232.2 372.0 230.9L372.0 230.9Q372.0 229.7 371.6 228.7Q371.3 227.8 370.6 227.2Q369.9 226.7 368.9 226.7L368.9 226.7Q367.9 226.7 367.3 227.2Q366.6 227.7 366.2 228.7Q365.9 229.6 365.9 230.9L365.9 230.9Q365.9 232.2 366.2 233.2Q366.6 234.1 367.3 234.6Q368.0 235.2 368.9 235.2ZM378.5 219.1L382.3 219.1L382.3 238L378.5 238L378.5 219.1ZM392.0 238.3L392.0 238.3Q389.8 238.3 388.2 237.4Q386.7 236.5 385.8 234.9Q385.0 233.2 385.0 231.0L385.0 231.0Q385.0 228.8 385.8 227.1Q386.7 225.5 388.2 224.6Q389.7 223.6 391.8 223.6L391.8 223.6Q393.2 223.6 394.4 224.1Q395.6 224.5 396.5 225.4Q397.4 226.3 397.9 227.7Q398.5 229.0 398.5 230.8L398.5 230.8L398.5 231.9L388.7 231.9Q388.8 233.0 389.2 233.7L389.2 233.7Q389.6 234.6 390.3 235.0Q391.1 235.4 392.0 235.4L392.0 235.4Q392.7 235.4 393.3 235.2Q393.8 235.0 394.2 234.7Q394.6 234.3 394.8 233.7L394.8 233.7L398.2 234.4Q397.9 235.5 397.0 236.4Q396.2 237.3 394.9 237.8Q393.6 238.3 392.0 238.3ZM388.8 229.5L388.8 229.5L394.8 229.5Q394.7 228.8 394.5 228.2L394.5 228.2Q394.1 227.4 393.5 226.9Q392.8 226.5 391.8 226.5L391.8 226.5Q390.8 226.5 390.1 227.0Q389.5 227.4 389.1 228.2L389.1 228.2Q388.8 228.8 388.8 229.5Z M415.7 238L411.3 238L406.2 219.1L410.4 219.1L412.6 228.4Q412.9 229.6 413.1 230.9Q413.3 232.2 413.6 233.5L413.6 233.5Q413.6 233.8 413.7 234.1L413.7 234.1Q413.7 233.8 413.8 233.5L413.8 233.5Q414.0 232.2 414.2 230.9Q414.5 229.6 414.8 228.4L414.8 228.4L417.1 219.1L421.1 219.1L423.4 228.4Q423.7 229.6 423.9 230.9Q424.2 232.2 424.4 233.5L424.4 233.5Q424.4 233.8 424.5 234.1L424.5 234.1Q424.5 233.8 424.6 233.5L424.6 233.5Q424.8 232.2 425.0 230.9Q425.3 229.6 425.5 228.4L425.5 228.4L427.7 219.1L431.9 219.1L426.9 238L422.4 238L419.9 228.3Q419.5 226.7 419.2 224.8L419.2 224.8Q419.2 224.3 419.1 223.7L419.1 223.7Q419.0 224.3 418.9 224.8L418.9 224.8Q418.7 226.6 418.2 228.3L418.2 228.3L415.7 238ZM438.2 238.3L438.2 238.3Q436.8 238.3 435.7 237.8Q434.7 237.3 434.0 236.4Q433.4 235.4 433.4 234.0L433.4 234.0Q433.4 232.8 433.9 232.0Q434.3 231.2 435.1 230.8Q435.8 230.3 436.8 230.0Q437.7 229.8 438.8 229.7L438.8 229.7Q440.0 229.5 440.8 229.4Q441.5 229.3 441.9 229.1Q442.2 228.9 442.2 228.4L442.2 228.4L442.2 228.3Q442.2 227.7 442.0 227.3Q441.7 226.9 441.2 226.7Q440.7 226.4 440.0 226.4L440.0 226.4Q439.3 226.4 438.7 226.7Q438.2 226.9 437.8 227.3Q437.5 227.6 437.3 228.1L437.3 228.1L433.8 227.5Q434.2 226.3 435.1 225.4Q435.9 224.5 437.2 224.1Q438.4 223.6 440.0 223.6L440.0 223.6Q441.2 223.6 442.2 223.9Q443.3 224.2 444.2 224.7Q445.0 225.3 445.5 226.2Q446.0 227.2 446.0 228.4L446.0 228.4L446.0 238L442.4 238L442.4 236.0L442.3 236.0Q442.0 236.7 441.4 237.2Q440.8 237.7 440.0 238.0Q439.2 238.3 438.2 238.3ZM439.2 235.6L439.2 235.6Q440.1 235.6 440.8 235.2Q441.5 234.9 441.9 234.3Q442.3 233.7 442.3 232.9L442.3 232.9L442.3 231.4Q442.1 231.5 441.7 231.6Q441.4 231.7 441.0 231.8Q440.6 231.9 440.2 231.9Q439.8 232.0 439.4 232.0L439.4 232.0Q438.7 232.1 438.2 232.4Q437.7 232.6 437.4 233.0Q437.1 233.3 437.1 233.9L437.1 233.9Q437.1 234.5 437.4 234.8Q437.6 235.2 438.1 235.4Q438.6 235.6 439.2 235.6ZM457.6 238L453.3 238L448.1 223.8L452.1 223.8L454.5 231.2Q454.9 232.6 455.3 234.0L455.3 234.0Q455.4 234.5 455.5 235.1L455.5 235.1Q455.6 234.5 455.8 234.0L455.8 234.0Q456.1 232.6 456.5 231.2L456.5 231.2L458.9 223.8L462.9 223.8L457.6 238ZM471.3 238.3L471.3 238.3Q469.1 238.3 467.5 237.4Q466.0 236.5 465.1 234.9Q464.3 233.2 464.3 231.0L464.3 231.0Q464.3 228.8 465.1 227.1Q466.0 225.5 467.5 224.6Q469.0 223.6 471.1 223.6L471.1 223.6Q472.5 223.6 473.7 224.1Q474.9 224.5 475.8 225.4Q476.7 226.3 477.3 227.7Q477.8 229.0 477.8 230.8L477.8 230.8L477.8 231.9L468.1 231.9Q468.1 233.0 468.5 233.7L468.5 233.7Q468.9 234.6 469.6 235.0Q470.4 235.4 471.4 235.4L471.4 235.4Q472.0 235.4 472.6 235.2Q473.1 235.0 473.5 234.7Q473.9 234.3 474.1 233.7L474.1 233.7L477.5 234.4Q477.2 235.5 476.4 236.4Q475.5 237.3 474.2 237.8Q473.0 238.3 471.3 238.3ZM468.1 229.5L468.1 229.5L474.1 229.5Q474.0 228.8 473.8 228.2L473.8 228.2Q473.4 227.4 472.8 226.9Q472.1 226.5 471.1 226.5L471.1 226.5Q470.1 226.5 469.5 227.0Q468.8 227.4 468.4 228.2L468.4 228.2Q468.1 228.8 468.1 229.5ZM485.3 223.8L488.3 223.8L488.3 226.7L485.3 226.7L485.3 238L481.5 238L481.5 226.7L479.0 226.7L479.0 223.8L481.5 223.8L481.5 222.7Q481.5 221.2 482.1 220.2Q482.7 219.2 483.7 218.7Q484.8 218.2 486.1 218.2L486.1 218.2Q487.0 218.2 487.7 218.3Q488.5 218.5 488.8 218.6L488.8 218.6L488.1 221.5Q487.9 221.4 487.6 221.3Q487.3 221.3 486.9 221.3L486.9 221.3Q486.0 221.3 485.7 221.7Q485.3 222.1 485.3 222.8L485.3 222.8L485.3 223.8ZM494.5 238L490.7 238L490.7 223.8L494.4 223.8L494.4 226.3L494.5 226.3Q494.9 225.0 495.9 224.3Q496.8 223.6 498.0 223.6L498.0 223.6Q498.3 223.6 498.6 223.6Q499.0 223.7 499.2 223.7L499.2 223.7L499.2 227.1Q499.0 227.1 498.5 227.0Q498.0 227.0 497.6 227.0L497.6 227.0Q496.7 227.0 496.0 227.3Q495.3 227.7 494.9 228.4Q494.5 229.0 494.5 229.9L494.5 229.9L494.5 238ZM507.6 238.3L507.6 238.3Q505.5 238.3 504.0 237.4Q502.4 236.4 501.5 234.8Q500.7 233.2 500.7 231.0L500.7 231.0Q500.7 228.8 501.5 227.1Q502.4 225.5 504.0 224.5Q505.5 223.6 507.6 223.6L507.6 223.6Q509.8 223.6 511.4 224.5Q512.9 225.5 513.7 227.1Q514.6 228.8 514.6 231.0L514.6 231.0Q514.6 233.2 513.7 234.8Q512.9 236.4 511.4 237.4Q509.8 238.3 507.6 238.3ZM507.6 235.3L507.6 235.3Q508.7 235.3 509.4 234.7Q510.0 234.2 510.4 233.2Q510.7 232.2 510.7 231.0L510.7 231.0Q510.7 229.7 510.4 228.7Q510.0 227.7 509.4 227.2Q508.7 226.6 507.6 226.6L507.6 226.6Q506.6 226.6 506.0 227.2Q505.3 227.7 504.9 228.7Q504.6 229.7 504.6 231.0L504.6 231.0Q504.6 232.2 504.9 233.2Q505.3 234.2 506.0 234.7Q506.6 235.3 507.6 235.3ZM521.1 229.8L521.1 229.8L521.1 238L517.2 238L517.2 223.8L520.8 223.8L520.9 226.7Q521.4 225.4 522.4 224.6L522.4 224.6Q523.5 223.6 525.3 223.6L525.3 223.6Q526.8 223.6 527.9 224.3Q529.0 224.9 529.6 226.1Q530.2 227.3 530.2 229.0L530.2 229.0L530.2 238L526.4 238L526.4 229.6Q526.4 228.3 525.7 227.6Q525.0 226.8 523.8 226.8L523.8 226.8Q523.0 226.8 522.4 227.2Q521.8 227.5 521.4 228.2Q521.1 228.8 521.1 229.8ZM537.8 223.8L540.5 223.8L540.5 226.7L537.8 226.7L537.8 233.8Q537.8 234.5 538.1 234.8Q538.4 235.2 539.1 235.2L539.1 235.2Q539.3 235.2 539.7 235.1Q540.1 235.1 540.3 235.0L540.3 235.0L540.9 237.9Q540.2 238.1 539.6 238.1Q539.0 238.2 538.4 238.2L538.4 238.2Q536.3 238.2 535.1 237.2Q534.0 236.1 534.0 234.2L534.0 234.2L534.0 226.7L532.1 226.7L532.1 223.8L534.0 223.8L534.0 220.4L537.8 220.4L537.8 223.8Z "/></g><mask id="satori_om-id-1-1"><rect x="234" y="248" width="393" height="15" fill="#fff" mask="url(#satori_om-id)"/></mask><g mask="url(#satori_om-id)" clip-path="url(#satori_cp-id)"><path fill="rgba(200,200,255,0.45)" d="M237.8 260.2L237.8 260.2Q236.9 260.2 236.2 259.8Q235.5 259.5 235.1 259.0Q234.7 258.4 234.7 257.7L234.7 257.7L235.8 257.7Q235.9 258.2 236.2 258.5Q236.4 258.8 236.9 259.0Q237.3 259.2 237.8 259.2L237.8 259.2Q238.4 259.2 238.9 259.0Q239.4 258.8 239.7 258.4Q239.9 258.1 239.9 257.6L239.9 257.6Q239.9 257.2 239.7 256.9Q239.5 256.7 239.1 256.5Q238.7 256.3 238.2 256.2L238.2 256.2L237.2 255.9Q236.1 255.6 235.5 255.0Q234.9 254.5 234.9 253.6L234.9 253.6Q234.9 252.9 235.3 252.3Q235.7 251.8 236.4 251.5Q237.1 251.2 237.9 251.2L237.9 251.2Q238.8 251.2 239.4 251.5Q240.1 251.8 240.5 252.3Q240.9 252.8 240.9 253.5L240.9 253.5L239.8 253.5Q239.7 252.8 239.2 252.5Q238.7 252.1 237.9 252.1L237.9 252.1Q237.3 252.1 236.9 252.3Q236.5 252.5 236.2 252.8Q236.0 253.1 236.0 253.6L236.0 253.6Q236.0 254.0 236.3 254.3Q236.6 254.6 237.0 254.7Q237.4 254.9 237.7 255.0L237.7 255.0L238.5 255.2Q238.9 255.3 239.3 255.5Q239.7 255.6 240.1 255.9Q240.5 256.2 240.8 256.6Q241.0 257.0 241.0 257.6L241.0 257.6Q241.0 258.3 240.6 258.9Q240.3 259.5 239.6 259.8Q238.9 260.2 237.8 260.2ZM243.9 253.4L245.2 253.4L245.2 254.4L243.9 254.4L243.9 258.3Q243.9 258.7 244.0 258.9Q244.2 259.1 244.6 259.1L244.6 259.1Q244.7 259.1 244.9 259.1Q245.0 259.1 245.2 259.1L245.2 259.1L245.4 260.0Q245.2 260.0 245.0 260.1Q244.8 260.1 244.6 260.1L244.6 260.1Q243.8 260.1 243.3 259.6Q242.8 259.2 242.8 258.4L242.8 258.4L242.8 254.4L241.8 254.4L241.8 253.4L242.8 253.4L242.8 251.9L243.9 251.9L243.9 253.4ZM248.4 260.2L248.4 260.2Q247.8 260.2 247.3 259.9Q246.8 259.7 246.5 259.2Q246.2 258.8 246.2 258.1L246.2 258.1Q246.2 257.6 246.4 257.2Q246.6 256.9 247.0 256.7Q247.3 256.5 247.8 256.4Q248.2 256.3 248.7 256.2L248.7 256.2Q249.3 256.1 249.7 256.1Q250.0 256.1 250.2 256.0Q250.4 255.9 250.4 255.6L250.4 255.6L250.4 255.6Q250.4 255.2 250.2 254.9Q250.1 254.6 249.8 254.4Q249.5 254.3 249.0 254.3L249.0 254.3Q248.5 254.3 248.2 254.4Q247.9 254.6 247.7 254.8Q247.5 255.0 247.4 255.3L247.4 255.3L246.3 254.9Q246.6 254.3 247.0 254.0Q247.4 253.6 248.0 253.5Q248.5 253.4 249.0 253.4L249.0 253.4Q249.3 253.4 249.7 253.4Q250.1 253.5 250.5 253.8Q250.9 254.0 251.2 254.5Q251.4 254.9 251.4 255.7L251.4 255.7L251.4 260L250.4 260L250.4 259.1L250.3 259.1Q250.2 259.3 250.0 259.6Q249.7 259.8 249.3 260.0Q248.9 260.2 248.4 260.2ZM248.6 259.2L248.6 259.2Q249.2 259.2 249.6 259.0Q250.0 258.8 250.2 258.4Q250.4 258.0 250.4 257.6L250.4 257.6L250.4 256.7Q250.3 256.8 250.1 256.9Q249.9 256.9 249.6 257.0Q249.3 257.0 249.1 257.0Q248.8 257.1 248.7 257.1L248.7 257.1Q248.3 257.1 247.9 257.3Q247.6 257.4 247.4 257.6Q247.2 257.8 247.2 258.2L247.2 258.2Q247.2 258.5 247.4 258.8Q247.6 259.0 247.9 259.1Q248.2 259.2 248.6 259.2ZM255.9 262.6L255.9 262.6Q255.2 262.6 254.7 262.4Q254.2 262.2 253.8 261.9Q253.5 261.6 253.2 261.3L253.2 261.3L254.1 260.7Q254.2 260.9 254.5 261.1Q254.7 261.3 255.0 261.5Q255.4 261.7 255.9 261.7L255.9 261.7Q256.7 261.7 257.2 261.3Q257.7 260.9 257.7 260.1L257.7 260.1L257.7 258.8L257.6 258.8Q257.5 259.0 257.3 259.2Q257.1 259.5 256.7 259.7Q256.4 259.9 255.7 259.9L255.7 259.9Q255.0 259.9 254.3 259.5Q253.7 259.2 253.3 258.4Q253.0 257.7 253.0 256.7L253.0 256.7Q253.0 255.7 253.3 254.9Q253.7 254.2 254.3 253.8Q254.9 253.4 255.8 253.4L255.8 253.4Q256.4 253.4 256.8 253.6Q257.2 253.8 257.4 254.1Q257.6 254.3 257.7 254.5L257.7 254.5L257.8 254.5L257.8 253.4L258.8 253.4L258.8 260.2Q258.8 261.0 258.4 261.5Q258.0 262.1 257.4 262.3Q256.7 262.6 255.9 262.6ZM255.9 259.0L255.9 259.0Q256.5 259.0 256.9 258.7Q257.3 258.4 257.5 257.9Q257.8 257.4 257.8 256.7L257.8 256.7Q257.8 256.0 257.5 255.4Q257.3 254.9 256.9 254.6Q256.5 254.3 255.9 254.3L255.9 254.3Q255.3 254.3 254.9 254.6Q254.5 254.9 254.3 255.5Q254.0 256.0 254.0 256.7L254.0 256.7Q254.0 257.3 254.3 257.9Q254.5 258.4 254.9 258.7Q255.3 259.0 255.9 259.0ZM263.3 262.6L263.3 262.6Q262.6 262.6 262.0 262.4Q261.5 262.2 261.2 261.9Q260.8 261.6 260.6 261.3L260.6 261.3L261.5 260.7Q261.6 260.9 261.8 261.1Q262.0 261.3 262.4 261.5Q262.7 261.7 263.3 261.7L263.3 261.7Q264.1 261.7 264.6 261.3Q265.1 260.9 265.1 260.1L265.1 260.1L265.1 258.8L265.0 258.8Q264.9 259.0 264.7 259.2Q264.5 259.5 264.1 259.7Q263.7 259.9 263.1 259.9L263.1 259.9Q262.3 259.9 261.7 259.5Q261.1 259.2 260.7 258.4Q260.3 257.7 260.3 256.7L260.3 256.7Q260.3 255.7 260.7 254.9Q261.0 254.2 261.7 253.8Q262.3 253.4 263.1 253.4L263.1 253.4Q263.8 253.4 264.1 253.6Q264.5 253.8 264.7 254.1Q264.9 254.3 265.0 254.5L265.0 254.5L265.1 254.5L265.1 253.4L266.2 253.4L266.2 260.2Q266.2 261.0 265.8 261.5Q265.4 262.1 264.7 262.3Q264.1 262.6 263.3 262.6ZM263.3 259.0L263.3 259.0Q263.9 259.0 264.3 258.7Q264.7 258.4 264.9 257.9Q265.1 257.4 265.1 256.7L265.1 256.7Q265.1 256.0 264.9 255.4Q264.7 254.9 264.3 254.6Q263.9 254.3 263.3 254.3L263.3 254.3Q262.7 254.3 262.2 254.6Q261.8 254.9 261.6 255.5Q261.4 256.0 261.4 256.7L261.4 256.7Q261.4 257.3 261.6 257.9Q261.8 258.4 262.2 258.7Q262.7 259.0 263.3 259.0ZM270.8 260.1L270.8 260.1Q269.8 260.1 269.1 259.7Q268.4 259.3 268.1 258.5Q267.7 257.8 267.7 256.8Q267.7 255.8 268.1 255.0Q268.4 254.2 269.1 253.8Q269.7 253.4 270.6 253.4L270.6 253.4Q271.2 253.4 271.7 253.5Q272.2 253.7 272.6 254.1Q273 254.5 273.2 255.1Q273.5 255.7 273.5 256.6L273.5 256.6L273.5 257.1L268.8 257.1Q268.8 257.7 269.0 258.2L269.0 258.2Q269.3 258.7 269.7 258.9Q270.2 259.2 270.8 259.2L270.8 259.2Q271.2 259.2 271.5 259.1Q271.8 259.0 272.0 258.8Q272.2 258.5 272.4 258.2L272.4 258.2L273.4 258.5Q273.2 259.0 272.9 259.3Q272.5 259.7 272.0 259.9Q271.4 260.1 270.8 260.1ZM268.8 256.2L268.8 256.2L272.4 256.2Q272.4 255.7 272.2 255.4L272.2 255.4Q272.0 254.9 271.6 254.6Q271.2 254.3 270.6 254.3Q270.0 254.3 269.6 254.6Q269.2 254.9 269.0 255.3L269.0 255.3Q268.8 255.7 268.8 256.2ZM276.1 260L275.0 260L275.0 253.4L276.0 253.4L276.0 254.5L276.1 254.5Q276.3 254.0 276.7 253.7Q277.2 253.4 277.8 253.4L277.8 253.4Q277.9 253.4 278.1 253.4Q278.2 253.4 278.3 253.4L278.3 253.4L278.3 254.4Q278.3 254.4 278.1 254.4Q277.9 254.4 277.7 254.4L277.7 254.4Q277.2 254.4 276.9 254.6Q276.5 254.8 276.3 255.1Q276.1 255.5 276.1 255.9L276.1 255.9L276.1 260ZM282.3 260.1L282.3 260.1Q281.3 260.1 280.6 259.7Q279.9 259.3 279.6 258.5Q279.2 257.8 279.2 256.8Q279.2 255.8 279.6 255.0Q279.9 254.2 280.6 253.8Q281.3 253.4 282.2 253.4L282.2 253.4Q282.7 253.4 283.2 253.5Q283.7 253.7 284.1 254.1Q284.5 254.5 284.8 255.1Q285.0 255.7 285.0 256.6L285.0 256.6L285.0 257.1L280.3 257.1Q280.3 257.7 280.5 258.2L280.5 258.2Q280.8 258.7 281.2 258.9Q281.7 259.2 282.3 259.2L282.3 259.2Q282.7 259.2 283.0 259.1Q283.3 259.0 283.5 258.8Q283.8 258.5 283.9 258.2L283.9 258.2L284.9 258.5Q284.7 259.0 284.4 259.3Q284.0 259.7 283.5 259.9Q282.9 260.1 282.3 260.1ZM280.3 256.2L280.3 256.2L283.9 256.2Q283.9 255.7 283.7 255.4L283.7 255.4Q283.5 254.9 283.1 254.6Q282.7 254.3 282.2 254.3Q281.6 254.3 281.1 254.6Q280.7 254.9 280.5 255.3L280.5 255.3Q280.3 255.7 280.3 256.2ZM289.0 260.1L289.0 260.1Q288.2 260.1 287.5 259.7Q286.9 259.3 286.6 258.5Q286.2 257.8 286.2 256.7L286.2 256.7Q286.2 255.7 286.6 254.9Q286.9 254.2 287.5 253.8Q288.2 253.4 289.0 253.4L289.0 253.4Q289.6 253.4 290.0 253.6Q290.4 253.8 290.6 254.1Q290.8 254.3 290.9 254.5L290.9 254.5L291.0 254.5L291.0 251.3L292.0 251.3L292.0 260L291.0 260L291.0 259.0L290.9 259.0Q290.8 259.2 290.6 259.4Q290.4 259.7 290.0 259.9Q289.6 260.1 289.0 260.1ZM289.1 259.2L289.1 259.2Q289.7 259.2 290.1 258.9Q290.5 258.6 290.8 258.0Q291.0 257.5 291.0 256.7L291.0 256.7Q291.0 256.0 290.8 255.5Q290.6 254.9 290.1 254.6Q289.7 254.3 289.1 254.3L289.1 254.3Q288.5 254.3 288.1 254.6Q287.7 255.0 287.5 255.5Q287.3 256.1 287.3 256.7L287.3 256.7Q287.3 257.4 287.5 258.0Q287.7 258.5 288.1 258.9Q288.5 259.2 289.1 259.2Z M300.2 260.2L300.2 260.2Q299.2 260.2 298.5 259.8Q297.8 259.5 297.4 259.0Q297.0 258.4 297.0 257.7L297.0 257.7L298.1 257.7Q298.2 258.2 298.5 258.5Q298.8 258.8 299.2 259.0Q299.7 259.2 300.2 259.2L300.2 259.2Q300.8 259.2 301.2 259.0Q301.7 258.8 302.0 258.4Q302.3 258.1 302.3 257.6L302.3 257.6Q302.3 257.2 302.0 256.9Q301.8 256.7 301.4 256.5Q301.0 256.3 300.5 256.2L300.5 256.2L299.5 255.9Q298.4 255.6 297.8 255.0Q297.2 254.5 297.2 253.6L297.2 253.6Q297.2 252.9 297.6 252.3Q298.0 251.8 298.7 251.5Q299.4 251.2 300.2 251.2L300.2 251.2Q301.1 251.2 301.8 251.5Q302.4 251.8 302.8 252.3Q303.2 252.8 303.2 253.5L303.2 253.5L302.1 253.5Q302.1 252.8 301.5 252.5Q301.0 252.1 300.2 252.1L300.2 252.1Q299.6 252.1 299.2 252.3Q298.8 252.5 298.6 252.8Q298.3 253.1 298.3 253.6L298.3 253.6Q298.3 254.0 298.6 254.3Q298.9 254.6 299.3 254.7Q299.7 254.9 300.0 255.0L300.0 255.0L300.9 255.2Q301.2 255.3 301.6 255.5Q302.1 255.6 302.4 255.9Q302.8 256.2 303.1 256.6Q303.3 257.0 303.3 257.6L303.3 257.6Q303.3 258.3 303.0 258.9Q302.6 259.5 301.9 259.8Q301.2 260.2 300.2 260.2ZM306.1 260L305.1 260L305.1 251.3L306.7 251.3L308.8 256.8Q308.9 257.0 309.0 257.3Q309.1 257.6 309.2 257.9Q309.3 258.2 309.4 258.6L309.4 258.6Q309.4 258.7 309.4 258.8L309.4 258.8Q309.5 258.7 309.5 258.6L309.5 258.6Q309.6 258.3 309.7 257.9Q309.8 257.6 309.9 257.3Q310.0 257.0 310.1 256.8L310.1 256.8L312.2 251.3L313.8 251.3L313.8 260L312.7 260L312.7 255.0Q312.7 254.7 312.7 254.4Q312.7 254.1 312.7 253.7Q312.7 253.3 312.7 252.9L312.7 252.9Q312.7 252.7 312.7 252.5L312.7 252.5Q312.7 252.7 312.6 253.0L312.6 253.0Q312.4 253.4 312.3 253.8Q312.2 254.2 312.1 254.5Q311.9 254.8 311.9 255.0L311.9 255.0L309.9 260L308.9 260L307.0 255.0Q306.9 254.8 306.8 254.5Q306.7 254.2 306.5 253.8Q306.4 253.4 306.3 253.0L306.3 253.0Q306.2 252.7 306.1 252.5L306.1 252.5Q306.1 252.7 306.1 252.8L306.1 252.8Q306.1 253.2 306.1 253.6Q306.1 254.0 306.1 254.4Q306.1 254.7 306.1 255.0L306.1 255.0L306.1 260ZM315.9 251.3L317.0 251.3L317.0 260L315.9 260L315.9 251.3ZM324.3 260L319.1 260L319.1 251.3L320.2 251.3L320.2 259.0L324.3 259.0L324.3 260Z M330.2 260L329.2 260L329.2 253.4L330.2 253.4L330.2 254.5L330.3 254.5Q330.4 254.0 330.9 253.7Q331.4 253.4 332.0 253.4L332.0 253.4Q332.1 253.4 332.2 253.4Q332.4 253.4 332.5 253.4L332.5 253.4L332.5 254.4Q332.4 254.4 332.3 254.4Q332.1 254.4 331.9 254.4L331.9 254.4Q331.4 254.4 331.0 254.6Q330.6 254.8 330.4 255.1Q330.2 255.5 330.2 255.9L330.2 255.9L330.2 260ZM335.5 260.2L335.5 260.2Q334.9 260.2 334.4 259.9Q333.9 259.7 333.6 259.2Q333.3 258.8 333.3 258.1L333.3 258.1Q333.3 257.6 333.5 257.2Q333.7 256.9 334.1 256.7Q334.5 256.5 334.9 256.4Q335.4 256.3 335.8 256.2L335.8 256.2Q336.4 256.1 336.8 256.1Q337.2 256.1 337.3 256.0Q337.5 255.9 337.5 255.6L337.5 255.6L337.5 255.6Q337.5 255.2 337.4 254.9Q337.2 254.6 336.9 254.4Q336.6 254.3 336.1 254.3L336.1 254.3Q335.7 254.3 335.3 254.4Q335.0 254.6 334.8 254.8Q334.6 255.0 334.5 255.3L334.5 255.3L333.5 254.9Q333.7 254.3 334.1 254.0Q334.6 253.6 335.1 253.5Q335.6 253.4 336.1 253.4L336.1 253.4Q336.4 253.4 336.9 253.4Q337.3 253.5 337.7 253.8Q338.1 254.0 338.3 254.5Q338.6 254.9 338.6 255.7L338.6 255.7L338.6 260L337.5 260L337.5 259.1L337.5 259.1Q337.3 259.3 337.1 259.6Q336.9 259.8 336.5 260.0Q336.1 260.2 335.5 260.2ZM335.7 259.2L335.7 259.2Q336.3 259.2 336.7 259.0Q337.1 258.8 337.3 258.4Q337.5 258.0 337.5 257.6L337.5 257.6L337.5 256.7Q337.4 256.8 337.2 256.9Q337.0 256.9 336.7 257.0Q336.5 257.0 336.2 257.0Q335.9 257.1 335.8 257.1L335.8 257.1Q335.4 257.1 335.1 257.3Q334.7 257.4 334.5 257.6Q334.3 257.8 334.3 258.2L334.3 258.2Q334.3 258.5 334.5 258.8Q334.7 259.0 335.0 259.1Q335.3 259.2 335.7 259.2ZM342.9 260.1L342.9 260.1Q342.1 260.1 341.4 259.7Q340.8 259.3 340.5 258.5Q340.1 257.8 340.1 256.7L340.1 256.7Q340.1 255.7 340.5 254.9Q340.8 254.2 341.4 253.8Q342.1 253.4 342.9 253.4L342.9 253.4Q343.5 253.4 343.9 253.6Q344.3 253.8 344.5 254.1Q344.7 254.3 344.8 254.5L344.8 254.5L344.9 254.5L344.9 251.3L345.9 251.3L345.9 260L344.9 260L344.9 259.0L344.8 259.0Q344.7 259.2 344.5 259.4Q344.3 259.7 343.9 259.9Q343.5 260.1 342.9 260.1ZM343.0 259.2L343.0 259.2Q343.6 259.2 344.0 258.9Q344.4 258.6 344.7 258.0Q344.9 257.5 344.9 256.7L344.9 256.7Q344.9 256.0 344.7 255.5Q344.5 254.9 344.0 254.6Q343.6 254.3 343.0 254.3L343.0 254.3Q342.4 254.3 342.0 254.6Q341.6 255.0 341.4 255.5Q341.2 256.1 341.2 256.7L341.2 256.7Q341.2 257.4 341.4 258.0Q341.6 258.5 342.0 258.9Q342.4 259.2 343.0 259.2ZM348.8 260L347.8 260L347.8 253.4L348.8 253.4L348.8 260ZM348.3 252.4L348.3 252.4Q348 252.4 347.8 252.2Q347.6 252.0 347.6 251.7L347.6 251.7Q347.6 251.4 347.8 251.2Q348 251.0 348.3 251.0L348.3 251.0Q348.6 251.0 348.8 251.2Q349.0 251.4 349.0 251.7L349.0 251.7Q349.0 252.0 348.8 252.2Q348.6 252.4 348.3 252.4ZM352.9 260.1L352.9 260.1Q352.2 260.1 351.7 259.8Q351.2 259.5 351.0 259.0Q350.7 258.4 350.7 257.6L350.7 257.6L350.7 253.4L351.7 253.4L351.7 257.5Q351.7 258.3 352.1 258.7Q352.5 259.1 353.2 259.1L353.2 259.1Q353.7 259.1 354.0 258.9Q354.4 258.7 354.6 258.3Q354.9 257.9 354.9 257.4L354.9 257.4L354.9 253.4L355.9 253.4L355.9 260L354.9 260L354.9 258.8Q354.6 259.4 354.2 259.7L354.2 259.7Q353.6 260.1 352.9 260.1ZM360.0 260.1L360.0 260.1Q359.3 260.1 358.8 259.9Q358.3 259.7 357.9 259.4Q357.6 259.0 357.5 258.4L357.5 258.4L358.5 258.2Q358.6 258.7 359.0 259.0Q359.4 259.2 360.0 259.2L360.0 259.2Q360.7 259.2 361.1 258.9Q361.5 258.6 361.5 258.2L361.5 258.2Q361.5 257.9 361.2 257.7Q361.0 257.4 360.5 257.3L360.5 257.3L359.4 257.1Q358.5 256.9 358.1 256.4Q357.7 256.0 357.7 255.3L357.7 255.3Q357.7 254.7 358.0 254.3Q358.3 253.9 358.9 253.6Q359.4 253.4 360.1 253.4L360.1 253.4Q360.8 253.4 361.2 253.6Q361.7 253.8 362.0 254.1Q362.3 254.5 362.5 254.9L362.5 254.9L361.5 255.2Q361.4 254.8 361.1 254.6Q360.7 254.3 360.1 254.3L360.1 254.3Q359.5 254.3 359.1 254.5Q358.7 254.8 358.7 255.2L358.7 255.2Q358.7 255.6 359.0 255.8Q359.3 256.0 359.8 256.2L359.8 256.2L360.8 256.4Q361.7 256.6 362.2 257.0Q362.6 257.5 362.6 258.2L362.6 258.2Q362.6 258.7 362.3 259.2Q361.9 259.6 361.3 259.9Q360.8 260.1 360.0 260.1Z M370.1 260.1L370.1 260.1Q369.3 260.1 368.6 259.7Q367.9 259.3 367.5 258.5Q367.2 257.8 367.2 256.8L367.2 256.8Q367.2 255.7 367.5 255.0Q367.9 254.2 368.6 253.8Q369.3 253.4 370.1 253.4L370.1 253.4Q370.6 253.4 371.0 253.5Q371.5 253.6 371.8 253.8Q372.2 254.1 372.4 254.4Q372.7 254.8 372.8 255.2L372.8 255.2L371.8 255.5Q371.7 255.2 371.6 255.0Q371.4 254.8 371.2 254.6Q371.0 254.5 370.7 254.4Q370.5 254.3 370.1 254.3L370.1 254.3Q369.5 254.3 369.1 254.7Q368.6 255.0 368.4 255.6Q368.2 256.1 368.2 256.8L368.2 256.8Q368.2 257.4 368.4 258.0Q368.6 258.5 369.1 258.9Q369.5 259.2 370.1 259.2L370.1 259.2Q370.5 259.2 370.7 259.1Q371.0 259.0 371.2 258.9Q371.4 258.7 371.6 258.5Q371.7 258.3 371.8 258.0L371.8 258.0L372.8 258.3Q372.7 258.7 372.4 259.1Q372.2 259.4 371.8 259.6Q371.5 259.9 371.1 260.0Q370.6 260.1 370.1 260.1ZM376.2 260.2L376.2 260.2Q375.5 260.2 375.0 259.9Q374.5 259.7 374.2 259.2Q373.9 258.8 373.9 258.1L373.9 258.1Q373.9 257.6 374.2 257.2Q374.4 256.9 374.8 256.7Q375.1 256.5 375.6 256.4Q376.0 256.3 376.5 256.2L376.5 256.2Q377.1 256.1 377.4 256.1Q377.8 256.1 378.0 256.0Q378.2 255.9 378.2 255.6L378.2 255.6L378.2 255.6Q378.2 255.2 378.0 254.9Q377.9 254.6 377.6 254.4Q377.3 254.3 376.8 254.3L376.8 254.3Q376.3 254.3 376.0 254.4Q375.7 254.6 375.4 254.8Q375.2 255.0 375.1 255.3L375.1 255.3L374.1 254.9Q374.4 254.3 374.8 254.0Q375.2 253.6 375.7 253.5Q376.3 253.4 376.8 253.4L376.8 253.4Q377.1 253.4 377.5 253.4Q377.9 253.5 378.3 253.8Q378.7 254.0 379.0 254.5Q379.2 254.9 379.2 255.7L379.2 255.7L379.2 260L378.2 260L378.2 259.1L378.1 259.1Q378 259.3 377.8 259.6Q377.5 259.8 377.1 260.0Q376.7 260.2 376.2 260.2ZM376.3 259.2L376.3 259.2Q376.9 259.2 377.3 259.0Q377.7 258.8 378.0 258.4Q378.2 258.0 378.2 257.6L378.2 257.6L378.2 256.7Q378.1 256.8 377.9 256.9Q377.7 256.9 377.4 257.0Q377.1 257.0 376.8 257.0Q376.6 257.1 376.4 257.1L376.4 257.1Q376.1 257.1 375.7 257.3Q375.4 257.4 375.2 257.6Q375.0 257.8 375.0 258.2L375.0 258.2Q375.0 258.5 375.2 258.8Q375.3 259.0 375.7 259.1Q376.0 259.2 376.3 259.2ZM383.3 260.1L383.3 260.1Q382.6 260.1 382.1 259.9Q381.6 259.7 381.2 259.4Q380.9 259.0 380.8 258.4L380.8 258.4L381.8 258.2Q381.9 258.7 382.3 259.0Q382.7 259.2 383.3 259.2L383.3 259.2Q384.0 259.2 384.4 258.9Q384.8 258.6 384.8 258.2L384.8 258.2Q384.8 257.9 384.5 257.7Q384.3 257.4 383.8 257.3L383.8 257.3L382.7 257.1Q381.8 256.9 381.4 256.4Q381.0 256.0 381.0 255.3L381.0 255.3Q381.0 254.7 381.3 254.3Q381.6 253.9 382.2 253.6Q382.7 253.4 383.4 253.4L383.4 253.4Q384.1 253.4 384.5 253.6Q385.0 253.8 385.3 254.1Q385.6 254.5 385.8 254.9L385.8 254.9L384.8 255.2Q384.7 254.8 384.4 254.6Q384.0 254.3 383.4 254.3L383.4 254.3Q382.8 254.3 382.4 254.5Q382.0 254.8 382.0 255.2L382.0 255.2Q382.0 255.6 382.3 255.8Q382.6 256.0 383.1 256.2L383.1 256.2L384.1 256.4Q385.0 256.6 385.5 257.0Q385.9 257.5 385.9 258.2L385.9 258.2Q385.9 258.7 385.6 259.2Q385.2 259.6 384.6 259.9Q384.1 260.1 383.3 260.1ZM390.1 260.1L390.1 260.1Q389.2 260.1 388.5 259.7Q387.8 259.3 387.5 258.5Q387.1 257.8 387.1 256.8L387.1 256.8Q387.1 255.7 387.5 255.0Q387.8 254.2 388.5 253.8Q389.2 253.4 390.1 253.4L390.1 253.4Q390.5 253.4 391.0 253.5Q391.4 253.6 391.7 253.8Q392.1 254.1 392.3 254.4Q392.6 254.8 392.7 255.2L392.7 255.2L391.7 255.5Q391.6 255.2 391.5 255.0Q391.3 254.8 391.1 254.6Q390.9 254.5 390.7 254.4Q390.4 254.3 390.1 254.3L390.1 254.3Q389.4 254.3 389.0 254.7Q388.6 255.0 388.4 255.6Q388.2 256.1 388.2 256.8L388.2 256.8Q388.2 257.4 388.4 258.0Q388.6 258.5 389.0 258.9Q389.4 259.2 390.1 259.2L390.1 259.2Q390.4 259.2 390.7 259.1Q390.9 259.0 391.2 258.9Q391.4 258.7 391.5 258.5Q391.7 258.3 391.7 258.0L391.7 258.0L392.7 258.3Q392.6 258.7 392.4 259.1Q392.1 259.4 391.8 259.6Q391.4 259.9 391.0 260.0Q390.6 260.1 390.1 260.1ZM396.1 260.2L396.1 260.2Q395.5 260.2 395.0 259.9Q394.5 259.7 394.2 259.2Q393.9 258.8 393.9 258.1L393.9 258.1Q393.9 257.6 394.1 257.2Q394.3 256.9 394.7 256.7Q395.1 256.5 395.5 256.4Q396.0 256.3 396.4 256.2L396.4 256.2Q397.0 256.1 397.4 256.1Q397.7 256.1 397.9 256.0Q398.1 255.9 398.1 255.6L398.1 255.6L398.1 255.6Q398.1 255.2 397.9 254.9Q397.8 254.6 397.5 254.4Q397.2 254.3 396.7 254.3L396.7 254.3Q396.3 254.3 395.9 254.4Q395.6 254.6 395.4 254.8Q395.2 255.0 395.1 255.3L395.1 255.3L394.0 254.9Q394.3 254.3 394.7 254.0Q395.2 253.6 395.7 253.5Q396.2 253.4 396.7 253.4L396.7 253.4Q397.0 253.4 397.4 253.4Q397.9 253.5 398.2 253.8Q398.6 254.0 398.9 254.5Q399.1 254.9 399.1 255.7L399.1 255.7L399.1 260L398.1 260L398.1 259.1L398.0 259.1Q397.9 259.3 397.7 259.6Q397.4 259.8 397.0 260.0Q396.7 260.2 396.1 260.2ZM396.3 259.2L396.3 259.2Q396.9 259.2 397.3 259.0Q397.7 258.8 397.9 258.4Q398.1 258.0 398.1 257.6L398.1 257.6L398.1 256.7Q398.0 256.8 397.8 256.9Q397.6 256.9 397.3 257.0Q397.0 257.0 396.8 257.0Q396.5 257.1 396.4 257.1L396.4 257.1Q396.0 257.1 395.7 257.3Q395.3 257.4 395.1 257.6Q394.9 257.8 394.9 258.2L394.9 258.2Q394.9 258.5 395.1 258.8Q395.3 259.0 395.6 259.1Q395.9 259.2 396.3 259.2ZM403.5 260.1L403.5 260.1Q402.6 260.1 402.0 259.7Q401.4 259.3 401.0 258.5Q400.7 257.8 400.7 256.7L400.7 256.7Q400.7 255.7 401.0 254.9Q401.4 254.2 402.0 253.8Q402.6 253.4 403.5 253.4L403.5 253.4Q404.1 253.4 404.5 253.6Q404.8 253.8 405.0 254.1Q405.3 254.3 405.4 254.5L405.4 254.5L405.4 254.5L405.4 251.3L406.5 251.3L406.5 260L405.5 260L405.5 259.0L405.4 259.0Q405.3 259.2 405.0 259.4Q404.8 259.7 404.5 259.9Q404.1 260.1 403.5 260.1ZM403.6 259.2L403.6 259.2Q404.2 259.2 404.6 258.9Q405.0 258.6 405.2 258.0Q405.5 257.5 405.5 256.7L405.5 256.7Q405.5 256.0 405.2 255.5Q405.0 254.9 404.6 254.6Q404.2 254.3 403.6 254.3L403.6 254.3Q403.0 254.3 402.6 254.6Q402.2 255.0 402.0 255.5Q401.8 256.1 401.8 256.7L401.8 256.7Q401.8 257.4 402.0 258.0Q402.2 258.5 402.6 258.9Q403.0 259.2 403.6 259.2ZM411.1 260.1L411.1 260.1Q410.2 260.1 409.5 259.7Q408.8 259.3 408.4 258.5Q408.0 257.8 408.0 256.8Q408.0 255.8 408.4 255.0Q408.8 254.2 409.4 253.8Q410.1 253.4 411.0 253.4L411.0 253.4Q411.5 253.4 412.0 253.5Q412.5 253.7 412.9 254.1Q413.3 254.5 413.6 255.1Q413.8 255.7 413.8 256.6L413.8 256.6L413.8 257.1L409.1 257.1Q409.1 257.7 409.3 258.2L409.3 258.2Q409.6 258.7 410.1 258.9Q410.5 259.2 411.1 259.2L411.1 259.2Q411.5 259.2 411.8 259.1Q412.1 259.0 412.4 258.8Q412.6 258.5 412.7 258.2L412.7 258.2L413.7 258.5Q413.6 259.0 413.2 259.3Q412.8 259.7 412.3 259.9Q411.8 260.1 411.1 260.1ZM409.1 256.2L409.1 256.2L412.8 256.2Q412.7 255.7 412.6 255.4L412.6 255.4Q412.4 254.9 412.0 254.6Q411.6 254.3 411.0 254.3Q410.4 254.3 410.0 254.6Q409.5 254.9 409.3 255.3L409.3 255.3Q409.1 255.7 409.1 256.2Z M422.3 259.4L421.3 259.4L421.3 257.0L418.9 257.0L418.9 256.1L421.3 256.1L421.3 253.8L422.3 253.8L422.3 256.1L424.6 256.1L424.6 257.0L422.3 257.0L422.3 259.4Z M431.1 260L430.0 260L430.0 253.4L431.1 253.4L431.1 254.7Q431.2 254.3 431.4 254.0L431.4 254.0Q431.7 253.7 432.1 253.5Q432.5 253.3 432.9 253.3L432.9 253.3Q433.6 253.3 434.1 253.8L434.1 253.8Q434.4 254.1 434.6 254.7L434.6 254.7Q434.7 254.3 434.9 254.1L434.9 254.1Q435.2 253.7 435.7 253.5Q436.1 253.3 436.6 253.3L436.6 253.3Q437.2 253.3 437.7 253.6Q438.1 253.8 438.4 254.3Q438.7 254.8 438.7 255.6L438.7 255.6L438.7 260L437.6 260L437.6 255.6Q437.6 254.9 437.2 254.6Q436.8 254.3 436.3 254.3L436.3 254.3Q435.9 254.3 435.6 254.5Q435.2 254.7 435.1 255.0Q434.9 255.3 434.9 255.7L434.9 255.7L434.9 260L433.8 260L433.8 255.5Q433.8 255.0 433.5 254.6Q433.1 254.3 432.6 254.3L432.6 254.3Q432.2 254.3 431.8 254.5Q431.5 254.7 431.3 255.0Q431.1 255.4 431.1 255.9L431.1 255.9L431.1 260ZM443.2 260.1L443.2 260.1Q442.3 260.1 441.6 259.7Q441.0 259.3 440.6 258.5Q440.2 257.8 440.2 256.8L440.2 256.8Q440.2 255.7 440.6 255.0Q441.0 254.2 441.6 253.8Q442.3 253.4 443.2 253.4L443.2 253.4Q444.1 253.4 444.8 253.8Q445.5 254.2 445.8 255.0Q446.2 255.7 446.2 256.8L446.2 256.8Q446.2 257.8 445.8 258.5Q445.5 259.3 444.8 259.7Q444.1 260.1 443.2 260.1ZM443.2 259.2L443.2 259.2Q443.9 259.2 444.3 258.9Q444.7 258.5 444.9 258.0Q445.1 257.4 445.1 256.8L445.1 256.8Q445.1 256.1 444.9 255.6Q444.7 255.0 444.3 254.7Q443.9 254.3 443.2 254.3L443.2 254.3Q442.6 254.3 442.1 254.7Q441.7 255.0 441.5 255.6Q441.3 256.1 441.3 256.8L441.3 256.8Q441.3 257.4 441.5 258.0Q441.7 258.5 442.1 258.9Q442.6 259.2 443.2 259.2ZM448.8 260L447.7 260L447.7 253.4L448.8 253.4L448.8 254.5L448.8 254.5Q449.0 254.0 449.5 253.7Q449.9 253.4 450.5 253.4L450.5 253.4Q450.6 253.4 450.8 253.4Q451.0 253.4 451.1 253.4L451.1 253.4L451.1 254.4Q451.0 254.4 450.8 254.4Q450.6 254.4 450.4 254.4L450.4 254.4Q450.0 254.4 449.6 254.6Q449.2 254.8 449.0 255.1Q448.8 255.5 448.8 255.9L448.8 255.9L448.8 260ZM453.3 262.4L452.3 262.4L452.3 253.4L453.3 253.4L453.3 254.5L453.4 254.5Q453.5 254.3 453.7 254.1Q453.9 253.8 454.3 253.6Q454.7 253.4 455.3 253.4L455.3 253.4Q456.1 253.4 456.7 253.8Q457.4 254.2 457.7 254.9Q458.1 255.7 458.1 256.7L458.1 256.7Q458.1 257.8 457.7 258.5Q457.4 259.3 456.7 259.7Q456.1 260.1 455.3 260.1L455.3 260.1Q454.7 260.1 454.3 259.9Q453.9 259.7 453.7 259.4Q453.5 259.2 453.4 259.0L453.4 259.0L453.3 259.0L453.3 262.4ZM455.1 259.2L455.1 259.2Q455.8 259.2 456.2 258.9Q456.6 258.5 456.8 258.0Q457.0 257.4 457.0 256.7L457.0 256.7Q457.0 256.1 456.8 255.5Q456.6 255.0 456.2 254.6Q455.8 254.3 455.1 254.3L455.1 254.3Q454.5 254.3 454.1 254.6Q453.7 254.9 453.5 255.5Q453.3 256.0 453.3 256.7L453.3 256.7Q453.3 257.5 453.5 258.0Q453.7 258.6 454.1 258.9Q454.5 259.2 455.1 259.2ZM460.7 256.1L460.7 256.1L460.7 260L459.6 260L459.6 251.3L460.7 251.3L460.7 254.6Q460.9 254.0 461.3 253.7L461.3 253.7Q461.9 253.4 462.6 253.4L462.6 253.4Q463.3 253.4 463.8 253.6Q464.3 253.9 464.6 254.5Q464.8 255.0 464.8 255.8L464.8 255.8L464.8 260L463.8 260L463.8 255.9Q463.8 255.2 463.4 254.7Q463.0 254.3 462.3 254.3L462.3 254.3Q461.8 254.3 461.5 254.5Q461.1 254.7 460.9 255.1Q460.7 255.5 460.7 256.1ZM467.8 260L466.7 260L466.7 253.4L467.8 253.4L467.8 260ZM467.2 252.4L467.2 252.4Q466.9 252.4 466.7 252.2Q466.5 252.0 466.5 251.7L466.5 251.7Q466.5 251.4 466.7 251.2Q466.9 251.0 467.2 251.0L467.2 251.0Q467.5 251.0 467.8 251.2Q468.0 251.4 468.0 251.7L468.0 251.7Q468.0 252.0 467.8 252.2Q467.5 252.4 467.2 252.4ZM470.7 256.1L470.7 256.1L470.7 260L469.6 260L469.6 253.4L470.6 253.4L470.6 254.7Q470.9 254.0 471.3 253.7L471.3 253.7Q471.9 253.4 472.6 253.4L472.6 253.4Q473.3 253.4 473.8 253.6Q474.3 253.9 474.6 254.5Q474.8 255.0 474.8 255.8L474.8 255.8L474.8 260L473.8 260L473.8 255.9Q473.8 255.2 473.4 254.7Q473.0 254.3 472.3 254.3L472.3 254.3Q471.8 254.3 471.5 254.5Q471.1 254.7 470.9 255.1Q470.7 255.5 470.7 256.1ZM479.3 262.6L479.3 262.6Q478.6 262.6 478.1 262.4Q477.6 262.2 477.2 261.9Q476.9 261.6 476.7 261.3L476.7 261.3L477.5 260.7Q477.7 260.9 477.9 261.1Q478.1 261.3 478.4 261.5Q478.8 261.7 479.3 261.7L479.3 261.7Q480.1 261.7 480.6 261.3Q481.1 260.9 481.1 260.1L481.1 260.1L481.1 258.8L481.0 258.8Q480.9 259.0 480.7 259.2Q480.5 259.5 480.2 259.7Q479.8 259.9 479.1 259.9L479.1 259.9Q478.4 259.9 477.7 259.5Q477.1 259.2 476.7 258.4Q476.4 257.7 476.4 256.7L476.4 256.7Q476.4 255.7 476.7 254.9Q477.1 254.2 477.7 253.8Q478.4 253.4 479.2 253.4L479.2 253.4Q479.8 253.4 480.2 253.6Q480.6 253.8 480.8 254.1Q481.0 254.3 481.1 254.5L481.1 254.5L481.2 254.5L481.2 253.4L482.2 253.4L482.2 260.2Q482.2 261.0 481.8 261.5Q481.4 262.1 480.8 262.3Q480.1 262.6 479.3 262.6ZM479.3 259.0L479.3 259.0Q479.9 259.0 480.3 258.7Q480.7 258.4 480.9 257.9Q481.2 257.4 481.2 256.7L481.2 256.7Q481.2 256.0 481.0 255.4Q480.7 254.9 480.3 254.6Q479.9 254.3 479.3 254.3L479.3 254.3Q478.7 254.3 478.3 254.6Q477.9 254.9 477.7 255.5Q477.5 256.0 477.5 256.7L477.5 256.7Q477.5 257.3 477.7 257.9Q477.9 258.4 478.3 258.7Q478.7 259.0 479.3 259.0Z M489.9 260L488.9 260L486.9 253.4L488.0 253.4L488.8 256.3Q489.0 256.9 489.2 257.6L489.2 257.6Q489.3 258.2 489.5 258.9L489.5 258.9Q489.6 258.2 489.7 257.7L489.7 257.7Q489.9 256.9 490.1 256.3L490.1 256.3L490.9 253.4L492.0 253.4L492.8 256.3Q492.9 256.9 493.1 257.7L493.1 257.7Q493.2 258.2 493.4 258.9L493.4 258.9Q493.5 258.2 493.6 257.7L493.6 257.7Q493.8 256.9 494.0 256.3L494.0 256.3L494.8 253.4L495.9 253.4L493.9 260L492.9 260L492.0 257.0Q491.9 256.6 491.8 256.1Q491.7 255.6 491.5 255.2L491.5 255.2Q491.5 254.9 491.4 254.6L491.4 254.6Q491.4 254.9 491.3 255.1L491.3 255.1Q491.2 255.6 491.1 256.1Q490.9 256.6 490.8 257.0L490.8 257.0L489.9 260ZM499.1 260.2L499.1 260.2Q498.5 260.2 498.0 259.9Q497.4 259.7 497.2 259.2Q496.9 258.8 496.9 258.1L496.9 258.1Q496.9 257.6 497.1 257.2Q497.3 256.9 497.7 256.7Q498.0 256.5 498.5 256.4Q498.9 256.3 499.4 256.2L499.4 256.2Q500.0 256.1 500.4 256.1Q500.7 256.1 500.9 256.0Q501.1 255.9 501.1 255.6L501.1 255.6L501.1 255.6Q501.1 255.2 500.9 254.9Q500.8 254.6 500.5 254.4Q500.2 254.3 499.7 254.3L499.7 254.3Q499.2 254.3 498.9 254.4Q498.6 254.6 498.4 254.8Q498.2 255.0 498.1 255.3L498.1 255.3L497.0 254.9Q497.3 254.3 497.7 254.0Q498.1 253.6 498.7 253.5Q499.2 253.4 499.7 253.4L499.7 253.4Q500.0 253.4 500.4 253.4Q500.8 253.5 501.2 253.8Q501.6 254.0 501.9 254.5Q502.1 254.9 502.1 255.7L502.1 255.7L502.1 260L501.1 260L501.1 259.1L501.0 259.1Q500.9 259.3 500.7 259.6Q500.4 259.8 500.0 260.0Q499.6 260.2 499.1 260.2ZM499.3 259.2L499.3 259.2Q499.9 259.2 500.3 259.0Q500.7 258.8 500.9 258.4Q501.1 258.0 501.1 257.6L501.1 257.6L501.1 256.7Q501.0 256.8 500.8 256.9Q500.6 256.9 500.3 257.0Q500.0 257.0 499.8 257.0Q499.5 257.1 499.4 257.1L499.4 257.1Q499.0 257.1 498.6 257.3Q498.3 257.4 498.1 257.6Q497.9 257.8 497.9 258.2L497.9 258.2Q497.9 258.5 498.1 258.8Q498.3 259.0 498.6 259.1Q498.9 259.2 499.3 259.2ZM507.0 260L505.9 260L503.4 253.4L504.5 253.4L505.9 257.3Q506.2 257.9 506.3 258.5L506.3 258.5Q506.4 258.8 506.4 259.0L506.4 259.0Q506.5 258.8 506.6 258.5L506.6 258.5Q506.7 257.9 506.9 257.3L506.9 257.3L508.3 253.4L509.5 253.4L507.0 260ZM513.5 260.1L513.5 260.1Q512.5 260.1 511.8 259.7Q511.2 259.3 510.8 258.5Q510.4 257.8 510.4 256.8Q510.4 255.8 510.8 255.0Q511.1 254.2 511.8 253.8Q512.5 253.4 513.4 253.4L513.4 253.4Q513.9 253.4 514.4 253.5Q514.9 253.7 515.3 254.1Q515.7 254.5 516.0 255.1Q516.2 255.7 516.2 256.6L516.2 256.6L516.2 257.1L511.5 257.1Q511.5 257.7 511.7 258.2L511.7 258.2Q512.0 258.7 512.4 258.9Q512.9 259.2 513.5 259.2L513.5 259.2Q513.9 259.2 514.2 259.1Q514.5 259.0 514.7 258.8Q515.0 258.5 515.1 258.2L515.1 258.2L516.1 258.5Q516.0 259.0 515.6 259.3Q515.2 259.7 514.7 259.9Q514.2 260.1 513.5 260.1ZM511.5 256.2L511.5 256.2L515.1 256.2Q515.1 255.7 515.0 255.4L515.0 255.4Q514.8 254.9 514.4 254.6Q514.0 254.3 513.4 254.3Q512.8 254.3 512.3 254.6Q511.9 254.9 511.7 255.3L511.7 255.3Q511.5 255.7 511.5 256.2Z M522.2 262.4L521.1 262.4L521.1 253.4L522.1 253.4L522.1 254.5L522.2 254.5Q522.4 254.3 522.6 254.1Q522.8 253.8 523.1 253.6Q523.5 253.4 524.1 253.4L524.1 253.4Q525.0 253.4 525.6 253.8Q526.2 254.2 526.6 254.9Q526.9 255.7 526.9 256.7L526.9 256.7Q526.9 257.8 526.6 258.5Q526.2 259.3 525.6 259.7Q525.0 260.1 524.1 260.1L524.1 260.1Q523.5 260.1 523.1 259.9Q522.8 259.7 522.6 259.4Q522.4 259.2 522.2 259.0L522.2 259.0L522.2 259.0L522.2 262.4ZM524.0 259.2L524.0 259.2Q524.6 259.2 525.0 258.9Q525.4 258.5 525.6 258.0Q525.8 257.4 525.8 256.7L525.8 256.7Q525.8 256.1 525.6 255.5Q525.4 255.0 525.0 254.6Q524.6 254.3 524.0 254.3L524.0 254.3Q523.4 254.3 523.0 254.6Q522.6 254.9 522.4 255.5Q522.1 256.0 522.1 256.7L522.1 256.7Q522.1 257.5 522.4 258.0Q522.6 258.6 523.0 258.9Q523.4 259.2 524.0 259.2ZM530.3 260.2L530.3 260.2Q529.7 260.2 529.2 259.9Q528.7 259.7 528.4 259.2Q528.1 258.8 528.1 258.1L528.1 258.1Q528.1 257.6 528.3 257.2Q528.5 256.9 528.9 256.7Q529.2 256.5 529.7 256.4Q530.1 256.3 530.6 256.2L530.6 256.2Q531.2 256.1 531.6 256.1Q531.9 256.1 532.1 256.0Q532.3 255.9 532.3 255.6L532.3 255.6L532.3 255.6Q532.3 255.2 532.1 254.9Q532.0 254.6 531.7 254.4Q531.4 254.3 530.9 254.3L530.9 254.3Q530.4 254.3 530.1 254.4Q529.8 254.6 529.6 254.8Q529.4 255.0 529.3 255.3L529.3 255.3L528.2 254.9Q528.5 254.3 528.9 254.0Q529.3 253.6 529.9 253.5Q530.4 253.4 530.9 253.4L530.9 253.4Q531.2 253.4 531.6 253.4Q532.0 253.5 532.4 253.8Q532.8 254.0 533.1 254.5Q533.3 254.9 533.3 255.7L533.3 255.7L533.3 260L532.3 260L532.3 259.1L532.2 259.1Q532.1 259.3 531.9 259.6Q531.6 259.8 531.2 260.0Q530.8 260.2 530.3 260.2ZM530.5 259.2L530.5 259.2Q531.1 259.2 531.5 259.0Q531.9 258.8 532.1 258.4Q532.3 258.0 532.3 257.6L532.3 257.6L532.3 256.7Q532.2 256.8 532.0 256.9Q531.8 256.9 531.5 257.0Q531.2 257.0 531.0 257.0Q530.7 257.1 530.6 257.1L530.6 257.1Q530.2 257.1 529.8 257.3Q529.5 257.4 529.3 257.6Q529.1 257.8 529.1 258.2L529.1 258.2Q529.1 258.5 529.3 258.8Q529.5 259.0 529.8 259.1Q530.1 259.2 530.5 259.2ZM536.4 253.4L537.8 253.4L537.8 254.4L536.4 254.4L536.4 258.3Q536.4 258.7 536.6 258.9Q536.8 259.1 537.2 259.1L537.2 259.1Q537.3 259.1 537.4 259.1Q537.6 259.1 537.7 259.1L537.7 259.1L537.9 260.0Q537.8 260.0 537.6 260.1Q537.4 260.1 537.2 260.1L537.2 260.1Q536.3 260.1 535.8 259.6Q535.4 259.2 535.4 258.4L535.4 258.4L535.4 254.4L534.4 254.4L534.4 253.4L535.4 253.4L535.4 251.9L536.4 251.9L536.4 253.4ZM540.2 256.1L540.2 256.1L540.2 260L539.1 260L539.1 251.3L540.2 251.3L540.2 254.6Q540.4 254.0 540.8 253.7L540.8 253.7Q541.4 253.4 542.1 253.4L542.1 253.4Q542.8 253.4 543.3 253.6Q543.8 253.9 544.1 254.5Q544.4 255.0 544.4 255.8L544.4 255.8L544.4 260L543.3 260L543.3 255.9Q543.3 255.2 542.9 254.7Q542.5 254.3 541.8 254.3L541.8 254.3Q541.4 254.3 541.0 254.5Q540.6 254.7 540.4 255.1Q540.2 255.5 540.2 256.1ZM548.4 260.1L548.4 260.1Q547.8 260.1 547.2 259.9Q546.7 259.7 546.4 259.4Q546.0 259.0 545.9 258.4L545.9 258.4L546.9 258.2Q547.1 258.7 547.5 259.0Q547.8 259.2 548.4 259.2L548.4 259.2Q549.1 259.2 549.5 258.9Q549.9 258.6 549.9 258.2L549.9 258.2Q549.9 257.9 549.7 257.7Q549.5 257.4 549.0 257.3L549.0 257.3L547.9 257.1Q547.0 256.9 546.6 256.4Q546.1 256.0 546.1 255.3L546.1 255.3Q546.1 254.7 546.4 254.3Q546.8 253.9 547.3 253.6Q547.8 253.4 548.5 253.4L548.5 253.4Q549.2 253.4 549.7 253.6Q550.2 253.8 550.5 254.1Q550.8 254.5 550.9 254.9L550.9 254.9L549.9 255.2Q549.8 254.8 549.5 254.6Q549.2 254.3 548.5 254.3L548.5 254.3Q548.0 254.3 547.6 254.5Q547.2 254.8 547.2 255.2L547.2 255.2Q547.2 255.6 547.4 255.8Q547.7 256.0 548.3 256.2L548.3 256.2L549.3 256.4Q550.2 256.6 550.6 257.0Q551.0 257.5 551.0 258.2L551.0 258.2Q551.0 258.7 550.7 259.2Q550.4 259.6 549.8 259.9Q549.2 260.1 548.4 260.1Z M559.5 259.4L558.5 259.4L558.5 257.0L556.1 257.0L556.1 256.1L558.5 256.1L558.5 253.8L559.5 253.8L559.5 256.1L561.8 256.1L561.8 257.0L559.5 257.0L559.5 259.4Z M570.3 260.1L570.3 260.1Q569.7 260.1 569.3 259.9Q568.9 259.7 568.7 259.4Q568.5 259.2 568.4 259.0L568.4 259.0L568.3 259.0L568.3 260L567.2 260L567.2 251.3L568.3 251.3L568.3 254.5L568.4 254.5Q568.5 254.3 568.7 254.1Q568.9 253.8 569.3 253.6Q569.6 253.4 570.3 253.4L570.3 253.4Q571.1 253.4 571.7 253.8Q572.3 254.2 572.7 254.9Q573.0 255.7 573.0 256.7L573.0 256.7Q573.0 257.8 572.7 258.5Q572.3 259.3 571.7 259.7Q571.1 260.1 570.3 260.1ZM570.1 259.2L570.1 259.2Q570.7 259.2 571.1 258.9Q571.6 258.5 571.8 258.0Q572.0 257.4 572.0 256.7L572.0 256.7Q572.0 256.1 571.8 255.5Q571.6 255.0 571.2 254.6Q570.7 254.3 570.1 254.3L570.1 254.3Q569.5 254.3 569.1 254.6Q568.7 254.9 568.5 255.5Q568.3 256.0 568.3 256.7L568.3 256.7Q568.3 257.5 568.5 258.0Q568.7 258.6 569.1 258.9Q569.5 259.2 570.1 259.2ZM574.6 251.3L575.6 251.3L575.6 260L574.6 260L574.6 251.3ZM580.2 260.1L580.2 260.1Q579.3 260.1 578.6 259.7Q577.9 259.3 577.5 258.5Q577.2 257.8 577.2 256.8L577.2 256.8Q577.2 255.7 577.5 255.0Q577.9 254.2 578.6 253.8Q579.3 253.4 580.2 253.4L580.2 253.4Q581.1 253.4 581.7 253.8Q582.4 254.2 582.8 255.0Q583.1 255.7 583.1 256.8L583.1 256.8Q583.1 257.8 582.8 258.5Q582.4 259.3 581.7 259.7Q581.1 260.1 580.2 260.1ZM580.2 259.2L580.2 259.2Q580.8 259.2 581.2 258.9Q581.7 258.5 581.9 258.0Q582.1 257.4 582.1 256.8L582.1 256.8Q582.1 256.1 581.9 255.6Q581.7 255.0 581.2 254.7Q580.8 254.3 580.2 254.3L580.2 254.3Q579.5 254.3 579.1 254.7Q578.7 255.0 578.4 255.6Q578.2 256.1 578.2 256.8L578.2 256.8Q578.2 257.4 578.4 258.0Q578.7 258.5 579.1 258.9Q579.5 259.2 580.2 259.2ZM587.3 260.1L587.3 260.1Q586.5 260.1 585.8 259.7Q585.1 259.3 584.7 258.5Q584.4 257.8 584.4 256.8L584.4 256.8Q584.4 255.7 584.7 255.0Q585.1 254.2 585.8 253.8Q586.5 253.4 587.3 253.4L587.3 253.4Q588.2 253.4 588.9 253.8Q589.6 254.2 590.0 255.0Q590.3 255.7 590.3 256.8L590.3 256.8Q590.3 257.8 590.0 258.5Q589.6 259.3 588.9 259.7Q588.2 260.1 587.3 260.1ZM587.3 259.2L587.3 259.2Q588.0 259.2 588.4 258.9Q588.9 258.5 589.1 258.0Q589.3 257.4 589.3 256.8L589.3 256.8Q589.3 256.1 589.1 255.6Q588.9 255.0 588.4 254.7Q588.0 254.3 587.3 254.3L587.3 254.3Q586.7 254.3 586.3 254.7Q585.8 255.0 585.6 255.6Q585.4 256.1 585.4 256.8L585.4 256.8Q585.4 257.4 585.6 258.0Q585.8 258.5 586.3 258.9Q586.7 259.2 587.3 259.2ZM592.9 260L591.9 260L591.9 253.4L592.9 253.4L592.9 254.7Q593.0 254.3 593.3 254.0L593.3 254.0Q593.5 253.7 593.9 253.5Q594.3 253.3 594.7 253.3L594.7 253.3Q595.5 253.3 595.9 253.8L595.9 253.8Q596.3 254.1 596.4 254.7L596.4 254.7Q596.5 254.3 596.8 254.1L596.8 254.1Q597.1 253.7 597.5 253.5Q598.0 253.3 598.5 253.3L598.5 253.3Q599.0 253.3 599.5 253.6Q600.0 253.8 600.3 254.3Q600.5 254.8 600.5 255.6L600.5 255.6L600.5 260L599.5 260L599.5 255.6Q599.5 254.9 599.1 254.6Q598.7 254.3 598.2 254.3L598.2 254.3Q597.7 254.3 597.4 254.5Q597.1 254.7 596.9 255.0Q596.7 255.3 596.7 255.7L596.7 255.7L596.7 260L595.7 260L595.7 255.5Q595.7 255.0 595.3 254.6Q595.0 254.3 594.4 254.3L594.4 254.3Q594.0 254.3 593.7 254.5Q593.3 254.7 593.1 255.0Q592.9 255.4 592.9 255.9L592.9 255.9L592.9 260Z M608.8 260.1L608.8 260.1Q608.2 260.1 607.8 259.9Q607.4 259.7 607.2 259.4Q607.0 259.2 606.9 259.0L606.9 259.0L606.8 259.0L606.8 260L605.8 260L605.8 251.3L606.8 251.3L606.8 254.5L606.9 254.5Q607.0 254.3 607.2 254.1Q607.4 253.8 607.8 253.6Q608.2 253.4 608.8 253.4L608.8 253.4Q609.6 253.4 610.2 253.8Q610.9 254.2 611.2 254.9Q611.6 255.7 611.6 256.7L611.6 256.7Q611.6 257.8 611.2 258.5Q610.9 259.3 610.3 259.7Q609.6 260.1 608.8 260.1ZM608.6 259.2L608.6 259.2Q609.3 259.2 609.7 258.9Q610.1 258.5 610.3 258.0Q610.5 257.4 610.5 256.7L610.5 256.7Q610.5 256.1 610.3 255.5Q610.1 255.0 609.7 254.6Q609.3 254.3 608.6 254.3L608.6 254.3Q608.0 254.3 607.6 254.6Q607.2 254.9 607.0 255.5Q606.8 256.0 606.8 256.7L606.8 256.7Q606.8 257.5 607.0 258.0Q607.2 258.6 607.6 258.9Q608.1 259.2 608.6 259.2ZM613.1 251.3L614.2 251.3L614.2 260L613.1 260L613.1 251.3ZM618.2 260.1L618.2 260.1Q617.6 260.1 617.1 259.8Q616.6 259.5 616.3 259.0Q616.0 258.4 616.0 257.6L616.0 257.6L616.0 253.4L617.1 253.4L617.1 257.5Q617.1 258.3 617.5 258.7Q617.9 259.1 618.6 259.1L618.6 259.1Q619.0 259.1 619.4 258.9Q619.8 258.7 620.0 258.3Q620.2 257.9 620.2 257.4L620.2 257.4L620.2 253.4L621.3 253.4L621.3 260L620.2 260L620.2 258.8Q620.0 259.4 619.5 259.7L619.5 259.7Q619.0 260.1 618.2 260.1ZM624.2 260L623.1 260L623.1 253.4L624.1 253.4L624.1 254.5L624.2 254.5Q624.4 254.0 624.9 253.7Q625.3 253.4 625.9 253.4L625.9 253.4Q626.0 253.4 626.2 253.4Q626.3 253.4 626.4 253.4L626.4 253.4L626.4 254.4Q626.4 254.4 626.2 254.4Q626.0 254.4 625.8 254.4L625.8 254.4Q625.3 254.4 625.0 254.6Q624.6 254.8 624.4 255.1Q624.2 255.5 624.2 255.9L624.2 255.9L624.2 260Z "/></g></svg>