<!-- Generated by readme-aura https://github.com/collectioneur/readme-aura -->
<svg width="860" height="280" viewBox="0 0 860 280" xmlns="http://www.w3.org/2000/svg"><clipPath id="satori_cp-id"><path x="0" y="0" width="860" height="280" d="M18,0 h824 a18,18 0 0 1 18,18 v244 a18,18 0 0 1 -18,18 h-824 a18,18 0 0 1 -18,-18 v-244 a18,18 0 0 1 18,-18"/></clipPath><mask id="satori_om-id"><rect x="0" y="0" width="860" height="280" fill="#fff"/></mask><path x="0" y="0" width="860" height="280" fill="#05050c" d="M18,0 h824 a18,18 0 0 1 18,18 v244 a18,18 0 0 1 -18,18 h-824 a18,18 0 0 1 -18,-18 v-244 a18,18 0 0 1 18,-18"/><clipPath id="satori_cp-id-0" clip-path="url(#satori_cp-id)"><rect x="0" y="0" width="860" height="280"/></clipPath><mask id="satori_om-id-0"><rect x="0" y="0" width="860" height="280" fill="#fff" mask="url(#satori_om-id)"/></mask><svg x="0" y="0" width="860" height="280" preserveAspectRatio="none" clip-path="url(#satori_cp-id-0)" mask="url(#satori_om-id-0)"><defs><filter id="td-warp" x="-30%" y="-30%" width="160%" height="160%"><feTurbulence type="turbulence" baseFrequency="0.015" numOctaves="4" seed="3" result="turb"><animate attributeName="baseFrequency" values="0.008;0.04;0.015;0.05;0.008" dur="12s" repeatCount="indefinite"></animate></feTurbulence><feDisplacementMap in="SourceGraphic" in2="turb" scale="22" xChannelSelector="R" yChannelSelector="G"><animate attributeName="scale" values="12;40;18;35;12" dur="10s" repeatCount="indefinite"></animate></feDisplacementMap></filter><filter id="td-blur-core" x="-50%" y="-50%" width="200%" height="200%"><feGaussianBlur in="SourceGraphic" stdDeviation="4"><animate attributeName="stdDeviation" values="2;8;2" dur="4s" repeatCount="indefinite"></animate></feGaussianBlur></filter><filter id="td-blur-outer" x="-50%" y="-50%" width="200%" height="200%"><feGaussianBlur in="SourceGraphic" stdDeviation="18"><animate attributeName="stdDeviation" values="12;28;12" dur="6s" repeatCount="indefinite"></animate></feGaussianBlur></filter><radialGradient id="td-grad-core" cx="50%" cy="50%" r="50%"><stop offset="0%" stop-color="rgba(180,100,255,0.9)"></stop><stop offset="35%" stop-color="rgba(100,50,220,0.5)"></stop><stop offset="100%" stop-color="rgba(30,10,80,0)"></stop></radialGradient><radialGradient id="td-grad-outer" cx="50%" cy="50%" r="50%"><stop offset="0%" stop-color="rgba(80,40,200,0.4)"></stop><stop offset="100%" stop-color="rgba(20,10,60,0)"></stop></radialGradient></defs><circle cx="430" cy="140" r="90" fill="url(#td-grad-outer)" filter="url(#td-blur-outer)"><animate attributeName="r" values="80;110;80" dur="7s" repeatCount="indefinite"></animate></circle><g filter="url(#td-warp)"><circle cx="430" cy="140" r="120" fill="none" stroke="rgba(120,60,255,0.3)" stroke-width="1"></circle><circle cx="430" cy="140" r="95" fill="none" stroke="rgba(80,180,255,0.25)" stroke-width="1.5"></circle><circle cx="430" cy="140" r="70" fill="none" stroke="rgba(200,80,255,0.35)" stroke-width="2"></circle><circle cx="430" cy="140" r="45" fill="none" stroke="rgba(255,100,200,0.45)" stroke-width="2"></circle><circle cx="430" cy="140" r="22" fill="none" stroke="rgba(255,180,255,0.5)" stroke-width="2.5"></circle><line x1="310" y1="20" x2="550" y2="260" stroke="rgba(100,80,255,0.12)" stroke-width="0.8"></line><line x1="550" y1="20" x2="310" y2="260" stroke="rgba(100,80,255,0.12)" stroke-width="0.8"></line><line x1="310" y1="140" x2="550" y2="140" stroke="rgba(100,80,255,0.12)" stroke-width="0.8"></line><line x1="430" y1="20" x2="430" y2="260" stroke="rgba(100,80,255,0.12)" stroke-width="0.8"></line><line x1="340" y1="50" x2="520" y2="230" stroke="rgba(140,80,255,0.08)" stroke-width="0.5"></line><line x1="520" y1="50" x2="340" y2="230" stroke="rgba(140,80,255,0.08)" stroke-width="0.5"></line></g><circle cx="430" cy="140" r="50" fill="url(#td-grad-core)" filter="url(#td-blur-core)"><animate attributeName="r" values="40;60;40" dur="5s" repeatCount="indefinite"></animate></circle><circle cx="430" cy="140" r="6" fill="rgba(255,220,255,0.8)"><animate attributeName="r" values="4;8;4" dur="2.5s" repeatCount="indefinite"></animate><animate attributeName="opacity" values="0.6;1;0.6" dur="2.5s" repeatCount="indefinite"></animate></circle></svg><mask id="satori_om-id-0-0"><rect x="0" y="0" width="0" height="280" fill="#fff" mask="url(#satori_om-id)"/></mask><mask id="satori_om-id-0-0-0"><rect x="0" y="0" width="0" height="280" fill="#fff" mask="url(#satori_om-id)"/></mask><mask id="satori_om-id-0-0-0-0"><rect x="0" y="0" width="0" height="280" fill="#fff" mask="url(#satori_om-id)"/></mask><mask id="satori_om-id-0-0-0-0-0"><rect x="0" y="0" width="0" height="280" fill="#fff" mask="url(#satori_om-id)"/></mask><mask id="satori_om-id-0-0-0-1"><rect x="0" y="0" width="0" height="280" fill="#fff" mask="url(#satori_om-id)"/></mask><mask id="satori_om-id-0-0-0-1-0"><rect x="0" y="0" width="0" height="280" fill="#fff" mask="url(#satori_om-id)"/></mask><mask id="satori_om-id-0-0-1"><rect x="0" y="0" width="0" height="280" fill="#fff" mask="url(#satori_om-id)"/></mask><mask id="satori_om-id-0-0-1-0"><rect x="0" y="0" width="0" height="280" fill="#fff" mask="url(#satori_om-id)"/></mask><mask id="satori_om-id-0-0-1-0-0"><rect x="0" y="0" width="0" height="280" fill="#fff" mask="url(#satori_om-id)"/></mask><mask id="satori_om-id-0-0-2"><rect x="0" y="0" width="0" height="280" fill="#fff" mask="url(#satori_om-id)"/></mask><mask id="satori_om-id-0-0-2-0"><rect x="0" y="0" width="0" height="280" fill="#fff" mask="url(#satori_om-id)"/></mask><mask id="satori_om-id-0-0-2-0-0"><rect x="0" y="0" width="0" height="280" fill="#fff" mask="url(#satori_om-id)"/></mask><mask id="satori_om-id-0-0-3"><rect x="0" y="0" width="0" height="280" fill="#fff" mask="url(#satori_om-id)"/></mask><mask id="satori_om-id-0-0-3-0"><rect x="0" y="0" width="0" height="280" fill="#fff" mask="url(#satori_om-id)"/></mask><mask id="satori_om-id-0-0-3-1"><rect x="0" y="0" width="0" height="280" fill="#fff" mask="url(#satori_om-id)"/></mask><mask id="satori_om-id-0-0-3-2"><rect x="0" y="0" width="0" height="280" fill="#fff" mask="url(#satori_om-id)"/></mask><mask id="satori_om-id-0-0-4"><rect x="0" y="0" width="0" height="280" fill="#fff" mask="url(#satori_om-id)"/></mask><mask id="satori_om-id-0-0-4-0"><rect x="0" y="0" width="0" height="280" fill="#fff" mask="url(#satori_om-id)"/></mask><mask id="satori_om-id-0-0-4-1"><rect x="0" y="0" width="0" height="280" fill="#fff" mask="url(#satori_om-id)"/></mask><mask id="satori_om-id-0-1"><rect x="0" y="0" width="0" height="280" fill="#fff" mask="url(#satori_om-id)"/></mask><mask id="satori_om-id-0-1-0"><rect x="0" y="0" width="0" height="280" fill="#fff" mask="url(#satori_om-id)"/></mask><mask id="satori_om-id-0-2"><rect x="0" y="0" width="0" height="280" fill="#fff" mask="url(#satori_om-id)"/></mask><mask id="satori_om-id-0-2-0"><rect x="0" y="0" width="0" height="280" fill="#fff" mask="url(#satori_om-id)"/></mask><mask id="satori_om-id-0-2-1"><rect x="0" y="0" width="0" height="280" fill="#fff" mask="url(#satori_om-id)"/></mask><mask id="satori_om-id-0-2-2"><rect x="0" y="0" width="0" height="280" fill="#fff" mask="url(#satori_om-id)"/></mask><mask id="satori_om-id-0-2-3"><rect x="0" y="0" width="0" height="280" fill="#fff" mask="url(#satori_om-id)"/></mask><mask id="satori_om-id-0-2-4"><rect x="0" y="0" width="0" height="280" fill="#fff" mask="url(#satori_om-id)"/></mask><mask id="satori_om-id-0-2-5"><rect x="0" y="0" width="0" height="280" fill="#fff" mask="url(#satori_om-id)"/></mask><mask id="satori_om-id-0-2-6"><rect x="0" y="0" width="0" height="280" fill="#fff" mask="url(#satori_om-id)"/></mask><mask id="satori_om-id-0-2-7"><rect x="0" y="0" width="0" height="280" fill="#fff" mask="url(#satori_om-id)"/></mask><mask id="satori_om-id-0-2-8"><rect x="0" y="0" width="0" height="280" fill="#fff" mask="url(#satori_om-id)"/></mask><mask id="satori_om-id-0-2-9"><rect x="0" y="0" width="0" height="280" fill="#fff" mask="url(#satori_om-id)"/></mask><mask id="satori_om-id-0-2-10"><rect x="0" y="0" width="0" height="280" fill="#fff" mask="url(#satori_om-id)"/></mask><mask id="satori_om-id-0-3"><rect x="0" y="0" width="0" height="280" fill="#fff" mask="url(#satori_om-id)"/></mask><mask id="satori_om-id-0-3-0"><rect x="0" y="0" width="0" height="280" fill="#fff" mask="url(#satori_om-id)"/></mask><mask id="satori_om-id-0-4"><rect x="0" y="0" width="0" height="280" fill="#fff" mask="url(#satori_om-id)"/></mask><mask id="satori_om-id-0-4-0"><rect x="0" y="0" width="0" height="280" fill="#fff" mask="url(#satori_om-id)"/></mask><mask id="satori_om-id-0-4-1"><rect x="0" y="0" width="0" height="280" fill="#fff" mask="url(#satori_om-id)"/></mask><mask id="satori_om-id-1"><rect x="227" y="195" width="407" height="50" fill="#fff" mask="url(#satori_om-id)"/></mask><mask id="satori_om-id-1-0"><rect x="327" y="195" width="207" height="31" fill="#fff" mask="url(#satori_om-id)"/></mask><g mask="url(#satori_om-id)" clip-path="url(#satori_cp-id)"><path fill="white" d="M335.4 220L335.4 220L328.7 220L328.7 201.1L335.4 201.1Q338.3 201.1 340.3 202.2Q342.4 203.4 343.5 205.5Q344.6 207.6 344.6 210.5L344.6 210.5Q344.6 213.5 343.5 215.6Q342.4 217.7 340.3 218.9Q338.2 220 335.4 220ZM332.6 204.4L332.6 216.7L335.2 216.7Q337.0 216.7 338.2 216.0Q339.5 215.4 340.1 214.0Q340.7 212.6 340.7 210.5L340.7 210.5Q340.7 208.4 340.1 207.1Q339.5 205.7 338.2 205.1Q337.0 204.4 335.2 204.4L335.2 204.4L332.6 204.4ZM351.2 220L347.4 220L347.4 205.8L351.2 205.8L351.2 220ZM349.3 204.0L349.3 204.0Q348.4 204.0 347.8 203.4Q347.2 202.8 347.2 202.0L347.2 202.0Q347.2 201.2 347.8 200.6Q348.4 200.0 349.3 200.0L349.3 200.0Q350.2 200.0 350.8 200.6Q351.4 201.2 351.4 202.0L351.4 202.0Q351.4 202.8 350.8 203.4Q350.2 204.0 349.3 204.0ZM360.1 220.3L360.1 220.3Q358.4 220.3 357.0 219.8Q355.7 219.3 354.9 218.4Q354.1 217.4 353.8 216.1L353.8 216.1L357.4 215.5Q357.6 216.5 358.3 217.0Q359.0 217.5 360.2 217.5L360.2 217.5Q361.3 217.5 361.9 217.1Q362.5 216.7 362.5 216.0L362.5 216.0Q362.5 215.5 362.1 215.1Q361.6 214.8 360.7 214.6L360.7 214.6L358.3 214.1Q356.2 213.6 355.2 212.6Q354.2 211.6 354.2 210.0L354.2 210.0Q354.2 208.7 354.9 207.7Q355.7 206.7 357.0 206.2Q358.3 205.6 360.1 205.6L360.1 205.6Q361.8 205.6 363.1 206.1Q364.3 206.6 365.0 207.4Q365.8 208.3 366.1 209.4L366.1 209.4L362.7 210.0Q362.5 209.3 361.9 208.8Q361.2 208.4 360.2 208.4L360.2 208.4Q359.3 208.4 358.6 208.8Q358.0 209.1 358.0 209.8L358.0 209.8Q358.0 210.3 358.4 210.7Q358.8 211.1 359.8 211.3L359.8 211.3L362.4 211.8Q364.4 212.2 365.4 213.2Q366.4 214.1 366.4 215.6L366.4 215.6Q366.4 217.0 365.6 218.1Q364.8 219.1 363.4 219.7Q362.0 220.3 360.1 220.3ZM373.4 205.8L376.1 205.8L376.1 208.7L373.4 208.7L373.4 215.8Q373.4 216.5 373.7 216.8Q374.0 217.2 374.7 217.2L374.7 217.2Q374.9 217.2 375.3 217.1Q375.7 217.1 375.9 217.0L375.9 217.0L376.4 219.9Q375.8 220.1 375.2 220.1Q374.6 220.2 374.0 220.2L374.0 220.2Q371.9 220.2 370.7 219.2Q369.6 218.1 369.6 216.2L369.6 216.2L369.6 208.7L367.6 208.7L367.6 205.8L369.6 205.8L369.6 202.4L373.4 202.4L373.4 205.8ZM384.9 220.3L384.9 220.3Q382.7 220.3 381.2 219.4Q379.6 218.4 378.8 216.8Q377.9 215.2 377.9 213.0L377.9 213.0Q377.9 210.8 378.8 209.1Q379.6 207.5 381.2 206.5Q382.7 205.6 384.9 205.6L384.9 205.6Q387.0 205.6 388.6 206.5Q390.1 207.5 391.0 209.1Q391.8 210.8 391.8 213.0L391.8 213.0Q391.8 215.2 391.0 216.8Q390.1 218.4 388.6 219.4Q387.0 220.3 384.9 220.3ZM384.9 217.3L384.9 217.3Q385.9 217.3 386.6 216.7Q387.3 216.2 387.6 215.2Q388.0 214.2 388.0 213.0L388.0 213.0Q388.0 211.7 387.6 210.7Q387.3 209.7 386.6 209.2Q385.9 208.6 384.9 208.6L384.9 208.6Q383.9 208.6 383.2 209.2Q382.5 209.7 382.2 210.7Q381.8 211.7 381.8 213.0L381.8 213.0Q381.8 214.2 382.2 215.2Q382.5 216.2 383.2 216.7Q383.9 217.3 384.9 217.3ZM398.3 220L394.5 220L394.5 205.8L398.2 205.8L398.2 208.3L398.3 208.3Q398.7 207.0 399.6 206.3Q400.5 205.6 401.7 205.6L401.7 205.6Q402.0 205.6 402.4 205.6Q402.7 205.7 403.0 205.7L403.0 205.7L403.0 209.1Q402.7 209.1 402.2 209.0Q401.8 209.0 401.3 209.0L401.3 209.0Q400.5 209.0 399.8 209.3Q399.1 209.7 398.7 210.4Q398.3 211.0 398.3 211.9L398.3 211.9L398.3 220ZM409.5 205.8L412.1 205.8L412.1 208.7L409.5 208.7L409.5 215.8Q409.5 216.5 409.8 216.8Q410.1 217.2 410.8 217.2L410.8 217.2Q411.0 217.2 411.4 217.1Q411.8 217.1 412.0 217.0L412.0 217.0L412.5 219.9Q411.9 220.1 411.2 220.1Q410.6 220.2 410.0 220.2L410.0 220.2Q407.9 220.2 406.8 219.2Q405.6 218.1 405.6 216.2L405.6 216.2L405.6 208.7L403.7 208.7L403.7 205.8L405.6 205.8L405.6 202.4L409.5 202.4L409.5 205.8ZM418.4 220L414.6 220L414.6 205.8L418.4 205.8L418.4 220ZM416.5 204.0L416.5 204.0Q415.6 204.0 415.0 203.4Q414.4 202.8 414.4 202.0L414.4 202.0Q414.4 201.2 415.0 200.6Q415.6 200.0 416.5 200.0L416.5 200.0Q417.4 200.0 418.0 200.6Q418.6 201.2 418.6 202.0L418.6 202.0Q418.6 202.8 418.0 203.4Q417.4 204.0 416.5 204.0ZM428.0 220.3L428.0 220.3Q425.8 220.3 424.3 219.4Q422.7 218.4 421.9 216.8Q421.0 215.2 421.0 213.0L421.0 213.0Q421.0 210.8 421.9 209.1Q422.7 207.5 424.3 206.5Q425.8 205.6 428.0 205.6L428.0 205.6Q430.1 205.6 431.7 206.5Q433.2 207.5 434.1 209.1Q434.9 210.8 434.9 213.0L434.9 213.0Q434.9 215.2 434.1 216.8Q433.2 218.4 431.7 219.4Q430.1 220.3 428.0 220.3ZM428.0 217.3L428.0 217.3Q429.0 217.3 429.7 216.7Q430.4 216.2 430.7 215.2Q431.1 214.2 431.1 213.0L431.1 213.0Q431.1 211.7 430.7 210.7Q430.4 209.7 429.7 209.2Q429.0 208.6 428.0 208.6L428.0 208.6Q427.0 208.6 426.3 209.2Q425.6 209.7 425.3 210.7Q424.9 211.7 424.9 213.0L424.9 213.0Q424.9 214.2 425.3 215.2Q425.6 216.2 426.3 216.7Q427.0 217.3 428.0 217.3ZM441.4 211.8L441.4 211.8L441.4 220L437.6 220L437.6 205.8L441.2 205.8L441.2 208.7Q441.8 207.4 442.7 206.6L442.7 206.6Q443.8 205.6 445.6 205.6L445.6 205.6Q447.1 205.6 448.2 206.3Q449.3 206.9 449.9 208.1Q450.5 209.3 450.5 211.0L450.5 211.0L450.5 220L446.7 220L446.7 211.6Q446.7 210.3 446.0 209.6Q445.3 208.8 444.1 208.8L444.1 208.8Q443.3 208.8 442.7 209.2Q442.1 209.5 441.7 210.2Q441.4 210.8 441.4 211.8Z M463.9 220L460.0 220L460.0 201.1L467.4 201.1Q469.5 201.1 471.1 201.9Q472.6 202.7 473.4 204.2Q474.2 205.6 474.2 207.5L474.2 207.5Q474.2 209.3 473.3 210.8Q472.5 212.2 471.0 213.0Q469.5 213.8 467.3 213.8L467.3 213.8L463.9 213.8L463.9 220ZM463.9 204.3L463.9 210.7L466.7 210.7Q467.9 210.7 468.6 210.3Q469.4 209.9 469.8 209.1Q470.2 208.4 470.2 207.5Q470.2 206.5 469.8 205.8Q469.4 205.1 468.6 204.7Q467.9 204.3 466.7 204.3L466.7 204.3L463.9 204.3ZM483.1 220.3L483.1 220.3Q481.0 220.3 479.4 219.4Q477.9 218.4 477.0 216.8Q476.2 215.2 476.2 213.0L476.2 213.0Q476.2 210.8 477.0 209.1Q477.9 207.5 479.4 206.5Q481.0 205.6 483.1 205.6L483.1 205.6Q485.3 205.6 486.8 206.5Q488.4 207.5 489.2 209.1Q490.1 210.8 490.1 213.0L490.1 213.0Q490.1 215.2 489.2 216.8Q488.4 218.4 486.8 219.4Q485.3 220.3 483.1 220.3ZM483.1 217.3L483.1 217.3Q484.1 217.3 484.8 216.7Q485.5 216.2 485.8 215.2Q486.2 214.2 486.2 213.0L486.2 213.0Q486.2 211.7 485.8 210.7Q485.5 209.7 484.8 209.2Q484.1 208.6 483.1 208.6L483.1 208.6Q482.1 208.6 481.4 209.2Q480.7 209.7 480.4 210.7Q480.1 211.7 480.1 213.0L480.1 213.0Q480.1 214.2 480.4 215.2Q480.7 216.2 481.4 216.7Q482.1 217.3 483.1 217.3ZM496.5 220L492.7 220L492.7 205.8L496.4 205.8L496.4 208.3L496.5 208.3Q496.9 207.0 497.9 206.3Q498.8 205.6 500.0 205.6L500.0 205.6Q500.3 205.6 500.6 205.6Q501.0 205.7 501.2 205.7L501.2 205.7L501.2 209.1Q501.0 209.1 500.5 209.0Q500.0 209.0 499.6 209.0L499.6 209.0Q498.7 209.0 498.0 209.3Q497.3 209.7 496.9 210.4Q496.5 211.0 496.5 211.9L496.5 211.9L496.5 220ZM507.7 205.8L510.3 205.8L510.3 208.7L507.7 208.7L507.7 215.8Q507.7 216.5 508.0 216.8Q508.3 217.2 509.0 217.2L509.0 217.2Q509.2 217.2 509.6 217.1Q510.0 217.1 510.2 217.0L510.2 217.0L510.7 219.9Q510.1 220.1 509.5 220.1Q508.8 220.2 508.3 220.2L508.3 220.2Q506.1 220.2 505.0 219.2Q503.9 218.1 503.9 216.2L503.9 216.2L503.9 208.7L501.9 208.7L501.9 205.8L503.9 205.8L503.9 202.4L507.7 202.4L507.7 205.8ZM516.8 220.3L516.8 220.3Q515.4 220.3 514.4 219.8Q513.3 219.3 512.7 218.4Q512.1 217.4 512.1 216.0L512.1 216.0Q512.1 214.8 512.5 214.0Q512.9 213.2 513.7 212.8Q514.4 212.3 515.4 212.0Q516.4 211.8 517.4 211.7L517.4 211.7Q518.6 211.5 519.4 211.4Q520.2 211.3 520.5 211.1Q520.9 210.9 520.9 210.4L520.9 210.4L520.9 210.3Q520.9 209.7 520.6 209.3Q520.3 208.9 519.8 208.7Q519.3 208.4 518.6 208.4L518.6 208.4Q517.9 208.4 517.4 208.7Q516.8 208.9 516.5 209.3Q516.1 209.6 516.0 210.1L516.0 210.1L512.5 209.5Q512.8 208.3 513.7 207.4Q514.5 206.5 515.8 206.1Q517.1 205.6 518.6 205.6L518.6 205.6Q519.8 205.6 520.9 205.9Q521.9 206.2 522.8 206.7Q523.7 207.3 524.2 208.2Q524.7 209.2 524.7 210.4L524.7 210.4L524.7 220L521.1 220L521.1 218.0L520.9 218.0Q520.6 218.7 520.0 219.2Q519.4 219.7 518.6 220.0Q517.8 220.3 516.8 220.3ZM517.9 217.6L517.9 217.6Q518.8 217.6 519.4 217.2Q520.1 216.9 520.5 216.3Q520.9 215.7 520.9 214.9L520.9 214.9L520.9 213.4Q520.7 213.5 520.4 213.6Q520.0 213.7 519.6 213.8Q519.2 213.9 518.8 213.9Q518.4 214.0 518.1 214.0L518.1 214.0Q517.4 214.1 516.8 214.4Q516.3 214.6 516.0 215.0Q515.7 215.3 515.7 215.9L515.7 215.9Q515.7 216.5 516.0 216.8Q516.3 217.2 516.8 217.4Q517.2 217.6 517.9 217.6ZM527.9 201.1L531.7 201.1L531.7 220L527.9 220L527.9 201.1Z "/></g><mask id="satori_om-id-1-1"><rect x="227" y="230" width="407" height="15" fill="#fff" mask="url(#satori_om-id)"/></mask><g mask="url(#satori_om-id)" clip-path="url(#satori_cp-id)"><path fill="rgba(200,200,255,0.45)" d="M229.5 235.4L231.0 235.4L231.0 236.4L229.5 236.4L229.5 242L228.4 242L228.4 236.4L227.1 236.4L227.1 235.4L228.4 235.4L228.4 234.6Q228.4 234.0 228.7 233.6Q228.9 233.2 229.4 233.1Q229.8 232.9 230.3 232.9L230.3 232.9Q230.6 232.9 230.9 232.9Q231.1 233.0 231.3 233.0L231.3 233.0L231.0 233.9Q230.9 233.9 230.7 233.9Q230.6 233.8 230.4 233.8L230.4 233.8Q229.9 233.8 229.7 234.1Q229.5 234.3 229.5 234.8L229.5 234.8L229.5 235.4ZM235.1 242.1L235.1 242.1Q234.2 242.1 233.5 241.7Q232.8 241.3 232.4 240.5Q232.1 239.8 232.1 238.8Q232.1 237.8 232.4 237.0Q232.8 236.2 233.4 235.8Q234.1 235.4 235.0 235.4L235.0 235.4Q235.5 235.4 236.0 235.5Q236.5 235.7 236.9 236.1Q237.4 236.5 237.6 237.1Q237.9 237.7 237.9 238.6L237.9 238.6L237.9 239.1L233.1 239.1Q233.1 239.7 233.4 240.2L233.4 240.2Q233.6 240.7 234.1 240.9Q234.5 241.2 235.1 241.2L235.1 241.2Q235.5 241.2 235.8 241.1Q236.1 241.0 236.4 240.8Q236.6 240.5 236.7 240.2L236.7 240.2L237.7 240.5Q237.6 241.0 237.2 241.3Q236.9 241.7 236.3 241.9Q235.8 242.1 235.1 242.1ZM233.1 238.2L233.1 238.2L236.8 238.2Q236.7 237.7 236.6 237.4L236.6 237.4Q236.4 236.9 236.0 236.6Q235.6 236.3 235.0 236.3Q234.4 236.3 234.0 236.6Q233.6 236.9 233.3 237.3L233.3 237.3Q233.2 237.7 233.1 238.2ZM241.8 234.3L239.0 234.3L239.0 233.3L245.6 233.3L245.6 234.3L242.9 234.3L242.9 242L241.8 242L241.8 234.3ZM249.3 242.1L249.3 242.1Q248.7 242.1 248.2 241.8Q247.7 241.5 247.4 241.0Q247.1 240.4 247.1 239.6L247.1 239.6L247.1 235.4L248.2 235.4L248.2 239.5Q248.2 240.3 248.6 240.7Q249.0 241.1 249.6 241.1L249.6 241.1Q250.1 241.1 250.5 240.9Q250.9 240.7 251.1 240.3Q251.3 239.9 251.3 239.4L251.3 239.4L251.3 235.4L252.4 235.4L252.4 242L251.3 242L251.3 240.8Q251.1 241.4 250.6 241.7L250.6 241.7Q250.1 242.1 249.3 242.1ZM255.3 242L254.2 242L254.2 235.4L255.2 235.4L255.2 236.5L255.3 236.5Q255.5 236.0 255.9 235.7Q256.4 235.4 257.0 235.4L257.0 235.4Q257.1 235.4 257.3 235.4Q257.4 235.4 257.5 235.4L257.5 235.4L257.5 236.4Q257.5 236.4 257.3 236.4Q257.1 236.4 256.9 236.4L256.9 236.4Q256.4 236.4 256.1 236.6Q255.7 236.8 255.5 237.1Q255.3 237.5 255.3 237.9L255.3 237.9L255.3 242ZM261.8 242.1L261.8 242.1Q261.1 242.1 260.8 241.9Q260.4 241.7 260.2 241.4Q260.0 241.2 259.9 241.0L259.9 241.0L259.7 241.0L259.7 242L258.7 242L258.7 233.3L259.8 233.3L259.8 236.5L259.9 236.5Q260.0 236.3 260.2 236.1Q260.4 235.8 260.7 235.6Q261.1 235.4 261.8 235.4L261.8 235.4Q262.6 235.4 263.2 235.8Q263.8 236.2 264.2 236.9Q264.5 237.7 264.5 238.7L264.5 238.7Q264.5 239.8 264.2 240.5Q263.8 241.3 263.2 241.7Q262.6 242.1 261.8 242.1ZM261.6 241.2L261.6 241.2Q262.2 241.2 262.6 240.9Q263.0 240.5 263.3 240.0Q263.5 239.4 263.5 238.7L263.5 238.7Q263.5 238.1 263.3 237.5Q263.1 237.0 262.6 236.6Q262.2 236.3 261.6 236.3L261.6 236.3Q261.0 236.3 260.6 236.6Q260.2 236.9 260.0 237.5Q259.8 238.0 259.8 238.7L259.8 238.7Q259.8 239.5 260.0 240.0Q260.2 240.6 260.6 240.9Q261.0 241.2 261.6 241.2ZM268.3 242.1L268.3 242.1Q267.6 242.1 267.1 241.8Q266.6 241.5 266.3 241.0Q266.1 240.4 266.1 239.6L266.1 239.6L266.1 235.4L267.1 235.4L267.1 239.5Q267.1 240.3 267.5 240.7Q267.9 241.1 268.6 241.1L268.6 241.1Q269.1 241.1 269.4 240.9Q269.8 240.7 270.0 240.3Q270.3 239.9 270.3 239.4L270.3 239.4L270.3 235.4L271.3 235.4L271.3 242L270.3 242L270.3 240.8Q270.0 241.4 269.6 241.7L269.6 241.7Q269.0 242.1 268.3 242.1ZM273.2 233.3L274.2 233.3L274.2 242L273.2 242L273.2 233.3ZM278.8 242.1L278.8 242.1Q277.9 242.1 277.2 241.7Q276.5 241.3 276.1 240.5Q275.8 239.8 275.8 238.8Q275.8 237.8 276.1 237.0Q276.5 236.2 277.1 235.8Q277.8 235.4 278.7 235.4L278.7 235.4Q279.2 235.4 279.7 235.5Q280.2 235.7 280.7 236.1Q281.1 236.5 281.3 237.1Q281.6 237.7 281.6 238.6L281.6 238.6L281.6 239.1L276.8 239.1Q276.8 239.7 277.1 240.2L277.1 240.2Q277.3 240.7 277.8 240.9Q278.2 241.2 278.8 241.2L278.8 241.2Q279.2 241.2 279.5 241.1Q279.9 241.0 280.1 240.8Q280.3 240.5 280.4 240.2L280.4 240.2L281.5 240.5Q281.3 241.0 280.9 241.3Q280.6 241.7 280.0 241.9Q279.5 242.1 278.8 242.1ZM276.8 238.2L276.8 238.2L280.5 238.2Q280.4 237.7 280.3 237.4L280.3 237.4Q280.1 236.9 279.7 236.6Q279.3 236.3 278.7 236.3Q278.1 236.3 277.7 236.6Q277.3 236.9 277.0 237.3L277.0 237.3Q276.9 237.7 276.8 238.2ZM284.1 238.1L284.1 238.1L284.1 242L283.1 242L283.1 235.4L284.1 235.4L284.1 236.7Q284.4 236.0 284.8 235.7L284.8 235.7Q285.3 235.4 286.1 235.4L286.1 235.4Q286.8 235.4 287.3 235.6Q287.8 235.9 288.0 236.5Q288.3 237.0 288.3 237.8L288.3 237.8L288.3 242L287.3 242L287.3 237.9Q287.3 237.2 286.9 236.7Q286.5 236.3 285.8 236.3L285.8 236.3Q285.3 236.3 284.9 236.5Q284.6 236.7 284.3 237.1Q284.1 237.5 284.1 238.1ZM292.8 242.1L292.8 242.1Q291.9 242.1 291.3 241.7Q290.6 241.3 290.2 240.5Q289.8 239.8 289.8 238.8L289.8 238.8Q289.8 237.7 290.2 237.0Q290.6 236.2 291.3 235.8Q291.9 235.4 292.8 235.4L292.8 235.4Q293.3 235.4 293.7 235.5Q294.1 235.6 294.5 235.8Q294.8 236.1 295.1 236.4Q295.3 236.8 295.5 237.2L295.5 237.2L294.5 237.5Q294.4 237.2 294.2 237.0Q294.1 236.8 293.9 236.6Q293.7 236.5 293.4 236.4Q293.1 236.3 292.8 236.3L292.8 236.3Q292.2 236.3 291.7 236.7Q291.3 237.0 291.1 237.6Q290.9 238.1 290.9 238.8L290.9 238.8Q290.9 239.4 291.1 240.0Q291.3 240.5 291.7 240.9Q292.2 241.2 292.8 241.2L292.8 241.2Q293.2 241.2 293.4 241.1Q293.7 241.0 293.9 240.9Q294.1 240.7 294.3 240.5Q294.4 240.3 294.5 240.0L294.5 240.0L295.5 240.3Q295.4 240.7 295.1 241.1Q294.9 241.4 294.5 241.6Q294.2 241.9 293.7 242.0Q293.3 242.1 292.8 242.1ZM299.8 242.1L299.8 242.1Q298.8 242.1 298.1 241.7Q297.4 241.3 297.1 240.5Q296.7 239.8 296.7 238.8Q296.7 237.8 297.1 237.0Q297.4 236.2 298.1 235.8Q298.8 235.4 299.6 235.4L299.6 235.4Q300.2 235.4 300.7 235.5Q301.2 235.7 301.6 236.1Q302.0 236.5 302.3 237.1Q302.5 237.7 302.5 238.6L302.5 238.6L302.5 239.1L297.8 239.1Q297.8 239.7 298.0 240.2L298.0 240.2Q298.3 240.7 298.7 240.9Q299.2 241.2 299.8 241.2L299.8 241.2Q300.2 241.2 300.5 241.1Q300.8 241.0 301.0 240.8Q301.3 240.5 301.4 240.2L301.4 240.2L302.4 240.5Q302.2 241.0 301.9 241.3Q301.5 241.7 301.0 241.9Q300.4 242.1 299.8 242.1ZM297.8 238.2L297.8 238.2L301.4 238.2Q301.4 237.7 301.2 237.4L301.2 237.4Q301.0 236.9 300.6 236.6Q300.2 236.3 299.6 236.3Q299.1 236.3 298.6 236.6Q298.2 236.9 298.0 237.3L298.0 237.3Q297.8 237.7 297.8 238.2Z M310.9 241.4L309.9 241.4L309.9 239.0L307.6 239.0L307.6 238.1L309.9 238.1L309.9 235.8L310.9 235.8L310.9 238.1L313.3 238.1L313.3 239.0L310.9 239.0L310.9 241.4Z M320.2 235.4L321.7 235.4L321.7 236.4L320.2 236.4L320.2 242L319.2 242L319.2 236.4L317.9 236.4L317.9 235.4L319.2 235.4L319.2 234.6Q319.2 234.0 319.4 233.6Q319.7 233.2 320.1 233.1Q320.6 232.9 321.0 232.9L321.0 232.9Q321.4 232.9 321.7 232.9Q321.9 233.0 322.0 233.0L322.0 233.0L321.7 233.9Q321.7 233.9 321.5 233.9Q321.4 233.8 321.2 233.8L321.2 233.8Q320.7 233.8 320.5 234.1Q320.2 234.3 320.2 234.8L320.2 234.8L320.2 235.4ZM325.9 242.1L325.9 242.1Q324.9 242.1 324.3 241.7Q323.6 241.3 323.2 240.5Q322.8 239.8 322.8 238.8Q322.8 237.8 323.2 237.0Q323.6 236.2 324.2 235.8Q324.9 235.4 325.8 235.4L325.8 235.4Q326.3 235.4 326.8 235.5Q327.3 235.7 327.7 236.1Q328.1 236.5 328.4 237.1Q328.6 237.7 328.6 238.6L328.6 238.6L328.6 239.1L323.9 239.1Q323.9 239.7 324.1 240.2L324.1 240.2Q324.4 240.7 324.8 240.9Q325.3 241.2 325.9 241.2L325.9 241.2Q326.3 241.2 326.6 241.1Q326.9 241.0 327.1 240.8Q327.4 240.5 327.5 240.2L327.5 240.2L328.5 240.5Q328.4 241.0 328.0 241.3Q327.6 241.7 327.1 241.9Q326.6 242.1 325.9 242.1ZM323.9 238.2L323.9 238.2L327.6 238.2Q327.5 237.7 327.4 237.4L327.4 237.4Q327.2 236.9 326.8 236.6Q326.4 236.3 325.8 236.3Q325.2 236.3 324.8 236.6Q324.3 236.9 324.1 237.3L324.1 237.3Q323.9 237.7 323.9 238.2ZM333.0 242L333.0 242L330.3 242L330.3 233.3L333.1 233.3Q334.4 233.3 335.3 233.8Q336.2 234.3 336.7 235.3Q337.2 236.3 337.2 237.6L337.2 237.6Q337.2 239.0 336.7 240.0Q336.2 240.9 335.3 241.5Q334.3 242 333.0 242ZM331.4 234.3L331.4 241.0L332.9 241.0Q334.0 241.0 334.7 240.6Q335.4 240.2 335.7 239.4Q336.1 238.7 336.1 237.6L336.1 237.6Q336.1 236.6 335.7 235.8Q335.4 235.1 334.7 234.7Q334.0 234.3 333.0 234.3L333.0 234.3L331.4 234.3ZM339.9 242L338.8 242L338.8 235.4L339.9 235.4L339.9 242ZM339.3 234.4L339.3 234.4Q339.0 234.4 338.8 234.2Q338.6 234.0 338.6 233.7L338.6 233.7Q338.6 233.4 338.8 233.2Q339.0 233.0 339.3 233.0L339.3 233.0Q339.6 233.0 339.9 233.2Q340.1 233.4 340.1 233.7L340.1 233.7Q340.1 234.0 339.9 234.2Q339.6 234.4 339.3 234.4ZM343.9 242.1L343.9 242.1Q343.3 242.1 342.7 241.9Q342.2 241.7 341.9 241.4Q341.5 241.0 341.4 240.4L341.4 240.4L342.4 240.2Q342.6 240.7 342.9 241.0Q343.3 241.2 343.9 241.2L343.9 241.2Q344.6 241.2 345.0 240.9Q345.4 240.6 345.4 240.2L345.4 240.2Q345.4 239.9 345.2 239.7Q344.9 239.4 344.5 239.3L344.5 239.3L343.4 239.1Q342.5 238.9 342.0 238.4Q341.6 238.0 341.6 237.3L341.6 237.3Q341.6 236.7 341.9 236.3Q342.2 235.9 342.8 235.6Q343.3 235.4 344.0 235.4L344.0 235.4Q344.7 235.4 345.2 235.6Q345.7 235.8 345.9 236.1Q346.2 236.5 346.4 236.9L346.4 236.9L345.4 237.2Q345.3 236.8 345.0 236.6Q344.7 236.3 344.0 236.3L344.0 236.3Q343.5 236.3 343.1 236.5Q342.7 236.8 342.7 237.2L342.7 237.2Q342.7 237.6 342.9 237.8Q343.2 238.0 343.8 238.2L343.8 238.2L344.8 238.4Q345.7 238.6 346.1 239.0Q346.5 239.5 346.5 240.2L346.5 240.2Q346.5 240.7 346.2 241.2Q345.9 241.6 345.3 241.9Q344.7 242.1 343.9 242.1ZM349.1 244.4L348.0 244.4L348.0 235.4L349.1 235.4L349.1 236.5L349.2 236.5Q349.3 236.3 349.5 236.1Q349.7 235.8 350.1 235.6Q350.4 235.4 351.1 235.4L351.1 235.4Q351.9 235.4 352.5 235.8Q353.1 236.2 353.5 236.9Q353.8 237.7 353.8 238.7L353.8 238.7Q353.8 239.8 353.5 240.5Q353.1 241.3 352.5 241.7Q351.9 242.1 351.1 242.1L351.1 242.1Q350.5 242.1 350.1 241.9Q349.7 241.7 349.5 241.4Q349.3 241.2 349.2 241.0L349.2 241.0L349.1 241.0L349.1 244.4ZM350.9 241.2L350.9 241.2Q351.5 241.2 351.9 240.9Q352.4 240.5 352.6 240.0Q352.8 239.4 352.8 238.7L352.8 238.7Q352.8 238.1 352.6 237.5Q352.4 237.0 352.0 236.6Q351.5 236.3 350.9 236.3L350.9 236.3Q350.3 236.3 349.9 236.6Q349.5 236.9 349.3 237.5Q349.1 238.0 349.1 238.7L349.1 238.7Q349.1 239.5 349.3 240.0Q349.5 240.6 349.9 240.9Q350.3 241.2 350.9 241.2ZM355.4 233.3L356.4 233.3L356.4 242L355.4 242L355.4 233.3ZM360.1 242.2L360.1 242.2Q359.5 242.2 359.0 241.9Q358.5 241.7 358.2 241.2Q357.9 240.8 357.9 240.1L357.9 240.1Q357.9 239.6 358.1 239.2Q358.3 238.9 358.7 238.7Q359.1 238.5 359.5 238.4Q360.0 238.3 360.4 238.2L360.4 238.2Q361.0 238.1 361.4 238.1Q361.8 238.1 361.9 238.0Q362.1 237.9 362.1 237.6L362.1 237.6L362.1 237.6Q362.1 237.2 362.0 236.9Q361.8 236.6 361.5 236.4Q361.2 236.3 360.8 236.3L360.8 236.3Q360.3 236.3 359.9 236.4Q359.6 236.6 359.4 236.8Q359.2 237.0 359.1 237.3L359.1 237.3L358.1 236.9Q358.3 236.3 358.8 236.0Q359.2 235.6 359.7 235.5Q360.2 235.4 360.7 235.4L360.7 235.4Q361.1 235.4 361.5 235.4Q361.9 235.5 362.3 235.8Q362.7 236.0 362.9 236.5Q363.2 236.9 363.2 237.7L363.2 237.7L363.2 242L362.1 242L362.1 241.1L362.1 241.1Q362.0 241.3 361.7 241.6Q361.5 241.8 361.1 242.0Q360.7 242.2 360.1 242.2ZM360.3 241.2L360.3 241.2Q360.9 241.2 361.3 241.0Q361.7 240.8 361.9 240.4Q362.1 240.0 362.1 239.6L362.1 239.6L362.1 238.7Q362.1 238.8 361.8 238.9Q361.6 238.9 361.3 239.0Q361.1 239.0 360.8 239.0Q360.5 239.1 360.4 239.1L360.4 239.1Q360.0 239.1 359.7 239.3Q359.4 239.4 359.2 239.6Q359.0 239.8 359.0 240.2L359.0 240.2Q359.0 240.5 359.1 240.8Q359.3 241.0 359.6 241.1Q359.9 241.2 360.3 241.2ZM367.7 242.1L367.7 242.1Q366.8 242.1 366.1 241.7Q365.5 241.3 365.1 240.5Q364.7 239.8 364.7 238.8L364.7 238.8Q364.7 237.7 365.1 237.0Q365.5 236.2 366.1 235.8Q366.8 235.4 367.7 235.4L367.7 235.4Q368.2 235.4 368.6 235.5Q369.0 235.6 369.4 235.8Q369.7 236.1 370.0 236.4Q370.2 236.8 370.3 237.2L370.3 237.2L369.3 237.5Q369.3 237.2 369.1 237.0Q369.0 236.8 368.8 236.6Q368.6 236.5 368.3 236.4Q368.0 236.3 367.7 236.3L367.7 236.3Q367.0 236.3 366.6 236.7Q366.2 237.0 366.0 237.6Q365.8 238.1 365.8 238.8L365.8 238.8Q365.8 239.4 366.0 240.0Q366.2 240.5 366.6 240.9Q367.0 241.2 367.7 241.2L367.7 241.2Q368.0 241.2 368.3 241.1Q368.6 241.0 368.8 240.9Q369.0 240.7 369.1 240.5Q369.3 240.3 369.4 240.0L369.4 240.0L370.4 240.3Q370.2 240.7 370.0 241.1Q369.7 241.4 369.4 241.6Q369.0 241.9 368.6 242.0Q368.2 242.1 367.7 242.1ZM374.6 242.1L374.6 242.1Q373.7 242.1 373.0 241.7Q372.3 241.3 371.9 240.5Q371.6 239.8 371.6 238.8Q371.6 237.8 371.9 237.0Q372.3 236.2 373.0 235.8Q373.6 235.4 374.5 235.4L374.5 235.4Q375.0 235.4 375.5 235.5Q376.1 235.7 376.5 236.1Q376.9 236.5 377.1 237.1Q377.4 237.7 377.4 238.6L377.4 238.6L377.4 239.1L372.6 239.1Q372.7 239.7 372.9 240.2L372.9 240.2Q373.1 240.7 373.6 240.9Q374.0 241.2 374.6 241.2L374.6 241.2Q375.0 241.2 375.3 241.1Q375.7 241.0 375.9 240.8Q376.1 240.5 376.2 240.2L376.2 240.2L377.3 240.5Q377.1 241.0 376.7 241.3Q376.4 241.7 375.8 241.9Q375.3 242.1 374.6 242.1ZM372.6 238.2L372.6 238.2L376.3 238.2Q376.3 237.7 376.1 237.4L376.1 237.4Q375.9 236.9 375.5 236.6Q375.1 236.3 374.5 236.3Q373.9 236.3 373.5 236.6Q373.1 236.9 372.9 237.3L372.9 237.3Q372.7 237.7 372.6 238.2ZM379.9 242L378.9 242L378.9 235.4L379.9 235.4L379.9 236.7Q380.0 236.3 380.3 236.0L380.3 236.0Q380.5 235.7 380.9 235.5Q381.3 235.3 381.7 235.3L381.7 235.3Q382.5 235.3 382.9 235.8L382.9 235.8Q383.3 236.1 383.4 236.7L383.4 236.7Q383.5 236.3 383.8 236.1L383.8 236.1Q384.1 235.7 384.5 235.5Q385.0 235.3 385.5 235.3L385.5 235.3Q386.0 235.3 386.5 235.6Q387.0 235.8 387.3 236.3Q387.5 236.8 387.5 237.6L387.5 237.6L387.5 242L386.5 242L386.5 237.6Q386.5 236.9 386.1 236.6Q385.7 236.3 385.2 236.3L385.2 236.3Q384.7 236.3 384.4 236.5Q384.1 236.7 383.9 237.0Q383.7 237.3 383.7 237.7L383.7 237.7L383.7 242L382.7 242L382.7 237.5Q382.7 237.0 382.3 236.6Q382.0 236.3 381.4 236.3L381.4 236.3Q381.0 236.3 380.7 236.5Q380.3 236.7 380.1 237.0Q379.9 237.4 379.9 237.9L379.9 237.9L379.9 242ZM392.1 242.1L392.1 242.1Q391.2 242.1 390.5 241.7Q389.8 241.3 389.4 240.5Q389.1 239.8 389.1 238.8Q389.1 237.8 389.4 237.0Q389.8 236.2 390.5 235.8Q391.1 235.4 392.0 235.4L392.0 235.4Q392.5 235.4 393.1 235.5Q393.6 235.7 394.0 236.1Q394.4 236.5 394.6 237.1Q394.9 237.7 394.9 238.6L394.9 238.6L394.9 239.1L390.1 239.1Q390.2 239.7 390.4 240.2L390.4 240.2Q390.6 240.7 391.1 240.9Q391.6 241.2 392.2 241.2L392.2 241.2Q392.5 241.2 392.9 241.1Q393.2 241.0 393.4 240.8Q393.6 240.5 393.8 240.2L393.8 240.2L394.8 240.5Q394.6 241.0 394.3 241.3Q393.9 241.7 393.4 241.9Q392.8 242.1 392.1 242.1ZM390.1 238.2L390.1 238.2L393.8 238.2Q393.8 237.7 393.6 237.4L393.6 237.4Q393.4 236.9 393.0 236.6Q392.6 236.3 392.0 236.3Q391.4 236.3 391.0 236.6Q390.6 236.9 390.4 237.3L390.4 237.3Q390.2 237.7 390.1 238.2ZM397.4 238.1L397.4 238.1L397.4 242L396.4 242L396.4 235.4L397.4 235.4L397.4 236.7Q397.7 236.0 398.1 235.7L398.1 235.7Q398.7 235.4 399.4 235.4L399.4 235.4Q400.1 235.4 400.6 235.6Q401.1 235.9 401.3 236.5Q401.6 237.0 401.6 237.8L401.6 237.8L401.6 242L400.6 242L400.6 237.9Q400.6 237.2 400.2 236.7Q399.8 236.3 399.1 236.3L399.1 236.3Q398.6 236.3 398.3 236.5Q397.9 236.7 397.7 237.1Q397.4 237.5 397.4 238.1ZM404.7 235.4L406.1 235.4L406.1 236.4L404.7 236.4L404.7 240.3Q404.7 240.7 404.9 240.9Q405.1 241.1 405.5 241.1L405.5 241.1Q405.6 241.1 405.7 241.1Q405.9 241.1 406.0 241.1L406.0 241.1L406.2 242.0Q406.1 242.0 405.9 242.1Q405.7 242.1 405.5 242.1L405.5 242.1Q404.6 242.1 404.1 241.6Q403.7 241.2 403.7 240.4L403.7 240.4L403.7 236.4L402.7 236.4L402.7 235.4L403.7 235.4L403.7 233.9L404.7 233.9L404.7 235.4ZM408.6 242L407.5 242L407.5 233.3L409.1 233.3L411.3 238.8Q411.3 239.0 411.4 239.3Q411.5 239.6 411.6 239.9Q411.8 240.2 411.9 240.6L411.9 240.6Q411.9 240.7 411.9 240.8L411.9 240.8Q411.9 240.7 412.0 240.6L412.0 240.6Q412.1 240.3 412.2 239.9Q412.3 239.6 412.4 239.3Q412.5 239.0 412.6 238.8L412.6 238.8L414.7 233.3L416.3 233.3L416.3 242L415.2 242L415.2 237.0Q415.2 236.7 415.2 236.4Q415.2 236.1 415.2 235.7Q415.2 235.3 415.2 234.9L415.2 234.9Q415.2 234.7 415.2 234.5L415.2 234.5Q415.1 234.7 415.1 235.0L415.1 235.0Q414.9 235.4 414.8 235.8Q414.6 236.2 414.5 236.5Q414.4 236.8 414.3 237.0L414.3 237.0L412.4 242L411.4 242L409.4 237.0Q409.3 236.8 409.2 236.5Q409.1 236.2 409.0 235.8Q408.9 235.4 408.7 235.0L408.7 235.0Q408.6 234.7 408.6 234.5L408.6 234.5Q408.6 234.7 408.6 234.8L408.6 234.8Q408.6 235.2 408.6 235.6Q408.6 236.0 408.6 236.4Q408.6 236.7 408.6 237.0L408.6 237.0L408.6 242ZM420.1 242.2L420.1 242.2Q419.5 242.2 419.0 241.9Q418.4 241.7 418.1 241.2Q417.8 240.8 417.8 240.1L417.8 240.1Q417.8 239.6 418.1 239.2Q418.3 238.9 418.7 238.7Q419.0 238.5 419.5 238.4Q419.9 238.3 420.4 238.2L420.4 238.2Q421.0 238.1 421.3 238.1Q421.7 238.1 421.9 238.0Q422.1 237.9 422.1 237.6L422.1 237.6L422.1 237.6Q422.1 237.2 421.9 236.9Q421.8 236.6 421.5 236.4Q421.2 236.3 420.7 236.3L420.7 236.3Q420.2 236.3 419.9 236.4Q419.6 236.6 419.4 236.8Q419.2 237.0 419.0 237.3L419.0 237.3L418.0 236.9Q418.3 236.3 418.7 236.0Q419.1 235.6 419.7 235.5Q420.2 235.4 420.7 235.4L420.7 235.4Q421.0 235.4 421.4 235.4Q421.8 235.5 422.2 235.8Q422.6 236.0 422.9 236.5Q423.1 236.9 423.1 237.7L423.1 237.7L423.1 242L422.1 242L422.1 241.1L422.0 241.1Q421.9 241.3 421.7 241.6Q421.4 241.8 421.0 242.0Q420.6 242.2 420.1 242.2ZM420.3 241.2L420.3 241.2Q420.8 241.2 421.3 241.0Q421.7 240.8 421.9 240.4Q422.1 240.0 422.1 239.6L422.1 239.6L422.1 238.7Q422.0 238.8 421.8 238.9Q421.6 238.9 421.3 239.0Q421.0 239.0 420.8 239.0Q420.5 239.1 420.3 239.1L420.3 239.1Q420.0 239.1 419.6 239.3Q419.3 239.4 419.1 239.6Q418.9 239.8 418.9 240.2L418.9 240.2Q418.9 240.5 419.1 240.8Q419.3 241.0 419.6 241.1Q419.9 241.2 420.3 241.2ZM426.0 244.4L425.0 244.4L425.0 235.4L426.0 235.4L426.0 236.5L426.1 236.5Q426.2 236.3 426.4 236.1Q426.6 235.8 427.0 235.6Q427.4 235.4 428.0 235.4L428.0 235.4Q428.8 235.4 429.5 235.8Q430.1 236.2 430.4 236.9Q430.8 237.7 430.8 238.7L430.8 238.7Q430.8 239.8 430.4 240.5Q430.1 241.3 429.5 241.7Q428.8 242.1 428.0 242.1L428.0 242.1Q427.4 242.1 427.0 241.9Q426.6 241.7 426.4 241.4Q426.2 241.2 426.1 241.0L426.1 241.0L426.0 241.0L426.0 244.4ZM427.9 241.2L427.9 241.2Q428.5 241.2 428.9 240.9Q429.3 240.5 429.5 240.0Q429.7 239.4 429.7 238.7L429.7 238.7Q429.7 238.1 429.5 237.5Q429.3 237.0 428.9 236.6Q428.5 236.3 427.9 236.3L427.9 236.3Q427.3 236.3 426.9 236.6Q426.4 236.9 426.2 237.5Q426.0 238.0 426.0 238.7L426.0 238.7Q426.0 239.5 426.2 240.0Q426.4 240.6 426.9 240.9Q427.3 241.2 427.9 241.2Z M438.2 242L437.2 242L435.2 235.4L436.3 235.4L437.1 238.3Q437.3 238.9 437.5 239.6L437.5 239.6Q437.6 240.2 437.7 240.9L437.7 240.9Q437.9 240.2 438.0 239.7L438.0 239.7Q438.2 238.9 438.4 238.3L438.4 238.3L439.1 235.4L440.3 235.4L441.0 238.3Q441.2 238.9 441.4 239.7L441.4 239.7Q441.5 240.2 441.6 240.9L441.6 240.9Q441.8 240.2 441.9 239.7L441.9 239.7Q442.1 238.9 442.3 238.3L442.3 238.3L443.1 235.4L444.2 235.4L442.2 242L441.2 242L440.3 239.0Q440.2 238.6 440.1 238.1Q439.9 237.6 439.8 237.2L439.8 237.2Q439.8 236.9 439.7 236.6L439.7 236.6Q439.6 236.9 439.6 237.1L439.6 237.1Q439.4 237.6 439.3 238.1Q439.2 238.6 439.1 239.0L439.1 239.0L438.2 242ZM446.6 242L445.5 242L445.5 235.4L446.6 235.4L446.6 242ZM446.1 234.4L446.1 234.4Q445.8 234.4 445.5 234.2Q445.3 234.0 445.3 233.7L445.3 233.7Q445.3 233.4 445.5 233.2Q445.8 233.0 446.1 233.0L446.1 233.0Q446.4 233.0 446.6 233.2Q446.8 233.4 446.8 233.7L446.8 233.7Q446.8 234.0 446.6 234.2Q446.4 234.4 446.1 234.4ZM449.7 235.4L451.0 235.4L451.0 236.4L449.7 236.4L449.7 240.3Q449.7 240.7 449.8 240.9Q450.0 241.1 450.4 241.1L450.4 241.1Q450.5 241.1 450.7 241.1Q450.8 241.1 451.0 241.1L451.0 241.1L451.2 242.0Q451.0 242.0 450.8 242.1Q450.6 242.1 450.4 242.1L450.4 242.1Q449.6 242.1 449.1 241.6Q448.6 241.2 448.6 240.4L448.6 240.4L448.6 236.4L447.6 236.4L447.6 235.4L448.6 235.4L448.6 233.9L449.7 233.9L449.7 235.4ZM453.4 238.1L453.4 238.1L453.4 242L452.4 242L452.4 233.3L453.4 233.3L453.4 236.6Q453.7 236.0 454.1 235.7L454.1 235.7Q454.6 235.4 455.4 235.4L455.4 235.4Q456.0 235.4 456.5 235.6Q457.0 235.9 457.3 236.5Q457.6 237.0 457.6 237.8L457.6 237.8L457.6 242L456.5 242L456.5 237.9Q456.5 237.2 456.1 236.7Q455.8 236.3 455.1 236.3L455.1 236.3Q454.6 236.3 454.2 236.5Q453.8 236.7 453.6 237.1Q453.4 237.5 453.4 238.1Z M464.7 242.2L464.7 242.2Q464.0 242.2 463.5 241.9Q463.0 241.7 462.7 241.2Q462.4 240.8 462.4 240.1L462.4 240.1Q462.4 239.6 462.7 239.2Q462.9 238.9 463.2 238.7Q463.6 238.5 464.1 238.4Q464.5 238.3 465.0 238.2L465.0 238.2Q465.6 238.1 465.9 238.1Q466.3 238.1 466.5 238.0Q466.7 237.9 466.7 237.6L466.7 237.6L466.7 237.6Q466.7 237.2 466.5 236.9Q466.4 236.6 466.1 236.4Q465.7 236.3 465.3 236.3L465.3 236.3Q464.8 236.3 464.5 236.4Q464.2 236.6 463.9 236.8Q463.7 237.0 463.6 237.3L463.6 237.3L462.6 236.9Q462.9 236.3 463.3 236.0Q463.7 235.6 464.2 235.5Q464.8 235.4 465.3 235.4L465.3 235.4Q465.6 235.4 466.0 235.4Q466.4 235.5 466.8 235.8Q467.2 236.0 467.5 236.5Q467.7 236.9 467.7 237.7L467.7 237.7L467.7 242L466.7 242L466.7 241.1L466.6 241.1Q466.5 241.3 466.3 241.6Q466.0 241.8 465.6 242.0Q465.2 242.2 464.7 242.2ZM464.8 241.2L464.8 241.2Q465.4 241.2 465.8 241.0Q466.2 240.8 466.4 240.4Q466.7 240.0 466.7 239.6L466.7 239.6L466.7 238.7Q466.6 238.8 466.4 238.9Q466.2 238.9 465.9 239.0Q465.6 239.0 465.3 239.0Q465.1 239.1 464.9 239.1L464.9 239.1Q464.6 239.1 464.2 239.3Q463.9 239.4 463.7 239.6Q463.5 239.8 463.5 240.2L463.5 240.2Q463.5 240.5 463.7 240.8Q463.8 241.0 464.1 241.1Q464.5 241.2 464.8 241.2ZM470.6 238.1L470.6 238.1L470.6 242L469.6 242L469.6 235.4L470.6 235.4L470.6 236.7Q470.9 236.0 471.3 235.7L471.3 235.7Q471.8 235.4 472.6 235.4L472.6 235.4Q473.3 235.4 473.8 235.6Q474.2 235.9 474.5 236.5Q474.8 237.0 474.8 237.8L474.8 237.8L474.8 242L473.8 242L473.8 237.9Q473.8 237.2 473.4 236.7Q473.0 236.3 472.3 236.3L472.3 236.3Q471.8 236.3 471.4 236.5Q471.1 236.7 470.8 237.1Q470.6 237.5 470.6 238.1ZM477.7 242L476.7 242L476.7 235.4L477.7 235.4L477.7 242ZM477.2 234.4L477.2 234.4Q476.9 234.4 476.7 234.2Q476.5 234.0 476.5 233.7L476.5 233.7Q476.5 233.4 476.7 233.2Q476.9 233.0 477.2 233.0L477.2 233.0Q477.5 233.0 477.7 233.2Q477.9 233.4 477.9 233.7L477.9 233.7Q477.9 234.0 477.7 234.2Q477.5 234.4 477.2 234.4ZM480.6 242L479.6 242L479.6 235.4L480.6 235.4L480.6 236.7Q480.7 236.3 480.9 236.0L480.9 236.0Q481.2 235.7 481.6 235.5Q482.0 235.3 482.4 235.3L482.4 235.3Q483.1 235.3 483.6 235.8L483.6 235.8Q483.9 236.1 484.1 236.7L484.1 236.7Q484.2 236.3 484.4 236.1L484.4 236.1Q484.8 235.7 485.2 235.5Q485.6 235.3 486.2 235.3L486.2 235.3Q486.7 235.3 487.2 235.6Q487.7 235.8 487.9 236.3Q488.2 236.8 488.2 237.6L488.2 237.6L488.2 242L487.2 242L487.2 237.6Q487.2 236.9 486.8 236.6Q486.4 236.3 485.8 236.3L485.8 236.3Q485.4 236.3 485.1 236.5Q484.8 236.7 484.6 237.0Q484.4 237.3 484.4 237.7L484.4 237.7L484.4 242L483.4 242L483.4 237.5Q483.4 237.0 483.0 236.6Q482.6 236.3 482.1 236.3L482.1 236.3Q481.7 236.3 481.4 236.5Q481.0 236.7 480.8 237.0Q480.6 237.4 480.6 237.9L480.6 237.9L480.6 242ZM491.9 242.2L491.9 242.2Q491.3 242.2 490.8 241.9Q490.3 241.7 490.0 241.2Q489.7 240.8 489.7 240.1L489.7 240.1Q489.7 239.6 489.9 239.2Q490.1 238.9 490.5 238.7Q490.9 238.5 491.3 238.4Q491.8 238.3 492.2 238.2L492.2 238.2Q492.8 238.1 493.2 238.1Q493.5 238.1 493.7 238.0Q493.9 237.9 493.9 237.6L493.9 237.6L493.9 237.6Q493.9 237.2 493.8 236.9Q493.6 236.6 493.3 236.4Q493.0 236.3 492.5 236.3L492.5 236.3Q492.1 236.3 491.7 236.4Q491.4 236.6 491.2 236.8Q491.0 237.0 490.9 237.3L490.9 237.3L489.9 236.9Q490.1 236.3 490.5 236.0Q491.0 235.6 491.5 235.5Q492.0 235.4 492.5 235.4L492.5 235.4Q492.8 235.4 493.3 235.4Q493.7 235.5 494.1 235.8Q494.5 236.0 494.7 236.5Q495.0 236.9 495.0 237.7L495.0 237.7L495.0 242L493.9 242L493.9 241.1L493.9 241.1Q493.7 241.3 493.5 241.6Q493.3 241.8 492.9 242.0Q492.5 242.2 491.9 242.2ZM492.1 241.2L492.1 241.2Q492.7 241.2 493.1 241.0Q493.5 240.8 493.7 240.4Q493.9 240.0 493.9 239.6L493.9 239.6L493.9 238.7Q493.8 238.8 493.6 238.9Q493.4 238.9 493.1 239.0Q492.9 239.0 492.6 239.0Q492.3 239.1 492.2 239.1L492.2 239.1Q491.8 239.1 491.5 239.3Q491.1 239.4 490.9 239.6Q490.7 239.8 490.7 240.2L490.7 240.2Q490.7 240.5 490.9 240.8Q491.1 241.0 491.4 241.1Q491.7 241.2 492.1 241.2ZM498.0 235.4L499.4 235.4L499.4 236.4L498.0 236.4L498.0 240.3Q498.0 240.7 498.2 240.9Q498.4 241.1 498.8 241.1L498.8 241.1Q498.9 241.1 499.1 241.1Q499.2 241.1 499.4 241.1L499.4 241.1L499.6 242.0Q499.4 242.0 499.2 242.1Q499.0 242.1 498.8 242.1L498.8 242.1Q497.9 242.1 497.5 241.6Q497.0 241.2 497.0 240.4L497.0 240.4L497.0 236.4L496.0 236.4L496.0 235.4L497.0 235.4L497.0 233.9L498.0 233.9L498.0 235.4ZM503.5 242.1L503.5 242.1Q502.5 242.1 501.9 241.7Q501.2 241.3 500.8 240.5Q500.4 239.8 500.4 238.8Q500.4 237.8 500.8 237.0Q501.1 236.2 501.8 235.8Q502.5 235.4 503.4 235.4L503.4 235.4Q503.9 235.4 504.4 235.5Q504.9 235.7 505.3 236.1Q505.7 236.5 506.0 237.1Q506.2 237.7 506.2 238.6L506.2 238.6L506.2 239.1L501.5 239.1Q501.5 239.7 501.7 240.2L501.7 240.2Q502.0 240.7 502.4 240.9Q502.9 241.2 503.5 241.2L503.5 241.2Q503.9 241.2 504.2 241.1Q504.5 241.0 504.7 240.8Q505.0 240.5 505.1 240.2L505.1 240.2L506.1 240.5Q506.0 241.0 505.6 241.3Q505.2 241.7 504.7 241.9Q504.2 242.1 503.5 242.1ZM501.5 238.2L501.5 238.2L505.2 238.2Q505.1 237.7 505.0 237.4L505.0 237.4Q504.8 236.9 504.4 236.6Q504.0 236.3 503.4 236.3Q502.8 236.3 502.4 236.6Q501.9 236.9 501.7 237.3L501.7 237.3Q501.5 237.7 501.5 238.2ZM510.2 242.1L510.2 242.1Q509.4 242.1 508.7 241.7Q508.1 241.3 507.8 240.5Q507.4 239.8 507.4 238.7L507.4 238.7Q507.4 237.7 507.8 236.9Q508.1 236.2 508.8 235.8Q509.4 235.4 510.2 235.4L510.2 235.4Q510.8 235.4 511.2 235.6Q511.6 235.8 511.8 236.1Q512.0 236.3 512.1 236.5L512.1 236.5L512.2 236.5L512.2 233.3L513.2 233.3L513.2 242L512.2 242L512.2 241.0L512.1 241.0Q512.0 241.2 511.8 241.4Q511.6 241.7 511.2 241.9Q510.8 242.1 510.2 242.1ZM510.3 241.2L510.3 241.2Q510.9 241.2 511.4 240.9Q511.8 240.6 512.0 240.0Q512.2 239.5 512.2 238.7L512.2 238.7Q512.2 238.0 512.0 237.5Q511.8 236.9 511.4 236.6Q511.0 236.3 510.3 236.3L510.3 236.3Q509.7 236.3 509.3 236.6Q508.9 237.0 508.7 237.5Q508.5 238.1 508.5 238.7L508.5 238.7Q508.5 239.4 508.7 240.0Q508.9 240.5 509.3 240.9Q509.7 241.2 510.3 241.2Z M520.0 235.4L521.5 235.4L521.5 236.4L520.0 236.4L520.0 242L518.9 242L518.9 236.4L517.6 236.4L517.6 235.4L518.9 235.4L518.9 234.6Q518.9 234.0 519.2 233.6Q519.5 233.2 519.9 233.1Q520.3 232.9 520.8 232.9L520.8 232.9Q521.2 232.9 521.4 232.9Q521.7 233.0 521.8 233.0L521.8 233.0L521.5 233.9Q521.4 233.9 521.3 233.9Q521.1 233.8 520.9 233.8L520.9 233.8Q520.4 233.8 520.2 234.1Q520.0 234.3 520.0 234.8L520.0 234.8L520.0 235.4ZM524.0 242L522.9 242L522.9 235.4L523.9 235.4L523.9 236.5L524.0 236.5Q524.2 236.0 524.6 235.7Q525.1 235.4 525.7 235.4L525.7 235.4Q525.8 235.4 526.0 235.4Q526.1 235.4 526.2 235.4L526.2 235.4L526.2 236.4Q526.2 236.4 526.0 236.4Q525.8 236.4 525.6 236.4L525.6 236.4Q525.1 236.4 524.7 236.6Q524.4 236.8 524.2 237.1Q524.0 237.5 524.0 237.9L524.0 237.9L524.0 242ZM530.2 242.1L530.2 242.1Q529.2 242.1 528.5 241.7Q527.8 241.3 527.5 240.5Q527.1 239.8 527.1 238.8Q527.1 237.8 527.5 237.0Q527.8 236.2 528.5 235.8Q529.2 235.4 530.0 235.4L530.0 235.4Q530.6 235.4 531.1 235.5Q531.6 235.7 532.0 236.1Q532.4 236.5 532.7 237.1Q532.9 237.7 532.9 238.6L532.9 238.6L532.9 239.1L528.2 239.1Q528.2 239.7 528.4 240.2L528.4 240.2Q528.7 240.7 529.1 240.9Q529.6 241.2 530.2 241.2L530.2 241.2Q530.6 241.2 530.9 241.1Q531.2 241.0 531.4 240.8Q531.7 240.5 531.8 240.2L531.8 240.2L532.8 240.5Q532.6 241.0 532.3 241.3Q531.9 241.7 531.4 241.9Q530.8 242.1 530.2 242.1ZM528.2 238.2L528.2 238.2L531.8 238.2Q531.8 237.7 531.6 237.4L531.6 237.4Q531.4 236.9 531.0 236.6Q530.6 236.3 530.0 236.3Q529.5 236.3 529.0 236.6Q528.6 236.9 528.4 237.3L528.4 237.3Q528.2 237.7 528.2 238.2ZM539.9 235.4L539.9 244.4L538.9 244.4L538.9 241.0L538.8 241.0Q538.7 241.2 538.5 241.4Q538.3 241.7 537.9 241.9Q537.5 242.1 536.9 242.1L536.9 242.1Q536.1 242.1 535.4 241.7Q534.8 241.3 534.4 240.5Q534.1 239.8 534.1 238.7L534.1 238.7Q534.1 237.7 534.5 236.9Q534.8 236.2 535.4 235.8Q536.1 235.4 536.9 235.4L536.9 235.4Q537.5 235.4 537.9 235.6Q538.3 235.8 538.5 236.1Q538.7 236.3 538.8 236.5L538.8 236.5L538.9 236.5L538.9 235.4L539.9 235.4ZM537.0 241.2L537.0 241.2Q537.6 241.2 538.0 240.9Q538.4 240.6 538.7 240.0Q538.9 239.5 538.9 238.7L538.9 238.7Q538.9 238.0 538.7 237.5Q538.4 236.9 538.0 236.6Q537.6 236.3 537.0 236.3L537.0 236.3Q536.4 236.3 536.0 236.6Q535.6 237.0 535.4 237.5Q535.2 238.1 535.2 238.7L535.2 238.7Q535.2 239.4 535.4 240.0Q535.6 240.5 536 240.9Q536.4 241.2 537.0 241.2ZM544.0 242.1L544.0 242.1Q543.3 242.1 542.8 241.8Q542.3 241.5 542.0 241.0Q541.8 240.4 541.8 239.6L541.8 239.6L541.8 235.4L542.8 235.4L542.8 239.5Q542.8 240.3 543.2 240.7Q543.6 241.1 544.3 241.1L544.3 241.1Q544.8 241.1 545.1 240.9Q545.5 240.7 545.7 240.3Q545.9 239.9 545.9 239.4L545.9 239.4L545.9 235.4L547.0 235.4L547.0 242L546.0 242L546.0 240.8Q545.7 241.4 545.3 241.7L545.3 241.7Q544.7 242.1 544.0 242.1ZM551.6 242.1L551.6 242.1Q550.7 242.1 550.0 241.7Q549.3 241.3 548.9 240.5Q548.5 239.8 548.5 238.8Q548.5 237.8 548.9 237.0Q549.3 236.2 549.9 235.8Q550.6 235.4 551.5 235.4L551.5 235.4Q552.0 235.4 552.5 235.5Q553.0 235.7 553.4 236.1Q553.8 236.5 554.1 237.1Q554.3 237.7 554.3 238.6L554.3 238.6L554.3 239.1L549.6 239.1Q549.6 239.7 549.9 240.2L549.9 240.2Q550.1 240.7 550.6 240.9Q551.0 241.2 551.6 241.2L551.6 241.2Q552.0 241.2 552.3 241.1Q552.6 241.0 552.9 240.8Q553.1 240.5 553.2 240.2L553.2 240.2L554.2 240.5Q554.1 241.0 553.7 241.3Q553.4 241.7 552.8 241.9Q552.3 242.1 551.6 242.1ZM549.6 238.2L549.6 238.2L553.3 238.2Q553.2 237.7 553.1 237.4L553.1 237.4Q552.9 236.9 552.5 236.6Q552.1 236.3 551.5 236.3Q550.9 236.3 550.5 236.6Q550.1 236.9 549.8 237.3L549.8 237.3Q549.6 237.7 549.6 238.2ZM556.9 238.1L556.9 238.1L556.9 242L555.9 242L555.9 235.4L556.9 235.4L556.9 236.7Q557.1 236.0 557.6 235.7L557.6 235.7Q558.1 235.4 558.9 235.4L558.9 235.4Q559.5 235.4 560.0 235.6Q560.5 235.9 560.8 236.5Q561.1 237.0 561.1 237.8L561.1 237.8L561.1 242L560.0 242L560.0 237.9Q560.0 237.2 559.6 236.7Q559.2 236.3 558.6 236.3L558.6 236.3Q558.1 236.3 557.7 236.5Q557.3 236.7 557.1 237.1Q556.9 237.5 556.9 238.1ZM565.6 242.1L565.6 242.1Q564.7 242.1 564.0 241.7Q563.4 241.3 563 240.5Q562.6 239.8 562.6 238.8L562.6 238.8Q562.6 237.7 563 237.0Q563.4 236.2 564.0 235.8Q564.7 235.4 565.6 235.4L565.6 235.4Q566.1 235.4 566.5 235.5Q566.9 235.6 567.3 235.8Q567.6 236.1 567.9 236.4Q568.1 236.8 568.3 237.2L568.3 237.2L567.2 237.5Q567.2 237.2 567.0 237.0Q566.9 236.8 566.7 236.6Q566.5 236.5 566.2 236.4Q565.9 236.3 565.6 236.3L565.6 236.3Q565.0 236.3 564.5 236.7Q564.1 237.0 563.9 237.6Q563.7 238.1 563.7 238.8L563.7 238.8Q563.7 239.4 563.9 240.0Q564.1 240.5 564.5 240.9Q565.0 241.2 565.6 241.2L565.6 241.2Q565.9 241.2 566.2 241.1Q566.5 241.0 566.7 240.9Q566.9 240.7 567.1 240.5Q567.2 240.3 567.3 240.0L567.3 240.0L568.3 240.3Q568.2 240.7 567.9 241.1Q567.6 241.4 567.3 241.6Q566.9 241.9 566.5 242.0Q566.1 242.1 565.6 242.1ZM569.7 244.4L569.7 244.4L570.0 243.5L570.1 243.5Q570.4 243.6 570.7 243.5Q570.9 243.5 571.1 243.3Q571.3 243.0 571.5 242.6L571.5 242.6L571.7 242.0L569.2 235.4L570.3 235.4L571.7 239.3Q572.0 239.9 572.1 240.5L572.1 240.5Q572.2 240.8 572.2 241.0L572.2 241.0Q572.3 240.8 572.4 240.5L572.4 240.5Q572.5 239.9 572.7 239.3L572.7 239.3L574.2 235.4L575.3 235.4L572.4 243.0Q572.2 243.5 571.9 243.8Q571.7 244.2 571.3 244.3Q570.9 244.5 570.5 244.5L570.5 244.5Q570.2 244.5 570.0 244.5Q569.8 244.4 569.7 244.4Z M581.8 242.2L581.8 242.2Q581.1 242.2 580.6 241.9Q580.1 241.7 579.8 241.2Q579.5 240.8 579.5 240.1L579.5 240.1Q579.5 239.6 579.7 239.2Q580.0 238.9 580.3 238.7Q580.7 238.5 581.2 238.4Q581.6 238.3 582.1 238.2L582.1 238.2Q582.7 238.1 583.0 238.1Q583.4 238.1 583.6 238.0Q583.7 237.9 583.7 237.6L583.7 237.6L583.7 237.6Q583.7 237.2 583.6 236.9Q583.4 236.6 583.1 236.4Q582.8 236.3 582.4 236.3L582.4 236.3Q581.9 236.3 581.6 236.4Q581.2 236.6 581.0 236.8Q580.8 237.0 580.7 237.3L580.7 237.3L579.7 236.9Q580.0 236.3 580.4 236.0Q580.8 235.6 581.3 235.5Q581.8 235.4 582.3 235.4L582.3 235.4Q582.7 235.4 583.1 235.4Q583.5 235.5 583.9 235.8Q584.3 236.0 584.5 236.5Q584.8 236.9 584.8 237.7L584.8 237.7L584.8 242L583.8 242L583.8 241.1L583.7 241.1Q583.6 241.3 583.3 241.6Q583.1 241.8 582.7 242.0Q582.3 242.2 581.8 242.2ZM581.9 241.2L581.9 241.2Q582.5 241.2 582.9 241.0Q583.3 240.8 583.5 240.4Q583.7 240.0 583.7 239.6L583.7 239.6L583.7 238.7Q583.7 238.8 583.5 238.9Q583.3 238.9 583.0 239.0Q582.7 239.0 582.4 239.0Q582.2 239.1 582.0 239.1L582.0 239.1Q581.6 239.1 581.3 239.3Q581.0 239.4 580.8 239.6Q580.6 239.8 580.6 240.2L580.6 240.2Q580.6 240.5 580.8 240.8Q580.9 241.0 581.2 241.1Q581.5 241.2 581.9 241.2ZM587.7 238.1L587.7 238.1L587.7 242L586.7 242L586.7 235.4L587.7 235.4L587.7 236.7Q587.9 236.0 588.4 235.7L588.4 235.7Q588.9 235.4 589.7 235.4L589.7 235.4Q590.3 235.4 590.8 235.6Q591.3 235.9 591.6 236.5Q591.9 237.0 591.9 237.8L591.9 237.8L591.9 242L590.8 242L590.8 237.9Q590.8 237.2 590.4 236.7Q590.0 236.3 589.4 236.3L589.4 236.3Q588.9 236.3 588.5 236.5Q588.1 236.7 587.9 237.1Q587.7 237.5 587.7 238.1ZM596.2 242.1L596.2 242.1Q595.4 242.1 594.8 241.7Q594.1 241.3 593.8 240.5Q593.4 239.8 593.4 238.7L593.4 238.7Q593.4 237.7 593.8 236.9Q594.1 236.2 594.8 235.8Q595.4 235.4 596.2 235.4L596.2 235.4Q596.8 235.4 597.2 235.6Q597.6 235.8 597.8 236.1Q598.0 236.3 598.1 236.5L598.1 236.5L598.2 236.5L598.2 233.3L599.2 233.3L599.2 242L598.2 242L598.2 241.0L598.1 241.0Q598.0 241.2 597.8 241.4Q597.6 241.7 597.2 241.9Q596.8 242.1 596.2 242.1ZM596.4 241.2L596.4 241.2Q597.0 241.2 597.4 240.9Q597.8 240.6 598.0 240.0Q598.2 239.5 598.2 238.7L598.2 238.7Q598.2 238.0 598.0 237.5Q597.8 236.9 597.4 236.6Q597.0 236.3 596.4 236.3L596.4 236.3Q595.7 236.3 595.3 236.6Q594.9 237.0 594.7 237.5Q594.5 238.1 594.5 238.7L594.5 238.7Q594.5 239.4 594.7 240.0Q594.9 240.5 595.3 240.9Q595.7 241.2 596.4 241.2Z M606.7 242.1L606.7 242.1Q606.0 242.1 605.5 241.9Q605.0 241.7 604.6 241.4Q604.3 241.0 604.2 240.4L604.2 240.4L605.2 240.2Q605.3 240.7 605.7 241.0Q606.1 241.2 606.7 241.2L606.7 241.2Q607.4 241.2 607.8 240.9Q608.2 240.6 608.2 240.2L608.2 240.2Q608.2 239.9 607.9 239.7Q607.7 239.4 607.2 239.3L607.2 239.3L606.1 239.1Q605.2 238.9 604.8 238.4Q604.4 238.0 604.4 237.3L604.4 237.3Q604.4 236.7 604.7 236.3Q605.0 235.9 605.6 235.6Q606.1 235.4 606.8 235.4L606.8 235.4Q607.5 235.4 607.9 235.6Q608.4 235.8 608.7 236.1Q609.0 236.5 609.2 236.9L609.2 236.9L608.2 237.2Q608.1 236.8 607.8 236.6Q607.4 236.3 606.8 236.3L606.8 236.3Q606.2 236.3 605.8 236.5Q605.4 236.8 605.4 237.2L605.4 237.2Q605.4 237.6 605.7 237.8Q606.0 238.0 606.5 238.2L606.5 238.2L607.5 238.4Q608.4 238.6 608.8 239.0Q609.3 239.5 609.3 240.2L609.3 240.2Q609.3 240.7 609.0 241.2Q608.6 241.6 608.0 241.9Q607.5 242.1 606.7 242.1ZM613.5 242.1L613.5 242.1Q612.6 242.1 611.9 241.7Q611.2 241.3 610.9 240.5Q610.5 239.8 610.5 238.8L610.5 238.8Q610.5 237.7 610.9 237.0Q611.2 236.2 611.9 235.8Q612.6 235.4 613.5 235.4L613.5 235.4Q613.9 235.4 614.4 235.5Q614.8 235.6 615.1 235.8Q615.5 236.1 615.7 236.4Q616.0 236.8 616.1 237.2L616.1 237.2L615.1 237.5Q615.0 237.2 614.9 237.0Q614.7 236.8 614.5 236.6Q614.3 236.5 614.1 236.4Q613.8 236.3 613.5 236.3L613.5 236.3Q612.8 236.3 612.4 236.7Q612.0 237.0 611.8 237.6Q611.6 238.1 611.6 238.8L611.6 238.8Q611.6 239.4 611.8 240.0Q612.0 240.5 612.4 240.9Q612.8 241.2 613.5 241.2L613.5 241.2Q613.8 241.2 614.1 241.1Q614.3 241.0 614.6 240.9Q614.8 240.7 614.9 240.5Q615.1 240.3 615.1 240.0L615.1 240.0L616.1 240.3Q616.0 240.7 615.8 241.1Q615.5 241.4 615.2 241.6Q614.8 241.9 614.4 242.0Q613.9 242.1 613.5 242.1ZM619.5 242.2L619.5 242.2Q618.9 242.2 618.4 241.9Q617.9 241.7 617.6 241.2Q617.3 240.8 617.3 240.1L617.3 240.1Q617.3 239.6 617.5 239.2Q617.7 238.9 618.1 238.7Q618.4 238.5 618.9 238.4Q619.3 238.3 619.8 238.2L619.8 238.2Q620.4 238.1 620.8 238.1Q621.1 238.1 621.3 238.0Q621.5 237.9 621.5 237.6L621.5 237.6L621.5 237.6Q621.5 237.2 621.3 236.9Q621.2 236.6 620.9 236.4Q620.6 236.3 620.1 236.3L620.1 236.3Q619.6 236.3 619.3 236.4Q619.0 236.6 618.8 236.8Q618.6 237.0 618.5 237.3L618.5 237.3L617.4 236.9Q617.7 236.3 618.1 236.0Q618.6 235.6 619.1 235.5Q619.6 235.4 620.1 235.4L620.1 235.4Q620.4 235.4 620.8 235.4Q621.3 235.5 621.6 235.8Q622.0 236.0 622.3 236.5Q622.5 236.9 622.5 237.7L622.5 237.7L622.5 242L621.5 242L621.5 241.1L621.4 241.1Q621.3 241.3 621.1 241.6Q620.8 241.8 620.4 242.0Q620.0 242.2 619.5 242.2ZM619.7 241.2L619.7 241.2Q620.3 241.2 620.7 241.0Q621.1 240.8 621.3 240.4Q621.5 240.0 621.5 239.6L621.5 239.6L621.5 238.7Q621.4 238.8 621.2 238.9Q621.0 238.9 620.7 239.0Q620.4 239.0 620.2 239.0Q619.9 239.1 619.8 239.1L619.8 239.1Q619.4 239.1 619.0 239.3Q618.7 239.4 618.5 239.6Q618.3 239.8 618.3 240.2L618.3 240.2Q618.3 240.5 618.5 240.8Q618.7 241.0 619.0 241.1Q619.3 241.2 619.7 241.2ZM624.4 233.3L625.4 233.3L625.4 242L624.4 242L624.4 233.3ZM630.1 242.1L630.1 242.1Q629.1 242.1 628.4 241.7Q627.7 241.3 627.4 240.5Q627.0 239.8 627.0 238.8Q627.0 237.8 627.3 237.0Q627.7 236.2 628.4 235.8Q629.0 235.4 629.9 235.4L629.9 235.4Q630.5 235.4 631.0 235.5Q631.5 235.7 631.9 236.1Q632.3 236.5 632.5 237.1Q632.8 237.7 632.8 238.6L632.8 238.6L632.8 239.1L628.1 239.1Q628.1 239.7 628.3 240.2L628.3 240.2Q628.6 240.7 629.0 240.9Q629.5 241.2 630.1 241.2L630.1 241.2Q630.4 241.2 630.8 241.1Q631.1 241.0 631.3 240.8Q631.5 240.5 631.7 240.2L631.7 240.2L632.7 240.5Q632.5 241.0 632.2 241.3Q631.8 241.7 631.3 241.9Q630.7 242.1 630.1 242.1ZM628.1 238.2L628.1 238.2L631.7 238.2Q631.7 237.7 631.5 237.4L631.5 237.4Q631.3 236.9 630.9 236.6Q630.5 236.3 629.9 236.3Q629.3 236.3 628.9 236.6Q628.5 236.9 628.3 237.3L628.3 237.3Q628.1 237.7 628.1 238.2Z "/></g></svg>