<!-- Generated by readme-aura https://github.com/collectioneur/readme-aura -->
<svg width="100" height="40" viewBox="0 0 100 40" xmlns="http://www.w3.org/2000/svg"><defs><clipPath id="satori_bc-id"><path x="0" y="0" width="100" height="40" d="M20,0 h60 a20,20 0 0 1 20,20 v0 a20,20 0 0 1 -20,20 h-60 a20,20 0 0 1 -20,-20 v0 a20,20 0 0 1 20,-20"/></clipPath></defs><mask id="satori_om-id"><rect x="0.5" y="0.5" width="99" height="39" fill="#fff"/><path width="100" height="40" fill="none" stroke="#000" stroke-width="1" d="M5.8580000000000005,5.8580000000000005 A20,20 0 0 1 20,0 h60 a20,20 0 0 1 20,20 v0 a20,20 0 0 1 -20,20 h-60 a20,20 0 0 1 -20,-20 v0 A20,20 0 0 1 5.8580000000000005,5.8580000000000005"/></mask><path x="0" y="0" width="100" height="40" fill="#111111" d="M20,0 h60 a20,20 0 0 1 20,20 v0 a20,20 0 0 1 -20,20 h-60 a20,20 0 0 1 -20,-20 v0 a20,20 0 0 1 20,-20"/><path width="100" height="40" clip-path="url(#satori_bc-id)" fill="none" stroke="#AAAAAA" stroke-width="1" d="M5.8580000000000005,5.8580000000000005 A20,20 0 0 1 20,0 h60 a20,20 0 0 1 20,20 v0 a20,20 0 0 1 -20,20 h-60 a20,20 0 0 1 -20,-20 v0 A20,20 0 0 1 5.8580000000000005,5.8580000000000005"/><clipPath id="satori_cp-id-0"><rect x="0" y="0" width="100" height="40"/></clipPath><mask id="satori_om-id-0"><rect x="0" y="0" width="100" height="40" fill="#fff"/></mask><svg x="0" y="0" width="100" height="40" preserveAspectRatio="none" clip-path="url(#satori_cp-id-0)" mask="url(#satori_om-id-0)"><defs><linearGradient id="tw-holo" gradientUnits="objectBoundingBox" x1="0" y1="0" x2="1" y2="1"><stop offset="0%" stop-color="#ffffff"></stop><stop offset="10%" stop-color="#111111"></stop><stop offset="50%" stop-color="#eeeeee"></stop><stop offset="60%" stop-color="#ffbbaa"></stop><stop offset="80%" stop-color="#111111"></stop><stop offset="100%" stop-color="#555555"></stop><animateTransform attributeName="gradientTransform" type="rotate" from="0 0.5 0.5" to="360 0.5 0.5" dur="8s" repeatCount="indefinite"></animateTransform></linearGradient></defs><rect x="1.5" y="1.5" width="97" height="37" rx="18.5" ry="18.5" fill="none" stroke="url(#tw-holo)" stroke-width="2" stroke-linecap="round"></rect></svg><mask id="satori_om-id-0-0"><rect x="0" y="0" width="0" height="40" fill="#fff"/></mask><mask id="satori_om-id-0-0-0"><rect x="0" y="0" width="0" height="40" fill="#fff"/></mask><mask id="satori_om-id-0-0-0-0"><rect x="0" y="0" width="0" height="40" fill="#fff"/></mask><mask id="satori_om-id-0-0-0-1"><rect x="0" y="0" width="0" height="40" fill="#fff"/></mask><mask id="satori_om-id-0-0-0-2"><rect x="0" y="0" width="0" height="40" fill="#fff"/></mask><mask id="satori_om-id-0-0-0-3"><rect x="0" y="0" width="0" height="40" fill="#fff"/></mask><mask id="satori_om-id-0-0-0-4"><rect x="0" y="0" width="0" height="40" fill="#fff"/></mask><mask id="satori_om-id-0-0-0-5"><rect x="0" y="0" width="0" height="40" fill="#fff"/></mask><mask id="satori_om-id-0-0-0-6"><rect x="0" y="0" width="0" height="40" fill="#fff"/></mask><mask id="satori_om-id-0-1"><rect x="0" y="0" width="0" height="40" fill="#fff"/></mask></svg>