<!-- Generated by readme-aura https://github.com/collectioneur/readme-aura -->
<svg width="860" height="280" viewBox="0 0 860 280" xmlns="http://www.w3.org/2000/svg"><clipPath id="satori_cp-id"><path x="0" y="0" width="860" height="280" d="M20,0 h820 a20,20 0 0 1 20,20 v240 a20,20 0 0 1 -20,20 h-820 a20,20 0 0 1 -20,-20 v-240 a20,20 0 0 1 20,-20"/></clipPath><mask id="satori_om-id"><rect x="0" y="0" width="860" height="280" fill="#fff"/></mask><path x="0" y="0" width="860" height="280" fill="#06060e" d="M20,0 h820 a20,20 0 0 1 20,20 v240 a20,20 0 0 1 -20,20 h-820 a20,20 0 0 1 -20,-20 v-240 a20,20 0 0 1 20,-20"/><clipPath id="satori_cp-id-0" clip-path="url(#satori_cp-id)"><rect x="0" y="0" width="860" height="280"/></clipPath><mask id="satori_om-id-0"><rect x="0" y="0" width="860" height="280" fill="#fff" mask="url(#satori_om-id)"/></mask><svg x="0" y="0" width="860" height="280" preserveAspectRatio="none" clip-path="url(#satori_cp-id-0)" mask="url(#satori_om-id-0)"><defs><filter id="ab1" x="-50%" y="-50%" width="200%" height="200%"><feGaussianBlur in="SourceGraphic" stdDeviation="25"><animate attributeName="stdDeviation" values="20;50;30;45;20" dur="8s" repeatCount="indefinite"></animate></feGaussianBlur></filter><filter id="ab2" x="-50%" y="-50%" width="200%" height="200%"><feGaussianBlur in="SourceGraphic" stdDeviation="35"><animate attributeName="stdDeviation" values="35;18;50;22;35" dur="11s" repeatCount="indefinite"></animate></feGaussianBlur></filter><filter id="ab3" x="-50%" y="-50%" width="200%" height="200%"><feGaussianBlur in="SourceGraphic" stdDeviation="30"><animate attributeName="stdDeviation" values="28;55;20;40;28" dur="14s" repeatCount="indefinite"></animate></feGaussianBlur></filter></defs><path fill="rgba(120,40,255,0.6)" filter="url(#ab1)"><animate attributeName="d" values="M100,200 C180,80 300,220 430,140 C530,80 650,200 760,140 L760,280 L100,280 Z;M100,140 C220,240 280,90 430,190 C550,250 700,90 760,180 L760,280 L100,280 Z;M100,180 C150,100 320,250 430,110 C520,200 700,70 760,160 L760,280 L100,280 Z;M100,200 C180,80 300,220 430,140 C530,80 650,200 760,140 L760,280 L100,280 Z" dur="12s" repeatCount="indefinite"></animate></path><path fill="rgba(0,180,255,0.45)" filter="url(#ab2)"><animate attributeName="d" values="M50,220 C150,100 280,240 430,160 C560,100 680,220 810,150 L810,280 L50,280 Z;M50,160 C200,260 260,100 430,200 C540,110 720,240 810,170 L810,280 L50,280 Z;M50,190 C120,120 310,260 430,120 C580,220 660,90 810,190 L810,280 L50,280 Z;M50,220 C150,100 280,240 430,160 C560,100 680,220 810,150 L810,280 L50,280 Z" dur="16s" repeatCount="indefinite"></animate></path><path fill="rgba(255,50,160,0.35)" filter="url(#ab3)"><animate attributeName="d" values="M0,240 C120,130 260,260 430,170 C580,110 700,250 860,150 L860,280 L0,280 Z;M0,170 C100,260 300,110 430,210 C560,270 720,110 860,200 L860,280 L0,280 Z;M0,200 C160,120 280,250 430,140 C530,240 680,100 860,170 L860,280 L0,280 Z;M0,240 C120,130 260,260 430,170 C580,110 700,250 860,150 L860,280 L0,280 Z" dur="20s" repeatCount="indefinite"></animate></path><path fill="rgba(255,200,50,0.2)" filter="url(#ab1)"><animate attributeName="d" values="M200,250 C280,150 380,260 500,180 C600,120 720,230 830,170 L830,280 L200,280 Z;M200,190 C300,270 350,130 500,210 C610,150 740,250 830,190 L830,280 L200,280 Z;M200,220 C260,140 400,260 500,150 C580,230 700,110 830,180 L830,280 L200,280 Z;M200,250 C280,150 380,260 500,180 C600,120 720,230 830,170 L830,280 L200,280 Z" dur="14s" repeatCount="indefinite" begin="2s"></animate></path></svg><mask id="satori_om-id-0-0"><rect x="0" y="0" width="0" height="280" fill="#fff" mask="url(#satori_om-id)"/></mask><mask id="satori_om-id-0-0-0"><rect x="0" y="0" width="0" height="280" fill="#fff" mask="url(#satori_om-id)"/></mask><mask id="satori_om-id-0-0-0-0"><rect x="0" y="0" width="0" height="280" fill="#fff" mask="url(#satori_om-id)"/></mask><mask id="satori_om-id-0-0-0-0-0"><rect x="0" y="0" width="0" height="280" fill="#fff" mask="url(#satori_om-id)"/></mask><mask id="satori_om-id-0-0-1"><rect x="0" y="0" width="0" height="280" fill="#fff" mask="url(#satori_om-id)"/></mask><mask id="satori_om-id-0-0-1-0"><rect x="0" y="0" width="0" height="280" fill="#fff" mask="url(#satori_om-id)"/></mask><mask id="satori_om-id-0-0-1-0-0"><rect x="0" y="0" width="0" height="280" fill="#fff" mask="url(#satori_om-id)"/></mask><mask id="satori_om-id-0-0-2"><rect x="0" y="0" width="0" height="280" fill="#fff" mask="url(#satori_om-id)"/></mask><mask id="satori_om-id-0-0-2-0"><rect x="0" y="0" width="0" height="280" fill="#fff" mask="url(#satori_om-id)"/></mask><mask id="satori_om-id-0-0-2-0-0"><rect x="0" y="0" width="0" height="280" fill="#fff" mask="url(#satori_om-id)"/></mask><mask id="satori_om-id-0-1"><rect x="0" y="0" width="0" height="280" fill="#fff" mask="url(#satori_om-id)"/></mask><mask id="satori_om-id-0-1-0"><rect x="0" y="0" width="0" height="280" fill="#fff" mask="url(#satori_om-id)"/></mask><mask id="satori_om-id-0-2"><rect x="0" y="0" width="0" height="280" fill="#fff" mask="url(#satori_om-id)"/></mask><mask id="satori_om-id-0-2-0"><rect x="0" y="0" width="0" height="280" fill="#fff" mask="url(#satori_om-id)"/></mask><mask id="satori_om-id-0-3"><rect x="0" y="0" width="0" height="280" fill="#fff" mask="url(#satori_om-id)"/></mask><mask id="satori_om-id-0-3-0"><rect x="0" y="0" width="0" height="280" fill="#fff" mask="url(#satori_om-id)"/></mask><mask id="satori_om-id-0-4"><rect x="0" y="0" width="0" height="280" fill="#fff" mask="url(#satori_om-id)"/></mask><mask id="satori_om-id-0-4-0"><rect x="0" y="0" width="0" height="280" fill="#fff" mask="url(#satori_om-id)"/></mask><mask id="satori_om-id-1"><rect x="271" y="112" width="318" height="57" fill="#fff" mask="url(#satori_om-id)"/></mask><mask id="satori_om-id-1-0"><rect x="309" y="112" width="243" height="36" fill="#fff" mask="url(#satori_om-id)"/></mask><g mask="url(#satori_om-id)" clip-path="url(#satori_cp-id)"><path fill="white" d="M315.4 141L311.0 141L311.0 119.2L317.8 119.2L321.4 129.2Q321.6 129.9 321.9 131.0Q322.2 132.1 322.5 133.4L322.5 133.4Q322.8 134.7 323.0 135.9L323.0 135.9Q323.3 134.7 323.5 133.4L323.5 133.4Q323.8 132.2 324.1 131.0Q324.4 129.9 324.6 129.2L324.6 129.2L328.1 119.2L335.0 119.2L335.0 141L330.5 141L330.5 130.7Q330.5 130.0 330.5 128.9Q330.5 127.9 330.6 126.6Q330.6 125.4 330.6 124.1L330.6 124.1Q330.7 123.6 330.7 123.0L330.7 123.0Q330.5 123.6 330.3 124.3L330.3 124.3Q330.0 125.6 329.7 126.8Q329.3 128.0 329.0 129.0Q328.7 130.0 328.5 130.7L328.5 130.7L324.9 141L321.1 141L317.4 130.7Q317.2 130.0 316.9 129.0Q316.6 128.0 316.2 126.8Q315.9 125.6 315.5 124.3L315.5 124.3Q315.4 123.7 315.3 123.2L315.3 123.2Q315.3 123.6 315.3 124.1L315.3 124.1Q315.3 125.3 315.3 126.6Q315.4 127.8 315.4 128.9Q315.4 130.0 315.4 130.7L315.4 130.7L315.4 141ZM345.6 141.3L345.6 141.3Q343.2 141.3 341.4 140.3Q339.6 139.2 338.6 137.3Q337.6 135.4 337.6 132.9L337.6 132.9Q337.6 130.3 338.6 128.4Q339.6 126.5 341.4 125.5Q343.2 124.4 345.6 124.4L345.6 124.4Q348.1 124.4 349.9 125.5Q351.7 126.5 352.7 128.4Q353.7 130.3 353.7 132.9L353.7 132.9Q353.7 135.4 352.7 137.3Q351.7 139.2 349.9 140.3Q348.1 141.3 345.6 141.3ZM345.6 137.9L345.6 137.9Q346.8 137.9 347.6 137.2Q348.4 136.6 348.8 135.4Q349.2 134.3 349.2 132.9L349.2 132.9Q349.2 131.4 348.8 130.3Q348.4 129.2 347.6 128.5Q346.8 127.9 345.6 127.9L345.6 127.9Q344.5 127.9 343.7 128.5Q342.9 129.2 342.5 130.3Q342.1 131.4 342.1 132.9L342.1 132.9Q342.1 134.3 342.5 135.4Q342.9 136.6 343.7 137.2Q344.5 137.9 345.6 137.9ZM360.6 141L356.2 141L356.2 124.6L360.5 124.6L360.5 127.5L360.6 127.5Q361.1 126.0 362.2 125.2Q363.2 124.4 364.6 124.4L364.6 124.4Q364.9 124.4 365.3 124.4Q365.7 124.5 366.0 124.5L366.0 124.5L366.0 128.5Q365.7 128.4 365.2 128.3Q364.6 128.3 364.1 128.3L364.1 128.3Q363.1 128.3 362.3 128.7Q361.5 129.1 361.1 129.9Q360.6 130.7 360.6 131.7L360.6 131.7L360.6 141ZM372.3 147.1L367.9 147.1L367.9 124.6L372.3 124.6L372.3 127.4L372.5 127.4Q372.8 126.7 373.3 126.0Q373.9 125.4 374.8 124.9Q375.7 124.4 377.1 124.4L377.1 124.4Q379.0 124.4 380.5 125.4Q382.0 126.3 382.9 128.2Q383.8 130.0 383.8 132.8L383.8 132.8Q383.8 135.6 382.9 137.4Q382.0 139.3 380.5 140.3Q379.0 141.3 377.1 141.3L377.1 141.3Q375.8 141.3 374.9 140.8Q373.9 140.4 373.4 139.7Q372.8 139.0 372.5 138.4L372.5 138.4L372.3 138.4L372.3 147.1ZM375.8 137.7L375.8 137.7Q376.9 137.7 377.7 137.1Q378.5 136.5 378.9 135.4Q379.3 134.3 379.3 132.8L379.3 132.8Q379.3 131.4 378.9 130.3Q378.5 129.2 377.7 128.6Q376.9 127.9 375.8 127.9L375.8 127.9Q374.6 127.9 373.8 128.5Q373.1 129.1 372.6 130.2Q372.2 131.3 372.2 132.8L372.2 132.8Q372.2 134.3 372.6 135.4Q373.1 136.5 373.9 137.1Q374.6 137.7 375.8 137.7ZM390.7 131.5L390.7 131.5L390.7 141L386.4 141L386.4 119.2L390.7 119.2L390.7 127.8Q391.3 126.4 392.3 125.5L392.3 125.5Q393.6 124.4 395.7 124.4L395.7 124.4Q397.4 124.4 398.6 125.2Q399.9 125.9 400.6 127.3Q401.3 128.7 401.3 130.6L401.3 130.6L401.3 141L396.9 141L396.9 131.3Q396.9 129.8 396.1 129.0Q395.3 128.1 393.9 128.1L393.9 128.1Q393.0 128.1 392.3 128.5Q391.6 128.9 391.1 129.7Q390.7 130.4 390.7 131.5ZM408.9 141L404.5 141L404.5 124.6L408.9 124.6L408.9 141ZM406.7 122.5L406.7 122.5Q405.7 122.5 405.0 121.8Q404.3 121.2 404.3 120.2L404.3 120.2Q404.3 119.3 405.0 118.6Q405.7 118.0 406.7 118.0L406.7 118.0Q407.7 118.0 408.4 118.6Q409.1 119.3 409.1 120.2L409.1 120.2Q409.1 121.2 408.4 121.8Q407.7 122.5 406.7 122.5ZM416.6 131.5L416.6 131.5L416.6 141L412.2 141L412.2 124.6L416.3 124.6L416.4 128.0Q417.0 126.5 418.1 125.5L418.1 125.5Q419.4 124.4 421.5 124.4L421.5 124.4Q423.2 124.4 424.4 125.2Q425.7 125.9 426.4 127.3Q427.1 128.7 427.1 130.6L427.1 130.6L427.1 141L422.7 141L422.7 131.3Q422.7 129.8 421.9 129.0Q421.1 128.1 419.7 128.1L419.7 128.1Q418.8 128.1 418.1 128.5Q417.4 128.9 417.0 129.7Q416.6 130.4 416.6 131.5ZM437.6 147.5L437.6 147.5Q435.6 147.5 434.0 147.0Q432.5 146.4 431.6 145.5Q430.6 144.6 430.2 143.5L430.2 143.5L434.0 142.4Q434.2 142.9 434.7 143.3Q435.1 143.7 435.8 144.0Q436.5 144.3 437.6 144.3L437.6 144.3Q439.3 144.3 440.2 143.5Q441.2 142.7 441.2 141.1L441.2 141.1L441.2 138.1L440.9 138.1Q440.6 138.8 440.0 139.4Q439.4 140.0 438.5 140.4Q437.6 140.8 436.3 140.8L436.3 140.8Q434.5 140.8 433.0 139.9Q431.4 139.0 430.5 137.3Q429.6 135.5 429.6 132.8L429.6 132.8Q429.6 130.0 430.6 128.2Q431.5 126.3 433.0 125.4Q434.5 124.4 436.3 124.4L436.3 124.4Q437.7 124.4 438.6 124.9Q439.6 125.3 440.2 126.0Q440.7 126.7 441.0 127.4L441.0 127.4L441.2 127.4L441.2 124.6L445.5 124.6L445.5 140.9Q445.5 143.1 444.5 144.5Q443.5 146.0 441.7 146.7Q439.9 147.5 437.6 147.5ZM437.7 137.4L437.7 137.4Q438.8 137.4 439.6 136.9Q440.4 136.3 440.8 135.3Q441.2 134.2 441.2 132.8L441.2 132.8Q441.2 131.3 440.8 130.2Q440.4 129.1 439.6 128.5Q438.8 127.9 437.7 127.9L437.7 127.9Q436.5 127.9 435.7 128.6Q435.0 129.2 434.6 130.3Q434.2 131.3 434.2 132.8L434.2 132.8Q434.2 134.2 434.6 135.2Q435.0 136.3 435.8 136.9Q436.5 137.4 437.7 137.4Z M459.2 141L454.2 141L461.7 119.2L467.6 119.2L475.2 141L470.2 141L468.5 135.9L460.8 135.9L459.2 141ZM461.9 132.4L467.4 132.4L466.7 130.5Q466.1 128.4 465.5 126L465.5 126Q465.0 124.4 464.6 122.7L464.6 122.7Q464.1 124.5 463.8 126.0L463.8 126.0Q463.1 128.5 462.5 130.5L462.5 130.5L461.9 132.4ZM482.9 141.2L482.9 141.2Q481.2 141.2 480.0 140.5Q478.7 139.7 478.0 138.3Q477.3 137.0 477.3 135.0L477.3 135.0L477.3 124.6L481.7 124.6L481.7 134.3Q481.7 135.8 482.5 136.7Q483.3 137.5 484.6 137.5L484.6 137.5Q485.6 137.5 486.3 137.1Q487.0 136.7 487.4 136.0Q487.8 135.2 487.8 134.1L487.8 134.1L487.8 124.6L492.2 124.6L492.2 141L488.1 141L488.0 137.6Q487.4 139.2 486.3 140.1L486.3 140.1Q485.0 141.2 482.9 141.2ZM499.9 141L495.5 141L495.5 124.6L499.7 124.6L499.7 127.5L499.9 127.5Q500.3 126.0 501.4 125.2Q502.5 124.4 503.8 124.4L503.8 124.4Q504.2 124.4 504.6 124.4Q505.0 124.5 505.3 124.5L505.3 124.5L505.3 128.5Q505.0 128.4 504.4 128.3Q503.9 128.3 503.4 128.3L503.4 128.3Q502.4 128.3 501.6 128.7Q500.8 129.1 500.3 129.9Q499.9 130.7 499.9 131.7L499.9 131.7L499.9 141ZM514.5 141.3L514.5 141.3Q512.0 141.3 510.2 140.3Q508.4 139.2 507.5 137.3Q506.5 135.4 506.5 132.9L506.5 132.9Q506.5 130.3 507.5 128.4Q508.4 126.5 510.2 125.5Q512.0 124.4 514.5 124.4L514.5 124.4Q517.0 124.4 518.8 125.5Q520.6 126.5 521.5 128.4Q522.5 130.3 522.5 132.9L522.5 132.9Q522.5 135.4 521.5 137.3Q520.6 139.2 518.8 140.3Q517.0 141.3 514.5 141.3ZM514.5 137.9L514.5 137.9Q515.7 137.9 516.5 137.2Q517.3 136.6 517.7 135.4Q518.1 134.3 518.1 132.9L518.1 132.9Q518.1 131.4 517.7 130.3Q517.3 129.2 516.5 128.5Q515.7 127.9 514.5 127.9L514.5 127.9Q513.3 127.9 512.6 128.5Q511.8 129.2 511.4 130.3Q511.0 131.4 511.0 132.9L511.0 132.9Q511.0 134.3 511.4 135.4Q511.8 136.6 512.6 137.2Q513.3 137.9 514.5 137.9ZM529.5 141L525.1 141L525.1 124.6L529.3 124.6L529.3 127.5L529.5 127.5Q530.0 126.0 531.0 125.2Q532.1 124.4 533.5 124.4L533.5 124.4Q533.8 124.4 534.2 124.4Q534.6 124.5 534.9 124.5L534.9 124.5L534.9 128.5Q534.6 128.4 534.0 128.3Q533.5 128.3 533.0 128.3L533.0 128.3Q532.0 128.3 531.2 128.7Q530.4 129.1 529.9 129.9Q529.5 130.7 529.5 131.7L529.5 131.7L529.5 141ZM541.4 141.3L541.4 141.3Q539.8 141.3 538.6 140.8Q537.3 140.2 536.6 139.1Q535.9 138.0 535.9 136.4L535.9 136.4Q535.9 135.1 536.4 134.1Q536.9 133.2 537.8 132.7Q538.7 132.1 539.8 131.8Q540.9 131.5 542.1 131.4L542.1 131.4Q543.5 131.2 544.4 131.1Q545.3 131.0 545.7 130.7Q546.1 130.5 546.1 129.9L546.1 129.9L546.1 129.9Q546.1 129.1 545.8 128.7Q545.5 128.2 544.9 127.9Q544.3 127.7 543.5 127.7L543.5 127.7Q542.7 127.7 542.0 127.9Q541.4 128.2 541.0 128.6Q540.6 129.0 540.4 129.6L540.4 129.6L536.4 128.9Q536.8 127.5 537.8 126.5Q538.8 125.5 540.2 124.9Q541.7 124.4 543.5 124.4L543.5 124.4Q544.8 124.4 546.1 124.7Q547.3 125.0 548.3 125.7Q549.3 126.4 549.9 127.4Q550.5 128.5 550.5 130.0L550.5 130.0L550.5 141L546.3 141L546.3 138.7L546.2 138.7Q545.8 139.5 545.1 140.1Q544.4 140.6 543.5 141.0Q542.6 141.3 541.4 141.3ZM542.6 138.2L542.6 138.2Q543.7 138.2 544.4 137.8Q545.2 137.4 545.7 136.7Q546.1 136.0 546.1 135.1L546.1 135.1L546.1 133.4Q545.9 133.5 545.5 133.6Q545.1 133.7 544.6 133.8Q544.2 133.9 543.7 134.0Q543.2 134.1 542.8 134.1L542.8 134.1Q542.0 134.2 541.4 134.5Q540.8 134.8 540.5 135.2Q540.1 135.6 540.1 136.3L540.1 136.3Q540.1 136.9 540.5 137.4Q540.8 137.8 541.3 138.0Q541.9 138.2 542.6 138.2Z "/></g><mask id="satori_om-id-1-1"><rect x="271" y="154" width="318" height="15" fill="#fff" mask="url(#satori_om-id)"/></mask><g mask="url(#satori_om-id)" clip-path="url(#satori_cp-id)"><path fill="rgba(200,200,255,0.5)" d="M274.8 166.2L274.8 166.2Q273.9 166.2 273.2 165.8Q272.5 165.5 272.1 165.0Q271.7 164.4 271.7 163.7L271.7 163.7L272.8 163.7Q272.9 164.2 273.2 164.5Q273.4 164.8 273.9 165.0Q274.3 165.2 274.8 165.2L274.8 165.2Q275.4 165.2 275.9 165.0Q276.4 164.8 276.7 164.4Q276.9 164.1 276.9 163.6L276.9 163.6Q276.9 163.2 276.7 162.9Q276.5 162.7 276.1 162.5Q275.7 162.3 275.2 162.2L275.2 162.2L274.2 161.9Q273.1 161.6 272.5 161.0Q271.9 160.5 271.9 159.6L271.9 159.6Q271.9 158.9 272.3 158.3Q272.7 157.8 273.4 157.5Q274.1 157.2 274.9 157.2L274.9 157.2Q275.8 157.2 276.4 157.5Q277.1 157.8 277.5 158.3Q277.9 158.8 277.9 159.5L277.9 159.5L276.8 159.5Q276.7 158.8 276.2 158.5Q275.7 158.1 274.9 158.1L274.9 158.1Q274.3 158.1 273.9 158.3Q273.5 158.5 273.2 158.8Q273.0 159.1 273.0 159.6L273.0 159.6Q273.0 160.0 273.3 160.3Q273.6 160.6 274.0 160.7Q274.4 160.9 274.7 161.0L274.7 161.0L275.5 161.2Q275.9 161.3 276.3 161.5Q276.7 161.6 277.1 161.9Q277.5 162.2 277.8 162.6Q278.0 163.0 278.0 163.6L278.0 163.6Q278.0 164.3 277.6 164.9Q277.3 165.5 276.6 165.8Q275.9 166.2 274.8 166.2ZM280.8 166L279.8 166L279.8 157.3L281.3 157.3L283.5 162.8Q283.6 163.0 283.7 163.3Q283.8 163.6 283.9 163.9Q284.0 164.2 284.1 164.6L284.1 164.6Q284.1 164.7 284.1 164.8L284.1 164.8Q284.2 164.7 284.2 164.6L284.2 164.6Q284.3 164.3 284.4 163.9Q284.5 163.6 284.6 163.3Q284.7 163.0 284.8 162.8L284.8 162.8L286.9 157.3L288.5 157.3L288.5 166L287.4 166L287.4 161.0Q287.4 160.7 287.4 160.4Q287.4 160.1 287.4 159.7Q287.4 159.3 287.4 158.9L287.4 158.9Q287.4 158.7 287.4 158.5L287.4 158.5Q287.4 158.7 287.3 159.0L287.3 159.0Q287.1 159.4 287.0 159.8Q286.9 160.2 286.8 160.5Q286.6 160.8 286.6 161.0L286.6 161.0L284.6 166L283.6 166L281.7 161.0Q281.6 160.8 281.5 160.5Q281.3 160.2 281.2 159.8Q281.1 159.4 280.9 159.0L280.9 159.0Q280.9 158.7 280.8 158.5L280.8 158.5Q280.8 158.7 280.8 158.8L280.8 158.8Q280.8 159.2 280.8 159.6Q280.8 160.0 280.8 160.4Q280.8 160.7 280.8 161.0L280.8 161.0L280.8 166ZM290.6 157.3L291.7 157.3L291.7 166L290.6 166L290.6 157.3ZM299.0 166L293.8 166L293.8 157.3L294.9 157.3L294.9 165.0L299.0 165.0L299.0 166Z M304.9 168.4L303.8 168.4L303.8 159.4L304.9 159.4L304.9 160.5L305.0 160.5Q305.1 160.3 305.3 160.1Q305.5 159.8 305.9 159.6Q306.2 159.4 306.9 159.4L306.9 159.4Q307.7 159.4 308.3 159.8Q309.0 160.2 309.3 160.9Q309.7 161.7 309.7 162.7L309.7 162.7Q309.7 163.8 309.3 164.5Q309.0 165.3 308.3 165.7Q307.7 166.1 306.9 166.1L306.9 166.1Q306.3 166.1 305.9 165.9Q305.5 165.7 305.3 165.4Q305.1 165.2 305.0 165.0L305.0 165.0L304.9 165.0L304.9 168.4ZM306.7 165.2L306.7 165.2Q307.3 165.2 307.8 164.9Q308.2 164.5 308.4 164.0Q308.6 163.4 308.6 162.7L308.6 162.7Q308.6 162.1 308.4 161.5Q308.2 161.0 307.8 160.6Q307.4 160.3 306.7 160.3L306.7 160.3Q306.1 160.3 305.7 160.6Q305.3 160.9 305.1 161.5Q304.9 162.0 304.9 162.7L304.9 162.7Q304.9 163.5 305.1 164.0Q305.3 164.6 305.7 164.9Q306.1 165.2 306.7 165.2ZM313.0 166.2L313.0 166.2Q312.4 166.2 311.9 165.9Q311.4 165.7 311.1 165.2Q310.8 164.8 310.8 164.1L310.8 164.1Q310.8 163.6 311.0 163.2Q311.2 162.9 311.6 162.7Q312.0 162.5 312.4 162.4Q312.9 162.3 313.3 162.2L313.3 162.2Q313.9 162.1 314.3 162.1Q314.7 162.1 314.8 162.0Q315.0 161.9 315.0 161.6L315.0 161.6L315.0 161.6Q315.0 161.2 314.9 160.9Q314.7 160.6 314.4 160.4Q314.1 160.3 313.7 160.3L313.7 160.3Q313.2 160.3 312.9 160.4Q312.5 160.6 312.3 160.8Q312.1 161.0 312.0 161.3L312.0 161.3L311.0 160.9Q311.2 160.3 311.7 160.0Q312.1 159.6 312.6 159.5Q313.1 159.4 313.6 159.4L313.6 159.4Q314.0 159.4 314.4 159.4Q314.8 159.5 315.2 159.8Q315.6 160.0 315.8 160.5Q316.1 160.9 316.1 161.7L316.1 161.7L316.1 166L315.0 166L315.0 165.1L315.0 165.1Q314.9 165.3 314.6 165.6Q314.4 165.8 314.0 166.0Q313.6 166.2 313.0 166.2ZM313.2 165.2L313.2 165.2Q313.8 165.2 314.2 165.0Q314.6 164.8 314.8 164.4Q315.0 164.0 315.0 163.6L315.0 163.6L315.0 162.7Q315.0 162.8 314.7 162.9Q314.5 162.9 314.3 163.0Q314.0 163.0 313.7 163.0Q313.5 163.1 313.3 163.1L313.3 163.1Q312.9 163.1 312.6 163.3Q312.3 163.4 312.1 163.6Q311.9 163.8 311.9 164.2L311.9 164.2Q311.9 164.5 312.0 164.8Q312.2 165.0 312.5 165.1Q312.8 165.2 313.2 165.2ZM319.2 159.4L320.5 159.4L320.5 160.4L319.2 160.4L319.2 164.3Q319.2 164.7 319.3 164.9Q319.5 165.1 319.9 165.1L319.9 165.1Q320.0 165.1 320.2 165.1Q320.3 165.1 320.5 165.1L320.5 165.1L320.7 166.0Q320.5 166.0 320.3 166.1Q320.1 166.1 319.9 166.1L319.9 166.1Q319.1 166.1 318.6 165.6Q318.1 165.2 318.1 164.4L318.1 164.4L318.1 160.4L317.1 160.4L317.1 159.4L318.1 159.4L318.1 157.9L319.2 157.9L319.2 159.4ZM322.9 162.1L322.9 162.1L322.9 166L321.9 166L321.9 157.3L322.9 157.3L322.9 160.6Q323.2 160.0 323.6 159.7L323.6 159.7Q324.1 159.4 324.9 159.4L324.9 159.4Q325.5 159.4 326.0 159.6Q326.5 159.9 326.8 160.5Q327.1 161.0 327.1 161.8L327.1 161.8L327.1 166L326.0 166L326.0 161.9Q326.0 161.2 325.6 160.7Q325.3 160.3 324.6 160.3L324.6 160.3Q324.1 160.3 323.7 160.5Q323.3 160.7 323.1 161.1Q322.9 161.5 322.9 162.1Z M333.4 166L332.3 166L332.3 159.4L333.4 159.4L333.4 160.7Q333.5 160.3 333.7 160.0L333.7 160.0Q334.0 159.7 334.4 159.5Q334.8 159.3 335.2 159.3L335.2 159.3Q335.9 159.3 336.4 159.8L336.4 159.8Q336.7 160.1 336.9 160.7L336.9 160.7Q337.0 160.3 337.2 160.1L337.2 160.1Q337.5 159.7 338.0 159.5Q338.4 159.3 338.9 159.3L338.9 159.3Q339.5 159.3 340.0 159.6Q340.4 159.8 340.7 160.3Q341.0 160.8 341.0 161.6L341.0 161.6L341.0 166L339.9 166L339.9 161.6Q339.9 160.9 339.5 160.6Q339.1 160.3 338.6 160.3L338.6 160.3Q338.2 160.3 337.9 160.5Q337.5 160.7 337.4 161.0Q337.2 161.3 337.2 161.7L337.2 161.7L337.2 166L336.1 166L336.1 161.5Q336.1 161.0 335.8 160.6Q335.4 160.3 334.8 160.3L334.8 160.3Q334.5 160.3 334.1 160.5Q333.8 160.7 333.6 161.0Q333.4 161.4 333.4 161.9L333.4 161.9L333.4 166ZM345.5 166.1L345.5 166.1Q344.6 166.1 343.9 165.7Q343.3 165.3 342.9 164.5Q342.5 163.8 342.5 162.8L342.5 162.8Q342.5 161.7 342.9 161.0Q343.3 160.2 343.9 159.8Q344.6 159.4 345.5 159.4L345.5 159.4Q346.4 159.4 347.1 159.8Q347.8 160.2 348.1 161.0Q348.5 161.7 348.5 162.8L348.5 162.8Q348.5 163.8 348.1 164.5Q347.8 165.3 347.1 165.7Q346.4 166.1 345.5 166.1ZM345.5 165.2L345.5 165.2Q346.2 165.2 346.6 164.9Q347.0 164.5 347.2 164.0Q347.4 163.4 347.4 162.8L347.4 162.8Q347.4 162.1 347.2 161.6Q347.0 161.0 346.6 160.7Q346.2 160.3 345.5 160.3L345.5 160.3Q344.9 160.3 344.4 160.7Q344.0 161.0 343.8 161.6Q343.6 162.1 343.6 162.8L343.6 162.8Q343.6 163.4 343.8 164.0Q344.0 164.5 344.4 164.9Q344.9 165.2 345.5 165.2ZM351.1 166L350.0 166L350.0 159.4L351.1 159.4L351.1 160.5L351.1 160.5Q351.3 160.0 351.8 159.7Q352.2 159.4 352.8 159.4L352.8 159.4Q352.9 159.4 353.1 159.4Q353.3 159.4 353.4 159.4L353.4 159.4L353.4 160.4Q353.3 160.4 353.1 160.4Q352.9 160.4 352.7 160.4L352.7 160.4Q352.3 160.4 351.9 160.6Q351.5 160.8 351.3 161.1Q351.1 161.5 351.1 161.9L351.1 161.9L351.1 166ZM355.6 168.4L354.6 168.4L354.6 159.4L355.6 159.4L355.6 160.5L355.7 160.5Q355.8 160.3 356.0 160.1Q356.2 159.8 356.6 159.6Q357.0 159.4 357.6 159.4L357.6 159.4Q358.4 159.4 359.0 159.8Q359.7 160.2 360.0 160.9Q360.4 161.7 360.4 162.7L360.4 162.7Q360.4 163.8 360.0 164.5Q359.7 165.3 359.0 165.7Q358.4 166.1 357.6 166.1L357.6 166.1Q357.0 166.1 356.6 165.9Q356.2 165.7 356.0 165.4Q355.8 165.2 355.7 165.0L355.7 165.0L355.6 165.0L355.6 168.4ZM357.4 165.2L357.4 165.2Q358.1 165.2 358.5 164.9Q358.9 164.5 359.1 164.0Q359.3 163.4 359.3 162.7L359.3 162.7Q359.3 162.1 359.1 161.5Q358.9 161.0 358.5 160.6Q358.1 160.3 357.4 160.3L357.4 160.3Q356.8 160.3 356.4 160.6Q356.0 160.9 355.8 161.5Q355.6 162.0 355.6 162.7L355.6 162.7Q355.6 163.5 355.8 164.0Q356.0 164.6 356.4 164.9Q356.8 165.2 357.4 165.2ZM363.0 162.1L363.0 162.1L363.0 166L361.9 166L361.9 157.3L363.0 157.3L363.0 160.6Q363.2 160.0 363.6 159.7L363.6 159.7Q364.2 159.4 364.9 159.4L364.9 159.4Q365.6 159.4 366.1 159.6Q366.6 159.9 366.9 160.5Q367.1 161.0 367.1 161.8L367.1 161.8L367.1 166L366.1 166L366.1 161.9Q366.1 161.2 365.7 160.7Q365.3 160.3 364.6 160.3L364.6 160.3Q364.1 160.3 363.8 160.5Q363.4 160.7 363.2 161.1Q363.0 161.5 363.0 162.1ZM370.1 166L369.0 166L369.0 159.4L370.1 159.4L370.1 166ZM369.5 158.4L369.5 158.4Q369.2 158.4 369.0 158.2Q368.8 158.0 368.8 157.7L368.8 157.7Q368.8 157.4 369.0 157.2Q369.2 157.0 369.5 157.0L369.5 157.0Q369.8 157.0 370.1 157.2Q370.3 157.4 370.3 157.7L370.3 157.7Q370.3 158.0 370.1 158.2Q369.8 158.4 369.5 158.4ZM373.0 162.1L373.0 162.1L373.0 166L371.9 166L371.9 159.4L372.9 159.4L372.9 160.7Q373.2 160.0 373.6 159.7L373.6 159.7Q374.2 159.4 374.9 159.4L374.9 159.4Q375.6 159.4 376.1 159.6Q376.6 159.9 376.9 160.5Q377.1 161.0 377.1 161.8L377.1 161.8L377.1 166L376.1 166L376.1 161.9Q376.1 161.2 375.7 160.7Q375.3 160.3 374.6 160.3L374.6 160.3Q374.1 160.3 373.8 160.5Q373.4 160.7 373.2 161.1Q373.0 161.5 373.0 162.1ZM381.6 168.6L381.6 168.6Q380.9 168.6 380.4 168.4Q379.9 168.2 379.5 167.9Q379.2 167.6 379.0 167.3L379.0 167.3L379.8 166.7Q379.9 166.9 380.2 167.1Q380.4 167.3 380.7 167.5Q381.1 167.7 381.6 167.7L381.6 167.7Q382.4 167.7 382.9 167.3Q383.4 166.9 383.4 166.1L383.4 166.1L383.4 164.8L383.3 164.8Q383.2 165.0 383.0 165.2Q382.8 165.5 382.5 165.7Q382.1 165.9 381.4 165.9L381.4 165.9Q380.7 165.9 380.0 165.5Q379.4 165.2 379.0 164.4Q378.7 163.7 378.7 162.7L378.7 162.7Q378.7 161.7 379.0 160.9Q379.4 160.2 380.0 159.8Q380.7 159.4 381.5 159.4L381.5 159.4Q382.1 159.4 382.5 159.6Q382.9 159.8 383.1 160.1Q383.3 160.3 383.4 160.5L383.4 160.5L383.5 160.5L383.5 159.4L384.5 159.4L384.5 166.2Q384.5 167.0 384.1 167.5Q383.7 168.1 383.1 168.3Q382.4 168.6 381.6 168.6ZM381.6 165.0L381.6 165.0Q382.2 165.0 382.6 164.7Q383.0 164.4 383.2 163.9Q383.5 163.4 383.5 162.7L383.5 162.7Q383.5 162.0 383.3 161.4Q383.0 160.9 382.6 160.6Q382.2 160.3 381.6 160.3L381.6 160.3Q381.0 160.3 380.6 160.6Q380.2 160.9 380.0 161.5Q379.8 162.0 379.8 162.7L379.8 162.7Q379.8 163.3 380.0 163.9Q380.2 164.4 380.6 164.7Q381.0 165.0 381.6 165.0Z M393.3 165.4L392.3 165.4L392.3 163.0L389.9 163.0L389.9 162.1L392.3 162.1L392.3 159.8L393.3 159.8L393.3 162.1L395.6 162.1L395.6 163.0L393.3 163.0L393.3 165.4Z M402.9 166.2L402.9 166.2Q402.3 166.2 401.7 165.9Q401.2 165.7 400.9 165.2Q400.6 164.8 400.6 164.1L400.6 164.1Q400.6 163.6 400.9 163.2Q401.1 162.9 401.5 162.7Q401.8 162.5 402.3 162.4Q402.7 162.3 403.2 162.2L403.2 162.2Q403.8 162.1 404.1 162.1Q404.5 162.1 404.7 162.0Q404.9 161.9 404.9 161.6L404.9 161.6L404.9 161.6Q404.9 161.2 404.7 160.9Q404.6 160.6 404.3 160.4Q404.0 160.3 403.5 160.3L403.5 160.3Q403.0 160.3 402.7 160.4Q402.4 160.6 402.2 160.8Q402.0 161.0 401.8 161.3L401.8 161.3L400.8 160.9Q401.1 160.3 401.5 160.0Q401.9 159.6 402.5 159.5Q403.0 159.4 403.5 159.4L403.5 159.4Q403.8 159.4 404.2 159.4Q404.6 159.5 405.0 159.8Q405.4 160.0 405.7 160.5Q405.9 160.9 405.9 161.7L405.9 161.7L405.9 166L404.9 166L404.9 165.1L404.8 165.1Q404.7 165.3 404.5 165.6Q404.2 165.8 403.8 166.0Q403.4 166.2 402.9 166.2ZM403.1 165.2L403.1 165.2Q403.6 165.2 404.0 165.0Q404.5 164.8 404.7 164.4Q404.9 164.0 404.9 163.6L404.9 163.6L404.9 162.7Q404.8 162.8 404.6 162.9Q404.4 162.9 404.1 163.0Q403.8 163.0 403.6 163.0Q403.3 163.1 403.1 163.1L403.1 163.1Q402.8 163.1 402.4 163.3Q402.1 163.4 401.9 163.6Q401.7 163.8 401.7 164.2L401.7 164.2Q401.7 164.5 401.9 164.8Q402.1 165.0 402.4 165.1Q402.7 165.2 403.1 165.2ZM408.8 162.1L408.8 162.1L408.8 166L407.8 166L407.8 159.4L408.8 159.4L408.8 160.7Q409.1 160.0 409.5 159.7L409.5 159.7Q410.1 159.4 410.8 159.4L410.8 159.4Q411.5 159.4 412.0 159.6Q412.5 159.9 412.7 160.5Q413.0 161.0 413.0 161.8L413.0 161.8L413.0 166L412.0 166L412.0 161.9Q412.0 161.2 411.6 160.7Q411.2 160.3 410.5 160.3L410.5 160.3Q410.0 160.3 409.6 160.5Q409.3 160.7 409.1 161.1Q408.8 161.5 408.8 162.1ZM415.9 166L414.9 166L414.9 159.4L415.9 159.4L415.9 166ZM415.4 158.4L415.4 158.4Q415.1 158.4 414.9 158.2Q414.7 158.0 414.7 157.7L414.7 157.7Q414.7 157.4 414.9 157.2Q415.1 157.0 415.4 157.0L415.4 157.0Q415.7 157.0 415.9 157.2Q416.1 157.4 416.1 157.7L416.1 157.7Q416.1 158.0 415.9 158.2Q415.7 158.4 415.4 158.4ZM418.8 166L417.8 166L417.8 159.4L418.8 159.4L418.8 160.7Q418.9 160.3 419.2 160.0L419.2 160.0Q419.4 159.7 419.8 159.5Q420.2 159.3 420.6 159.3L420.6 159.3Q421.4 159.3 421.8 159.8L421.8 159.8Q422.2 160.1 422.3 160.7L422.3 160.7Q422.4 160.3 422.7 160.1L422.7 160.1Q423.0 159.7 423.4 159.5Q423.9 159.3 424.4 159.3L424.4 159.3Q424.9 159.3 425.4 159.6Q425.9 159.8 426.2 160.3Q426.4 160.8 426.4 161.6L426.4 161.6L426.4 166L425.4 166L425.4 161.6Q425.4 160.9 425.0 160.6Q424.6 160.3 424.1 160.3L424.1 160.3Q423.6 160.3 423.3 160.5Q423.0 160.7 422.8 161.0Q422.6 161.3 422.6 161.7L422.6 161.7L422.6 166L421.6 166L421.6 161.5Q421.6 161.0 421.2 160.6Q420.9 160.3 420.3 160.3L420.3 160.3Q419.9 160.3 419.6 160.5Q419.2 160.7 419.0 161.0Q418.8 161.4 418.8 161.9L418.8 161.9L418.8 166ZM430.1 166.2L430.1 166.2Q429.5 166.2 429.0 165.9Q428.5 165.7 428.2 165.2Q427.9 164.8 427.9 164.1L427.9 164.1Q427.9 163.6 428.1 163.2Q428.3 162.9 428.7 162.7Q429.1 162.5 429.5 162.4Q430.0 162.3 430.4 162.2L430.4 162.2Q431.0 162.1 431.4 162.1Q431.8 162.1 431.9 162.0Q432.1 161.9 432.1 161.6L432.1 161.6L432.1 161.6Q432.1 161.2 432.0 160.9Q431.8 160.6 431.5 160.4Q431.2 160.3 430.8 160.3L430.8 160.3Q430.3 160.3 429.9 160.4Q429.6 160.6 429.4 160.8Q429.2 161.0 429.1 161.3L429.1 161.3L428.1 160.9Q428.3 160.3 428.8 160.0Q429.2 159.6 429.7 159.5Q430.2 159.4 430.7 159.4L430.7 159.4Q431.0 159.4 431.5 159.4Q431.9 159.5 432.3 159.8Q432.7 160.0 432.9 160.5Q433.2 160.9 433.2 161.7L433.2 161.7L433.2 166L432.1 166L432.1 165.1L432.1 165.1Q432.0 165.3 431.7 165.6Q431.5 165.8 431.1 166.0Q430.7 166.2 430.1 166.2ZM430.3 165.2L430.3 165.2Q430.9 165.2 431.3 165.0Q431.7 164.8 431.9 164.4Q432.1 164.0 432.1 163.6L432.1 163.6L432.1 162.7Q432.1 162.8 431.8 162.9Q431.6 162.9 431.3 163.0Q431.1 163.0 430.8 163.0Q430.5 163.1 430.4 163.1L430.4 163.1Q430.0 163.1 429.7 163.3Q429.3 163.4 429.2 163.6Q429.0 163.8 429.0 164.2L429.0 164.2Q429.0 164.5 429.1 164.8Q429.3 165.0 429.6 165.1Q429.9 165.2 430.3 165.2ZM436.3 159.4L437.6 159.4L437.6 160.4L436.3 160.4L436.3 164.3Q436.3 164.7 436.4 164.9Q436.6 165.1 437.0 165.1L437.0 165.1Q437.1 165.1 437.3 165.1Q437.4 165.1 437.6 165.1L437.6 165.1L437.8 166.0Q437.6 166.0 437.4 166.1Q437.2 166.1 437.0 166.1L437.0 166.1Q436.2 166.1 435.7 165.6Q435.2 165.2 435.2 164.4L435.2 164.4L435.2 160.4L434.2 160.4L434.2 159.4L435.2 159.4L435.2 157.9L436.3 157.9L436.3 159.4ZM441.7 166.1L441.7 166.1Q440.8 166.1 440.1 165.7Q439.4 165.3 439.0 164.5Q438.6 163.8 438.6 162.8Q438.6 161.8 439 161.0Q439.4 160.2 440.0 159.8Q440.7 159.4 441.6 159.4L441.6 159.4Q442.1 159.4 442.6 159.5Q443.1 159.7 443.5 160.1Q443.9 160.5 444.2 161.1Q444.4 161.7 444.4 162.6L444.4 162.6L444.4 163.1L439.7 163.1Q439.7 163.7 440.0 164.2L440.0 164.2Q440.2 164.7 440.7 164.9Q441.1 165.2 441.7 165.2L441.7 165.2Q442.1 165.2 442.4 165.1Q442.7 165.0 443.0 164.8Q443.2 164.5 443.3 164.2L443.3 164.2L444.3 164.5Q444.2 165.0 443.8 165.3Q443.5 165.7 442.9 165.9Q442.4 166.1 441.7 166.1ZM439.7 162.2L439.7 162.2L443.4 162.2Q443.3 161.7 443.2 161.4L443.2 161.4Q443.0 160.9 442.6 160.6Q442.2 160.3 441.6 160.3Q441.0 160.3 440.6 160.6Q440.1 160.9 439.9 161.3L439.9 161.3Q439.7 161.7 439.7 162.2ZM448.4 166.1L448.4 166.1Q447.6 166.1 447.0 165.7Q446.3 165.3 446.0 164.5Q445.6 163.8 445.6 162.7L445.6 162.7Q445.6 161.7 446.0 160.9Q446.3 160.2 447.0 159.8Q447.6 159.4 448.4 159.4L448.4 159.4Q449.0 159.4 449.4 159.6Q449.8 159.8 450.0 160.1Q450.2 160.3 450.3 160.5L450.3 160.5L450.4 160.5L450.4 157.3L451.4 157.3L451.4 166L450.4 166L450.4 165.0L450.3 165.0Q450.2 165.2 450.0 165.4Q449.8 165.7 449.4 165.9Q449.0 166.1 448.4 166.1ZM448.6 165.2L448.6 165.2Q449.2 165.2 449.6 164.9Q450.0 164.6 450.2 164.0Q450.4 163.5 450.4 162.7L450.4 162.7Q450.4 162.0 450.2 161.5Q450.0 160.9 449.6 160.6Q449.2 160.3 448.6 160.3L448.6 160.3Q447.9 160.3 447.5 160.6Q447.1 161.0 446.9 161.5Q446.7 162.1 446.7 162.7L446.7 162.7Q446.7 163.4 446.9 164.0Q447.1 164.5 447.5 164.9Q448.0 165.2 448.6 165.2Z M460.4 166.1L460.4 166.1Q459.2 166.1 458.3 165.6Q457.4 165.0 457.0 164.0Q456.5 163.0 456.5 161.6L456.5 161.6Q456.5 160.3 457.0 159.2Q457.4 158.2 458.3 157.7Q459.2 157.2 460.3 157.2L460.3 157.2Q461.0 157.2 461.6 157.4Q462.2 157.6 462.7 157.9Q463.1 158.3 463.5 158.8Q463.8 159.4 463.9 160.0L463.9 160.0L462.7 160.0Q462.6 159.6 462.4 159.3Q462.2 158.9 461.8 158.7Q461.5 158.4 461.2 158.3Q460.8 158.2 460.3 158.2L460.3 158.2Q459.5 158.2 458.9 158.6Q458.3 159.0 457.9 159.7Q457.5 160.5 457.5 161.6L457.5 161.6Q457.5 162.8 457.9 163.5Q458.3 164.3 458.9 164.7Q459.6 165.1 460.4 165.1L460.4 165.1Q461.1 165.1 461.7 164.8Q462.2 164.5 462.5 163.9L462.5 163.9Q462.8 163.3 462.9 162.6L462.9 162.6L460.6 162.6L460.6 161.6L463.9 161.6L463.9 162.6Q463.9 163.7 463.5 164.4Q463.0 165.2 462.2 165.7Q461.4 166.1 460.4 166.1ZM467.5 166.2L467.5 166.2Q466.8 166.2 466.3 165.9Q465.8 165.7 465.5 165.2Q465.2 164.8 465.2 164.1L465.2 164.1Q465.2 163.6 465.4 163.2Q465.7 162.9 466.0 162.7Q466.4 162.5 466.9 162.4Q467.3 162.3 467.8 162.2L467.8 162.2Q468.4 162.1 468.7 162.1Q469.1 162.1 469.3 162.0Q469.5 161.9 469.5 161.6L469.5 161.6L469.5 161.6Q469.5 161.2 469.3 160.9Q469.2 160.6 468.8 160.4Q468.5 160.3 468.1 160.3L468.1 160.3Q467.6 160.3 467.3 160.4Q466.9 160.6 466.7 160.8Q466.5 161.0 466.4 161.3L466.4 161.3L465.4 160.9Q465.7 160.3 466.1 160.0Q466.5 159.6 467.0 159.5Q467.6 159.4 468.1 159.4L468.1 159.4Q468.4 159.4 468.8 159.4Q469.2 159.5 469.6 159.8Q470.0 160.0 470.3 160.5Q470.5 160.9 470.5 161.7L470.5 161.7L470.5 166L469.5 166L469.5 165.1L469.4 165.1Q469.3 165.3 469.0 165.6Q468.8 165.8 468.4 166.0Q468.0 166.2 467.5 166.2ZM467.6 165.2L467.6 165.2Q468.2 165.2 468.6 165.0Q469.0 164.8 469.2 164.4Q469.5 164.0 469.5 163.6L469.5 163.6L469.5 162.7Q469.4 162.8 469.2 162.9Q469.0 162.9 468.7 163.0Q468.4 163.0 468.1 163.0Q467.9 163.1 467.7 163.1L467.7 163.1Q467.3 163.1 467.0 163.3Q466.7 163.4 466.5 163.6Q466.3 163.8 466.3 164.2L466.3 164.2Q466.3 164.5 466.5 164.8Q466.6 165.0 466.9 165.1Q467.2 165.2 467.6 165.2ZM474.6 166.1L474.6 166.1Q473.9 166.1 473.4 165.8Q472.9 165.5 472.6 165.0Q472.4 164.4 472.4 163.6L472.4 163.6L472.4 159.4L473.4 159.4L473.4 163.5Q473.4 164.3 473.8 164.7Q474.2 165.1 474.9 165.1L474.9 165.1Q475.4 165.1 475.7 164.9Q476.1 164.7 476.3 164.3Q476.5 163.9 476.5 163.4L476.5 163.4L476.5 159.4L477.6 159.4L477.6 166L476.6 166L476.6 164.8Q476.3 165.4 475.9 165.7L475.9 165.7Q475.3 166.1 474.6 166.1ZM481.7 166.1L481.7 166.1Q481.0 166.1 480.5 165.9Q480.0 165.7 479.6 165.4Q479.3 165.0 479.2 164.4L479.2 164.4L480.2 164.2Q480.3 164.7 480.7 165.0Q481.1 165.2 481.7 165.2L481.7 165.2Q482.4 165.2 482.8 164.9Q483.2 164.6 483.2 164.2L483.2 164.2Q483.2 163.9 482.9 163.7Q482.7 163.4 482.2 163.3L482.2 163.3L481.1 163.1Q480.2 162.9 479.8 162.4Q479.4 162.0 479.4 161.3L479.4 161.3Q479.4 160.7 479.7 160.3Q480.0 159.9 480.5 159.6Q481.1 159.4 481.8 159.4L481.8 159.4Q482.5 159.4 482.9 159.6Q483.4 159.8 483.7 160.1Q484 160.5 484.1 160.9L484.1 160.9L483.2 161.2Q483.1 160.8 482.7 160.6Q482.4 160.3 481.8 160.3L481.8 160.3Q481.2 160.3 480.8 160.5Q480.4 160.8 480.4 161.2L480.4 161.2Q480.4 161.6 480.7 161.8Q481.0 162.0 481.5 162.2L481.5 162.2L482.5 162.4Q483.4 162.6 483.8 163.0Q484.3 163.5 484.3 164.2L484.3 164.2Q484.3 164.7 483.9 165.2Q483.6 165.6 483.0 165.9Q482.5 166.1 481.7 166.1ZM488.0 166.1L488.0 166.1Q487.3 166.1 486.8 165.9Q486.3 165.7 486.0 165.4Q485.6 165.0 485.5 164.4L485.5 164.4L486.5 164.2Q486.6 164.7 487.0 165.0Q487.4 165.2 488.0 165.2L488.0 165.2Q488.7 165.2 489.1 164.9Q489.5 164.6 489.5 164.2L489.5 164.2Q489.5 163.9 489.3 163.7Q489.0 163.4 488.5 163.3L488.5 163.3L487.5 163.1Q486.6 162.9 486.1 162.4Q485.7 162.0 485.7 161.3L485.7 161.3Q485.7 160.7 486.0 160.3Q486.3 159.9 486.9 159.6Q487.4 159.4 488.1 159.4L488.1 159.4Q488.8 159.4 489.3 159.6Q489.7 159.8 490.0 160.1Q490.3 160.5 490.5 160.9L490.5 160.9L489.5 161.2Q489.4 160.8 489.1 160.6Q488.8 160.3 488.1 160.3L488.1 160.3Q487.5 160.3 487.2 160.5Q486.8 160.8 486.8 161.2L486.8 161.2Q486.8 161.6 487.0 161.8Q487.3 162.0 487.9 162.2L487.9 162.2L488.9 162.4Q489.7 162.6 490.2 163.0Q490.6 163.5 490.6 164.2L490.6 164.2Q490.6 164.7 490.3 165.2Q490.0 165.6 489.4 165.9Q488.8 166.1 488.0 166.1ZM493.2 166L492.1 166L492.1 159.4L493.2 159.4L493.2 166ZM492.7 158.4L492.7 158.4Q492.4 158.4 492.1 158.2Q491.9 158.0 491.9 157.7L491.9 157.7Q491.9 157.4 492.1 157.2Q492.4 157.0 492.7 157.0L492.7 157.0Q493.0 157.0 493.2 157.2Q493.4 157.4 493.4 157.7L493.4 157.7Q493.4 158.0 493.2 158.2Q493.0 158.4 492.7 158.4ZM496.9 166.2L496.9 166.2Q496.2 166.2 495.7 165.9Q495.2 165.7 494.9 165.2Q494.6 164.8 494.6 164.1L494.6 164.1Q494.6 163.6 494.9 163.2Q495.1 162.9 495.5 162.7Q495.8 162.5 496.3 162.4Q496.7 162.3 497.2 162.2L497.2 162.2Q497.8 162.1 498.1 162.1Q498.5 162.1 498.7 162.0Q498.9 161.9 498.9 161.6L498.9 161.6L498.9 161.6Q498.9 161.2 498.7 160.9Q498.6 160.6 498.3 160.4Q498.0 160.3 497.5 160.3L497.5 160.3Q497.0 160.3 496.7 160.4Q496.4 160.6 496.1 160.8Q495.9 161.0 495.8 161.3L495.8 161.3L494.8 160.9Q495.1 160.3 495.5 160.0Q495.9 159.6 496.4 159.5Q497.0 159.4 497.5 159.4L497.5 159.4Q497.8 159.4 498.2 159.4Q498.6 159.5 499.0 159.8Q499.4 160.0 499.7 160.5Q499.9 160.9 499.9 161.7L499.9 161.7L499.9 166L498.9 166L498.9 165.1L498.8 165.1Q498.7 165.3 498.5 165.6Q498.2 165.8 497.8 166.0Q497.4 166.2 496.9 166.2ZM497.0 165.2L497.0 165.2Q497.6 165.2 498.0 165.0Q498.4 164.8 498.7 164.4Q498.9 164.0 498.9 163.6L498.9 163.6L498.9 162.7Q498.8 162.8 498.6 162.9Q498.4 162.9 498.1 163.0Q497.8 163.0 497.5 163.0Q497.3 163.1 497.1 163.1L497.1 163.1Q496.8 163.1 496.4 163.3Q496.1 163.4 495.9 163.6Q495.7 163.8 495.7 164.2L495.7 164.2Q495.7 164.5 495.9 164.8Q496.0 165.0 496.4 165.1Q496.7 165.2 497.0 165.2ZM502.8 162.1L502.8 162.1L502.8 166L501.8 166L501.8 159.4L502.8 159.4L502.8 160.7Q503.1 160.0 503.5 159.7L503.5 159.7Q504.1 159.4 504.8 159.4L504.8 159.4Q505.5 159.4 506.0 159.6Q506.5 159.9 506.7 160.5Q507.0 161.0 507.0 161.8L507.0 161.8L507.0 166L506.0 166L506.0 161.9Q506.0 161.2 505.6 160.7Q505.2 160.3 504.5 160.3L504.5 160.3Q504.0 160.3 503.6 160.5Q503.3 160.7 503.0 161.1Q502.8 161.5 502.8 162.1Z M515.3 166.1L515.3 166.1Q514.7 166.1 514.3 165.9Q513.9 165.7 513.7 165.4Q513.5 165.2 513.4 165.0L513.4 165.0L513.3 165.0L513.3 166L512.2 166L512.2 157.3L513.3 157.3L513.3 160.5L513.4 160.5Q513.5 160.3 513.7 160.1Q513.9 159.8 514.3 159.6Q514.6 159.4 515.3 159.4L515.3 159.4Q516.1 159.4 516.7 159.8Q517.3 160.2 517.7 160.9Q518.0 161.7 518.0 162.7L518.0 162.7Q518.0 163.8 517.7 164.5Q517.3 165.3 516.7 165.7Q516.1 166.1 515.3 166.1ZM515.1 165.2L515.1 165.2Q515.7 165.2 516.1 164.9Q516.6 164.5 516.8 164.0Q517.0 163.4 517.0 162.7L517.0 162.7Q517.0 162.1 516.8 161.5Q516.6 161.0 516.2 160.6Q515.7 160.3 515.1 160.3L515.1 160.3Q514.5 160.3 514.1 160.6Q513.7 160.9 513.5 161.5Q513.3 162.0 513.3 162.7L513.3 162.7Q513.3 163.5 513.5 164.0Q513.7 164.6 514.1 164.9Q514.5 165.2 515.1 165.2ZM519.6 157.3L520.6 157.3L520.6 166L519.6 166L519.6 157.3ZM524.7 166.1L524.7 166.1Q524.0 166.1 523.5 165.8Q523.0 165.5 522.8 165.0Q522.5 164.4 522.5 163.6L522.5 163.6L522.5 159.4L523.5 159.4L523.5 163.5Q523.5 164.3 523.9 164.7Q524.3 165.1 525.0 165.1L525.0 165.1Q525.5 165.1 525.9 164.9Q526.2 164.7 526.5 164.3Q526.7 163.9 526.7 163.4L526.7 163.4L526.7 159.4L527.7 159.4L527.7 166L526.7 166L526.7 164.8Q526.4 165.4 526.0 165.7L526.0 165.7Q525.4 166.1 524.7 166.1ZM530.6 166L529.6 166L529.6 159.4L530.6 159.4L530.6 160.5L530.7 160.5Q530.9 160.0 531.3 159.7Q531.8 159.4 532.4 159.4L532.4 159.4Q532.5 159.4 532.7 159.4Q532.8 159.4 532.9 159.4L532.9 159.4L532.9 160.4Q532.9 160.4 532.7 160.4Q532.5 160.4 532.3 160.4L532.3 160.4Q531.8 160.4 531.4 160.6Q531.1 160.8 530.9 161.1Q530.6 161.5 530.6 161.9L530.6 161.9L530.6 166Z M538.5 168.4L537.5 168.4L537.5 159.4L538.5 159.4L538.5 160.5L538.6 160.5Q538.7 160.3 538.9 160.1Q539.1 159.8 539.5 159.6Q539.9 159.4 540.5 159.4L540.5 159.4Q541.3 159.4 542.0 159.8Q542.6 160.2 542.9 160.9Q543.3 161.7 543.3 162.7L543.3 162.7Q543.3 163.8 542.9 164.5Q542.6 165.3 542.0 165.7Q541.3 166.1 540.5 166.1L540.5 166.1Q539.9 166.1 539.5 165.9Q539.1 165.7 538.9 165.4Q538.7 165.2 538.6 165.0L538.6 165.0L538.5 165.0L538.5 168.4ZM540.4 165.2L540.4 165.2Q541.0 165.2 541.4 164.9Q541.8 164.5 542.0 164.0Q542.2 163.4 542.2 162.7L542.2 162.7Q542.2 162.1 542.0 161.5Q541.8 161.0 541.4 160.6Q541.0 160.3 540.4 160.3L540.4 160.3Q539.8 160.3 539.3 160.6Q538.9 160.9 538.7 161.5Q538.5 162.0 538.5 162.7L538.5 162.7Q538.5 163.5 538.7 164.0Q538.9 164.6 539.4 164.9Q539.8 165.2 540.4 165.2ZM547.0 166.1L547.0 166.1Q546.4 166.1 545.9 165.8Q545.4 165.5 545.1 165.0Q544.8 164.4 544.8 163.6L544.8 163.6L544.8 159.4L545.9 159.4L545.9 163.5Q545.9 164.3 546.3 164.7Q546.7 165.1 547.4 165.1L547.4 165.1Q547.8 165.1 548.2 164.9Q548.6 164.7 548.8 164.3Q549.0 163.9 549.0 163.4L549.0 163.4L549.0 159.4L550.1 159.4L550.1 166L549.1 166L549.1 164.8Q548.8 165.4 548.3 165.7L548.3 165.7Q547.8 166.1 547.0 166.1ZM551.9 157.3L553.0 157.3L553.0 166L551.9 166L551.9 157.3ZM557.1 166.1L557.1 166.1Q556.4 166.1 555.9 165.9Q555.3 165.7 555.0 165.4Q554.7 165.0 554.5 164.4L554.5 164.4L555.5 164.2Q555.7 164.7 556.1 165.0Q556.5 165.2 557.0 165.2L557.0 165.2Q557.7 165.2 558.1 164.9Q558.5 164.6 558.5 164.2L558.5 164.2Q558.5 163.9 558.3 163.7Q558.1 163.4 557.6 163.3L557.6 163.3L556.5 163.1Q555.6 162.9 555.2 162.4Q554.7 162.0 554.7 161.3L554.7 161.3Q554.7 160.7 555.1 160.3Q555.4 159.9 555.9 159.6Q556.5 159.4 557.2 159.4L557.2 159.4Q557.8 159.4 558.3 159.6Q558.8 159.8 559.1 160.1Q559.4 160.5 559.5 160.9L559.5 160.9L558.6 161.2Q558.4 160.8 558.1 160.6Q557.8 160.3 557.2 160.3L557.2 160.3Q556.6 160.3 556.2 160.5Q555.8 160.8 555.8 161.2L555.8 161.2Q555.8 161.6 556.1 161.8Q556.3 162.0 556.9 162.2L556.9 162.2L557.9 162.4Q558.8 162.6 559.2 163.0Q559.6 163.5 559.6 164.2L559.6 164.2Q559.6 164.7 559.3 165.2Q559.0 165.6 558.4 165.9Q557.8 166.1 557.1 166.1ZM563.0 166.2L563.0 166.2Q562.4 166.2 561.9 165.9Q561.4 165.7 561.1 165.2Q560.8 164.8 560.8 164.1L560.8 164.1Q560.8 163.6 561.0 163.2Q561.2 162.9 561.6 162.7Q562.0 162.5 562.4 162.4Q562.9 162.3 563.3 162.2L563.3 162.2Q563.9 162.1 564.3 162.1Q564.6 162.1 564.8 162.0Q565.0 161.9 565.0 161.6L565.0 161.6L565.0 161.6Q565.0 161.2 564.8 160.9Q564.7 160.6 564.4 160.4Q564.1 160.3 563.6 160.3L563.6 160.3Q563.2 160.3 562.8 160.4Q562.5 160.6 562.3 160.8Q562.1 161.0 562.0 161.3L562.0 161.3L561.0 160.9Q561.2 160.3 561.6 160.0Q562.1 159.6 562.6 159.5Q563.1 159.4 563.6 159.4L563.6 159.4Q563.9 159.4 564.3 159.4Q564.8 159.5 565.1 159.8Q565.5 160.0 565.8 160.5Q566.0 160.9 566.0 161.7L566.0 161.7L566.0 166L565.0 166L565.0 165.1L564.9 165.1Q564.8 165.3 564.6 165.6Q564.3 165.8 563.9 166.0Q563.6 166.2 563.0 166.2ZM563.2 165.2L563.2 165.2Q563.8 165.2 564.2 165.0Q564.6 164.8 564.8 164.4Q565.0 164.0 565.0 163.6L565.0 163.6L565.0 162.7Q564.9 162.8 564.7 162.9Q564.5 162.9 564.2 163.0Q563.9 163.0 563.7 163.0Q563.4 163.1 563.3 163.1L563.3 163.1Q562.9 163.1 562.6 163.3Q562.2 163.4 562.0 163.6Q561.8 163.8 561.8 164.2L561.8 164.2Q561.8 164.5 562 164.8Q562.2 165.0 562.5 165.1Q562.8 165.2 563.2 165.2ZM569.1 159.4L570.5 159.4L570.5 160.4L569.1 160.4L569.1 164.3Q569.1 164.7 569.3 164.9Q569.5 165.1 569.9 165.1L569.9 165.1Q570.0 165.1 570.2 165.1Q570.3 165.1 570.4 165.1L570.4 165.1L570.7 166.0Q570.5 166.0 570.3 166.1Q570.1 166.1 569.9 166.1L569.9 166.1Q569.0 166.1 568.6 165.6Q568.1 165.2 568.1 164.4L568.1 164.4L568.1 160.4L567.1 160.4L567.1 159.4L568.1 159.4L568.1 157.9L569.1 157.9L569.1 159.4ZM572.9 166L571.8 166L571.8 159.4L572.9 159.4L572.9 166ZM572.4 158.4L572.4 158.4Q572.1 158.4 571.8 158.2Q571.6 158.0 571.6 157.7L571.6 157.7Q571.6 157.4 571.8 157.2Q572.1 157.0 572.4 157.0L572.4 157.0Q572.7 157.0 572.9 157.2Q573.1 157.4 573.1 157.7L573.1 157.7Q573.1 158.0 572.9 158.2Q572.7 158.4 572.4 158.4ZM577.4 166.1L577.4 166.1Q576.5 166.1 575.8 165.7Q575.2 165.3 574.8 164.5Q574.4 163.8 574.4 162.8L574.4 162.8Q574.4 161.7 574.8 161.0Q575.2 160.2 575.8 159.8Q576.5 159.4 577.4 159.4L577.4 159.4Q578.3 159.4 579.0 159.8Q579.6 160.2 580.0 161.0Q580.4 161.7 580.4 162.8L580.4 162.8Q580.4 163.8 580.0 164.5Q579.6 165.3 579.0 165.7Q578.3 166.1 577.4 166.1ZM577.4 165.2L577.4 165.2Q578.1 165.2 578.5 164.9Q578.9 164.5 579.1 164.0Q579.3 163.4 579.3 162.8L579.3 162.8Q579.3 162.1 579.1 161.6Q578.9 161.0 578.5 160.7Q578.1 160.3 577.4 160.3L577.4 160.3Q576.7 160.3 576.3 160.7Q575.9 161.0 575.7 161.6Q575.5 162.1 575.5 162.8L575.5 162.8Q575.5 163.4 575.7 164.0Q575.9 164.5 576.3 164.9Q576.7 165.2 577.4 165.2ZM583.0 162.1L583.0 162.1L583.0 166L581.9 166L581.9 159.4L582.9 159.4L582.9 160.7Q583.2 160.0 583.7 159.7L583.7 159.7Q584.2 159.4 585.0 159.4L585.0 159.4Q585.6 159.4 586.1 159.6Q586.6 159.9 586.9 160.5Q587.2 161.0 587.2 161.8L587.2 161.8L587.2 166L586.1 166L586.1 161.9Q586.1 161.2 585.7 160.7Q585.3 160.3 584.6 160.3L584.6 160.3Q584.2 160.3 583.8 160.5Q583.4 160.7 583.2 161.1Q583.0 161.5 583.0 162.1Z "/></g></svg>